<svg width="6" height="10" viewBox="0 0 6 10" fill="none" xmlns="http://www.w3.org/2000/svg">
<path d="M5.46683 4.92366L5.46684 4.92366C5.65146 5.10831 5.65145 5.40764 5.46685 5.5923L5.46683 5.59232L1.59243 9.46671L1.59243 9.46672C1.40778 9.65134 1.10845 9.65133 0.92379 9.46673L0.923767 9.4667C0.739148 9.28206 0.739148 8.98271 0.923766 8.79806L0.923774 8.79805L4.46384 5.25799L0.923774 1.71792L0.921939 1.71608L0.921955 1.71607C0.744951 1.53283 0.744961 1.24231 0.921944 1.05907L5.46683 4.92366ZM5.46683 4.92366L1.59243 1.04926L1.59245 1.04924M5.46683 4.92366L1.59245 1.04924M1.59245 1.04924L1.59057 1.04743M1.59245 1.04924L1.59057 1.04743M1.59057 1.04743C1.40272 0.866006 1.10337 0.871213 0.921947 1.05906L1.59057 1.04743Z" fill="#1D1D1D" stroke="#1D1D1D" stroke-width="0.3"/>
</svg>
