<svg width="7" height="5" viewBox="0 0 7 5" fill="none" xmlns="http://www.w3.org/2000/svg">
<path d="M3.7488 4.03747L3.7488 4.03747C3.61406 4.18751 3.38827 4.1875 3.25354 4.03748L3.25353 4.03747L0.944723 1.46596L0.944715 1.46595C0.818424 1.32527 0.818435 1.10323 0.944708 0.962551L0.94473 0.962526C1.07946 0.812491 1.30527 0.812491 1.43999 0.962526L1.44 0.962535L3.50116 3.25822L5.56233 0.962535L5.56406 0.960611L5.56407 0.960626C5.69796 0.816574 5.91722 0.816585 6.05112 0.960615L3.7488 4.03747ZM3.7488 4.03747L6.05761 1.46596L6.05762 1.46598M3.7488 4.03747L6.05762 1.46598M6.05762 1.46598L6.05932 1.46402M6.05762 1.46598L6.05932 1.46402M6.05932 1.46402C6.18303 1.32135 6.18002 1.09928 6.05112 0.960618L6.05932 1.46402Z" fill="#3099F2" stroke="#3099F2" stroke-width="0.3"/>
</svg>
