<svg width="22" height="39" viewBox="0 0 22 39" fill="none" xmlns="http://www.w3.org/2000/svg">
<path d="M3.54441 1.29494L3.54443 1.29493L3.54255 1.29311C2.91542 0.687447 1.91608 0.704832 1.31042 1.33196C0.719552 1.94373 0.719541 2.91357 1.31042 3.52526L1.31041 3.52528L1.31224 3.52711L17.3395 19.5544L1.31224 35.5816L1.31223 35.5816C0.695922 36.198 0.695922 37.1974 1.31223 37.8138L1.31226 37.8138C1.92874 38.4301 2.92799 38.4301 3.5444 37.8138L3.43834 37.7077L3.54441 37.8138L20.6878 20.6705L20.6878 20.6704C21.3041 20.054 21.3041 19.0547 20.6878 18.4383L20.5817 18.5444L20.6878 18.4383L3.54441 1.29494Z" fill="#1D1D1D" stroke="#1D1D1D" stroke-width="0.3"/>
</svg>
