<svg width="13" height="13" viewBox="0 0 13 13" fill="none" xmlns="http://www.w3.org/2000/svg">
<path d="M11.6071 1.39286H10.2143V0.464294C10.2143 0.207867 10.0064 0 9.74999 0C9.49357 0 9.2857 0.207867 9.2857 0.464294V1.39286H3.71427V0.464294C3.71427 0.207867 3.50641 0 3.25001 0C2.99361 0 2.78571 0.207867 2.78571 0.464294V1.39286H1.39286C0.623602 1.39286 0 2.01646 0 2.78571V11.6071C0 12.3764 0.623602 13 1.39286 13H11.6071C12.3764 13 13 12.3764 13 11.6071V2.78571C13 2.01646 12.3764 1.39286 11.6071 1.39286ZM12.0714 11.6071C12.0714 11.8636 11.8635 12.0714 11.6071 12.0714H1.39286C1.13643 12.0714 0.928562 11.8636 0.928562 11.6071V5.57142H12.0714V11.6071ZM12.0714 4.64286H0.928562V2.78571C0.928562 2.52929 1.13643 2.32142 1.39286 2.32142H2.78571V3.24998C2.78571 3.50641 2.99358 3.71427 3.25001 3.71427C3.50643 3.71427 3.7143 3.50641 3.7143 3.24998V2.32142H9.28573V3.24998C9.28573 3.50641 9.49359 3.71427 9.75002 3.71427C10.0064 3.71427 10.2143 3.50641 10.2143 3.24998V2.32142H11.6072C11.8636 2.32142 12.0715 2.52929 12.0715 2.78571V4.64286H12.0714Z" fill="#7891A6"/>
<path d="M9.60248 6.63607C9.42255 6.46229 9.13731 6.46229 8.95741 6.63607L5.57135 10.0221L4.04244 8.49319C3.858 8.31506 3.56408 8.32017 3.38595 8.50459C3.21217 8.68452 3.21217 8.96975 3.38595 9.14968L5.2431 11.0068C5.42442 11.1881 5.71831 11.1881 5.8996 11.0068L9.61388 7.29256C9.79201 7.10812 9.7869 6.81421 9.60248 6.63607Z" fill="#7891A6"/>
</svg>
