<svg width="122" height="106" viewBox="0 0 122 106" fill="none" xmlns="http://www.w3.org/2000/svg">
<g clip-path="url(#clip0)">
<path d="M18.6994 82.8974C19.4074 81.3573 19.9702 79.799 20.3696 78.2044C8.15149 70.8297 0 57.4393 0 42.1463C0 18.8626 18.8991 0 42.228 0C65.5568 0 84.456 18.8626 84.456 42.1463C84.456 65.4301 65.5568 84.2926 42.228 84.2926C39.0509 84.2926 35.9464 83.9303 32.9509 83.2779C27.45 90.1091 18.9173 93.7692 10.2756 93.1532C13.7976 90.5802 16.7387 87.1193 18.6994 82.8974Z" fill="#FED100"/>
<path d="M7.51596 46.2776C7.51596 25.7299 24.2183 9.05981 44.8058 9.05981C56.8424 9.05981 67.5537 14.7494 74.3618 23.5918C67.9168 12.4301 55.8621 4.92853 42.0282 4.92853C21.4407 4.92853 4.73828 21.5986 4.73828 42.1463C4.73828 50.6807 7.62489 58.5627 12.4722 64.8321C9.33144 59.36 7.51596 53.0181 7.51596 46.2776Z" fill="#FFDF5A"/>
<path d="M84.4376 40.8236C84.4376 40.8054 84.4376 40.7692 84.4376 40.7511C83.9292 26.1829 76.0319 13.4991 64.3584 6.34186C68.5521 12.8831 70.9849 20.6564 70.9849 29.0096C70.9849 52.2571 52.1039 71.0834 28.8295 71.0834C20.7507 71.0834 13.1801 68.8003 6.77148 64.8684C10.2209 70.2318 14.8504 74.7617 20.2786 78.0957C20.2605 78.1138 20.2605 78.1319 20.2423 78.1501C20.2786 78.1682 20.3149 78.2044 20.3512 78.2225C19.9518 79.799 19.389 81.3754 18.681 82.9155C16.7203 87.1374 13.7792 90.5983 10.2754 93.1531C18.917 93.7692 27.4498 90.109 32.9506 83.2779C32.9688 83.2779 32.987 83.2779 33.0051 83.296V83.2779C36.0007 83.9483 39.1051 84.3107 42.2822 84.3107C50.4518 84.3107 58.5307 81.9008 65.3751 77.4253C71.4024 73.4752 76.3768 67.9849 79.6992 61.6068C82.3134 56.5877 83.8929 51.0612 84.3286 45.4078C84.4557 43.922 84.492 42.3275 84.4376 40.8236Z" fill="#FCC200"/>
<path d="M103.3 95.6899C102.592 94.1497 102.03 92.5914 101.63 90.9969C113.848 83.6041 122 70.2137 122 54.9388C122 31.655 103.101 12.7925 79.7719 12.7925C56.4431 12.7925 37.5439 31.655 37.5439 54.9388C37.5439 78.2225 56.4431 97.0851 79.7719 97.0851C82.949 97.0851 86.0535 96.7227 89.049 96.0704C94.5499 102.902 103.083 106.562 111.724 105.946C108.202 103.373 105.261 99.9118 103.3 95.6899Z" fill="#FCC200"/>
<path d="M103.3 95.6899C102.592 94.1678 102.029 92.6095 101.63 91.0331C113.848 83.6584 122 70.2861 122 55.0113C122 39.8451 113.957 26.5453 101.902 19.1525C106.096 25.6937 108.529 33.467 108.529 41.8202C108.529 65.0677 89.6479 83.894 66.3735 83.894C58.2946 83.894 50.7241 81.6109 44.3154 77.6789C51.8133 89.348 64.9211 97.0851 79.8443 97.0851C83.0032 97.0851 86.0895 96.7408 89.0488 96.0704C94.5497 102.902 103.082 106.544 111.706 105.927C108.202 103.373 105.261 99.9118 103.3 95.6899Z" fill="#E2A700"/>
<path d="M45.0599 59.0701C45.0599 38.5224 61.7623 21.8523 82.3498 21.8523C94.3864 21.8523 105.098 27.5419 111.906 36.3843C105.461 25.2225 93.4061 17.721 79.5721 17.721C58.9846 17.721 42.2822 34.3911 42.2822 54.9388C42.2822 63.4731 45.1688 71.3552 50.0162 77.6246C46.8754 72.1524 45.0599 65.8287 45.0599 59.0701Z" fill="#FFDF5A"/>
<path d="M64.2312 59.8673C66.417 59.8673 68.1889 58.0988 68.1889 55.9173C68.1889 53.7357 66.417 51.9672 64.2312 51.9672C62.0454 51.9672 60.2734 53.7357 60.2734 55.9173C60.2734 58.0988 62.0454 59.8673 64.2312 59.8673Z" fill="white"/>
<path d="M79.7722 59.8673C81.958 59.8673 83.7299 58.0988 83.7299 55.9173C83.7299 53.7357 81.958 51.9672 79.7722 51.9672C77.5864 51.9672 75.8145 53.7357 75.8145 55.9173C75.8145 58.0988 77.5864 59.8673 79.7722 59.8673Z" fill="white"/>
<path d="M94.9314 59.8673C97.1172 59.8673 98.8892 58.0988 98.8892 55.9173C98.8892 53.7357 97.1172 51.9672 94.9314 51.9672C92.7456 51.9672 90.9736 53.7357 90.9736 55.9173C90.9736 58.0988 92.7456 59.8673 94.9314 59.8673Z" fill="white"/>
</g>
<defs>
<clipPath id="clip0">
<rect width="122" height="106" fill="white"/>
</clipPath>
</defs>
</svg>
