<svg width="18" height="18" viewBox="0 0 18 18" fill="none" xmlns="http://www.w3.org/2000/svg">
<path d="M9 0C4.03911 0 0 4.03785 0 8.99721C0 13.9566 4.03352 18 9 18C13.9665 18 18 13.9621 18 9.00279C18 4.04344 13.9609 0 9 0ZM14.0279 6.63481L8.27933 12.337C7.93855 12.6776 7.40223 12.7 7.03911 12.3593L3.99441 9.58362C3.63128 9.24294 3.60894 8.67887 3.92737 8.32144C4.26816 7.95842 4.8324 7.93608 5.18994 8.27676L7.60335 10.4884L12.7486 5.34471C13.1117 4.98169 13.676 4.98169 14.0335 5.34471C14.3911 5.70773 14.3911 6.2718 14.0279 6.63481Z" fill="#3099F2"/>
</svg>
