<svg width="19" height="21" viewBox="0 0 19 21" fill="none" xmlns="http://www.w3.org/2000/svg">
<path d="M18.0261 4.69389L17.5625 3.304C17.3859 2.77464 16.8923 2.41896 16.3344 2.41896H12.4374V1.1502C12.4374 0.51606 11.9219 0 11.2879 0H7.71921C7.08539 0 6.56965 0.51606 6.56965 1.1502V2.41896H2.67284C2.11481 2.41896 1.62118 2.77464 1.44462 3.304L0.980949 4.69389C0.875366 5.01031 0.928878 5.36071 1.12386 5.63132C1.31885 5.90192 1.63432 6.06358 1.96789 6.06358H2.45254L3.51927 19.2544C3.59858 20.2332 4.42915 21 5.41048 21H13.8131C14.7942 21 15.625 20.2332 15.7041 19.2543L16.7708 6.06358H17.0392C17.3728 6.06358 17.6882 5.90192 17.8832 5.63148C18.0782 5.36087 18.1317 5.01031 18.0261 4.69389ZM7.80012 1.23047H11.207V2.41896H7.80012V1.23047ZM14.4777 19.1551C14.4498 19.4997 14.1579 19.7695 13.8131 19.7695H5.41048C5.06569 19.7695 4.77377 19.4997 4.74589 19.1551L3.68702 6.06358H15.5364L14.4777 19.1551ZM2.23177 4.83311L2.61196 3.69333C2.62061 3.66705 2.64513 3.64943 2.67284 3.64943H16.3344C16.3621 3.64943 16.3865 3.66705 16.3953 3.69333L16.7755 4.83311H2.23177Z" fill="#DC2B2B"/>
<path d="M12.5149 19.1115C12.5258 19.1122 12.5365 19.1123 12.5474 19.1123C12.8725 19.1123 13.1442 18.8576 13.1612 18.5291L13.7389 7.43856C13.7566 7.09922 13.4957 6.80971 13.1565 6.79209C12.8164 6.77398 12.5279 7.03514 12.5101 7.37448L11.9325 18.465C11.9149 18.8044 12.1755 19.0939 12.5149 19.1115Z" fill="#DC2B2B"/>
<path d="M5.87348 18.5306C5.89142 18.8585 6.16283 19.1123 6.48727 19.1123C6.49849 19.1123 6.51002 19.112 6.5214 19.1114C6.86058 19.0929 7.12061 18.8029 7.10218 18.4636L6.49704 7.37305C6.47862 7.03371 6.18863 6.77367 5.84929 6.79226C5.51011 6.81068 5.25007 7.10068 5.2685 7.44002L5.87348 18.5306Z" fill="#DC2B2B"/>
<path d="M9.50977 19.1123C9.84959 19.1123 10.125 18.8369 10.125 18.4971V7.40649C10.125 7.06667 9.84959 6.79126 9.50977 6.79126C9.16994 6.79126 8.89453 7.06667 8.89453 7.40649V18.4971C8.89453 18.8369 9.16994 19.1123 9.50977 19.1123Z" fill="#DC2B2B"/>
</svg>
