<svg width="21" height="22" viewBox="0 0 21 22" fill="none" xmlns="http://www.w3.org/2000/svg">
<path d="M19.8622 13.4372C19.5662 13.4372 19.3263 13.6771 19.3263 13.9732V18.7319C19.3252 19.6196 18.6061 20.339 17.7184 20.3398H2.67981C1.79212 20.339 1.07297 19.6196 1.07193 18.7319V4.76529C1.07297 3.87781 1.79212 3.15845 2.67981 3.15741H7.43857C7.73461 3.15741 7.97454 2.91748 7.97454 2.62144C7.97454 2.32562 7.73461 2.08548 7.43857 2.08548H2.67981C1.20047 2.08715 0.00167488 3.28595 0 4.76529V18.7321C0.00167488 20.2115 1.20047 21.4103 2.67981 21.412H17.7184C19.1977 21.4103 20.3965 20.2115 20.3982 18.7321V13.9732C20.3982 13.6771 20.1583 13.4372 19.8622 13.4372Z" fill="#7891A6"/>
<path d="M19.3346 0.706434C18.3927 -0.235478 16.8656 -0.235478 15.9237 0.706434L6.36179 10.2683C6.29626 10.3339 6.24895 10.4151 6.22424 10.5043L4.96682 15.0439C4.91511 15.23 4.96766 15.4293 5.10416 15.566C5.24088 15.7025 5.44019 15.755 5.62631 15.7035L10.1659 14.4459C10.2551 14.4212 10.3363 14.3739 10.4018 14.3084L19.9635 4.74625C20.904 3.80371 20.904 2.27789 19.9635 1.33535L19.3346 0.706434ZM7.5296 10.6167L15.3553 2.79083L17.8791 5.31467L10.0532 13.1406L7.5296 10.6167ZM7.02546 11.6283L9.04181 13.6449L6.25271 14.4177L7.02546 11.6283ZM19.2056 3.98837L18.6372 4.55678L16.1132 2.03273L16.6818 1.46432C17.205 0.941127 18.0533 0.941127 18.5765 1.46432L19.2056 2.09324C19.728 2.61706 19.728 3.46476 19.2056 3.98837Z" fill="#7891A6"/>
</svg>
