<svg width="11" height="22" viewBox="0 0 11 22" fill="none" xmlns="http://www.w3.org/2000/svg">
<path d="M2.18303 4.19142C2.18303 4.73681 2.18303 7.17113 2.18303 7.17113H0V10.8147H2.18303V21.6423H6.66744V10.815H9.67669C9.67669 10.815 9.95852 9.06796 10.0951 7.1577C9.70346 7.1577 6.6844 7.1577 6.6844 7.1577C6.6844 7.1577 6.6844 5.03796 6.6844 4.66642C6.6844 4.29406 7.17334 3.7932 7.65659 3.7932C8.13893 3.7932 9.15696 3.7932 10.0999 3.7932C10.0999 3.29712 10.0999 1.58305 10.0999 1.30155e-08C8.84111 1.30155e-08 7.40907 1.30155e-08 6.77784 1.30155e-08C2.07218 -0.000251576 2.18303 3.64698 2.18303 4.19142Z" fill="#4267B2"/>
</svg>
