<svg width="21" height="22" viewBox="0 0 21 22" fill="none" xmlns="http://www.w3.org/2000/svg">
<g clip-path="url(#clip0)">
<path d="M7.53837 4.73033C7.53837 5.24721 7.53837 7.55425 7.53837 7.55425H5.46948V11.0074H7.53837V21.2688H11.7883V11.0076H14.6402C14.6402 11.0076 14.9073 9.3519 15.0368 7.54152C14.6656 7.54152 11.8044 7.54152 11.8044 7.54152C11.8044 7.54152 11.8044 5.53261 11.8044 5.18049C11.8044 4.82761 12.2678 4.35293 12.7257 4.35293C13.1829 4.35293 14.1477 4.35293 15.0413 4.35293C15.0413 3.88279 15.0413 2.25833 15.0413 0.758057C13.8483 0.758057 12.4912 0.758057 11.8929 0.758057C7.43332 0.757818 7.53837 4.21436 7.53837 4.73033Z" fill="white"/>
</g>
<defs>
<clipPath id="clip0">
<rect width="20.5108" height="20.5108" fill="white" transform="translate(0 0.758057)"/>
</clipPath>
</defs>
</svg>
