<svg width="22" height="22" viewBox="0 0 22 22" fill="none" xmlns="http://www.w3.org/2000/svg">
<path d="M11 0C4.95433 0 0 4.9973 0 11.043C0 17.0536 4.90918 22 11 22C17.0833 22 22 17.0609 22 11.043C22 4.9973 17.0457 0 11 0ZM12.9336 20.5176C12.3149 20.6465 11.6575 20.7109 11 20.7109C10.3425 20.7109 9.68509 20.6465 9.06641 20.5176V17.5012C9.06641 16.7793 9.25977 16.5215 9.51758 16.1734C9.64883 16.0233 9.72806 15.8887 10.3167 15.0005L9.32422 14.8457C6.77177 14.4719 5.76637 13.1441 5.36673 12.1128C4.8511 10.7336 5.12184 9.00615 6.05003 7.91061C6.19186 7.74294 6.30785 7.45927 6.20479 7.16286C6.01126 6.56985 6.03711 5.62891 6.16602 5.26787C6.84949 5.36555 7.55226 5.85516 8.13838 6.20898C8.40845 6.36659 8.55011 6.32497 8.67969 6.33789C9.15067 6.23987 9.88533 6.0027 11.0129 6.0027C11.709 6.0027 12.4438 6.10576 13.1657 6.31204C13.2948 6.30902 13.5023 6.41879 13.8618 6.20898C14.4744 5.83569 15.1534 5.36287 15.834 5.26787C15.9629 5.62891 15.9887 6.56985 15.7954 7.16286C15.6922 7.45927 15.8081 7.74294 15.9501 7.91061C16.8782 9.00632 17.1489 10.7336 16.6333 12.1128C16.2336 13.1441 15.2282 14.4719 12.6758 14.8457L11.6833 15.0005C12.2917 15.9186 12.3559 16.0287 12.4826 16.1734C12.7402 16.5215 12.9336 16.7793 12.9336 17.5012V20.5176ZM14.2227 20.1438V17.5012C14.2227 16.7664 14.0679 16.2766 13.8616 15.9156C15.8211 15.3872 17.2133 14.2269 17.832 12.564C18.4895 10.811 18.1931 8.72266 17.0972 7.27884C17.2907 6.41527 17.2907 5.0359 16.8266 4.39137C16.6203 4.10788 16.3367 3.95312 15.9758 3.95312C15.9629 3.95312 15.9629 3.95312 15.9629 3.95312C14.9634 4.00717 14.1767 4.51054 13.3332 5.02298C12.5598 4.8167 11.7734 4.71364 10.9871 4.71364C10.188 4.71364 9.38867 4.82962 8.67986 5.02298C7.79195 4.48755 7.0128 4.00583 5.98558 3.95312C5.66331 3.95312 5.37965 4.10788 5.17337 4.39137C4.70944 5.0359 4.70944 6.41527 4.9028 7.27884C3.80693 8.72266 3.51051 10.8238 4.16797 12.564C4.78665 14.2269 6.17894 15.3872 8.13838 15.9156C7.97842 16.1954 7.85187 16.5564 7.80202 17.045C7.40623 17.1815 7.06299 17.2259 6.74374 17.1321C6.40704 17.0326 6.1447 16.8078 5.91676 16.4245C5.40483 15.5644 4.53287 14.8623 3.54005 14.9536L3.65335 16.2377C4.11308 16.1955 4.57063 16.6819 4.8083 17.0829C5.20039 17.7432 5.72861 18.1763 6.37868 18.3683C6.86124 18.5105 7.30234 18.5071 7.77734 18.4057V20.1438C4.02614 18.8289 1.28906 15.2453 1.28906 11.043C1.28906 5.70628 5.66331 1.28906 11 1.28906C16.3367 1.28906 20.7109 5.70628 20.7109 11.043C20.7109 15.2453 17.9739 18.8289 14.2227 20.1438Z" fill="white"/>
</svg>
