<svg width="22" height="22" viewBox="0 0 22 22" fill="none" xmlns="http://www.w3.org/2000/svg">
<path fill-rule="evenodd" clip-rule="evenodd" d="M3.66666 4.58333C3.16458 4.58333 2.74999 4.99793 2.74999 5.5V16.5C2.74999 17.0021 3.16458 17.4167 3.66666 17.4167H18.3333C18.8354 17.4167 19.25 17.0021 19.25 16.5V5.5C19.25 4.99793 18.8354 4.58333 18.3333 4.58333H3.66666ZM0.916656 5.5C0.916656 3.98541 2.15206 2.75 3.66666 2.75H18.3333C19.8479 2.75 21.0833 3.98541 21.0833 5.5V16.5C21.0833 18.0146 19.8479 19.25 18.3333 19.25H3.66666C2.15206 19.25 0.916656 18.0146 0.916656 16.5V5.5Z" fill="#3099F2"/>
<path fill-rule="evenodd" clip-rule="evenodd" d="M1.08238 4.97432C1.3727 4.55958 1.94427 4.45871 2.35901 4.74903L11 10.7977L19.641 4.74903C20.0557 4.45871 20.6273 4.55958 20.9176 4.97432C21.208 5.38907 21.1071 5.96064 20.6923 6.25096L11.5257 12.6676C11.2101 12.8886 10.79 12.8886 10.4743 12.6676L1.30767 6.25096C0.892922 5.96064 0.792057 5.38907 1.08238 4.97432Z" fill="#3099F2"/>
</svg>
