<svg width="18" height="22" viewBox="0 0 18 22" fill="none" xmlns="http://www.w3.org/2000/svg">
<path d="M2.36131 4.47738C3.88815 2.26762 6.30795 1 8.99979 1C11.6916 1 14.1114 2.26762 15.6383 4.47738C17.1576 6.67598 17.5084 9.45945 16.5786 11.9186C16.3299 12.5902 15.9345 13.2427 15.4063 13.8541L9.53217 20.7538C9.39932 20.91 9.20467 21 8.99979 21C8.79491 21 8.60026 20.91 8.46741 20.7538L2.59491 13.8559C2.06436 13.241 1.66952 12.5893 1.42287 11.9231C0.491156 9.45945 0.841976 6.67598 2.36131 4.47738ZM2.73241 11.4333C2.9226 11.9473 3.23311 12.4555 3.65479 12.9443C3.65596 12.9454 3.65713 12.9466 3.65807 12.948L8.99979 19.2221L14.3448 12.9441C14.7662 12.4557 15.0767 11.9476 15.2688 11.4287C16.0378 9.39488 15.746 7.09348 14.4879 5.27273C13.2259 3.44617 11.2255 2.39859 8.99979 2.39859C6.77416 2.39859 4.77393 3.44613 3.5119 5.27273C2.25362 7.09348 1.96155 9.39488 2.73241 11.4333Z" fill="#3099F2" stroke="#3099F2" stroke-width="0.5"/>
<path d="M8.99977 5.14917C11.159 5.14917 12.9159 6.90581 12.9159 9.06526C12.9159 11.2247 11.1592 12.9814 8.99977 12.9814C6.84032 12.9814 5.08368 11.2247 5.08368 9.06526C5.08368 6.90604 6.84055 5.14917 8.99977 5.14917ZM8.99977 11.5827C10.3879 11.5827 11.5173 10.4533 11.5173 9.06522C11.5173 7.6771 10.3879 6.54772 8.99977 6.54772C7.61164 6.54772 6.48227 7.6771 6.48227 9.06522C6.48227 10.4533 7.61164 11.5827 8.99977 11.5827Z" fill="#3099F2" stroke="#3099F2" stroke-width="0.5"/>
</svg>
