<svg width="18" height="22" viewBox="0 0 18 22" fill="none" xmlns="http://www.w3.org/2000/svg">
<path d="M9.23646 0C3.20563 0.00091668 0 3.86472 0 8.07778C0 10.0312 1.09177 12.4687 2.83987 13.2414C3.33855 13.466 3.27255 13.1919 3.70155 11.5511C3.73547 11.4145 3.71805 11.2962 3.60805 11.1688C1.10918 8.27853 3.12038 2.33662 8.87988 2.33662C17.2152 2.33662 15.6578 13.8703 10.3301 13.8703C8.95688 13.8703 7.93386 12.7923 8.25745 11.4585C8.64979 9.86989 9.41797 8.16212 9.41797 7.01718C9.41797 4.13148 5.11874 4.55957 5.11874 8.38304C5.11874 9.56464 5.53675 10.3621 5.53675 10.3621C5.53675 10.3621 4.15348 15.9502 3.89681 16.9943C3.4623 18.7617 3.95547 21.6226 3.99856 21.8692C4.02514 22.0049 4.17731 22.048 4.26256 21.9361C4.39915 21.7574 6.07117 19.3722 6.53959 17.6479C6.71009 17.02 7.40952 14.4716 7.40952 14.4716C7.87061 15.304 9.1998 16.0006 10.6161 16.0006C14.8291 16.0006 17.8743 12.2973 17.8743 7.70194C17.8597 3.29638 14.0894 0 9.23646 0V0Z" fill="white"/>
</svg>
