<svg width="23" height="23" viewBox="0 0 23 23" fill="none" xmlns="http://www.w3.org/2000/svg">
<g clip-path="url(#clip0)">
<path d="M22.2688 4.40238C21.4492 4.76556 20.5698 5.01186 19.6458 5.12182C20.5893 4.55684 21.3115 3.6607 21.6538 2.59617C20.7688 3.11937 19.7919 3.49929 18.751 3.70524C17.9175 2.81605 16.7319 2.26221 15.4168 2.26221C12.894 2.26221 10.8484 4.30777 10.8484 6.82924C10.8484 7.18685 10.8888 7.53613 10.9667 7.87012C7.17062 7.67946 3.8045 5.86073 1.5516 3.09711C1.15778 3.77063 0.93375 4.55542 0.93375 5.39316C0.93375 6.97814 1.74085 8.37663 2.96542 9.19483C2.21675 9.16979 1.51263 8.96384 0.896199 8.62152V8.67857C0.896199 10.8911 2.47143 12.7377 4.56011 13.1579C4.17743 13.2609 3.7739 13.318 3.35643 13.318C3.06144 13.318 2.77617 13.2888 2.49646 13.2331C3.07811 15.049 4.76468 16.3696 6.76294 16.4058C5.20023 17.6304 3.2298 18.3581 1.08963 18.3581C0.720887 18.3581 0.357672 18.3359 6.10352e-05 18.2955C2.02197 19.5938 4.42239 20.3508 7.00229 20.3508C15.4058 20.3508 19.9993 13.3904 19.9993 7.35387L19.984 6.76247C20.8815 6.12231 21.6579 5.31802 22.2688 4.40238Z" fill="white"/>
</g>
<defs>
<clipPath id="clip0">
<rect width="22.2688" height="22.2688" fill="white" transform="translate(0 0.172119)"/>
</clipPath>
</defs>
</svg>
