<svg width="47" height="47" viewBox="0 0 47 47" fill="none" xmlns="http://www.w3.org/2000/svg">
<path d="M10.4162 28.4027L8.7802 34.5101L2.80063 34.6366C1.01362 31.3221 0 27.5299 0 23.5C0 19.6031 0.947712 15.9283 2.6276 12.6925H2.62888L7.95237 13.6685L10.2844 18.9601C9.7963 20.383 9.53027 21.9105 9.53027 23.5C9.53045 25.225 9.84293 26.8778 10.4162 28.4027Z" fill="#FBBB00"/>
<path d="M46.5884 19.1099C46.8583 20.5315 46.999 21.9996 46.999 23.5C46.999 25.1824 46.8221 26.8236 46.4851 28.4066C45.3412 33.7936 42.352 38.4974 38.2111 41.8262L38.2098 41.8249L31.5046 41.4827L30.5556 35.5586C33.3033 33.9472 35.4506 31.4255 36.5817 28.4066H24.0156V19.1099H36.765H46.5884Z" fill="#518EF8"/>
<path d="M38.2129 41.8248L38.2141 41.8261C34.1869 45.0631 29.0711 47 23.5021 47C14.5527 47 6.77194 41.9978 2.80273 34.6366L10.4183 28.4027C12.4029 33.6992 17.5122 37.4696 23.5021 37.4696C26.0768 37.4696 28.4888 36.7736 30.5586 35.5586L38.2129 41.8248Z" fill="#28B446"/>
<path d="M38.4994 5.41015L30.8864 11.6428C28.7443 10.3038 26.2122 9.53036 23.4994 9.53036C17.3739 9.53036 12.169 13.4737 10.2838 18.9601L2.62824 12.6926H2.62695C6.53806 5.15192 14.417 0 23.4994 0C29.2014 0 34.4295 2.0311 38.4994 5.41015Z" fill="#F14336"/>
</svg>
