<svg width="23" height="23" viewBox="0 0 23 23" fill="none" xmlns="http://www.w3.org/2000/svg">
<path d="M5.09729 13.8991L4.29669 16.8879L1.37052 16.9498C0.496028 15.3278 0 13.472 0 11.4999C0 9.59295 0.463774 7.79463 1.28585 6.21118H1.28647L3.89159 6.68879L5.03278 9.27827C4.79393 9.97461 4.66375 10.7221 4.66375 11.4999C4.66384 12.3441 4.81675 13.1529 5.09729 13.8991Z" fill="#FBBB00"/>
<path d="M22.7992 9.35168C22.9313 10.0473 23.0001 10.7658 23.0001 11.5C23.0001 12.3234 22.9136 13.1265 22.7487 13.9012C22.1888 16.5373 20.726 18.8392 18.6997 20.4682L18.699 20.4675L15.4178 20.3001L14.9533 17.4011C16.298 16.6125 17.3488 15.3785 17.9023 13.9012H11.7529V9.35168H17.992H22.7992Z" fill="#518EF8"/>
<path d="M18.6987 20.4674L18.6994 20.4681C16.7286 22.0521 14.2251 22.9999 11.4999 22.9999C7.12037 22.9999 3.31274 20.5521 1.37036 16.9498L5.09713 13.8992C6.0683 16.4911 8.56861 18.3362 11.4999 18.3362C12.7598 18.3362 13.9401 17.9956 14.953 17.401L18.6987 20.4674Z" fill="#28B446"/>
<path d="M18.8405 2.64752L15.115 5.69754C14.0667 5.04231 12.8276 4.66379 11.5001 4.66379C8.50246 4.66379 5.95539 6.59351 5.03287 9.27835L1.28652 6.21127H1.28589C3.19983 2.52115 7.05548 0 11.5001 0C14.2904 0 16.8488 0.993943 18.8405 2.64752Z" fill="#F14336"/>
</svg>
