<svg width="13" height="13" viewBox="0 0 13 13" fill="none" xmlns="http://www.w3.org/2000/svg">
<path d="M11.8232 6.1098L10.7447 5.03105C10.5304 4.81696 10.1834 4.81696 9.96907 5.03105C9.75477 5.24533 9.75477 5.59274 9.96907 5.80684L11.0476 6.88559C12.1871 8.02521 12.186 9.89289 11.0476 11.0466C9.90835 12.1859 8.04066 12.185 6.8866 11.0466L5.80784 9.96805C5.59375 9.75378 5.24636 9.75378 5.03206 9.96805C4.81776 10.1824 4.81776 10.5295 5.03206 10.7437L6.11335 11.8249C6.90449 12.6055 7.93971 12.996 8.97274 12.996C10.008 12.996 11.0414 12.6038 11.8259 11.8196C13.3889 10.2354 13.3878 7.67416 11.8232 6.1098Z" fill="#7891A6"/>
<path d="M7.96501 2.25238L6.88372 1.17089C5.29982 -0.391815 2.73845 -0.390546 1.17135 1.1762C-0.39154 2.76031 -0.390271 5.32147 1.17409 6.88583L2.25284 7.96458C2.35981 8.07173 2.50021 8.12529 2.64064 8.12529C2.78086 8.12529 2.92129 8.07173 3.02844 7.9644C3.24271 7.75031 3.24271 7.40292 3.02844 7.1888L1.94969 6.11005C0.810249 4.97061 0.811341 3.10293 1.94969 1.94921C3.08931 0.809948 4.957 0.811065 6.11071 1.94921L7.18945 3.02796C7.40375 3.24226 7.75076 3.24226 7.96506 3.02796C8.17931 2.81387 8.17931 2.46648 7.96501 2.25238Z" fill="#7891A6"/>
<path d="M8.27654 7.50042L5.49682 4.72069C5.28267 4.50635 4.93521 4.50635 4.72104 4.72069C4.50672 4.93484 4.50672 5.2823 4.72104 5.49647L7.50077 8.27619C7.60794 8.38336 7.7482 8.43694 7.88865 8.43694C8.02911 8.43694 8.16937 8.38336 8.27654 8.27619C8.49086 8.06202 8.49086 7.71456 8.27654 7.50042Z" fill="#7891A6"/>
</svg>
