<svg width="20" height="17" viewBox="0 0 20 17" fill="none" xmlns="http://www.w3.org/2000/svg">
<path d="M7.78288 8.00999C7.11532 8.27289 6.5163 8.70102 6.04424 9.26748C5.58973 9.81287 5.27885 10.4606 5.13374 11.148H3.66072C3.36677 10.3901 3.21763 9.59037 3.21763 8.76471C3.21763 5.12228 6.18109 2.15882 9.82352 2.15882H10.1765C13.8189 2.15882 16.7824 5.12228 16.7824 8.76471C16.7824 9.59037 16.6332 10.3901 16.3393 11.148H14.8635C14.7153 10.4565 14.3992 9.8062 13.9378 9.25965L7.78288 8.00999ZM7.78288 8.00999C7.28677 7.47607 6.98233 6.76118 6.98233 5.97616C6.98233 4.32655 8.3242 2.98468 9.9738 2.98468C11.6234 2.98468 12.9652 4.32655 12.9652 5.97616C12.9652 6.75548 12.6653 7.46581 12.1756 7.99847C12.8466 8.2571 13.4501 8.68203 13.9262 9.24595L13.9264 9.24609L13.9376 9.2595L7.78288 8.00999ZM0.999985 11.148H2.32644C2.08239 10.3817 1.95881 9.58342 1.95881 8.76471C1.95881 6.66413 2.77702 4.68883 4.26235 3.20354C5.74768 1.71824 7.72294 0.9 9.82352 0.9H10.1765C12.277 0.9 14.2523 1.71821 15.7376 3.20354C17.2229 4.68887 18.0412 6.66413 18.0412 8.76471C18.0412 9.58342 17.9176 10.3817 17.6735 11.148H19H19.1V11.248V16.5421V16.6421H19H0.999985H0.899984V16.5421V11.248V11.148H0.999985ZM7.0113 10.0734C6.74682 10.3907 6.55106 10.7572 6.43236 11.148H13.5636C13.4426 10.7561 13.2438 10.3891 12.9757 10.0716L12.9757 10.0716L12.9642 10.058C12.9642 10.058 12.9642 10.058 12.9642 10.058C12.379 9.365 11.5233 8.96763 10.6163 8.96763H9.37214H9.35722C8.44796 8.97199 7.59375 9.37439 7.01131 10.0734L7.0113 10.0734ZM9.97377 7.70877C10.929 7.70877 11.7064 6.93144 11.7064 5.97616C11.7064 5.02084 10.929 4.24351 9.97377 4.24351C9.01845 4.24351 8.24112 5.02084 8.24112 5.97616C8.24112 6.93143 9.01845 7.70877 9.97377 7.70877ZM2.15881 15.3833H17.8412V12.4068H2.15881V15.3833Z" fill="#3099F2" stroke="#3099F2" stroke-width="0.2"/>
<path d="M10.5294 13.2657H10.6294V13.3657V14.4245V14.5245H10.5294H9.47059H9.37059V14.4245V13.3657V13.2657H9.47059H10.5294Z" fill="#3099F2" stroke="#3099F2" stroke-width="0.2"/>
<path d="M13.1765 13.2657H13.2765V13.3657V14.4245V14.5245H13.1765H12.1177H12.0177V14.4245V13.3657V13.2657H12.1177H13.1765Z" fill="#3099F2" stroke="#3099F2" stroke-width="0.2"/>
<path d="M15.8235 13.2657H15.9235V13.3657V14.4245V14.5245H15.8235H14.7647H14.6647V14.4245V13.3657V13.2657H14.7647H15.8235Z" fill="#3099F2" stroke="#3099F2" stroke-width="0.2"/>
<path d="M7.88239 13.2657H7.98239V13.3657V14.4245V14.5245H7.88239H6.82356H6.72356V14.4245V13.3657V13.2657H6.82356H7.88239Z" fill="#3099F2" stroke="#3099F2" stroke-width="0.2"/>
<path d="M5.23529 13.2657H5.33529V13.3657V14.4245V14.5245H5.23529H4.17646H4.07646V14.4245V13.3657V13.2657H4.17646H5.23529Z" fill="#3099F2" stroke="#3099F2" stroke-width="0.2"/>
</svg>
