<svg width="15" height="12" viewBox="0 0 15 12" fill="none" xmlns="http://www.w3.org/2000/svg">
<path d="M13.6816 0H4.83398C4.10684 0 3.51562 0.591504 3.51562 1.31836C3.51562 2.04551 4.10684 2.63672 4.83398 2.63672H13.6816C14.4085 2.63672 15 2.04551 15 1.31836C15 0.591504 14.4085 0 13.6816 0Z" fill="white"/>
<path d="M13.6816 4.39453H4.83398C4.10684 4.39453 3.51562 4.98604 3.51562 5.71289C3.51562 6.44004 4.10684 7.03125 4.83398 7.03125H13.6816C14.4085 7.03125 15 6.44004 15 5.71289C15 4.98604 14.4085 4.39453 13.6816 4.39453Z" fill="white"/>
<path d="M13.6816 8.78906H4.83398C4.10684 8.78906 3.51562 9.38057 3.51562 10.1074C3.51562 10.8346 4.10684 11.4258 4.83398 11.4258H13.6816C14.4085 11.4258 15 10.8346 15 10.1074C15 9.38057 14.4085 8.78906 13.6816 8.78906Z" fill="white"/>
<path d="M1.31836 0C0.591211 0 0 0.591504 0 1.31836C0 2.04551 0.591211 2.63672 1.31836 2.63672C2.04521 2.63672 2.63672 2.04551 2.63672 1.31836C2.63672 0.591504 2.04521 0 1.31836 0Z" fill="white"/>
<path d="M1.31836 4.39453C0.591211 4.39453 0 4.98604 0 5.71289C0 6.44004 0.591211 7.03125 1.31836 7.03125C2.04521 7.03125 2.63672 6.44004 2.63672 5.71289C2.63672 4.98604 2.04521 4.39453 1.31836 4.39453Z" fill="white"/>
<path d="M1.31836 8.78906C0.591211 8.78906 0 9.38057 0 10.1074C0 10.8346 0.591211 11.4258 1.31836 11.4258C2.04521 11.4258 2.63672 10.8346 2.63672 10.1074C2.63672 9.38057 2.04521 8.78906 1.31836 8.78906Z" fill="white"/>
</svg>
