<svg width="11" height="12" viewBox="0 0 11 12" fill="none" xmlns="http://www.w3.org/2000/svg">
<mask id="path-1-outside-1" maskUnits="userSpaceOnUse" x="-6.10352e-05" y="0" width="11" height="12" fill="black">
<rect fill="white" x="-6.10352e-05" width="11" height="12"/>
<path d="M10.5199 5.40759C10.4875 5.20444 10.2965 5.06605 10.0933 5.09846C9.8902 5.13087 9.7518 5.32184 9.78421 5.52499C9.78456 5.52722 9.78493 5.52942 9.78533 5.53163C10.1646 7.76458 8.66198 9.88223 6.42903 10.2616C4.19607 10.6409 2.07841 9.13821 1.69909 6.90526C1.31977 4.6723 2.82246 2.55465 5.05539 2.17533C6.42861 1.94206 7.82636 2.42174 8.76696 3.44907L7.11687 3.99884C6.92167 4.0638 6.8161 4.27467 6.88103 4.46988C6.88105 4.46992 6.88107 4.46998 6.88109 4.47003C6.94604 4.66523 7.15692 4.7708 7.35212 4.70587C7.35219 4.70585 7.35223 4.70583 7.35228 4.70583L9.58718 3.96087C9.73934 3.91019 9.84199 3.76778 9.84196 3.60739V1.37249C9.84196 1.16677 9.6752 1 9.46947 1C9.26375 1 9.09698 1.16677 9.09698 1.37249V2.73316C7.17872 0.908662 4.1446 0.984679 2.32011 2.90294C0.495606 4.82119 0.571602 7.85531 2.48988 9.67983C4.40817 11.5043 7.44226 11.4283 9.26678 9.51005C10.3072 8.41617 10.7715 6.89611 10.5199 5.40759Z"/>
</mask>
<path d="M10.5199 5.40759C10.4875 5.20444 10.2965 5.06605 10.0933 5.09846C9.8902 5.13087 9.7518 5.32184 9.78421 5.52499C9.78456 5.52722 9.78493 5.52942 9.78533 5.53163C10.1646 7.76458 8.66198 9.88223 6.42903 10.2616C4.19607 10.6409 2.07841 9.13821 1.69909 6.90526C1.31977 4.6723 2.82246 2.55465 5.05539 2.17533C6.42861 1.94206 7.82636 2.42174 8.76696 3.44907L7.11687 3.99884C6.92167 4.0638 6.8161 4.27467 6.88103 4.46988C6.88105 4.46992 6.88107 4.46998 6.88109 4.47003C6.94604 4.66523 7.15692 4.7708 7.35212 4.70587C7.35219 4.70585 7.35223 4.70583 7.35228 4.70583L9.58718 3.96087C9.73934 3.91019 9.84199 3.76778 9.84196 3.60739V1.37249C9.84196 1.16677 9.6752 1 9.46947 1C9.26375 1 9.09698 1.16677 9.09698 1.37249V2.73316C7.17872 0.908662 4.1446 0.984679 2.32011 2.90294C0.495606 4.82119 0.571602 7.85531 2.48988 9.67983C4.40817 11.5043 7.44226 11.4283 9.26678 9.51005C10.3072 8.41617 10.7715 6.89611 10.5199 5.40759Z" fill="#7891A6"/>
<path d="M10.5199 5.40759L10.2236 5.45486L10.2241 5.45759L10.5199 5.40759ZM9.78421 5.52499L10.0806 5.4785L10.0805 5.47773L9.78421 5.52499ZM9.78533 5.53163L10.0811 5.48138L10.0807 5.47899L9.78533 5.53163ZM5.05539 2.17533L5.00515 1.87957L5.00515 1.87957L5.05539 2.17533ZM8.76696 3.44907L8.86179 3.73369L9.30048 3.58752L8.98823 3.24648L8.76696 3.44907ZM7.11687 3.99884L7.21159 4.2835L7.2117 4.28346L7.11687 3.99884ZM6.88103 4.46988L6.59636 4.56456L6.60312 4.58488L6.6127 4.60404L6.88103 4.46988ZM6.88109 4.47003L7.16575 4.37531L7.15899 4.35501L7.14942 4.33586L6.88109 4.47003ZM7.35212 4.70587L7.44681 4.99054L7.44699 4.99048L7.35212 4.70587ZM7.35228 4.70583V5.00583H7.40096L7.44714 4.99043L7.35228 4.70583ZM9.58718 3.96087L9.49238 3.67624L9.49231 3.67626L9.58718 3.96087ZM9.84196 3.60739H9.54196V3.60743L9.84196 3.60739ZM9.84196 1.37249H10.142H9.84196ZM9.09698 2.73316L8.89023 2.95054L9.39698 3.43252V2.73316H9.09698ZM9.26678 9.51005L9.48416 9.7168L9.48416 9.7168L9.26678 9.51005ZM10.8161 5.36033C10.7576 4.99353 10.4128 4.7437 10.0461 4.80221L10.1406 5.39472C10.1802 5.3884 10.2173 5.41536 10.2236 5.45486L10.8161 5.36033ZM10.0461 4.80221C9.67929 4.86073 9.42945 5.20552 9.48796 5.57226L10.0805 5.47773C10.0742 5.43816 10.1011 5.40102 10.1406 5.39472L10.0461 4.80221ZM9.48784 5.57148C9.48853 5.57589 9.48925 5.58015 9.48998 5.58426L10.0807 5.47899C10.0806 5.47869 10.0806 5.47854 10.0806 5.4785L9.48784 5.57148ZM9.48956 5.58187C9.84114 7.65148 8.4484 9.61422 6.37878 9.96579L6.47927 10.5573C8.87557 10.1502 10.4882 7.87769 10.0811 5.48138L9.48956 5.58187ZM6.37878 9.96579C4.30917 10.3174 2.34643 8.92463 1.99485 6.85502L1.40333 6.9555C1.8104 9.3518 4.08297 10.9644 6.47927 10.5573L6.37878 9.96579ZM1.99485 6.85502C1.64328 4.78541 3.03604 2.82267 5.10564 2.47109L5.00515 1.87957C2.60887 2.28664 0.996258 4.5592 1.40333 6.9555L1.99485 6.85502ZM5.10563 2.47109C6.3784 2.25489 7.6739 2.69947 8.5457 3.65165L8.98823 3.24648C7.97882 2.144 6.47882 1.62924 5.00515 1.87957L5.10563 2.47109ZM8.67213 3.16445L7.02204 3.71423L7.2117 4.28346L8.86179 3.73369L8.67213 3.16445ZM7.02215 3.71419C6.66972 3.83145 6.47915 4.21218 6.59636 4.56456L7.16569 4.37519C7.15304 4.33716 7.17361 4.29614 7.21159 4.2835L7.02215 3.71419ZM6.6127 4.60404C6.60849 4.59562 6.6056 4.58883 6.60438 4.58593C6.60313 4.58294 6.6021 4.58032 6.60231 4.58085C6.60231 4.58085 6.60231 4.58085 6.60231 4.58086C6.60231 4.58086 6.60232 4.58087 6.60232 4.58087C6.60232 4.58089 6.60233 4.58091 6.60234 4.58093C6.60236 4.58098 6.6024 4.58107 6.60244 4.58117C6.60252 4.58137 6.60265 4.5817 6.60281 4.58211C6.60313 4.5829 6.60369 4.58428 6.60442 4.58601C6.60564 4.58894 6.60855 4.59576 6.61276 4.60419L7.14942 4.33586C7.15363 4.34428 7.15652 4.35107 7.15774 4.35398C7.15899 4.35696 7.16002 4.35958 7.15981 4.35905C7.15981 4.35905 7.15981 4.35905 7.15981 4.35905C7.15981 4.35904 7.1598 4.35904 7.1598 4.35903C7.1598 4.35902 7.15979 4.359 7.15978 4.35897C7.15976 4.35892 7.15972 4.35884 7.15968 4.35873C7.1596 4.35854 7.15947 4.3582 7.1593 4.35779C7.15899 4.35701 7.15842 4.35562 7.1577 4.3539C7.15647 4.35097 7.15357 4.34415 7.14935 4.33571L6.6127 4.60404ZM6.59644 4.56474C6.7137 4.91717 7.09443 5.10775 7.44681 4.99054L7.25744 4.42121C7.21941 4.43385 7.17838 4.41329 7.16575 4.37531L6.59644 4.56474ZM7.44699 4.99048C7.45154 4.98896 7.45515 4.98763 7.45536 4.98755C7.45704 4.98693 7.45229 4.9887 7.44723 4.99039C7.43784 4.99353 7.40116 5.00583 7.35228 5.00583V4.40583C7.30335 4.40583 7.26662 4.41813 7.25718 4.42129C7.2521 4.42298 7.24732 4.42477 7.24898 4.42416C7.24916 4.42409 7.25274 4.42277 7.25726 4.42127L7.44699 4.99048ZM7.44714 4.99043L9.68204 4.24547L9.49231 3.67626L7.25741 4.42122L7.44714 4.99043ZM9.68197 4.2455C9.95671 4.154 10.142 3.89689 10.142 3.60735L9.54196 3.60743C9.54197 3.63867 9.52197 3.66638 9.49238 3.67624L9.68197 4.2455ZM10.142 3.60739V1.37249H9.54196V3.60739H10.142ZM10.142 1.37249C10.142 1.00108 9.84088 0.7 9.46947 0.7V1.3C9.50951 1.3 9.54196 1.33245 9.54196 1.37249H10.142ZM9.46947 0.7C9.09806 0.7 8.79698 1.00108 8.79698 1.37249H9.39698C9.39698 1.33245 9.42943 1.3 9.46947 1.3V0.7ZM8.79698 1.37249V2.73316H9.39698V1.37249H8.79698ZM9.30373 2.51578C7.26542 0.577097 4.04141 0.657872 2.10273 2.69618L2.53748 3.10969C4.2478 1.31149 7.09202 1.24023 8.89023 2.95054L9.30373 2.51578ZM2.10273 2.69618C0.164042 4.7345 0.244794 7.9585 2.28313 9.89721L2.69664 9.46245C0.89841 7.75212 0.827171 4.90789 2.53748 3.10969L2.10273 2.69618ZM2.28313 9.89721C4.32147 11.8359 7.54545 11.7551 9.48416 9.7168L9.0494 9.3033C7.33907 11.1015 4.49486 11.1728 2.69664 9.46245L2.28313 9.89721ZM9.48416 9.7168C10.5897 8.55446 11.083 6.93927 10.8157 5.35759L10.2241 5.45759C10.4599 6.85295 10.0247 8.27788 9.0494 9.3033L9.48416 9.7168Z" fill="#7891A6" mask="url(#path-1-outside-1)"/>
</svg>
