<svg width="20" height="19" viewBox="0 0 20 19" fill="none" xmlns="http://www.w3.org/2000/svg">
<path d="M18.4474 7.42496H15.4111V1.61115C15.4111 0.722763 14.6884 0 13.8 0H1.61115C0.722763 0 0 0.722763 0 1.61115V10.5C0 11.3884 0.722763 12.1111 1.61115 12.1111H2.79561L3.65529 15.5492C3.70925 15.7658 3.88058 15.9332 4.09821 15.9825C4.14164 15.9923 4.18523 15.9971 4.22866 15.9971C4.40285 15.997 4.57088 15.9199 4.6845 15.782L7.71307 12.1111H9.29867V14.4357C9.29867 15.126 9.86017 15.6877 10.5506 15.6877H14.5346L16.4343 17.9903C16.5481 18.1281 16.7161 18.2052 16.8903 18.2052C16.9336 18.2052 16.9773 18.2004 17.0206 18.1907C17.2382 18.1415 17.4096 17.9739 17.4637 17.7575L17.9811 15.6877H18.4474C19.1377 15.6877 19.6993 15.126 19.6993 14.4357V8.67691C19.6993 7.98646 19.1377 7.42496 18.4474 7.42496ZM7.43443 10.9291C7.25798 10.9291 7.09086 11.0078 6.97859 11.144L4.51798 14.1264L3.83054 11.3768C3.76486 11.1136 3.52845 10.9291 3.25717 10.9291H1.61115C1.37459 10.9291 1.18221 10.7365 1.18221 10.5V1.61115C1.18221 1.37459 1.37459 1.18206 1.61115 1.18206H13.8C14.0365 1.18206 14.2289 1.37459 14.2289 1.61115V10.5C14.2289 10.7365 14.0365 10.9291 13.8 10.9291H7.43443ZM18.5171 14.4357C18.5171 14.4742 18.4858 14.5055 18.4474 14.5055H17.5197C17.2485 14.5055 17.012 14.6902 16.9464 14.9532L16.6008 16.3345L15.2692 14.7204C15.157 14.5844 14.9897 14.5055 14.8134 14.5055H10.5506C10.5121 14.5055 10.4807 14.4742 10.4807 14.4357V12.1111H13.8C14.6884 12.1111 15.411 11.3884 15.411 10.5V8.60702H18.4474C18.4858 8.60702 18.5171 8.63828 18.5171 8.67691V14.4357Z" fill="#7891A6"/>
<path d="M9.59665 9.41033C9.50257 9.41033 9.40818 9.38794 9.32161 9.3424L7.70641 8.49324L6.09105 9.3424C5.89191 9.44715 5.65069 9.42972 5.46853 9.29731C5.28653 9.1652 5.19545 8.94096 5.23347 8.71928L5.54202 6.92056L4.23507 5.64682C4.07411 5.48977 4.01609 5.25486 4.08553 5.04084C4.15511 4.82697 4.34013 4.67097 4.56271 4.63865L6.36864 4.37624L7.17632 2.73969C7.27596 2.538 7.48142 2.41025 7.70641 2.41025C7.93139 2.41025 8.13685 2.538 8.23634 2.73969L9.04402 4.37624L10.8499 4.63865C11.0727 4.67097 11.2577 4.82697 11.3271 5.04084C11.3967 5.25486 11.3387 5.48977 11.1776 5.64682L9.87078 6.92056L10.1792 8.71928C10.2172 8.94096 10.1261 9.1652 9.94413 9.29731C9.84118 9.3723 9.71929 9.41033 9.59665 9.41033ZM5.91791 5.6363L6.58957 6.29113C6.72889 6.42685 6.79247 6.62253 6.75955 6.81431L6.60099 7.73876L7.43137 7.30231C7.60345 7.21168 7.80921 7.21168 7.98144 7.30231L8.81167 7.73876L8.65311 6.81431C8.62019 6.62253 8.68377 6.42685 8.82309 6.29113L9.49475 5.6363L8.56654 5.50134C8.37401 5.47338 8.20748 5.35255 8.12152 5.17806L7.70641 4.33686L7.29129 5.17806C7.20503 5.35255 7.03865 5.47338 6.84612 5.50134L5.91791 5.6363Z" fill="#7891A6"/>
</svg>
