<svg width="18" height="18" viewBox="0 0 18 18" fill="none" xmlns="http://www.w3.org/2000/svg">
<path d="M8.04606 0.85C4.07813 0.85 0.85 4.07813 0.85 8.04606C0.85 12.0142 4.07813 15.2421 8.04606 15.2421C12.0142 15.2421 15.2421 12.0142 15.2421 8.04606C15.2421 4.07813 12.0142 0.85 8.04606 0.85ZM8.04606 13.6413C4.961 13.6413 2.45081 11.1312 2.45081 8.04609C2.45081 4.96103 4.961 2.45081 8.04606 2.45081C11.1311 2.45081 13.6413 4.961 13.6413 8.04606C13.6413 11.1311 11.1311 13.6413 8.04606 13.6413Z" fill="white" stroke="white" stroke-width="0.3"/>
<path d="M13.1865 12.0547L16.9155 15.7836C16.9155 15.7837 16.9155 15.7837 16.9155 15.7837C17.2282 16.0961 17.2282 16.6031 16.9155 16.9155L13.1865 12.0547ZM13.1865 12.0547C12.8739 11.742 12.3674 11.742 12.0548 12.0546L13.1865 12.0547ZM12.0547 13.1865C11.742 12.8741 11.742 12.3671 12.0547 12.0547L12.0547 13.1865ZM12.0547 13.1865C12.0547 13.1865 12.0547 13.1865 12.0548 13.1866M12.0547 13.1865L12.0548 13.1866M12.0548 13.1866L15.7837 16.9155C15.94 17.0718 16.1449 17.15 16.3496 17.15C16.5541 17.15 16.7592 17.0718 16.9155 16.9156L12.0548 13.1866Z" fill="white" stroke="white" stroke-width="0.3"/>
</svg>
