<svg width="182" height="110" viewBox="0 0 182 110" fill="none" xmlns="http://www.w3.org/2000/svg">
<path d="M169.717 33.5885V100.403C169.717 105.654 165.504 110 160.214 110H21.6968C16.4968 110 12.1934 105.745 12.1934 100.403V33.5885C12.1934 28.3374 16.4072 23.9918 21.6968 23.9918H160.214C165.504 23.9918 169.717 28.3374 169.717 33.5885Z" fill="#464650"/>
<path d="M165.772 32.5021C165.772 30.0576 163.8 28.0659 161.379 28.0659H20.6206C18.2 28.0659 16.2275 30.0576 16.2275 32.5021V43.6379H165.772V32.5021Z" fill="#8CA0E5"/>
<path d="M16.2275 43.6378V101.49C16.2275 103.934 18.2 105.926 20.6206 105.926H161.29C163.71 105.926 165.683 103.934 165.683 101.49V43.6378H16.2275Z" fill="white"/>
<path d="M21.5176 57.1275V76.8642C21.5176 78.5843 20.1728 79.9424 18.4693 79.9424H13.6279V54.1399H18.4693C20.1728 54.1399 21.5176 55.4979 21.5176 57.1275Z" fill="#464650"/>
<path d="M148.021 0.18107L91 0L33.8897 0.18107L0 12.1317C23.669 14.0329 49.131 15.2099 76.0276 15.3004C81.0483 15.3004 86.069 15.3004 91 15.3004C95.931 15.3909 100.952 15.3909 105.972 15.3004C132.869 15.2099 158.241 13.9424 182 12.1317L148.021 0.18107Z" fill="#F35458"/>
<path d="M10.131 36.1235C4.57241 36.1235 0 31.5967 0 25.9836V12.1317H20.2621V25.9836C20.2621 31.5967 15.6897 36.1235 10.131 36.1235Z" fill="#DD434E"/>
<path d="M30.3928 36.1235C24.8341 36.1235 20.2617 31.5062 20.2617 25.893V12.1317H40.5238V25.9836C40.5238 31.5967 35.9514 36.1235 30.3928 36.1235Z" fill="#EFE1E2"/>
<path d="M50.5656 36.1235C45.007 36.1235 40.4346 31.5062 40.4346 25.893V12.1317H60.6966V25.9836C60.6966 31.5967 56.2139 36.1235 50.5656 36.1235Z" fill="#DD434E"/>
<path d="M70.8273 36.1235C65.2687 36.1235 60.6963 31.5062 60.6963 25.893V12.1317H80.9584V25.9836C80.9584 31.5967 76.3859 36.1235 70.8273 36.1235Z" fill="#EFE1E2"/>
<path d="M20.2617 12.1317L50.5652 0.181091H58.8135L40.5238 12.1317H20.2617Z" fill="white"/>
<path d="M60.6963 12.1317H80.9584L83.1101 0.181091H70.8273L60.6963 12.1317Z" fill="white"/>
<path d="M171.869 36.1235C177.428 36.1235 182 31.5062 182 25.893V12.1317H161.738V25.9836C161.738 31.5967 166.221 36.1235 171.869 36.1235Z" fill="#DD434E"/>
<path d="M151.608 36.1235C157.166 36.1235 161.739 31.5062 161.739 25.893V12.1317H141.477V25.9836C141.477 31.5967 146.049 36.1235 151.608 36.1235Z" fill="#EFE1E2"/>
<path d="M131.345 36.1235C136.904 36.1235 141.476 31.5062 141.476 25.893V12.1317H121.214V25.9836C121.214 31.5967 125.786 36.1235 131.345 36.1235Z" fill="#DD434E"/>
<path d="M111.083 36.1235C116.642 36.1235 121.214 31.5062 121.214 25.893V12.1317H100.952V25.9836C101.042 31.5967 105.525 36.1235 111.083 36.1235Z" fill="#EFE1E2"/>
<path d="M91.0004 12.1317H80.959V25.9836C80.959 31.5967 85.4417 36.1235 91.0004 36.214C96.559 36.1235 101.042 31.5967 101.042 25.9836V12.1317H91.0004Z" fill="#DD434E"/>
<path d="M161.738 12.1317L131.345 0.181091H123.187L141.476 12.1317H161.738Z" fill="white"/>
<path d="M121.215 12.1317H101.042L98.8008 0.181091H111.084L121.215 12.1317Z" fill="white"/>
<path d="M67.0622 45.9012H31.6484V48.7078H67.0622V45.9012Z" fill="#C7DAFB"/>
<path opacity="0.47" d="M107.137 45.9012H71.7236V48.7078H107.137V45.9012Z" fill="#C7DAFB"/>
<path opacity="0.47" d="M147.214 45.9012H111.8V48.7078H147.214V45.9012Z" fill="#C7DAFB"/>
<path d="M57.3791 54.6831H34.248V74.2387H57.3791V54.6831Z" fill="#C7DAFB"/>
<path d="M55.7652 56.2222H35.5928V72.6995H55.7652V56.2222Z" stroke="white" stroke-miterlimit="10"/>
<path d="M35.5928 67.2675L41.4204 62.9218L47.5169 68.0823" stroke="white" stroke-miterlimit="10"/>
<path d="M41.5996 72.6996L52.8962 63.7366L55.7651 66.2716" stroke="white" stroke-miterlimit="10"/>
<path d="M48.055 65.1852C49.2434 65.1852 50.2068 64.2123 50.2068 63.0123C50.2068 61.8123 49.2434 60.8395 48.055 60.8395C46.8667 60.8395 45.9033 61.8123 45.9033 63.0123C45.9033 64.2123 46.8667 65.1852 48.055 65.1852Z" stroke="white" stroke-miterlimit="10"/>
<path d="M96.1101 56.4938H60.6963V59.3004H96.1101V56.4938Z" fill="#C7DAFB"/>
<path opacity="0.47" d="M120.855 63.7366H60.6963V64.3704H120.855V63.7366Z" fill="#C7DAFB"/>
<path opacity="0.47" d="M120.855 66.6337H60.6963V67.2675H120.855V66.6337Z" fill="#C7DAFB"/>
<path d="M64.6412 70.4362L65.1791 71.7037L66.6136 71.8848L65.6274 72.8807L65.8067 74.2387L64.6412 73.6049L63.386 74.2387L63.5653 72.8807L62.5791 71.8848L64.0136 71.7037L64.6412 70.4362Z" fill="#C7DAFB"/>
<path d="M75.3103 70.4362L75.9379 71.7037L77.2827 71.8848L76.2965 72.8807L76.5655 74.2387L75.3103 73.6049L74.0551 74.2387L74.3241 72.8807L73.3379 71.8848L74.6827 71.7037L75.3103 70.4362Z" fill="#C7DAFB"/>
<path d="M86.0689 70.4362L86.6068 71.7037L88.0413 71.8848L87.0551 72.8807L87.2344 74.2387L86.0689 73.6049L84.8137 74.2387L85.0827 72.8807L84.0068 71.8848L85.4413 71.7037L86.0689 70.4362Z" fill="#C7DAFB"/>
<path d="M96.738 70.4362L97.3656 71.7037L98.7104 71.8848L97.7242 72.8807L97.9932 74.2387L96.738 73.6049L95.4829 74.2387L95.7518 72.8807L94.7656 71.8848L96.1105 71.7037L96.738 70.4362Z" fill="#C7DAFB"/>
<path opacity="0.47" d="M107.497 70.4362L108.035 71.7037L109.469 71.8848L108.483 72.8807L108.662 74.2387L107.497 73.6049L106.241 74.2387L106.51 72.8807L105.435 71.8848L106.869 71.7037L107.497 70.4362Z" fill="#C7DAFB"/>
<path d="M57.3791 77.679H34.248V97.2346H57.3791V77.679Z" fill="#C7DAFB"/>
<path d="M55.7652 79.2181H35.5928V95.6954H55.7652V79.2181Z" stroke="white" stroke-miterlimit="10"/>
<path d="M35.5928 90.3539L41.4204 85.9177L47.5169 91.0782" stroke="white" stroke-miterlimit="10"/>
<path d="M41.5996 95.786L52.8962 86.7325L55.7651 89.2675" stroke="white" stroke-miterlimit="10"/>
<path d="M48.055 88.1811C49.2434 88.1811 50.2068 87.2083 50.2068 86.0082C50.2068 84.8082 49.2434 83.8354 48.055 83.8354C46.8667 83.8354 45.9033 84.8082 45.9033 86.0082C45.9033 87.2083 46.8667 88.1811 48.055 88.1811Z" stroke="white" stroke-miterlimit="10"/>
<path d="M96.1101 79.4897H60.6963V82.2963H96.1101V79.4897Z" fill="#C7DAFB"/>
<path opacity="0.47" d="M120.855 86.7325H60.6963V87.3662H120.855V86.7325Z" fill="#C7DAFB"/>
<path opacity="0.47" d="M120.855 89.7202H60.6963V90.3539H120.855V89.7202Z" fill="#C7DAFB"/>
<path d="M64.6412 93.4321L65.1791 94.6996L66.6136 94.8806L65.6274 95.8765L65.8067 97.2345L64.6412 96.6008L63.386 97.2345L63.5653 95.8765L62.5791 94.8806L64.0136 94.6996L64.6412 93.4321Z" fill="#C7DAFB"/>
<path d="M75.3103 93.4321L75.9379 94.6996L77.2827 94.8806L76.2965 95.8765L76.5655 97.2345L75.3103 96.6008L74.0551 97.2345L74.3241 95.8765L73.3379 94.8806L74.6827 94.6996L75.3103 93.4321Z" fill="#C7DAFB"/>
<path d="M86.0689 93.4321L86.6068 94.6996L88.0413 94.8806L87.0551 95.8765L87.2344 97.2345L86.0689 96.6008L84.8137 97.2345L85.0827 95.8765L84.0068 94.8806L85.4413 94.6996L86.0689 93.4321Z" fill="#C7DAFB"/>
<path d="M96.738 93.4321L97.3656 94.6996L98.7104 94.8806L97.7242 95.8765L97.9932 97.2345L96.738 96.6008L95.4829 97.2345L95.7518 95.8765L94.7656 94.8806L96.1105 94.6996L96.738 93.4321Z" fill="#C7DAFB"/>
<path opacity="0.47" d="M107.497 93.4321L108.035 94.6996L109.469 94.8806L108.483 95.8765L108.662 97.2345L107.497 96.6008L106.241 97.2345L106.51 95.8765L105.435 94.8806L106.869 94.6996L107.497 93.4321Z" fill="#C7DAFB"/>
</svg>
