<svg width="298" height="38" viewBox="0 0 298 38" fill="none" xmlns="http://www.w3.org/2000/svg">
<path d="M52.8049 16.0943V27.8057C52.8049 29.1159 53.3947 29.7653 54.5627 29.7653C54.7477 29.7653 54.9906 29.7189 55.3028 29.6261C55.6151 29.5334 55.8695 29.487 56.043 29.487C56.3784 29.487 56.6675 29.6261 56.9103 29.916C57.1416 30.2059 57.2573 30.577 57.2573 31.0176C57.2573 31.5626 56.945 32.038 56.3205 32.4322C55.696 32.8265 54.9906 33.0236 54.2042 33.0236C53.3368 33.0236 52.5504 32.9308 51.8334 32.7453C51.1164 32.5598 50.4803 32.096 49.9137 31.3539C49.347 30.6117 49.0694 29.4754 49.0694 27.9564V16.0943H46.7912C46.2939 16.0943 45.8776 15.932 45.5538 15.6073C45.23 15.2826 45.0681 14.8652 45.0681 14.3666C45.0681 13.868 45.23 13.4622 45.5538 13.1491C45.8776 12.836 46.2939 12.6737 46.7912 12.6737H49.0694V9.36899C49.0694 8.8472 49.2429 8.39498 49.6014 8.03552C49.9484 7.66447 50.3994 7.49054 50.9545 7.49054C51.4749 7.49054 51.9144 7.67607 52.2729 8.03552C52.6198 8.40658 52.8049 8.8472 52.8049 9.36899V12.6737H56.0545C56.5518 12.6737 56.9566 12.836 57.292 13.1607C57.6158 13.4854 57.7777 13.9028 57.7777 14.4014C57.7777 14.9 57.6158 15.3058 57.292 15.6189C56.9682 15.932 56.5518 16.0943 56.0545 16.0943H52.8049Z" fill="black"/>
<path d="M79.3688 23.1444C78.9987 23.4691 78.5708 23.6314 78.0736 23.6314H64.2768C64.4618 25.5446 65.1788 27.0752 66.451 28.2232C67.7231 29.3711 69.2612 29.9509 71.1 29.9509C72.349 29.9509 73.3783 29.7654 74.1531 29.4059C74.9395 29.0348 75.6334 28.571 76.2348 27.9913C76.628 27.7594 77.0096 27.6318 77.3681 27.6318C77.8076 27.6318 78.1892 27.7941 78.4899 28.1072C78.7906 28.4203 78.9409 28.7913 78.9409 29.2088C78.9409 29.7538 78.6749 30.2524 78.1545 30.7046C77.3912 31.4699 76.3967 32.1076 75.1361 32.6294C73.8871 33.1512 72.6034 33.4179 71.2966 33.4179C69.1803 33.4179 67.3183 32.9773 65.7108 32.0844C64.1033 31.1916 62.8659 29.9509 61.987 28.3507C61.108 26.7506 60.6686 24.9417 60.6686 22.9241C60.6686 20.721 61.1196 18.7961 62.0217 17.1264C62.9237 15.4682 64.1149 14.1812 65.5836 13.2999C67.0639 12.4071 68.6483 11.9664 70.3483 11.9664C72.0252 11.9664 73.5864 12.3955 75.0552 13.2651C76.5123 14.1348 77.6919 15.3175 78.5824 16.8365C79.4729 18.3555 79.9355 20.06 79.9586 21.9501C79.9355 22.4139 79.7389 22.8197 79.3688 23.1444ZM66.555 16.6626C65.4795 17.4858 64.7741 18.7613 64.4387 20.489H76.0035V20.176C75.8763 18.7845 75.2517 17.6482 74.1415 16.7553C73.0313 15.8625 71.7708 15.4219 70.3599 15.4219C68.8911 15.4219 67.6306 15.8393 66.555 16.6626Z" fill="black"/>
<path d="M82.7342 28.745C82.7342 28.2232 83.0118 27.771 83.5553 27.4115C83.8213 27.226 84.122 27.1332 84.4574 27.1332C84.9315 27.1332 85.3594 27.3303 85.7526 27.7246C86.539 28.6174 87.3833 29.2784 88.2853 29.7306C89.1874 30.1712 90.2629 30.4031 91.5235 30.4031C92.518 30.3799 93.3854 30.148 94.1487 29.719C94.9004 29.29 95.282 28.5826 95.282 27.6202C95.282 26.7274 94.9004 26.0432 94.1256 25.5794C93.3507 25.104 92.2289 24.675 90.7371 24.2807C89.2683 23.8865 88.054 23.4807 87.0941 23.04C86.1227 22.611 85.3132 21.9733 84.6424 21.15C83.9717 20.3267 83.6478 19.2483 83.6478 17.9033C83.6478 16.7205 83.9832 15.6886 84.6424 14.7957C85.3132 13.9029 86.1921 13.2071 87.3023 12.7085C88.4125 12.2099 89.6153 11.9664 90.9221 11.9664C92.1711 11.9664 93.4201 12.1983 94.6691 12.6738C95.9065 13.1492 96.9242 13.8681 97.7106 14.8305C98.0229 15.2015 98.1848 15.5726 98.1848 15.9668C98.1848 16.3843 97.9766 16.7901 97.5603 17.1844C97.2943 17.4163 96.9705 17.5322 96.5773 17.5322C96.1031 17.5322 95.7331 17.3699 95.4439 17.0568C94.9004 16.4307 94.2181 15.9437 93.4201 15.6074C92.6221 15.2711 91.7432 15.0972 90.7718 15.0972C89.7772 15.0972 88.933 15.3059 88.2391 15.7117C87.5452 16.1176 87.1982 16.8017 87.1982 17.7757C87.2214 18.6918 87.6261 19.3759 88.3894 19.8165C89.1642 20.2571 90.3439 20.6978 91.9398 21.1152C93.3276 21.4863 94.4725 21.8805 95.3861 22.2979C96.2997 22.7154 97.0746 23.3415 97.6991 24.1648C98.3236 24.9881 98.6358 26.0664 98.6358 27.4115C98.6358 28.6406 98.2889 29.7074 97.5834 30.6118C96.878 31.5163 95.9528 32.212 94.8194 32.699C93.6861 33.186 92.4718 33.4295 91.1996 33.4295C89.5574 33.4295 88.0309 33.1396 86.6316 32.5599C85.2322 31.9801 84.0526 31.0641 83.0812 29.8118C82.8614 29.4407 82.7342 29.0812 82.7342 28.745Z" fill="black"/>
<path d="M108.524 16.0943V27.8056C108.524 29.1159 109.114 29.7653 110.282 29.7653C110.467 29.7653 110.71 29.7189 111.022 29.6261C111.334 29.5333 111.589 29.487 111.762 29.487C112.097 29.487 112.387 29.6261 112.629 29.916C112.861 30.2059 112.976 30.5769 112.976 31.0176C112.976 31.5625 112.664 32.038 112.04 32.4322C111.415 32.8264 110.71 33.0236 109.923 33.0236C109.056 33.0236 108.27 32.9308 107.552 32.7453C106.835 32.5597 106.199 32.0959 105.633 31.3538C105.066 30.6117 104.789 29.4754 104.789 27.9564V16.0943H102.51C102.013 16.0943 101.597 15.932 101.273 15.6073C100.949 15.2826 100.787 14.8652 100.787 14.3666C100.787 13.868 100.949 13.4621 101.273 13.1491C101.597 12.836 102.013 12.6736 102.51 12.6736H104.789V9.36896C104.789 8.84717 104.962 8.39495 105.32 8.03549C105.667 7.66444 106.118 7.49051 106.674 7.49051C107.194 7.49051 107.633 7.67604 107.992 8.03549C108.339 8.40655 108.524 8.84717 108.524 9.36896V12.6736H111.774C112.271 12.6736 112.676 12.836 113.011 13.1607C113.335 13.4853 113.497 13.9028 113.497 14.4014C113.497 14.9 113.335 15.3058 113.011 15.6189C112.687 15.932 112.271 16.0943 111.774 16.0943H108.524Z" fill="black"/>
<path d="M133.168 13.3461C134.602 14.2621 135.735 15.5376 136.556 17.161C137.378 18.7843 137.794 20.6164 137.794 22.6572C137.794 24.698 137.378 26.5416 136.556 28.1998C135.735 29.8579 134.602 31.1334 133.168 32.0494C131.734 32.9655 130.15 33.4293 128.426 33.4293C127.073 33.4293 125.801 33.1278 124.622 32.5248C123.442 31.9219 122.494 31.1798 121.765 30.2869V31.4233C121.765 31.9451 121.592 32.3973 121.233 32.7568C120.886 33.1278 120.435 33.3017 119.88 33.3017C119.36 33.3017 118.92 33.1278 118.562 32.7684C118.203 32.4089 118.03 31.9683 118.03 31.4117V5.83225C118.03 5.28727 118.203 4.83504 118.539 4.47559C118.874 4.12773 119.325 3.9422 119.869 3.9422C120.412 3.9422 120.863 4.12773 121.222 4.48718C121.569 4.85824 121.754 5.29886 121.754 5.82065V15.41C122.378 14.4708 123.292 13.6591 124.494 12.975C125.697 12.2909 126.981 11.9546 128.334 11.9546C130.126 11.9662 131.734 12.43 133.168 13.3461ZM131.179 28.9998C132.15 28.3621 132.902 27.4809 133.434 26.3677C133.966 25.2545 134.232 24.0138 134.232 22.6572C134.232 21.3005 133.966 20.0598 133.434 18.9582C132.902 17.8567 132.15 16.9986 131.179 16.3609C130.207 15.7347 129.132 15.4216 127.929 15.4216C126.703 15.4216 125.605 15.7347 124.633 16.3609C123.662 16.987 122.91 17.8451 122.378 18.935C121.846 20.025 121.58 21.2657 121.58 22.6456C121.58 24.037 121.846 25.2777 122.378 26.3793C122.91 27.4809 123.662 28.3505 124.633 28.9883C125.605 29.626 126.692 29.9507 127.929 29.9507C129.12 29.9623 130.207 29.6492 131.179 28.9998Z" fill="#3099F2"/>
<path d="M159.547 23.1444C159.177 23.4691 158.749 23.6314 158.252 23.6314H144.455C144.64 25.5446 145.357 27.0752 146.629 28.2232C147.902 29.3711 149.44 29.9509 151.278 29.9509C152.527 29.9509 153.557 29.7654 154.332 29.4059C155.118 29.0348 155.812 28.571 156.413 27.9913C156.806 27.7594 157.188 27.6318 157.547 27.6318C157.986 27.6318 158.368 27.7941 158.668 28.1072C158.969 28.4203 159.119 28.7913 159.119 29.2088C159.119 29.7538 158.853 30.2524 158.333 30.7046C157.57 31.4699 156.575 32.1076 155.315 32.6294C154.066 33.1512 152.782 33.4179 151.475 33.4179C149.359 33.4179 147.497 32.9773 145.889 32.0844C144.282 31.1916 143.044 29.9509 142.165 28.3507C141.287 26.7506 140.847 24.9417 140.847 22.9241C140.847 20.721 141.298 18.7961 142.2 17.1264C143.102 15.4682 144.293 14.1812 145.762 13.2999C147.242 12.4071 148.827 11.9664 150.527 11.9664C152.204 11.9664 153.765 12.3955 155.234 13.2651C156.691 14.1348 157.87 15.3175 158.761 16.8365C159.651 18.3555 160.102 20.06 160.137 21.9501C160.114 22.4139 159.917 22.8197 159.547 23.1444ZM146.734 16.6626C145.658 17.4858 144.953 18.7613 144.617 20.489H156.182V20.176C156.055 18.7845 155.43 17.6482 154.32 16.7553C153.21 15.8625 151.949 15.4219 150.538 15.4219C149.07 15.4219 147.798 15.8393 146.734 16.6626Z" fill="#3099F2"/>
<path d="M176.432 12.4999C176.929 12.8477 177.172 13.2884 177.172 13.8217C177.172 14.4479 177.01 14.9233 176.686 15.2596C176.363 15.5843 175.958 15.7466 175.495 15.7466C175.264 15.7466 174.905 15.6654 174.443 15.5147C173.899 15.3292 173.46 15.2364 173.148 15.2364C172.338 15.2364 171.552 15.5147 170.777 16.0829C170.002 16.651 169.377 17.4163 168.892 18.4019C168.406 19.3875 168.163 20.4775 168.163 21.6834V31.1569C168.163 31.6787 167.99 32.1309 167.631 32.4903C167.284 32.8614 166.833 33.0353 166.278 33.0353C165.723 33.0353 165.284 32.8614 164.948 32.5019C164.613 32.1541 164.439 31.7019 164.439 31.1453V14.3319C164.439 13.8102 164.613 13.3579 164.971 12.9985C165.318 12.6274 165.758 12.4535 166.29 12.4535C166.833 12.4535 167.284 12.639 167.643 12.9985C167.99 13.3695 168.175 13.8102 168.175 14.3319V16.338C168.753 15.0509 169.609 14.0189 170.765 13.2188C171.91 12.4187 173.217 12.0129 174.686 11.9781C175.356 11.9665 175.946 12.1404 176.432 12.4999Z" fill="#3099F2"/>
<path d="M180.653 9.24141C180.329 8.96312 180.167 8.5225 180.167 7.91954V7.29339C180.167 6.66724 180.34 6.21502 180.699 5.95992C181.046 5.69322 181.589 5.56567 182.329 5.56567C183.058 5.56567 183.59 5.70482 183.914 5.98311C184.238 6.2614 184.4 6.70202 184.4 7.30498V7.93113C184.4 8.55729 184.226 9.00951 183.891 9.2646C183.555 9.5313 183.012 9.65885 182.283 9.65885C181.52 9.64725 180.976 9.50811 180.653 9.24141ZM183.625 32.4786C183.278 32.8496 182.827 33.0236 182.272 33.0236C181.751 33.0236 181.312 32.838 180.953 32.4786C180.606 32.1075 180.421 31.6669 180.421 31.1451V14.1231C180.421 13.6013 180.595 13.1491 180.953 12.7896C181.3 12.4186 181.74 12.2446 182.272 12.2446C182.815 12.2446 183.266 12.4301 183.625 12.7896C183.972 13.1607 184.157 13.6013 184.157 14.1231V31.1335C184.157 31.6669 183.983 32.1075 183.625 32.4786Z" fill="#3099F2"/>
<path d="M203.609 12.952C204.985 13.6013 205.667 14.4478 205.667 15.4682C205.667 15.9088 205.528 16.3146 205.239 16.6625C204.95 17.0104 204.592 17.1959 204.141 17.1959C203.805 17.1959 203.528 17.1379 203.343 17.0336C203.146 16.9292 202.88 16.7553 202.545 16.5234C202.383 16.361 202.14 16.1871 201.804 15.9784C201.492 15.816 201.041 15.6885 200.475 15.5841C199.896 15.4798 199.376 15.4218 198.902 15.4218C197.549 15.4218 196.346 15.7349 195.294 16.361C194.253 16.9872 193.443 17.8568 192.865 18.97C192.287 20.0831 191.998 21.3239 191.998 22.6805C191.998 24.072 192.275 25.3127 192.842 26.4142C193.408 27.5158 194.195 28.3738 195.213 29.0116C196.23 29.6493 197.398 29.9508 198.705 29.9508C200.058 29.9508 201.157 29.7421 202.001 29.3247C202.186 29.2203 202.429 29.0464 202.741 28.8145C203.007 28.6058 203.227 28.4434 203.424 28.3391C203.62 28.2347 203.863 28.1767 204.152 28.1767C204.673 28.1767 205.089 28.3391 205.39 28.6637C205.69 28.9884 205.841 29.4174 205.841 29.9392C205.841 30.4842 205.494 31.0292 204.8 31.5742C204.106 32.1076 203.181 32.5482 202.013 32.8961C200.845 33.2323 199.607 33.4062 198.266 33.4062C196.277 33.4062 194.53 32.9424 193.015 32.0148C191.5 31.0872 190.332 29.8001 189.511 28.1651C188.69 26.5302 188.274 24.6981 188.274 22.6805C188.274 20.6629 188.702 18.8308 189.569 17.1959C190.436 15.5609 191.627 14.2739 193.177 13.3462C194.715 12.4186 196.485 11.9548 198.462 11.9548C200.521 11.9664 202.244 12.291 203.609 12.952Z" fill="#3099F2"/>
<path d="M226.796 20.6513V31.1452C226.796 31.667 226.623 32.1192 226.264 32.4786C225.917 32.8497 225.466 33.0236 224.911 33.0236C224.391 33.0236 223.951 32.8381 223.593 32.4786C223.246 32.1076 223.061 31.667 223.061 31.1452V20.6513C223.061 17.2423 221.627 15.5378 218.747 15.5378C217.209 15.5378 215.926 16.0248 214.908 17.0104C213.89 17.996 213.381 19.2019 213.381 20.6397V31.1336C213.381 31.6554 213.208 32.1076 212.849 32.4671C212.502 32.8381 212.051 33.012 211.496 33.012C210.941 33.012 210.502 32.8381 210.166 32.4786C209.831 32.1308 209.658 31.6786 209.658 31.122V5.83243C209.658 5.31064 209.831 4.85842 210.189 4.49896C210.536 4.12791 210.976 3.95398 211.508 3.95398C212.051 3.95398 212.502 4.13951 212.861 4.49896C213.208 4.87002 213.393 5.31064 213.393 5.83243V15.7697C214.041 14.7493 214.966 13.8796 216.134 13.1607C217.313 12.4418 218.562 12.0823 219.892 12.0823C224.495 12.0823 226.796 14.9464 226.796 20.6513Z" fill="#3099F2"/>
<path d="M237.922 16.0943V27.8056C237.922 29.1159 238.511 29.7653 239.679 29.7653C239.864 29.7653 240.107 29.7189 240.419 29.6261C240.732 29.5333 240.986 29.487 241.16 29.487C241.495 29.487 241.784 29.6261 242.027 29.916C242.258 30.2059 242.374 30.5769 242.374 31.0176C242.374 31.5625 242.062 32.038 241.437 32.4322C240.813 32.8264 240.107 33.0236 239.321 33.0236C238.453 33.0236 237.667 32.9308 236.95 32.7453C236.233 32.5597 235.597 32.0959 235.03 31.3538C234.464 30.6117 234.186 29.4754 234.186 27.9564V16.0943H231.908C231.411 16.0943 230.994 15.932 230.67 15.6073C230.347 15.2826 230.185 14.8652 230.185 14.3666C230.185 13.868 230.347 13.4621 230.67 13.1491C230.994 12.836 231.411 12.6736 231.908 12.6736H234.186V9.36896C234.186 8.84717 234.36 8.39495 234.718 8.03549C235.065 7.66444 235.516 7.49051 236.071 7.49051C236.592 7.49051 237.031 7.67604 237.39 8.03549C237.736 8.40655 237.922 8.84717 237.922 9.36896V12.6736H241.171C241.668 12.6736 242.073 12.836 242.409 13.1607C242.732 13.4853 242.894 13.9028 242.894 14.4014C242.894 14.9 242.732 15.3058 242.409 15.6189C242.085 15.932 241.668 16.0943 241.171 16.0943H237.922Z" fill="#3099F2"/>
<path d="M247.15 32.4786C246.826 32.1423 246.664 31.6437 246.664 30.9828V30.2407C246.664 29.6145 246.826 29.1275 247.15 28.7912C247.474 28.455 247.948 28.281 248.584 28.281H248.977C249.625 28.281 250.122 28.455 250.446 28.7912C250.77 29.1275 250.932 29.6145 250.932 30.2407V30.9828C250.932 32.3162 250.284 32.9888 248.977 32.9888H248.584C247.96 32.9888 247.474 32.8148 247.15 32.4786Z" fill="#3099F2"/>
<path d="M273.923 4.48718C274.269 4.83505 274.454 5.28727 274.454 5.84385V31.145C274.454 31.6668 274.281 32.119 273.923 32.4785C273.576 32.8495 273.125 33.0235 272.569 33.0235C272.014 33.0235 271.575 32.8495 271.239 32.4901C270.904 32.1422 270.731 31.69 270.731 31.1334V30.0318C270.083 30.9711 269.158 31.7712 267.967 32.4321C266.776 33.0814 265.503 33.4177 264.15 33.4177C262.369 33.4177 260.762 32.9539 259.328 32.0378C257.894 31.1218 256.749 29.8463 255.916 28.2114C255.084 26.5764 254.667 24.7327 254.667 22.692C254.667 20.6512 255.084 18.8075 255.905 17.1726C256.726 15.5376 257.859 14.2621 259.293 13.3461C260.727 12.43 262.312 11.9662 264.035 11.9662C265.422 11.9662 266.695 12.2561 267.874 12.8359C269.054 13.4156 270.002 14.1577 270.731 15.0738V5.83225C270.731 5.28727 270.904 4.83505 271.239 4.47559C271.575 4.12773 272.026 3.9422 272.569 3.9422C273.113 3.9422 273.564 4.12773 273.923 4.48718ZM267.839 29.023C268.788 28.3969 269.539 27.5272 270.071 26.4257C270.603 25.3241 270.869 24.0834 270.869 22.692C270.869 21.3353 270.603 20.0946 270.071 18.9814C269.539 17.8683 268.788 16.9986 267.839 16.3725C266.891 15.7463 265.792 15.4332 264.567 15.4332C263.341 15.4332 262.242 15.7463 261.294 16.3725C260.345 16.9986 259.594 17.8683 259.062 18.9814C258.53 20.0946 258.264 21.3353 258.264 22.692C258.264 24.0834 258.53 25.3241 259.062 26.4257C259.594 27.5272 260.345 28.3853 261.294 29.023C262.242 29.6492 263.341 29.9623 264.567 29.9623C265.804 29.9623 266.891 29.6492 267.839 29.023Z" fill="#3099F2"/>
<path d="M297.41 23.1444C297.04 23.4691 296.612 23.6314 296.115 23.6314H282.318C282.503 25.5446 283.22 27.0752 284.493 28.2232C285.765 29.3711 287.303 29.9509 289.142 29.9509C290.391 29.9509 291.42 29.7654 292.195 29.4059C292.981 29.0348 293.675 28.571 294.276 27.9913C294.669 27.7594 295.051 27.6318 295.41 27.6318C295.849 27.6318 296.231 27.7941 296.531 28.1072C296.832 28.4203 296.982 28.7913 296.982 29.2088C296.982 29.7538 296.716 30.2524 296.196 30.7046C295.433 31.4699 294.438 32.1076 293.178 32.6294C291.929 33.1512 290.645 33.4179 289.338 33.4179C287.222 33.4179 285.36 32.9773 283.752 32.0844C282.145 31.1916 280.907 29.9509 280.029 28.3507C279.15 26.7506 278.71 24.9417 278.71 22.9241C278.71 20.721 279.161 18.7961 280.063 17.1264C280.965 15.4682 282.156 14.1812 283.625 13.2999C285.105 12.4071 286.69 11.9664 288.39 11.9664C290.067 11.9664 291.628 12.3955 293.097 13.2651C294.554 14.1348 295.733 15.3175 296.624 16.8365C297.514 18.3555 297.965 20.06 298 21.9501C297.977 22.4139 297.78 22.8197 297.41 23.1444ZM284.597 16.6626C283.521 17.4858 282.816 18.7613 282.48 20.489H294.045V20.176C293.918 18.7845 293.293 17.6482 292.183 16.7553C291.073 15.8625 289.812 15.4219 288.401 15.4219C286.933 15.4219 285.672 15.8393 284.597 16.6626Z" fill="#3099F2"/>
<path d="M18.6308 0C8.3613 0 0 8.38347 0 18.6802C0 28.9769 8.34974 37.372 18.6308 37.372C28.9118 37.372 37.2616 28.9885 37.2616 18.6918C37.2616 8.39507 28.9003 0 18.6308 0ZM29.039 13.7753L17.1389 25.6142C16.4335 26.3215 15.3233 26.3679 14.5716 25.6606L8.26878 19.8977C7.51707 19.1904 7.47082 18.0192 8.13001 17.2771C8.83545 16.5234 10.0035 16.4771 10.7436 17.1844L15.7396 21.7762L26.3907 11.0968C27.1424 10.3431 28.3105 10.3431 29.0506 11.0968C29.7907 11.8505 29.7907 13.0216 29.039 13.7753Z" fill="#3099F2"/>
</svg>
