<svg width="326" height="41" viewBox="0 0 326 41" fill="none" xmlns="http://www.w3.org/2000/svg">
<path d="M57.6336 17.4594V30.1638C57.6336 31.5852 58.2774 32.2896 59.5522 32.2896C59.7542 32.2896 60.0192 32.2393 60.36 32.1387C60.7008 32.038 60.9785 31.9877 61.1678 31.9877C61.5339 31.9877 61.8494 32.1387 62.1145 32.4531C62.367 32.7676 62.4932 33.1701 62.4932 33.6481C62.4932 34.2393 62.1524 34.755 61.4708 35.1827C60.7892 35.6104 60.0192 35.8242 59.1609 35.8242C58.2142 35.8242 57.3559 35.7236 56.5734 35.5223C55.7908 35.3211 55.0966 34.8179 54.4781 34.0129C53.8596 33.2079 53.5566 31.9752 53.5566 30.3273V17.4594H51.0701C50.5273 17.4594 50.0729 17.2833 49.7195 16.9311C49.3661 16.5788 49.1894 16.126 49.1894 15.5851C49.1894 15.0443 49.3661 14.604 49.7195 14.2644C50.0729 13.9247 50.5273 13.7486 51.0701 13.7486H53.5566V10.1637C53.5566 9.59768 53.746 9.10711 54.1373 8.71718C54.5159 8.31466 55.0082 8.12598 55.6141 8.12598C56.1821 8.12598 56.6617 8.32724 57.053 8.71718C57.4317 9.11969 57.6336 9.59768 57.6336 10.1637V13.7486H61.1805C61.7232 13.7486 62.165 13.9247 62.531 14.277C62.8845 14.6292 63.0612 15.082 63.0612 15.6229C63.0612 16.1638 62.8845 16.604 62.531 16.9436C62.1776 17.2833 61.7232 17.4594 61.1805 17.4594H57.6336Z" fill="white"/>
<path d="M86.6266 25.107C86.2227 25.4593 85.7556 25.6354 85.2129 25.6354H70.1545C70.3565 27.7108 71.1391 29.3712 72.5275 30.6165C73.9159 31.8618 75.5947 32.4907 77.6016 32.4907C78.9649 32.4907 80.0882 32.2895 80.9339 31.8995C81.7922 31.497 82.5496 30.9939 83.2059 30.3649C83.6351 30.1134 84.0516 29.975 84.4429 29.975C84.9226 29.975 85.3391 30.1511 85.6673 30.4907C85.9955 30.8303 86.1595 31.2329 86.1595 31.6857C86.1595 32.2769 85.8692 32.8178 85.3012 33.3083C84.4682 34.1385 83.3826 34.8304 82.0068 35.3964C80.6436 35.9624 79.2425 36.2518 77.8162 36.2518C75.5064 36.2518 73.4742 35.7738 71.7197 34.8052C69.9652 33.8367 68.6146 32.4907 67.6553 30.7549C66.696 29.019 66.2164 27.0567 66.2164 24.8681C66.2164 22.4781 66.7086 20.39 67.6932 18.5787C68.6777 16.78 69.9778 15.3837 71.5808 14.4277C73.1965 13.4592 74.9257 12.9812 76.7812 12.9812C78.6114 12.9812 80.3154 13.4466 81.9185 14.39C83.5089 15.3334 84.7963 16.6164 85.7682 18.2642C86.7402 19.9121 87.2451 21.7611 87.2703 23.8114C87.2451 24.3146 87.0305 24.7548 86.6266 25.107ZM72.6411 18.0756C71.4672 18.9687 70.6973 20.3523 70.3312 22.2265H82.9535V21.8869C82.8146 20.3775 82.133 19.1448 80.9213 18.1762C79.7096 17.2076 78.3337 16.7296 76.7938 16.7296C75.1908 16.7296 73.815 17.1825 72.6411 18.0756Z" fill="white"/>
<path d="M90.2997 31.1826C90.2997 30.6165 90.6026 30.1259 91.1958 29.736C91.4861 29.5348 91.8143 29.4341 92.1804 29.4341C92.6979 29.4341 93.1649 29.648 93.5941 30.0756C94.4524 31.0442 95.3738 31.7612 96.3584 32.2517C97.3429 32.7297 98.5168 32.9813 99.8926 32.9813C100.978 32.9562 101.925 32.7046 102.758 32.2392C103.578 31.7738 103.995 31.0065 103.995 29.9624C103.995 28.9939 103.578 28.2517 102.733 27.7486C101.887 27.2329 100.663 26.7674 99.0343 26.3398C97.4313 25.9121 96.1059 25.4718 95.0583 24.9938C93.998 24.5284 93.1144 23.8366 92.3823 22.9435C91.6502 22.0504 91.2968 20.8806 91.2968 19.4215C91.2968 18.1385 91.6629 17.019 92.3823 16.0504C93.1144 15.0818 94.0737 14.3271 95.2855 13.7862C96.4972 13.2454 97.8099 12.9812 99.2363 12.9812C100.599 12.9812 101.963 13.2328 103.326 13.7485C104.676 14.2642 105.787 15.0441 106.646 16.0881C106.986 16.4907 107.163 16.8932 107.163 17.3208C107.163 17.7737 106.936 18.2139 106.481 18.6416C106.191 18.8932 105.838 19.019 105.409 19.019C104.891 19.019 104.487 18.8429 104.172 18.5032C103.578 17.824 102.834 17.2957 101.963 16.9309C101.092 16.5661 100.132 16.3774 99.0722 16.3774C97.9867 16.3774 97.0652 16.6039 96.3079 17.0441C95.5505 17.4844 95.1719 18.2265 95.1719 19.2831C95.1971 20.2768 95.6389 21.019 96.472 21.497C97.3177 21.975 98.6051 22.453 100.347 22.9058C101.862 23.3083 103.111 23.736 104.108 24.1888C105.106 24.6416 105.951 25.3209 106.633 26.214C107.315 27.1071 107.655 28.2769 107.655 29.736C107.655 31.0694 107.277 32.2266 106.507 33.2077C105.737 34.1889 104.727 34.9436 103.49 35.4719C102.253 36.0002 100.928 36.2643 99.5392 36.2643C97.7468 36.2643 96.0807 35.9499 94.5534 35.3209C93.0261 34.692 91.7386 33.6983 90.6783 32.3398C90.4385 31.9373 90.2997 31.5473 90.2997 31.1826Z" fill="white"/>
<path d="M118.448 17.4594V30.1638C118.448 31.5852 119.091 32.2896 120.366 32.2896C120.568 32.2896 120.833 32.2393 121.174 32.1387C121.515 32.038 121.793 31.9877 121.982 31.9877C122.348 31.9877 122.663 32.1387 122.929 32.4531C123.181 32.7676 123.307 33.1701 123.307 33.6481C123.307 34.2393 122.966 34.755 122.285 35.1827C121.603 35.6104 120.833 35.8242 119.975 35.8242C119.028 35.8242 118.17 35.7236 117.387 35.5223C116.605 35.3211 115.911 34.8179 115.292 34.0129C114.674 33.2079 114.371 31.9752 114.371 30.3273V17.4594H111.884C111.341 17.4594 110.887 17.2833 110.533 16.9311C110.18 16.5788 110.003 16.126 110.003 15.5851C110.003 15.0443 110.18 14.604 110.533 14.2644C110.887 13.9247 111.341 13.7486 111.884 13.7486H114.371V10.1637C114.371 9.59768 114.56 9.10711 114.951 8.71718C115.33 8.31466 115.822 8.12598 116.428 8.12598C116.996 8.12598 117.476 8.32724 117.867 8.71718C118.246 9.11969 118.448 9.59768 118.448 10.1637V13.7486H121.994C122.537 13.7486 122.979 13.9247 123.345 14.277C123.698 14.6292 123.875 15.082 123.875 15.6229C123.875 16.1638 123.698 16.604 123.345 16.9436C122.992 17.2833 122.537 17.4594 121.994 17.4594H118.448Z" fill="white"/>
<path d="M145.345 14.4782C146.91 15.4719 148.147 16.8555 149.043 18.6166C149.94 20.3776 150.394 22.365 150.394 24.5788C150.394 26.7927 149.94 28.7927 149.043 30.5915C148.147 32.3902 146.91 33.7739 145.345 34.7676C143.78 35.7613 142.051 36.2644 140.17 36.2644C138.693 36.2644 137.305 35.9374 136.017 35.2833C134.73 34.6292 133.695 33.8242 132.9 32.8556V34.0883C132.9 34.6544 132.71 35.1449 132.319 35.5349C131.94 35.9374 131.448 36.1261 130.842 36.1261C130.274 36.1261 129.795 35.9374 129.403 35.5475C129.012 35.1575 128.823 34.6795 128.823 34.0758V6.32718C128.823 5.73598 129.012 5.24541 129.378 4.85547C129.744 4.47811 130.236 4.27686 130.83 4.27686C131.423 4.27686 131.915 4.47811 132.306 4.86805C132.685 5.27057 132.887 5.74856 132.887 6.3146V16.7172C133.569 15.6983 134.566 14.8178 135.878 14.0756C137.191 13.3335 138.592 12.9687 140.069 12.9687C142.025 12.9813 143.78 13.4845 145.345 14.4782ZM143.174 31.4594C144.234 30.7676 145.055 29.8116 145.635 28.604C146.216 27.3965 146.506 26.0506 146.506 24.5788C146.506 23.1071 146.216 21.7612 145.635 20.5662C145.055 19.3713 144.234 18.4405 143.174 17.7486C142.114 17.0694 140.94 16.7298 139.627 16.7298C138.289 16.7298 137.09 17.0694 136.03 17.7486C134.97 18.4279 134.149 19.3587 133.569 20.5411C132.988 21.7235 132.698 23.0694 132.698 24.5663C132.698 26.0757 132.988 27.4216 133.569 28.6166C134.149 29.8116 134.97 30.755 136.03 31.4468C137.09 32.1386 138.277 32.4908 139.627 32.4908C140.927 32.5034 142.114 32.1638 143.174 31.4594Z" fill="#3099F2"/>
<path d="M174.137 25.1073C173.733 25.4595 173.266 25.6356 172.723 25.6356H157.665C157.867 27.7111 158.649 29.3715 160.038 30.6168C161.426 31.862 163.105 32.491 165.112 32.491C166.475 32.491 167.598 32.2897 168.444 31.8998C169.302 31.4973 170.06 30.9941 170.716 30.3652C171.145 30.1136 171.562 29.9752 171.953 29.9752C172.433 29.9752 172.849 30.1513 173.177 30.491C173.506 30.8306 173.67 31.2331 173.67 31.6859C173.67 32.2771 173.379 32.818 172.811 33.3086C171.978 34.1388 170.893 34.8306 169.517 35.3967C168.154 35.9627 166.753 36.252 165.326 36.252C163.017 36.252 160.984 35.774 159.23 34.8055C157.475 33.8369 156.125 32.491 155.166 30.7551C154.206 29.0193 153.727 27.057 153.727 24.8683C153.727 22.4783 154.219 20.3903 155.203 18.579C156.188 16.7802 157.488 15.384 159.091 14.428C160.707 13.4594 162.436 12.9814 164.291 12.9814C166.122 12.9814 167.826 13.4469 169.429 14.3903C171.019 15.3337 172.307 16.6167 173.278 18.2645C174.25 19.9123 174.743 21.7614 174.78 23.8117C174.755 24.3148 174.541 24.7551 174.137 25.1073ZM160.151 18.0758C158.977 18.9689 158.207 20.3526 157.841 22.2268H170.464V21.8872C170.325 20.3777 169.643 19.145 168.431 18.1764C167.22 17.2079 165.844 16.7299 164.304 16.7299C162.701 16.7299 161.313 17.1827 160.151 18.0758Z" fill="#3099F2"/>
<path d="M192.565 13.5598C193.108 13.9372 193.373 14.4151 193.373 14.9938C193.373 15.673 193.196 16.1887 192.843 16.5535C192.49 16.9057 192.048 17.0818 191.543 17.0818C191.29 17.0818 190.899 16.9938 190.394 16.8303C189.801 16.629 189.321 16.5284 188.981 16.5284C188.097 16.5284 187.239 16.8303 186.393 17.4466C185.547 18.063 184.866 18.8932 184.336 19.9623C183.806 21.0315 183.54 22.2139 183.54 23.5221V33.7989C183.54 34.3649 183.351 34.8555 182.96 35.2455C182.581 35.648 182.089 35.8366 181.483 35.8366C180.877 35.8366 180.398 35.648 180.032 35.258C179.665 34.8807 179.476 34.3901 179.476 33.7863V15.5472C179.476 14.9812 179.665 14.4906 180.057 14.1007C180.435 13.6982 180.915 13.5095 181.496 13.5095C182.089 13.5095 182.581 13.7107 182.972 14.1007C183.351 14.5032 183.553 14.9812 183.553 15.5472V17.7233C184.184 16.3271 185.118 15.2076 186.38 14.3397C187.63 13.4717 189.056 13.0315 190.659 12.9938C191.391 12.9812 192.035 13.1699 192.565 13.5598Z" fill="#3099F2"/>
<path d="M197.172 10.025C196.819 9.72315 196.642 9.24516 196.642 8.59107V7.91182C196.642 7.23257 196.831 6.742 197.222 6.46527C197.601 6.17596 198.194 6.0376 199.002 6.0376C199.797 6.0376 200.378 6.18854 200.732 6.49043C201.085 6.79232 201.262 7.27031 201.262 7.9244V8.60365C201.262 9.2829 201.072 9.77347 200.706 10.0502C200.34 10.3395 199.747 10.4779 198.952 10.4779C198.119 10.4653 197.525 10.3143 197.172 10.025ZM200.416 35.2327C200.037 35.6352 199.545 35.8239 198.939 35.8239C198.371 35.8239 197.891 35.6227 197.5 35.2327C197.121 34.8302 196.92 34.3522 196.92 33.7862V15.3207C196.92 14.7546 197.109 14.2641 197.5 13.8741C197.879 13.4716 198.358 13.2829 198.939 13.2829C199.532 13.2829 200.025 13.4842 200.416 13.8741C200.795 14.2766 200.997 14.7546 200.997 15.3207V33.7736C200.997 34.3522 200.807 34.8302 200.416 35.2327Z" fill="#3099F2"/>
<path d="M222.227 14.0508C223.729 14.7552 224.474 15.6734 224.474 16.7803C224.474 17.2583 224.322 17.6986 224.007 18.0759C223.691 18.4533 223.3 18.6546 222.808 18.6546C222.442 18.6546 222.139 18.5917 221.937 18.4785C221.722 18.3652 221.432 18.1766 221.066 17.925C220.889 17.7489 220.624 17.5602 220.258 17.3338C219.917 17.1577 219.425 17.0193 218.806 16.9061C218.175 16.7929 217.607 16.73 217.09 16.73C215.613 16.73 214.3 17.0696 213.152 17.7489C212.016 18.4281 211.132 19.3715 210.501 20.5791C209.87 21.7867 209.554 23.1326 209.554 24.6043C209.554 26.1137 209.857 27.4596 210.476 28.6546C211.094 29.8496 211.953 30.7804 213.063 31.4722C214.174 32.1641 215.449 32.4911 216.875 32.4911C218.352 32.4911 219.551 32.2647 220.473 31.8119C220.675 31.6986 220.94 31.51 221.28 31.2584C221.571 31.032 221.811 30.8559 222.025 30.7427C222.24 30.6295 222.505 30.5666 222.82 30.5666C223.388 30.5666 223.843 30.7427 224.171 31.0949C224.499 31.4471 224.663 31.9125 224.663 32.4785C224.663 33.0697 224.285 33.6609 223.527 34.2521C222.77 34.8307 221.76 35.3087 220.485 35.6861C219.21 36.0509 217.86 36.2396 216.396 36.2396C214.225 36.2396 212.319 35.7364 210.665 34.7301C209.012 33.7238 207.737 32.3276 206.841 30.554C205.944 28.7804 205.49 26.793 205.49 24.6043C205.49 22.4156 205.957 20.4282 206.904 18.6546C207.85 16.881 209.15 15.4847 210.842 14.4784C212.521 13.4721 214.452 12.969 216.61 12.969C218.857 12.9816 220.738 13.3338 222.227 14.0508Z" fill="#3099F2"/>
<path d="M247.535 22.4026V33.7863C247.535 34.3524 247.346 34.8429 246.955 35.2329C246.576 35.6354 246.084 35.8241 245.478 35.8241C244.91 35.8241 244.43 35.6228 244.039 35.2329C243.66 34.8304 243.458 34.3524 243.458 33.7863V22.4026C243.458 18.7045 241.893 16.8554 238.75 16.8554C237.071 16.8554 235.67 17.3837 234.56 18.4529C233.449 19.5221 232.894 20.8303 232.894 22.39V33.7737C232.894 34.3398 232.704 34.8304 232.313 35.2203C231.934 35.6228 231.442 35.8115 230.836 35.8115C230.23 35.8115 229.751 35.6228 229.385 35.2329C229.018 34.8555 228.829 34.3649 228.829 33.7612V6.32705C228.829 5.76101 229.018 5.27044 229.41 4.8805C229.788 4.47799 230.268 4.28931 230.849 4.28931C231.442 4.28931 231.934 4.49057 232.326 4.8805C232.704 5.28302 232.906 5.76101 232.906 6.32705V17.107C233.613 16.0001 234.623 15.0567 235.898 14.2768C237.185 13.4969 238.548 13.107 240 13.107C245.023 13.107 247.535 16.2139 247.535 22.4026Z" fill="#3099F2"/>
<path d="M259.678 17.4594V30.1638C259.678 31.5852 260.321 32.2896 261.596 32.2896C261.798 32.2896 262.063 32.2393 262.404 32.1387C262.745 32.038 263.023 31.9877 263.212 31.9877C263.578 31.9877 263.893 32.1387 264.159 32.4531C264.411 32.7676 264.537 33.1701 264.537 33.6481C264.537 34.2393 264.196 34.755 263.515 35.1827C262.833 35.6104 262.063 35.8242 261.205 35.8242C260.258 35.8242 259.4 35.7236 258.617 35.5223C257.835 35.3211 257.141 34.8179 256.522 34.0129C255.904 33.2079 255.601 31.9752 255.601 30.3273V17.4594H253.114C252.571 17.4594 252.117 17.2833 251.763 16.9311C251.41 16.5788 251.233 16.126 251.233 15.5851C251.233 15.0443 251.41 14.604 251.763 14.2644C252.117 13.9247 252.571 13.7486 253.114 13.7486H255.601V10.1637C255.601 9.59768 255.79 9.10711 256.181 8.71718C256.56 8.31466 257.052 8.12598 257.658 8.12598C258.226 8.12598 258.706 8.32724 259.097 8.71718C259.476 9.11969 259.678 9.59768 259.678 10.1637V13.7486H263.224C263.767 13.7486 264.209 13.9247 264.575 14.277C264.929 14.6292 265.105 15.082 265.105 15.6229C265.105 16.1638 264.929 16.604 264.575 16.9436C264.222 17.2833 263.767 17.4594 263.224 17.4594H259.678Z" fill="#3099F2"/>
<path d="M269.75 35.2332C269.397 34.8684 269.22 34.3275 269.22 33.6105V32.8055C269.22 32.1262 269.397 31.5979 269.75 31.2332C270.104 30.8684 270.621 30.6797 271.315 30.6797H271.744C272.451 30.6797 272.994 30.8684 273.347 31.2332C273.701 31.5979 273.877 32.1262 273.877 32.8055V33.6105C273.877 35.0571 273.171 35.7866 271.744 35.7866H271.315C270.634 35.7866 270.104 35.598 269.75 35.2332Z" fill="#3099F2"/>
<path d="M298.971 4.86805C299.349 5.24541 299.551 5.73598 299.551 6.33976V33.7864C299.551 34.3525 299.362 34.8431 298.971 35.233C298.592 35.6355 298.1 35.8242 297.494 35.8242C296.888 35.8242 296.408 35.6355 296.042 35.2456C295.676 34.8682 295.487 34.3776 295.487 33.7739V32.5789C294.78 33.5978 293.77 34.4657 292.47 35.1827C291.17 35.8871 289.782 36.2519 288.305 36.2519C286.361 36.2519 284.607 35.7487 283.041 34.755C281.476 33.7613 280.227 32.3776 279.318 30.604C278.409 28.8304 277.955 26.8304 277.955 24.6166C277.955 22.4027 278.409 20.4027 279.305 18.6291C280.201 16.8555 281.438 15.4719 283.004 14.4782C284.569 13.4845 286.298 12.9813 288.179 12.9813C289.693 12.9813 291.082 13.2958 292.369 13.9247C293.657 14.5536 294.692 15.3587 295.487 16.3524V6.32718C295.487 5.73598 295.676 5.24541 296.042 4.85547C296.408 4.47811 296.901 4.27686 297.494 4.27686C298.087 4.27686 298.579 4.47811 298.971 4.86805ZM292.331 31.4846C293.366 30.8053 294.187 29.8619 294.767 28.6669C295.348 27.4719 295.638 26.126 295.638 24.6166C295.638 23.1449 295.348 21.799 294.767 20.5914C294.187 19.3839 293.366 18.4405 292.331 17.7612C291.296 17.082 290.097 16.7423 288.759 16.7423C287.421 16.7423 286.222 17.082 285.187 17.7612C284.152 18.4405 283.332 19.3839 282.751 20.5914C282.17 21.799 281.88 23.1449 281.88 24.6166C281.88 26.126 282.17 27.4719 282.751 28.6669C283.332 29.8619 284.152 30.7927 285.187 31.4846C286.222 32.1638 287.421 32.5034 288.759 32.5034C290.11 32.5034 291.296 32.1638 292.331 31.4846Z" fill="#3099F2"/>
<path d="M324.606 25.1073C324.202 25.4595 323.735 25.6356 323.193 25.6356H308.134C308.336 27.7111 309.119 29.3715 310.507 30.6168C311.896 31.862 313.575 32.491 315.581 32.491C316.945 32.491 318.068 32.2897 318.914 31.8998C319.772 31.4973 320.529 30.9941 321.186 30.3652C321.615 30.1136 322.031 29.9752 322.423 29.9752C322.902 29.9752 323.319 30.1513 323.647 30.491C323.975 30.8306 324.139 31.2331 324.139 31.6859C324.139 32.2771 323.849 32.818 323.281 33.3086C322.448 34.1388 321.362 34.8306 319.987 35.3967C318.623 35.9627 317.222 36.252 315.796 36.252C313.486 36.252 311.454 35.774 309.699 34.8055C307.945 33.8369 306.594 32.491 305.635 30.7551C304.676 29.0193 304.196 27.057 304.196 24.8683C304.196 22.4783 304.688 20.3903 305.673 18.579C306.658 16.7802 307.958 15.384 309.561 14.428C311.176 13.4594 312.906 12.9814 314.761 12.9814C316.591 12.9814 318.295 13.4469 319.898 14.3903C321.489 15.3337 322.776 16.6167 323.748 18.2645C324.72 19.9123 325.212 21.7614 325.25 23.8117C325.225 24.3148 325.01 24.7551 324.606 25.1073ZM310.621 18.0758C309.447 18.9689 308.677 20.3526 308.311 22.2268H320.933V21.8872C320.794 20.3777 320.113 19.145 318.901 18.1764C317.689 17.2079 316.314 16.7299 314.774 16.7299C313.171 16.7299 311.795 17.1827 310.621 18.0758Z" fill="#3099F2"/>
<path d="M20.3344 0C9.12588 0 0 9.09439 0 20.2643C0 31.4341 9.11326 40.5411 20.3344 40.5411C31.5556 40.5411 40.6689 31.4467 40.6689 20.2768C40.6689 9.10696 31.543 0 20.3344 0ZM31.6944 14.9435L18.7062 27.7863C17.9362 28.5536 16.7245 28.6039 15.904 27.8366L9.0249 21.585C8.20446 20.8177 8.15397 19.5473 8.87344 18.7422C9.64339 17.9246 10.9182 17.8743 11.7261 18.6416L17.1789 23.6228L28.804 12.0378C29.6244 11.2202 30.8992 11.2202 31.7071 12.0378C32.5149 12.8554 32.5149 14.1259 31.6944 14.9435Z" fill="#3099F2"/>
</svg>
