<svg width="18" height="18" viewBox="0 0 18 18" fill="none" xmlns="http://www.w3.org/2000/svg">
<path fill-rule="evenodd" clip-rule="evenodd" d="M6.62677 1.68542L8.66681 0.113094C8.86747 -0.0417651 9.14594 -0.0344411 9.33694 0.11577L11.3254 1.68542H14.3281C14.6263 1.68542 14.8681 1.92155 14.8681 2.21274V4.25225L17.787 6.43577C17.9257 6.53943 17.9986 6.69577 17.9988 6.85408L18 17.4726C18 17.7639 17.7584 18 17.4601 18H0.539913C0.241836 18 0 17.7639 0 17.4726V6.85408C0 6.67042 0.0961144 6.50873 0.241836 6.41422L3.13205 4.25225V2.21274C3.13205 1.92155 3.37374 1.68542 3.67196 1.68542H6.62677ZM5.83205 6.83662C5.53368 6.83662 5.29213 7.07253 5.29213 7.36394C5.29213 7.65514 5.53368 7.89134 5.83205 7.89134C6.13027 7.89134 6.3721 7.65514 6.3721 7.36394C6.3721 7.07253 6.13027 6.83662 5.83205 6.83662ZM7.99199 7.89134H12.168C12.4662 7.89134 12.7079 7.65514 12.7079 7.36394C12.7079 7.07253 12.4662 6.83662 12.168 6.83662H7.99199C7.69384 6.83662 7.45208 7.07253 7.45208 7.36394C7.45208 7.65514 7.69384 7.89134 7.99199 7.89134ZM5.83205 4.72683C5.53368 4.72683 5.29213 4.96295 5.29213 5.25415C5.29213 5.54542 5.53368 5.78169 5.83205 5.78169C6.13027 5.78169 6.3721 5.54542 6.3721 5.25415C6.3721 4.96295 6.13027 4.72683 5.83205 4.72683ZM7.99199 5.78169H12.168C12.4662 5.78169 12.7079 5.54542 12.7079 5.25415C12.7079 4.96295 12.4662 4.72683 12.168 4.72683H7.99199C7.69384 4.72683 7.45208 4.96295 7.45208 5.25415C7.45208 5.54542 7.69384 5.78169 7.99199 5.78169ZM1.3288 6.92676L3.13205 8.4857V5.57774L1.3288 6.92676ZM4.21202 9.41943L6.58084 11.4674L7.91772 10.2951C8.53688 9.75211 9.46319 9.75211 10.0823 10.2951L11.4605 11.5037L13.788 9.46091V2.74035H4.21202V9.41943ZM5.77501 12.174C4.20964 10.8208 2.64549 9.46838 1.08012 8.11507V16.2912L5.77501 12.174ZM14.8681 8.51324L16.6737 6.92859L14.8681 5.57774V8.51324ZM16.92 8.12852L12.2676 12.2113L16.92 16.2912V8.12852ZM16.0516 16.9452L9.36088 11.0779C9.15524 10.8977 8.84476 10.8977 8.63927 11.0779L1.94846 16.9452H16.0516ZM9.61238 1.68542L8.99517 1.19781L8.36253 1.68542H9.61238Z" fill="#7891A6"/>
</svg>
