<svg width="17" height="17" viewBox="0 0 17 17" fill="none" xmlns="http://www.w3.org/2000/svg">
<path d="M15.5275 5.45599L11.5433 1.47195C11.239 1.16754 10.8332 1 10.4006 1C9.96793 1 9.56213 1.16766 9.25783 1.47195L2.44962 8.28016C1.81951 8.91027 1.81951 9.93555 2.44962 10.5657L2.7997 10.9156L1.12875 12.5866C0.957085 12.7582 0.957085 13.0364 1.12875 13.2081C1.21446 13.2939 1.32696 13.3367 1.43945 13.3367C1.55195 13.3367 1.66433 13.2939 1.75016 13.2081L3.42111 11.537L4.13087 12.2469L1.12875 15.2493C0.957085 15.4208 0.957085 15.6991 1.12875 15.8707C1.21446 15.9565 1.32696 15.9993 1.43945 15.9993C1.55195 15.9993 1.66433 15.9565 1.75016 15.8707L4.75229 12.8684L5.46228 13.5782L3.79133 15.2493C3.61967 15.4208 3.61967 15.699 3.79133 15.8707C3.87716 15.9565 3.98954 15.9994 4.10204 15.9994C4.21453 15.9994 4.32691 15.9565 4.41274 15.8707L6.08369 14.1997L6.43365 14.5498C6.73807 14.8541 7.14388 15.0216 7.57646 15.0216C8.00905 15.0216 8.41486 14.8541 8.71927 14.5497L15.5275 7.7416C16.1576 7.11149 16.1576 6.0861 15.5275 5.45599ZM9.68504 2.28769L8.61501 7.63734L3.26524 8.70737L9.68504 2.28769ZM14.9059 7.12007L8.09785 13.9283C7.9595 14.0666 7.77433 14.1427 7.57646 14.1427C7.37859 14.1427 7.19354 14.0666 7.05507 13.9283L5.06322 11.9363C5.06322 11.9363 5.06311 11.9363 5.06311 11.9362C5.063 11.9361 5.063 11.9361 5.06288 11.9361L3.73193 10.605C3.73182 10.605 3.73182 10.605 3.73182 10.6049C3.7317 10.6049 3.7317 10.6048 3.7317 10.6048L3.07115 9.94425C2.99287 9.86597 2.93611 9.7743 2.90041 9.67657L9.07472 8.44175C9.24867 8.40696 9.38463 8.271 9.41942 8.09705L10.6542 1.92297C10.7539 1.95913 10.8451 2.01658 10.9219 2.09337L14.9059 6.07752C15.1934 6.36488 15.1934 6.8326 14.9059 7.12007Z" fill="#3099F2" stroke="#3099F2" stroke-width="0.3"/>
</svg>
