<svg width="132" height="126" viewBox="0 0 132 126" fill="none" xmlns="http://www.w3.org/2000/svg">
<g clip-path="url(#clip0)">
<path d="M124.536 35.7568C124.042 34.1729 123.213 32.7869 122.147 31.6188C113.676 19.2445 94.0685 26.4117 65.536 34.5292C60.7575 35.8954 61.7448 29.4607 59.632 16.6905C58.2498 8.37495 49.3445 -2.25704 40.6762 0.415807C26.4 4.83095 43.5985 11.82 39.5506 43.5179C37.3786 60.446 19.7457 56.803 24.3465 71.7115L34.8117 105.667C36.6085 111.468 38.899 116.873 47.3502 115.249C55.5447 113.685 55.5052 119.882 66.9379 116.338L124.2 98.5984C130.025 96.7967 133.323 90.5798 131.526 84.759C130.776 82.3435 129.255 80.4032 127.34 79.0569C130.025 76.2454 131.19 72.1471 129.966 68.1873C129.216 65.7719 127.695 63.8514 125.8 62.4852C128.485 59.6738 129.67 55.5754 128.446 51.5959C127.557 48.725 125.583 46.468 123.114 45.1414C124.892 42.4884 125.563 39.0632 124.536 35.7568Z" fill="#FACB32"/>
<path d="M89.9418 58.0503L117.23 49.5962C120.943 48.4479 123.806 45.3791 124.734 41.5975C125.109 40.0334 124.141 38.4693 122.581 38.0931C121.022 37.7169 119.462 38.687 119.086 40.2512C118.652 42.0528 117.29 43.4982 115.532 44.0525L87.5921 52.7046C84.8277 53.556 81.8855 52.0117 81.0167 49.2398C80.1677 46.468 81.7276 43.5378 84.492 42.6666L103.171 36.8853C104.712 36.4102 105.561 34.7867 105.087 33.2621C104.613 31.7376 102.994 30.8863 101.454 31.3417L82.7741 37.1229C76.9491 38.9246 73.6516 45.1415 75.4485 50.9623C76.4555 54.2094 78.8447 56.605 81.7473 57.8326C80.3849 60.347 79.99 63.396 80.8983 66.3263C81.9053 69.5733 84.3143 71.9887 87.2366 73.2163C85.8939 75.7307 85.499 78.76 86.4073 81.6902C87.4933 85.2342 90.238 87.808 93.5158 88.897C92.4298 91.2729 92.1336 94.0249 92.9629 96.7175C94.7597 102.538 100.96 105.805 106.785 104.004L124.201 98.5984C127.913 97.4501 130.796 94.3813 131.704 90.6195C132.079 89.0554 131.131 87.4913 129.571 87.1151C128.012 86.7389 126.432 87.7091 126.057 89.2534C125.622 91.0551 124.26 92.5004 122.483 93.0548L105.087 98.44C102.322 99.2914 99.3802 97.7471 98.5114 94.9752C97.6624 92.2034 99.2223 89.2732 101.987 88.402L122.621 82.007C126.333 80.8586 129.216 77.7898 130.124 74.0082C130.499 72.4441 129.552 70.88 127.992 70.5038C126.412 70.1277 124.852 71.0978 124.477 72.6421C124.043 74.4636 122.7 75.8891 120.903 76.4435L98.5312 83.4325C95.7668 84.2838 92.8247 82.7395 91.9559 79.9677C91.1068 77.1959 92.6667 74.2656 95.4311 73.3945L121.101 65.4353C124.813 64.287 127.696 61.2182 128.604 57.4564C128.979 55.8923 128.031 54.3282 126.471 53.952C124.911 53.5758 123.332 54.5459 122.957 56.0902C122.522 57.9117 121.179 59.3373 119.383 59.8916L93.0221 68.0686C90.2577 68.9199 87.3156 67.3756 86.4468 64.6038C85.5977 61.8517 87.1576 58.9017 89.9418 58.0503Z" fill="#EBA223"/>
<path d="M40.2614 120.278L22.431 125.802C19.9628 126.574 17.3366 125.188 16.5863 122.713L0.217108 69.593C-0.552975 67.1181 0.829225 64.4849 3.29744 63.7325L21.1278 58.2086C23.596 57.4365 26.2222 58.8224 26.9725 61.2973L43.3417 114.398C44.1118 116.873 42.7296 119.506 40.2614 120.278Z" fill="#7F99EB"/>
</g>
<defs>
<clipPath id="clip0">
<rect width="132" height="126" fill="white"/>
</clipPath>
</defs>
</svg>
