<svg width="18" height="16" viewBox="0 0 18 16" fill="none" xmlns="http://www.w3.org/2000/svg">
<path d="M17.9837 8C17.9837 9.48571 16.7863 10.6941 15.3139 10.6941H11.6609V13.3059C11.6609 14.7916 10.4635 16 8.99185 16H7.41153C6.28605 16 6.27406 14.8853 6.32127 13.8667C6.33926 13.4697 6.36024 13.024 6.33251 12.5562C5.52774 11.1177 5.0227 10.2141 4.70873 9.63276H0.561991C0.251772 9.63276 0 9.37676 0 9.06133L0 0.571428C0 0.256 0.251772 0 0.561991 0L15.5169 0C15.7387 0 15.9396 0.132571 16.031 0.339047C18.153 5.19238 18.0227 5.12457 17.9837 8ZM4.21493 1.14286H1.12398L1.12398 8.4899H4.21418C4.21418 8.48838 4.21493 8.4861 4.21493 8.48381L4.21493 1.14286ZM15.152 1.14286L5.33891 1.14286L5.33891 8.40229C5.45431 8.63086 5.87468 9.42857 7.37257 12.1036C7.52318 12.3718 7.45799 13.6061 7.44375 13.9208C7.42877 14.2438 7.40929 14.6712 7.44675 14.8571L8.99185 14.8571C9.84458 14.8571 10.537 14.1615 10.537 13.3059V10.1219C10.537 9.80648 10.7887 9.55048 11.0989 9.55048H15.3139C16.1666 9.55048 16.8597 8.85486 16.8597 7.9939C16.8949 5.3379 17.0261 5.43543 15.152 1.14286Z" fill="#E51804"/>
</svg>
