<svg width="18" height="16" viewBox="0 0 18 16" fill="none" xmlns="http://www.w3.org/2000/svg">
<path d="M17.9837 8C17.9837 6.51429 16.7863 5.3059 15.3139 5.3059H11.6609V2.6941C11.6609 1.20838 10.4635 0 8.99185 0H7.41153C6.28605 0 6.27406 1.11467 6.32127 2.13333C6.33926 2.53029 6.36024 2.976 6.33251 3.44381C5.52774 4.88229 5.0227 5.78591 4.70873 6.36724H0.561991C0.251772 6.36724 0 6.62324 0 6.93867V15.4286C0 15.744 0.251772 16 0.561991 16H15.5169C15.7387 16 15.9396 15.8674 16.031 15.661C18.153 10.8076 18.0227 10.8754 17.9837 8ZM4.21493 14.8571H1.12398V7.5101H4.21418C4.21418 7.51162 4.21493 7.5139 4.21493 7.51619V14.8571ZM15.152 14.8571H5.33891V7.59771C5.45431 7.36914 5.87468 6.57143 7.37257 3.89638C7.52318 3.62819 7.45799 2.3939 7.44375 2.07924C7.42877 1.75619 7.40929 1.32876 7.44675 1.14286H8.99185C9.84458 1.14286 10.537 1.83848 10.537 2.6941V5.8781C10.537 6.19352 10.7887 6.44952 11.0989 6.44952H15.3139C16.1666 6.44952 16.8597 7.14514 16.8597 8.0061C16.8949 10.6621 17.0261 10.5646 15.152 14.8571Z" fill="#56D11C"/>
</svg>
