<svg width="160" height="142" viewBox="0 0 160 142" fill="none" xmlns="http://www.w3.org/2000/svg">
<g clip-path="url(#clip0)">
<path opacity="0.5" d="M137.239 116.347L112.556 8.36053C112.218 6.93248 110.789 6.02373 109.36 6.36126L108.711 6.51705C108.711 6.51705 108.711 6.51705 108.685 6.51705L82.7021 12.437L81.9226 9.03561C81.8706 8.82789 81.7667 8.64614 81.6108 8.51632C81.377 8.3086 81.0392 8.20475 80.7014 8.28264L72.3611 10.1781C71.8674 10.2819 71.3477 9.9963 71.1659 9.52894C69.9967 6.38723 66.6449 4.51778 63.2672 5.27075C59.8895 6.04969 57.681 9.16543 57.9928 12.5149C58.0447 13.0341 57.707 13.5015 57.2133 13.6054L49.4965 15.371C48.9509 15.5008 48.6131 16.046 48.743 16.5913L49.5225 19.9926L22.6566 26.1462C21.3575 26.4318 20.552 27.7301 20.8378 29.0283L45.6251 137.508C45.755 138.105 46.1188 138.625 46.5865 138.936C47.1321 139.3 47.8076 139.455 48.4832 139.3L134.589 119.67L135.265 119.515C136.668 119.203 137.577 117.775 137.239 116.347ZM64.0467 8.49036C65.9434 8.04896 67.8401 9.24333 68.2558 11.1387C68.6975 13.0341 67.5023 14.9296 65.6056 15.345C63.7089 15.7864 61.8122 14.592 61.3965 12.6966C60.9548 10.8012 62.15 8.90579 64.0467 8.49036Z" fill="#EFCF4B"/>
<path d="M134.719 118.476L49.1587 138.001C47.7297 138.339 46.3006 137.43 45.9629 136.002L21.2795 28.0416C20.9417 26.6136 21.8511 25.1855 23.2802 24.848L108.866 5.32268C110.295 4.98514 111.724 5.8939 112.062 7.32195L136.746 115.308C137.057 116.736 136.148 118.164 134.719 118.476Z" fill="#343A41"/>
<path d="M111.075 7.27L135.862 115.75C136.148 117.048 135.343 118.32 134.044 118.632L47.9896 138.287C47.3141 138.443 46.6125 138.287 46.0929 137.924C45.6252 137.586 45.2615 137.093 45.1315 136.495L20.3183 27.9897C20.0325 26.6915 20.838 25.4192 22.1371 25.1076L108.191 5.45249C108.867 5.2967 109.568 5.45249 110.088 5.81599C110.581 6.17949 110.945 6.67282 111.075 7.27Z" fill="#3E454D"/>
<path d="M110.088 5.84197L46.0929 137.924C45.6252 137.586 45.2615 137.093 45.1316 136.495L20.3183 27.9897C20.0325 26.6915 20.838 25.4192 22.1371 25.1077L108.191 5.45251C108.867 5.32268 109.568 5.47847 110.088 5.84197Z" fill="#485059"/>
<path d="M107.932 10.3079L129.627 105.208L122.56 116.503L48.2501 133.458L24.4502 29.3658L107.932 10.3079Z" fill="white"/>
<path d="M129.627 105.208L122.56 116.503L120.455 107.311L129.627 105.208Z" fill="#E6E6E6"/>
<path d="M36.6614 51.6953L33.9072 39.6218L45.9891 36.8696L48.7432 48.9431L36.6614 51.6953ZM36.4015 41.1537L38.2463 49.1767L46.2749 47.3333L44.4301 39.3102L36.4015 41.1537Z" fill="#E6E6E6"/>
<path d="M40.4547 48.0343L37.8564 46.3985L38.558 45.308L40.039 46.2428L43.5206 40.6863L44.6379 41.3614L40.4547 48.0343Z" fill="#3E454D"/>
<path d="M72.8854 31.6884L49.7842 36.9619L50.276 39.1134L73.3773 33.84L72.8854 31.6884Z" fill="#FF5349"/>
<path d="M104.932 28.602L50.7002 40.9819L51.192 43.1335L105.424 30.7536L104.932 28.602Z" fill="#E6E6E6"/>
<path d="M96.7401 34.6542L51.6016 44.9583L52.0934 47.1098L97.232 36.8058L96.7401 34.6542Z" fill="#E6E6E6"/>
<path d="M40.8704 70.0782L38.1162 58.0047L50.1981 55.2524L52.9522 67.3259L40.8704 70.0782ZM40.5845 59.5625L42.4293 67.5856L50.4579 65.7421L48.6131 57.7191L40.5845 59.5625Z" fill="#E6E6E6"/>
<path d="M44.6377 66.4172L42.0654 64.7814L42.741 63.6909L44.248 64.6256L47.7296 59.0692L48.8209 59.7443L44.6377 66.4172Z" fill="#3E454D"/>
<path d="M77.0671 50.0761L53.9658 55.3495L54.4577 57.5011L77.5589 52.2277L77.0671 50.0761Z" fill="#FF5349"/>
<path d="M109.12 47.0151L54.8877 59.395L55.3795 61.5466L109.612 49.1667L109.12 47.0151Z" fill="#E6E6E6"/>
<path d="M72.9874 59.421L55.8135 63.3414L56.3053 65.493L73.4793 61.5726L72.9874 59.421Z" fill="#E6E6E6"/>
<path d="M45.0793 88.4611L42.3252 76.3876L54.4071 73.6354L57.1612 85.7089L45.0793 88.4611ZM44.7935 77.9455L46.6383 85.9685L54.6669 84.125L52.8221 76.102L44.7935 77.9455Z" fill="#E6E6E6"/>
<path d="M51.1015 77.6449L47.2588 83.7572L48.3589 84.4479L52.2016 78.3355L51.1015 77.6449Z" fill="#3E454D"/>
<path d="M47.0123 78.5785L46.3213 79.6778L52.4378 83.5171L53.1288 82.4178L47.0123 78.5785Z" fill="#3E454D"/>
<path d="M81.2741 68.4583L58.1729 73.7318L58.6647 75.8833L81.7659 70.6099L81.2741 68.4583Z" fill="#FF5349"/>
<path d="M113.328 65.3972L59.0957 77.7771L59.5875 79.9287L113.82 67.5488L113.328 65.3972Z" fill="#E6E6E6"/>
<path d="M96.5633 73.3857L60.0117 81.7296L60.5036 83.8811L97.0552 75.5373L96.5633 73.3857Z" fill="#E6E6E6"/>
<path d="M49.2629 106.844L46.5088 94.7704L58.5906 92.0182L61.3448 104.092L49.2629 106.844ZM49.0031 96.3283L50.8479 104.351L58.8764 102.508L57.0317 94.4848L49.0031 96.3283Z" fill="#E6E6E6"/>
<path d="M55.3261 96.0408L51.4834 102.153L52.5835 102.844L56.4262 96.7314L55.3261 96.0408Z" fill="#3E454D"/>
<path d="M51.2359 96.9739L50.5449 98.0732L56.6615 101.913L57.3525 100.813L51.2359 96.9739Z" fill="#3E454D"/>
<path d="M85.4821 86.8401L62.3809 92.1136L62.8727 94.2652L85.9739 88.9917L85.4821 86.8401Z" fill="#FF5349"/>
<path d="M117.536 83.7792L63.3037 96.1591L63.7955 98.3107L118.028 85.9308L117.536 83.7792Z" fill="#E6E6E6"/>
<path d="M114.959 88.5384L64.2227 100.12L64.7145 102.272L115.451 90.69L114.959 88.5384Z" fill="#E6E6E6"/>
<path d="M53.4719 125.253L50.7178 113.179L62.7996 110.427L65.5538 122.501L53.4719 125.253ZM53.2121 114.711L55.0568 122.734L63.0854 120.891L61.2407 112.868L53.2121 114.711Z" fill="#E6E6E6"/>
<path d="M57.2652 121.592L54.667 119.956L55.3685 118.866L56.8495 119.8L60.3312 114.244L61.4484 114.919L57.2652 121.592Z" fill="#3E454D"/>
<path d="M89.6959 105.248L66.5947 110.521L67.0866 112.673L90.1878 107.399L89.6959 105.248Z" fill="#FF5349"/>
<path d="M121.744 102.161L67.5117 114.541L68.0036 116.693L122.236 104.313L121.744 102.161Z" fill="#E6E6E6"/>
<path d="M113.546 108.188L68.4072 118.492L68.8991 120.644L114.038 110.34L113.546 108.188Z" fill="#E6E6E6"/>
<path d="M81.1173 7.47775C80.8835 7.27003 80.5457 7.16617 80.2079 7.24407L71.8675 9.13948C71.3739 9.24333 70.8542 8.95772 70.6724 8.49036C69.5031 5.34866 66.1514 3.47921 62.7737 4.23218C59.396 5.01112 57.1875 8.12686 57.4992 11.4763C57.5512 11.9956 57.2134 12.4629 56.7198 12.5668L49.003 14.3324C48.4573 14.4622 48.1196 15.0075 48.2495 15.5527L50.1982 24.0691C50.5359 25.575 51.4193 26.8213 52.5626 27.6781C53.9656 28.7167 55.7844 29.1581 57.6292 28.7427L78.7269 23.9393C82.0527 23.1863 84.1573 19.8628 83.4038 16.5134L81.4551 7.99704C81.3771 7.81528 81.2732 7.63353 81.1173 7.47775ZM63.5272 7.45178C65.4239 7.01038 67.3206 8.20475 67.7363 10.1002C68.178 11.9956 66.9828 13.891 65.0861 14.3064C63.1894 14.7478 61.2927 13.5534 60.877 11.658C60.4353 9.76262 61.6305 7.86721 63.5272 7.45178Z" fill="#DBDFDE"/>
<path d="M80.2079 7.24406L71.8675 9.13947C71.3739 9.24333 70.8542 8.95772 70.6723 8.49036C69.5031 5.34865 66.1514 3.47921 62.7737 4.23218C59.396 5.01112 57.1875 8.12686 57.4992 11.4763C57.5512 11.9956 57.2134 12.4629 56.7198 12.5668L49.003 14.3324C48.4573 14.4622 48.1196 15.0075 48.2495 15.5527L50.1982 24.0691C50.5359 25.575 51.4193 26.8213 52.5626 27.6781L81.1173 7.47775C80.8834 7.27003 80.5457 7.16617 80.2079 7.24406ZM65.0861 14.3064C63.1894 14.7478 61.2927 13.5534 60.877 11.658C60.4353 9.76262 61.6304 7.86721 63.5272 7.45178C65.4239 7.01038 67.3206 8.20475 67.7363 10.1002C68.178 11.9956 66.9828 13.865 65.0861 14.3064Z" fill="#E6EAE9"/>
<path opacity="0.5" d="M55.6287 75.7385L48.3017 80.5939L4.23541 132.159L1.19547 135.717C-0.103658 137.222 0.0782196 139.481 1.5852 140.78L2.00092 141.143C3.5079 142.441 5.76838 142.26 7.0675 140.754L10.3933 136.885L12.186 134.782L11.9522 134.496L53.9658 85.3194L57.8112 77.6339L59.9938 72.8564L55.6287 75.7385Z" fill="#EFCF4B"/>
<path d="M7.53512 138.702L53.8359 84.4885L57.4734 76.4914L59.6559 71.7399L47.9638 79.4774L1.66309 133.665L7.53512 138.702Z" fill="#637285"/>
<path d="M51.9897 82.92L5.6875 137.13L7.52539 138.698L53.8275 84.4876L51.9897 82.92Z" fill="#5F6D7F"/>
<path d="M47.9545 79.4527L1.65234 133.663L3.49024 135.23L49.7924 81.0203L47.9545 79.4527Z" fill="#6C7A87"/>
<path d="M10.0294 135.794L4.15735 130.757L0.857575 134.6C-0.441548 136.106 -0.259671 138.365 1.24731 139.663L1.66303 140.027C3.17002 141.325 5.43049 141.143 6.72961 139.637L10.0294 135.794Z" fill="#2C3A3D"/>
<path d="M11.8267 133.67L5.9375 128.647L4.14951 130.74L10.0387 135.764L11.8267 133.67Z" fill="#FFDB53"/>
<path d="M11.8447 133.67L10.0068 132.102L8.21885 134.196L10.0567 135.763L11.8447 133.67Z" fill="#F0B213"/>
<path d="M7.77637 130.232L5.93848 128.664L4.15049 130.758L5.98838 132.325L7.77637 130.232Z" fill="#FCDC7A"/>
<path d="M53.8359 84.4885L59.656 71.7399L47.9639 79.4774L53.8359 84.4885Z" fill="#FAF7C2"/>
<path d="M53.836 84.4885L57.4735 76.4915L51.9912 82.9307L53.836 84.4885Z" fill="#ECEAB9"/>
<path d="M47.9639 79.4774L55.2909 74.622L49.7826 81.0352L47.9639 79.4774Z" fill="#F9F6CF"/>
<path d="M57.4735 76.4915L59.6561 71.7399L55.291 74.622L57.4735 76.4915Z" fill="#333C43"/>
<path opacity="0.5" d="M160 88.2015L158.259 75.7125L152.699 76.4915L134.018 79.0619L135.732 91.5509L154.414 88.9804L160 88.2015Z" fill="#EFCF4B"/>
<path d="M158.006 74.663L133.761 78.0016L135.481 90.476L159.726 87.1374L158.006 74.663Z" fill="#FD544D"/>
<path d="M158.001 74.6886L152.416 75.4577L153.703 84.7942L159.289 84.0252L158.001 74.6886Z" fill="#FAF7C2"/>
<path d="M159.314 84.0286L153.729 84.7977L154.161 87.9355L159.746 87.1665L159.314 84.0286Z" fill="#ECEAB9"/>
<path d="M153.716 84.7914L135.03 87.3644L135.463 90.5023L154.149 87.9293L153.716 84.7914Z" fill="#C55251"/>
<path opacity="0.5" d="M142.696 36.584C147.113 32.949 149.919 27.4704 149.919 21.3169C149.919 15.7605 147.607 10.7233 143.917 7.14023C140.358 3.68695 135.499 1.55786 130.147 1.55786C119.234 1.55786 110.374 10.4118 110.374 21.3169C110.374 27.4964 113.206 33.0009 117.623 36.61C121.027 39.3882 125.392 41.0759 130.121 41.0759C132.667 41.0759 135.109 40.5825 137.344 39.6997L138.617 42.6337C139.241 44.1137 141.033 44.6849 142.41 43.88L143.787 43.0751C145.165 42.2702 145.554 40.4527 144.593 39.1545L142.696 36.584Z" fill="#EFCF4B"/>
<path d="M149.14 19.759C149.14 30.6641 140.28 39.518 129.368 39.518C124.613 39.518 120.274 37.8563 116.87 35.0521C112.427 31.4171 109.621 25.9126 109.621 19.759C109.621 8.8539 118.481 0 129.394 0C134.746 0 139.605 2.12909 143.164 5.58237C146.854 9.16548 149.14 14.2026 149.14 19.759Z" fill="#B8AB74"/>
<path d="M149.14 19.759C149.14 30.6641 140.28 39.518 129.368 39.518C124.613 39.518 120.274 37.8563 116.87 35.0521L143.138 5.5824C146.854 9.1655 149.14 14.2026 149.14 19.759Z" fill="#ADA26E"/>
<path d="M143.84 37.6226L139.735 32.0922C138.929 31.0017 137.422 30.6901 136.253 31.3652C135.084 32.0403 134.59 33.4943 135.136 34.7406L137.864 41.0499C138.488 42.5299 140.281 43.1011 141.658 42.2962L143.035 41.4913C144.438 40.7384 144.801 38.8949 143.84 37.6226Z" fill="#F2EFDC"/>
<path d="M144.936 23.893C147.255 15.2649 142.135 6.39171 133.501 4.07431C124.867 1.75691 115.988 6.8728 113.669 15.501C111.35 24.1291 116.469 33.0023 125.103 35.3197C133.737 37.6371 142.617 32.5212 144.936 23.893Z" fill="#F2EFDC"/>
<path d="M142.878 23.3408C144.892 15.8483 140.446 8.14305 132.948 6.13067C125.451 4.11829 117.74 8.56082 115.726 16.0533C113.713 23.5459 118.158 31.2511 125.656 33.2635C133.154 35.2759 140.864 30.8333 142.878 23.3408Z" fill="#DDDAC9"/>
<path d="M141.623 23.004C143.451 16.204 139.416 9.21085 132.612 7.38446C125.807 5.55806 118.809 9.59 116.981 16.3901C115.153 23.1901 119.188 30.1832 125.993 32.0096C132.798 33.836 139.796 29.8041 141.623 23.004Z" fill="#7D5329"/>
<path d="M137.965 22.0153C139.521 16.2262 136.086 10.2728 130.293 8.71795C124.5 7.1631 118.542 10.5956 116.986 16.3846C115.43 22.1737 118.865 28.1271 124.658 29.682C130.451 31.2368 136.409 27.8043 137.965 22.0153Z" fill="#A87236"/>
<path d="M135.199 21.2798C136.074 18.0252 134.143 14.6782 130.886 13.8041C127.629 12.9299 124.28 14.8597 123.405 18.1143C122.53 21.3689 124.461 24.7159 127.718 25.59C130.975 26.4642 134.325 24.5344 135.199 21.2798Z" fill="#B57B3A"/>
</g>
<defs>
<clipPath id="clip0">
<rect width="160" height="142" fill="white"/>
</clipPath>
</defs>
</svg>
