<svg width="14" height="14" viewBox="0 0 14 14" fill="none" xmlns="http://www.w3.org/2000/svg">
<g clip-path="url(#clip0)">
<path d="M10.5733 8.32355C9.60022 8.32355 8.80859 9.11518 8.80859 10.0883C8.80859 11.0613 9.60022 11.853 10.5733 11.853C11.5466 11.853 12.338 11.0613 12.338 10.0883C12.338 9.11518 11.5464 8.32355 10.5733 8.32355ZM10.5733 10.9706C10.0867 10.9706 9.69095 10.5749 9.69095 10.0883C9.69095 9.60165 10.0867 9.2059 10.5733 9.2059C11.0599 9.2059 11.4557 9.60165 11.4557 10.0883C11.4557 10.5749 11.0599 10.9706 10.5733 10.9706Z" fill="#3099F2"/>
<path d="M4.54401 8.32355C3.57093 8.32355 2.7793 9.11518 2.7793 10.0883C2.7793 11.0613 3.57093 11.853 4.54401 11.853C5.51709 11.853 6.30872 11.0613 6.30872 10.0883C6.30872 9.11518 5.51709 8.32355 4.54401 8.32355ZM4.54401 10.9706C4.0574 10.9706 3.66165 10.5749 3.66165 10.0883C3.66165 9.60165 4.0574 9.2059 4.54401 9.2059C5.03048 9.2059 5.42636 9.60165 5.42636 10.0883C5.42636 10.5749 5.03062 10.9706 4.54401 10.9706Z" fill="#3099F2"/>
<path d="M11.7617 3.27237C11.6867 3.1234 11.5342 3.02942 11.3675 3.02942H9.04395V3.91178H11.0954L12.2967 6.30118L13.0853 5.9047L11.7617 3.27237Z" fill="#3099F2"/>
<path d="M9.25034 9.66178H5.91211V10.5441H9.25034V9.66178Z" fill="#3099F2"/>
<path d="M3.22055 9.66178H1.69116C1.44748 9.66178 1.25 9.85929 1.25 10.1029C1.25 10.3466 1.4475 10.5441 1.69116 10.5441H3.22058C3.46427 10.5441 3.66175 10.3466 3.66175 10.1029C3.66175 9.85926 3.46424 9.66178 3.22055 9.66178Z" fill="#3099F2"/>
<path d="M13.9073 6.96473L13.0396 5.84708C12.9562 5.73943 12.8275 5.67648 12.6912 5.67648H9.48528V2.58825C9.48528 2.34456 9.28778 2.14709 9.04412 2.14709H1.69116C1.44748 2.14709 1.25 2.34459 1.25 2.58825C1.25 2.83191 1.4475 3.02942 1.69116 3.02942H8.60293V6.11765C8.60293 6.36133 8.80043 6.55881 9.04409 6.55881H12.4751L13.1176 7.38645V9.66175H11.897C11.6533 9.66175 11.4559 9.85926 11.4559 10.1029C11.4559 10.3466 11.6534 10.5441 11.897 10.5441H13.5588C13.8025 10.5441 14 10.3466 14 10.1029V7.23532C14 7.13738 13.9673 7.04208 13.9073 6.96473Z" fill="#3099F2"/>
<path d="M3.19129 7.42645H1.16187C0.91818 7.42645 0.720703 7.62396 0.720703 7.86762C0.720703 8.1113 0.918207 8.30878 1.16187 8.30878H3.19127C3.43495 8.30878 3.63243 8.11128 3.63243 7.86762C3.63246 7.62396 3.43495 7.42645 3.19129 7.42645Z" fill="#3099F2"/>
<path d="M4.20588 5.69114H0.441164C0.197504 5.69114 0 5.88864 0 6.13233C0 6.37602 0.197504 6.57349 0.441164 6.57349H4.20588C4.44957 6.57349 4.64704 6.37599 4.64704 6.13233C4.64704 5.88867 4.44957 5.69114 4.20588 5.69114Z" fill="#3099F2"/>
<path d="M4.92658 3.95586H1.16187C0.91818 3.95586 0.720703 4.15336 0.720703 4.39702C0.720703 4.64071 0.918207 4.83818 1.16187 4.83818H4.92658C5.17027 4.83818 5.36775 4.64068 5.36775 4.39702C5.36777 4.15336 5.17027 3.95586 4.92658 3.95586Z" fill="#3099F2"/>
</g>
<defs>
<clipPath id="clip0">
<rect width="14" height="14" fill="white"/>
</clipPath>
</defs>
</svg>
