<svg width="13" height="13" viewBox="0 0 13 13" fill="none" xmlns="http://www.w3.org/2000/svg">
<g clip-path="url(#clip0)">
<path d="M6.49999 0C8.154 0 9.5 1.346 9.5 3C9.5 4.654 8.154 6 6.49999 6C4.84599 6 3.49999 4.654 3.49999 3C3.49999 1.346 4.84599 0 6.49999 0ZM6.49999 5C7.603 5 8.5 4.103 8.5 3C8.5 1.897 7.603 1 6.49999 1C5.39699 1 4.49999 1.897 4.49999 3C4.49999 4.103 5.39699 5 6.49999 5Z" fill="#7891A6"/>
<path d="M0.504001 9.479C0.506001 9.443 0.516001 9.41 0.525001 9.376C0.533 9.347 0.537001 9.317 0.550001 9.29C0.562001 9.263 0.582001 9.241 0.600001 9.216C0.621001 9.187 0.639001 9.158 0.666001 9.134C0.672001 9.129 0.674001 9.122 0.680001 9.117C4.053 6.29 8.95 6.29 12.323 9.117C12.329 9.122 12.331 9.129 12.337 9.134C12.363 9.158 12.382 9.187 12.403 9.217C12.42 9.242 12.44 9.264 12.452 9.29C12.465 9.317 12.469 9.347 12.477 9.376C12.486 9.41 12.496 9.443 12.498 9.479C12.496 9.486 12.5 9.492 12.5 9.5V12C12.5 12.551 12.051 13 11.5 13H1.5C0.949 13 0.500001 12.551 0.500001 12V9.5C0.500001 9.492 0.504001 9.486 0.504001 9.479ZM1.5 12H11.5V9.747C8.566 7.422 4.434 7.422 1.5 9.747V12Z" fill="#7891A6"/>
</g>
<defs>
<clipPath id="clip0">
<rect width="13" height="13" fill="white" transform="matrix(-1 0 0 1 13 0)"/>
</clipPath>
</defs>
</svg>
