<svg width="25" height="17" viewBox="0 0 25 17" fill="none" xmlns="http://www.w3.org/2000/svg">
<path d="M19.7923 5.72932C19.317 5.72932 18.8562 5.79339 18.4175 5.91356L17.0762 2.425L17.5615 1.92607C17.7598 1.72157 17.7576 1.39583 17.5561 1.19402L16.5147 0.152982C16.4171 0.0553236 16.2843 0 16.1462 0H13.5423C13.2547 0 13.0212 0.233453 13.0212 0.521105C13.0212 0.808758 13.2546 1.04182 13.5423 1.04182H15.9302L16.4567 1.56786L16.0965 1.9371C15.9516 2.08628 15.9149 2.30025 15.9829 2.48335C15.9829 2.48448 15.9836 2.48604 15.9836 2.48755L16.4628 3.7327L9.37505 4.61851V3.64612H10.9376C11.2252 3.64612 11.4587 3.41267 11.4587 3.12507C11.4587 2.83746 11.2252 2.60435 10.9376 2.60435H7.81257C7.52492 2.60435 7.29186 2.83741 7.29186 3.12507C7.29186 3.41272 7.52492 3.64612 7.81257 3.64612H8.33363V5.06749L7.60617 6.31488C6.88784 5.94105 6.07264 5.72932 5.20861 5.72932C2.33687 5.72932 0 8.06585 0 10.9371C0 13.8104 2.33687 16.1465 5.20861 16.1465C7.72404 16.1465 9.82819 14.3536 10.3123 11.9793H11.0271C11.2423 12.5859 11.821 13.0215 12.5004 13.0215C13.3621 13.0215 14.0625 12.3211 14.0625 11.459C14.0625 11.0989 13.9404 10.7663 13.7344 10.5023L17.0707 5.31276L17.4453 6.28856C15.7493 7.14806 14.5836 8.90927 14.5836 10.9371C14.5836 13.8104 16.9204 16.1465 19.7922 16.1465C22.6639 16.1465 25 13.8104 25 10.9371C25.0001 8.0658 22.664 5.72932 19.7923 5.72932ZM5.20866 15.1043C2.91105 15.1043 1.04187 13.2351 1.04187 10.9371C1.04187 8.64028 2.9111 6.77109 5.20866 6.77109C5.88157 6.77109 6.51747 6.9313 7.08052 7.21588L4.7585 11.1965C4.61392 11.4452 4.69746 11.7633 4.9462 11.9091C5.02896 11.9564 5.11901 11.9793 5.20827 11.9793C5.20827 11.9793 5.20978 11.9793 5.21095 11.9793H9.24346C8.77958 13.7752 7.14649 15.1043 5.20866 15.1043ZM6.11541 10.9371L7.94646 7.79914C8.82158 8.56361 9.37505 9.68747 9.37505 10.9371H6.11541ZM11.0272 10.9371H10.4168C10.4168 9.30294 9.66002 7.84226 8.4786 6.88667L8.85434 6.24198L11.3083 10.4489C11.1874 10.5923 11.0913 10.7571 11.0272 10.9371ZM12.5005 11.9793C12.2128 11.9793 11.9794 11.745 11.9794 11.4589C11.9794 11.1706 12.2128 10.9371 12.5005 10.9371C12.7877 10.9371 13.0212 11.1705 13.0212 11.4589C13.0212 11.745 12.7877 11.9793 12.5005 11.9793ZM12.8587 9.93767C12.7431 9.91101 12.6237 9.8965 12.5005 9.8965C12.4001 9.8965 12.3025 9.90568 12.2083 9.92394L9.70201 5.62742L16.1469 4.82173L12.8587 9.93767ZM19.7923 15.1043C17.4943 15.1043 15.625 13.2351 15.625 10.9371C15.625 9.3525 16.5162 7.97117 17.8224 7.26695L19.3063 11.1247C19.3864 11.3307 19.5832 11.4589 19.7923 11.4589C19.8541 11.4589 19.9174 11.4467 19.9792 11.4238C20.2477 11.32 20.3812 11.0194 20.279 10.751L18.7936 6.89199C19.114 6.81304 19.449 6.77104 19.7923 6.77104C22.0895 6.77104 23.9587 8.64023 23.9587 10.937C23.9587 13.2351 22.0895 15.1043 19.7923 15.1043Z" fill="#3099F2"/>
</svg>
