<svg width="25" height="27" viewBox="0 0 25 27" fill="none" xmlns="http://www.w3.org/2000/svg">
<path d="M19.3333 20.95H13.5C13.1552 20.95 12.8246 21.087 12.5808 21.3308C12.337 21.5746 12.2 21.9052 12.2 22.25C12.2 22.5948 12.337 22.9254 12.5808 23.1692C12.8246 23.413 13.1552 23.55 13.5 23.55H19.3333C19.6781 23.55 20.0088 23.413 20.2526 23.1692C20.4964 22.9254 20.6333 22.5948 20.6333 22.25C20.6333 21.9052 20.4964 21.5746 20.2526 21.3308C20.0088 21.087 19.6781 20.95 19.3333 20.95ZM19.3333 22.6167H13.5C13.4028 22.6167 13.3095 22.578 13.2407 22.5093C13.172 22.4405 13.1333 22.3472 13.1333 22.25C13.1333 22.1528 13.172 22.0595 13.2407 21.9907C13.3095 21.922 13.4028 21.8833 13.5 21.8833H19.3333C19.4306 21.8833 19.5238 21.922 19.5926 21.9907C19.6614 22.0595 19.7 22.1528 19.7 22.25C19.7 22.3472 19.6614 22.4405 19.5926 22.5093C19.5238 22.578 19.4306 22.6167 19.3333 22.6167Z" fill="#3099F2" stroke="#3099F2" stroke-width="0.1"/>
<mask id="path-2-outside-1" maskUnits="userSpaceOnUse" x="0" y="0" width="25" height="27" fill="black">
<rect fill="white" width="25" height="27"/>
<path d="M23.4808 19.7042C23.4695 19.6022 23.4211 19.508 23.3446 19.4396C23.2682 19.3712 23.1692 19.3333 23.0667 19.3333H22.25V18.0833C22.25 17.9728 22.2061 17.8668 22.128 17.7887C22.0498 17.7106 21.9438 17.6667 21.8333 17.6667H21.4167V17.25C21.4164 16.9916 21.3361 16.7395 21.1869 16.5285C21.0377 16.3175 20.8269 16.1577 20.5833 16.0712V14.6458C20.5831 14.342 20.4623 14.0507 20.2475 13.8359C20.0326 13.621 19.7413 13.5002 19.4375 13.5H19.2292C19.1463 13.4999 19.0669 13.4669 19.0083 13.4083C18.9497 13.3498 18.9168 13.2703 18.9167 13.1875V12.9271C18.9162 12.5266 18.757 12.1427 18.4738 11.8595C18.1906 11.5764 17.8067 11.4171 17.4062 11.4167H16.8333C16.7228 11.4167 16.6168 11.4606 16.5387 11.5387C16.4606 11.6168 16.4167 11.7228 16.4167 11.8333V13.2917C16.4167 13.4285 16.3897 13.5639 16.3374 13.6903C16.285 13.8167 16.2083 13.9315 16.1116 14.0282C16.0148 14.125 15.9 14.2017 15.7736 14.254C15.6472 14.3064 15.5118 14.3333 15.375 14.3333H13.5C13.1685 14.3333 12.8505 14.465 12.6161 14.6995C12.3817 14.9339 12.25 15.2518 12.25 15.5833V16.0712C12.0065 16.1577 11.7956 16.3175 11.6464 16.5285C11.4972 16.7395 11.417 16.9916 11.4167 17.25V17.6667H11C10.8895 17.6667 10.7835 17.7106 10.7054 17.7887C10.6272 17.8668 10.5833 17.9728 10.5833 18.0833V19.3333H10.15C10.0474 19.3333 9.94845 19.3712 9.87203 19.4396C9.79561 19.508 9.74712 19.6022 9.73583 19.7042L9.33333 23.3292V10.5833C9.33333 10.4728 9.28943 10.3668 9.21129 10.2887C9.13315 10.2106 9.02717 10.1667 8.91667 10.1667H8.5V7.66667C8.50026 7.63867 8.49746 7.61073 8.49167 7.58333L8.075 5.5C8.05579 5.40589 8.00465 5.3213 7.93024 5.26056C7.85583 5.19982 7.76272 5.16665 7.66667 5.16667H7.25V3.5H8.5C8.61051 3.5 8.71649 3.4561 8.79463 3.37796C8.87277 3.29982 8.91667 3.19384 8.91667 3.08333V1.41667C8.91667 1.30616 8.87277 1.20018 8.79463 1.12204C8.71649 1.0439 8.61051 1 8.5 1H5.58333C5.53027 1.00002 5.47768 1.01006 5.42833 1.02958L3.345 1.86292C3.26769 1.8939 3.20145 1.94733 3.15481 2.01633C3.10816 2.08533 3.08327 2.16672 3.08333 2.25V5.16667H2.66667C2.57061 5.16665 2.4775 5.19982 2.40309 5.26056C2.32868 5.3213 2.27754 5.40589 2.25833 5.5L1.84167 7.58333C1.83587 7.61073 1.83308 7.63867 1.83333 7.66667V10.1667H1.41667C1.30616 10.1667 1.20018 10.2106 1.12204 10.2887C1.0439 10.3668 1 10.4728 1 10.5833V24.75C1 25.0815 1.1317 25.3995 1.36612 25.6339C1.60054 25.8683 1.91848 26 2.25 26H8.08333C8.41485 26 8.7328 25.8683 8.96722 25.6339C9.20164 25.3995 9.33333 25.0815 9.33333 24.75V24.1017C9.40601 24.5344 9.59628 24.9389 9.88333 25.2708C10.0692 25.4938 10.3008 25.6743 10.5625 25.8001C10.8241 25.9259 11.1097 25.9941 11.4 26H21.8167C22.1069 25.9941 22.3925 25.9259 22.6542 25.8001C22.9158 25.6743 23.1474 25.4938 23.3333 25.2708C23.5497 25.0246 23.7117 24.7356 23.809 24.4226C23.9062 24.1096 23.9363 23.7796 23.8975 23.4542L23.4808 19.7042ZM3.91667 2.53208L5.66333 1.83333H8.08333V2.66667H6.83333C6.72283 2.66667 6.61685 2.71057 6.5387 2.78871C6.46057 2.86685 6.41667 2.97283 6.41667 3.08333V5.16667H3.91667V2.53208ZM2.66667 7.70833L3.00833 6H7.325L7.66667 7.70833V10.1667H2.66667V7.70833ZM8.5 24.75C8.5 24.8605 8.4561 24.9665 8.37796 25.0446C8.29982 25.1228 8.19384 25.1667 8.08333 25.1667H2.25C2.13949 25.1667 2.03351 25.1228 1.95537 25.0446C1.87723 24.9665 1.83333 24.8605 1.83333 24.75V12.6667H8.5V24.75ZM8.5 11.8333H1.83333V11H8.5V11.8333ZM12.25 17.25C12.25 17.1395 12.2939 17.0335 12.372 16.9554C12.4502 16.8772 12.5562 16.8333 12.6667 16.8333H14.75V16H13.0833V15.5833C13.0833 15.4728 13.1272 15.3668 13.2054 15.2887C13.2835 15.2106 13.3895 15.1667 13.5 15.1667H15.375C15.8721 15.1661 16.3487 14.9684 16.7002 14.6169C17.0517 14.2654 17.2494 13.7888 17.25 13.2917V12.25H17.4062C17.5858 12.2502 17.7578 12.3216 17.8848 12.4486C18.0117 12.5755 18.0831 12.7476 18.0833 12.9271V13.1875C18.0836 13.4913 18.2043 13.7826 18.4192 13.9975C18.634 14.2123 18.9253 14.3331 19.2292 14.3333H19.4375C19.5203 14.3334 19.5998 14.3664 19.6583 14.425C19.7169 14.4836 19.7499 14.563 19.75 14.6458V16H16.8333V16.8333H20.1667C20.2772 16.8333 20.3832 16.8772 20.4613 16.9554C20.5394 17.0335 20.5833 17.1395 20.5833 17.25V17.6667H12.25V17.25ZM11.4167 18.5H21.4167V19.3333H11.4167V18.5ZM22.7038 24.7246C22.5967 24.8581 22.4619 24.9668 22.3088 25.0431C22.1556 25.1194 21.9877 25.1616 21.8167 25.1667H11.4C11.229 25.1617 11.0611 25.1196 10.9079 25.0434C10.7547 24.9671 10.62 24.8585 10.5129 24.725C10.3718 24.5656 10.2663 24.3781 10.2033 24.1748C10.1403 23.9714 10.1213 23.7571 10.1475 23.5458L10.5225 20.1667H22.6933L23.0704 23.5592C23.0951 23.7683 23.0751 23.9803 23.0119 24.1812C22.9487 24.382 22.8437 24.5672 22.7038 24.7246Z"/>
</mask>
<path d="M23.4808 19.7042C23.4695 19.6022 23.4211 19.508 23.3446 19.4396C23.2682 19.3712 23.1692 19.3333 23.0667 19.3333H22.25V18.0833C22.25 17.9728 22.2061 17.8668 22.128 17.7887C22.0498 17.7106 21.9438 17.6667 21.8333 17.6667H21.4167V17.25C21.4164 16.9916 21.3361 16.7395 21.1869 16.5285C21.0377 16.3175 20.8269 16.1577 20.5833 16.0712V14.6458C20.5831 14.342 20.4623 14.0507 20.2475 13.8359C20.0326 13.621 19.7413 13.5002 19.4375 13.5H19.2292C19.1463 13.4999 19.0669 13.4669 19.0083 13.4083C18.9497 13.3498 18.9168 13.2703 18.9167 13.1875V12.9271C18.9162 12.5266 18.757 12.1427 18.4738 11.8595C18.1906 11.5764 17.8067 11.4171 17.4062 11.4167H16.8333C16.7228 11.4167 16.6168 11.4606 16.5387 11.5387C16.4606 11.6168 16.4167 11.7228 16.4167 11.8333V13.2917C16.4167 13.4285 16.3897 13.5639 16.3374 13.6903C16.285 13.8167 16.2083 13.9315 16.1116 14.0282C16.0148 14.125 15.9 14.2017 15.7736 14.254C15.6472 14.3064 15.5118 14.3333 15.375 14.3333H13.5C13.1685 14.3333 12.8505 14.465 12.6161 14.6995C12.3817 14.9339 12.25 15.2518 12.25 15.5833V16.0712C12.0065 16.1577 11.7956 16.3175 11.6464 16.5285C11.4972 16.7395 11.417 16.9916 11.4167 17.25V17.6667H11C10.8895 17.6667 10.7835 17.7106 10.7054 17.7887C10.6272 17.8668 10.5833 17.9728 10.5833 18.0833V19.3333H10.15C10.0474 19.3333 9.94845 19.3712 9.87203 19.4396C9.79561 19.508 9.74712 19.6022 9.73583 19.7042L9.33333 23.3292V10.5833C9.33333 10.4728 9.28943 10.3668 9.21129 10.2887C9.13315 10.2106 9.02717 10.1667 8.91667 10.1667H8.5V7.66667C8.50026 7.63867 8.49746 7.61073 8.49167 7.58333L8.075 5.5C8.05579 5.40589 8.00465 5.3213 7.93024 5.26056C7.85583 5.19982 7.76272 5.16665 7.66667 5.16667H7.25V3.5H8.5C8.61051 3.5 8.71649 3.4561 8.79463 3.37796C8.87277 3.29982 8.91667 3.19384 8.91667 3.08333V1.41667C8.91667 1.30616 8.87277 1.20018 8.79463 1.12204C8.71649 1.0439 8.61051 1 8.5 1H5.58333C5.53027 1.00002 5.47768 1.01006 5.42833 1.02958L3.345 1.86292C3.26769 1.8939 3.20145 1.94733 3.15481 2.01633C3.10816 2.08533 3.08327 2.16672 3.08333 2.25V5.16667H2.66667C2.57061 5.16665 2.4775 5.19982 2.40309 5.26056C2.32868 5.3213 2.27754 5.40589 2.25833 5.5L1.84167 7.58333C1.83587 7.61073 1.83308 7.63867 1.83333 7.66667V10.1667H1.41667C1.30616 10.1667 1.20018 10.2106 1.12204 10.2887C1.0439 10.3668 1 10.4728 1 10.5833V24.75C1 25.0815 1.1317 25.3995 1.36612 25.6339C1.60054 25.8683 1.91848 26 2.25 26H8.08333C8.41485 26 8.7328 25.8683 8.96722 25.6339C9.20164 25.3995 9.33333 25.0815 9.33333 24.75V24.1017C9.40601 24.5344 9.59628 24.9389 9.88333 25.2708C10.0692 25.4938 10.3008 25.6743 10.5625 25.8001C10.8241 25.9259 11.1097 25.9941 11.4 26H21.8167C22.1069 25.9941 22.3925 25.9259 22.6542 25.8001C22.9158 25.6743 23.1474 25.4938 23.3333 25.2708C23.5497 25.0246 23.7117 24.7356 23.809 24.4226C23.9062 24.1096 23.9363 23.7796 23.8975 23.4542L23.4808 19.7042ZM3.91667 2.53208L5.66333 1.83333H8.08333V2.66667H6.83333C6.72283 2.66667 6.61685 2.71057 6.5387 2.78871C6.46057 2.86685 6.41667 2.97283 6.41667 3.08333V5.16667H3.91667V2.53208ZM2.66667 7.70833L3.00833 6H7.325L7.66667 7.70833V10.1667H2.66667V7.70833ZM8.5 24.75C8.5 24.8605 8.4561 24.9665 8.37796 25.0446C8.29982 25.1228 8.19384 25.1667 8.08333 25.1667H2.25C2.13949 25.1667 2.03351 25.1228 1.95537 25.0446C1.87723 24.9665 1.83333 24.8605 1.83333 24.75V12.6667H8.5V24.75ZM8.5 11.8333H1.83333V11H8.5V11.8333ZM12.25 17.25C12.25 17.1395 12.2939 17.0335 12.372 16.9554C12.4502 16.8772 12.5562 16.8333 12.6667 16.8333H14.75V16H13.0833V15.5833C13.0833 15.4728 13.1272 15.3668 13.2054 15.2887C13.2835 15.2106 13.3895 15.1667 13.5 15.1667H15.375C15.8721 15.1661 16.3487 14.9684 16.7002 14.6169C17.0517 14.2654 17.2494 13.7888 17.25 13.2917V12.25H17.4062C17.5858 12.2502 17.7578 12.3216 17.8848 12.4486C18.0117 12.5755 18.0831 12.7476 18.0833 12.9271V13.1875C18.0836 13.4913 18.2043 13.7826 18.4192 13.9975C18.634 14.2123 18.9253 14.3331 19.2292 14.3333H19.4375C19.5203 14.3334 19.5998 14.3664 19.6583 14.425C19.7169 14.4836 19.7499 14.563 19.75 14.6458V16H16.8333V16.8333H20.1667C20.2772 16.8333 20.3832 16.8772 20.4613 16.9554C20.5394 17.0335 20.5833 17.1395 20.5833 17.25V17.6667H12.25V17.25ZM11.4167 18.5H21.4167V19.3333H11.4167V18.5ZM22.7038 24.7246C22.5967 24.8581 22.4619 24.9668 22.3088 25.0431C22.1556 25.1194 21.9877 25.1616 21.8167 25.1667H11.4C11.229 25.1617 11.0611 25.1196 10.9079 25.0434C10.7547 24.9671 10.62 24.8585 10.5129 24.725C10.3718 24.5656 10.2663 24.3781 10.2033 24.1748C10.1403 23.9714 10.1213 23.7571 10.1475 23.5458L10.5225 20.1667H22.6933L23.0704 23.5592C23.0951 23.7683 23.0751 23.9803 23.0119 24.1812C22.9487 24.382 22.8437 24.5672 22.7038 24.7246Z" fill="#3099F2"/>
<path d="M23.4808 19.7042C23.4695 19.6022 23.4211 19.508 23.3446 19.4396C23.2682 19.3712 23.1692 19.3333 23.0667 19.3333H22.25V18.0833C22.25 17.9728 22.2061 17.8668 22.128 17.7887C22.0498 17.7106 21.9438 17.6667 21.8333 17.6667H21.4167V17.25C21.4164 16.9916 21.3361 16.7395 21.1869 16.5285C21.0377 16.3175 20.8269 16.1577 20.5833 16.0712V14.6458C20.5831 14.342 20.4623 14.0507 20.2475 13.8359C20.0326 13.621 19.7413 13.5002 19.4375 13.5H19.2292C19.1463 13.4999 19.0669 13.4669 19.0083 13.4083C18.9497 13.3498 18.9168 13.2703 18.9167 13.1875V12.9271C18.9162 12.5266 18.757 12.1427 18.4738 11.8595C18.1906 11.5764 17.8067 11.4171 17.4062 11.4167H16.8333C16.7228 11.4167 16.6168 11.4606 16.5387 11.5387C16.4606 11.6168 16.4167 11.7228 16.4167 11.8333V13.2917C16.4167 13.4285 16.3897 13.5639 16.3374 13.6903C16.285 13.8167 16.2083 13.9315 16.1116 14.0282C16.0148 14.125 15.9 14.2017 15.7736 14.254C15.6472 14.3064 15.5118 14.3333 15.375 14.3333H13.5C13.1685 14.3333 12.8505 14.465 12.6161 14.6995C12.3817 14.9339 12.25 15.2518 12.25 15.5833V16.0712C12.0065 16.1577 11.7956 16.3175 11.6464 16.5285C11.4972 16.7395 11.417 16.9916 11.4167 17.25V17.6667H11C10.8895 17.6667 10.7835 17.7106 10.7054 17.7887C10.6272 17.8668 10.5833 17.9728 10.5833 18.0833V19.3333H10.15C10.0474 19.3333 9.94845 19.3712 9.87203 19.4396C9.79561 19.508 9.74712 19.6022 9.73583 19.7042L9.33333 23.3292V10.5833C9.33333 10.4728 9.28943 10.3668 9.21129 10.2887C9.13315 10.2106 9.02717 10.1667 8.91667 10.1667H8.5V7.66667C8.50026 7.63867 8.49746 7.61073 8.49167 7.58333L8.075 5.5C8.05579 5.40589 8.00465 5.3213 7.93024 5.26056C7.85583 5.19982 7.76272 5.16665 7.66667 5.16667H7.25V3.5H8.5C8.61051 3.5 8.71649 3.4561 8.79463 3.37796C8.87277 3.29982 8.91667 3.19384 8.91667 3.08333V1.41667C8.91667 1.30616 8.87277 1.20018 8.79463 1.12204C8.71649 1.0439 8.61051 1 8.5 1H5.58333C5.53027 1.00002 5.47768 1.01006 5.42833 1.02958L3.345 1.86292C3.26769 1.8939 3.20145 1.94733 3.15481 2.01633C3.10816 2.08533 3.08327 2.16672 3.08333 2.25V5.16667H2.66667C2.57061 5.16665 2.4775 5.19982 2.40309 5.26056C2.32868 5.3213 2.27754 5.40589 2.25833 5.5L1.84167 7.58333C1.83587 7.61073 1.83308 7.63867 1.83333 7.66667V10.1667H1.41667C1.30616 10.1667 1.20018 10.2106 1.12204 10.2887C1.0439 10.3668 1 10.4728 1 10.5833V24.75C1 25.0815 1.1317 25.3995 1.36612 25.6339C1.60054 25.8683 1.91848 26 2.25 26H8.08333C8.41485 26 8.7328 25.8683 8.96722 25.6339C9.20164 25.3995 9.33333 25.0815 9.33333 24.75V24.1017C9.40601 24.5344 9.59628 24.9389 9.88333 25.2708C10.0692 25.4938 10.3008 25.6743 10.5625 25.8001C10.8241 25.9259 11.1097 25.9941 11.4 26H21.8167C22.1069 25.9941 22.3925 25.9259 22.6542 25.8001C22.9158 25.6743 23.1474 25.4938 23.3333 25.2708C23.5497 25.0246 23.7117 24.7356 23.809 24.4226C23.9062 24.1096 23.9363 23.7796 23.8975 23.4542L23.4808 19.7042ZM3.91667 2.53208L5.66333 1.83333H8.08333V2.66667H6.83333C6.72283 2.66667 6.61685 2.71057 6.5387 2.78871C6.46057 2.86685 6.41667 2.97283 6.41667 3.08333V5.16667H3.91667V2.53208ZM2.66667 7.70833L3.00833 6H7.325L7.66667 7.70833V10.1667H2.66667V7.70833ZM8.5 24.75C8.5 24.8605 8.4561 24.9665 8.37796 25.0446C8.29982 25.1228 8.19384 25.1667 8.08333 25.1667H2.25C2.13949 25.1667 2.03351 25.1228 1.95537 25.0446C1.87723 24.9665 1.83333 24.8605 1.83333 24.75V12.6667H8.5V24.75ZM8.5 11.8333H1.83333V11H8.5V11.8333ZM12.25 17.25C12.25 17.1395 12.2939 17.0335 12.372 16.9554C12.4502 16.8772 12.5562 16.8333 12.6667 16.8333H14.75V16H13.0833V15.5833C13.0833 15.4728 13.1272 15.3668 13.2054 15.2887C13.2835 15.2106 13.3895 15.1667 13.5 15.1667H15.375C15.8721 15.1661 16.3487 14.9684 16.7002 14.6169C17.0517 14.2654 17.2494 13.7888 17.25 13.2917V12.25H17.4062C17.5858 12.2502 17.7578 12.3216 17.8848 12.4486C18.0117 12.5755 18.0831 12.7476 18.0833 12.9271V13.1875C18.0836 13.4913 18.2043 13.7826 18.4192 13.9975C18.634 14.2123 18.9253 14.3331 19.2292 14.3333H19.4375C19.5203 14.3334 19.5998 14.3664 19.6583 14.425C19.7169 14.4836 19.7499 14.563 19.75 14.6458V16H16.8333V16.8333H20.1667C20.2772 16.8333 20.3832 16.8772 20.4613 16.9554C20.5394 17.0335 20.5833 17.1395 20.5833 17.25V17.6667H12.25V17.25ZM11.4167 18.5H21.4167V19.3333H11.4167V18.5ZM22.7038 24.7246C22.5967 24.8581 22.4619 24.9668 22.3088 25.0431C22.1556 25.1194 21.9877 25.1616 21.8167 25.1667H11.4C11.229 25.1617 11.0611 25.1196 10.9079 25.0434C10.7547 24.9671 10.62 24.8585 10.5129 24.725C10.3718 24.5656 10.2663 24.3781 10.2033 24.1748C10.1403 23.9714 10.1213 23.7571 10.1475 23.5458L10.5225 20.1667H22.6933L23.0704 23.5592C23.0951 23.7683 23.0751 23.9803 23.0119 24.1812C22.9487 24.382 22.8437 24.5672 22.7038 24.7246Z" stroke="#3099F2" stroke-width="0.2" mask="url(#path-2-outside-1)"/>
<path d="M22.2642 21.6912L22.274 21.7402L22.5906 23.3264L22.2642 21.6912ZM22.2642 21.6912L22.2151 21.701M22.2642 21.6912L22.2151 21.701M22.2151 21.701L21.398 21.8643L21.349 21.8741M22.2151 21.701L21.349 21.8741M21.349 21.8741L21.3588 21.9231M21.349 21.8741L21.3588 21.9231M21.3588 21.9231L21.6639 23.45M21.3588 21.9231L21.6639 23.45M21.6639 23.45H20.5833H20.5333V23.5V24.3333V24.3833H20.5833H21.7249H21.7249C21.8556 24.3833 21.9847 24.3542 22.1028 24.2982C22.2209 24.2423 22.3251 24.1608 22.4079 24.0597C22.4907 23.9586 22.55 23.8404 22.5816 23.7136C22.6132 23.5868 22.6163 23.4546 22.5906 23.3265L21.6639 23.45Z" fill="#3099F2" stroke="#3099F2" stroke-width="0.1"/>
<path d="M3.08341 23.55H4.75008C4.87385 23.55 4.99255 23.5008 5.08006 23.4133C5.16758 23.3258 5.21675 23.2071 5.21675 23.0833V13.9167C5.21675 13.7929 5.16758 13.6742 5.08006 13.5867C4.99255 13.4992 4.87385 13.45 4.75008 13.45H3.08341C2.95965 13.45 2.84095 13.4992 2.75343 13.5867C2.66591 13.6742 2.61675 13.7929 2.61675 13.9167V23.0833C2.61675 23.2071 2.66591 23.3258 2.75343 23.4133C2.84095 23.5008 2.95965 23.55 3.08341 23.55ZM3.55008 14.3833H4.28341V22.6167H3.55008V14.3833Z" fill="#3099F2" stroke="#3099F2" stroke-width="0.1"/>
<path d="M7.71659 13.5V13.45H7.66659H6.83325H6.78325V13.5V14.3333V14.3833H6.83325H7.66659H7.71659V14.3333V13.5Z" fill="#3099F2" stroke="#3099F2" stroke-width="0.1"/>
<path d="M7.71659 15.1666V15.1166H7.66659H6.83325H6.78325V15.1666V16V16.05H6.83325H7.66659H7.71659V16V15.1666Z" fill="#3099F2" stroke="#3099F2" stroke-width="0.1"/>
<path d="M3.45 8.91671V8.96671H3.5H4.33333H4.38333V8.91671V7.71671H5.16667H5.21667V7.66671V6.83337V6.78337H5.16667H3.91667C3.7929 6.78337 3.6742 6.83254 3.58668 6.92006C3.49917 7.00757 3.45 7.12627 3.45 7.25004V8.91671Z" fill="#3099F2" stroke="#3099F2" stroke-width="0.1"/>
</svg>
