<svg width="25" height="25" viewBox="0 0 25 25" fill="none" xmlns="http://www.w3.org/2000/svg">
<path d="M24.4995 18.0237H19.0386C19.2616 17.6841 19.3918 17.2784 19.3918 16.8426C19.3918 16.15 19.0635 15.5331 18.5546 15.138V13.5381L18.7993 13.7827C18.8946 13.878 19.0196 13.9257 19.1445 13.9257C19.2695 13.9257 19.3944 13.878 19.4898 13.7827L21.4091 11.8634C21.5007 11.7718 21.5521 11.6477 21.5521 11.5182C21.5521 11.3887 21.5007 11.2645 21.4091 11.1729L19.4898 9.25356C19.3982 9.16201 19.274 9.11055 19.1445 9.11055C19.015 9.11055 18.8908 9.16201 18.7993 9.25356L18.5546 9.49819V2.63672C18.5546 2.36709 18.336 2.14844 18.0664 2.14844H16.5075V1.76143C16.5075 0.790186 15.7174 0 14.7461 0C13.7748 0 12.9847 0.790186 12.9847 1.76143V2.14844H11.0388V1.76143C11.0388 0.790186 10.2486 0 9.27734 0C8.30606 0 7.51592 0.790186 7.51592 1.76143V2.14844H5.57002V1.76143C5.57002 0.790186 4.77988 0 3.80859 0C2.8373 0 2.04717 0.790186 2.04717 1.76143V2.14844H0.488281C0.218652 2.14844 0 2.36709 0 2.63672V24.5117C0 24.7813 0.218652 25 0.488281 25H7.08022C7.34985 25 7.56851 24.7813 7.56851 24.5117C7.56851 24.2421 7.34985 24.0234 7.08022 24.0234H0.976562V3.125H4.59346V3.51201C4.59346 3.94478 4.24136 4.29688 3.80859 4.29688C3.53896 4.29688 3.32031 4.51553 3.32031 4.78516C3.32031 5.05479 3.53896 5.27344 3.80859 5.27344C4.77988 5.27344 5.57002 4.48325 5.57002 3.51201V3.125H10.0622V3.51201C10.0622 3.94478 9.71011 4.29688 9.27734 4.29688C9.00772 4.29688 8.78906 4.51553 8.78906 4.78516C8.78906 5.05479 9.00772 5.27344 9.27734 5.27344C10.2486 5.27344 11.0388 4.48325 11.0388 3.51201V3.125H15.531V3.51201C15.531 3.94478 15.1789 4.29688 14.7461 4.29688C14.4765 4.29688 14.2578 4.51553 14.2578 4.78516C14.2578 5.05479 14.4765 5.27344 14.7461 5.27344C15.7174 5.27344 16.5075 4.48325 16.5075 3.51201V3.125H17.5781V10.4748L16.88 11.1729C16.6894 11.3636 16.6894 11.6728 16.88 11.8635L17.5781 12.5616V14.7128C17.4661 14.6948 17.3513 14.6851 17.2343 14.6851C16.0446 14.6851 15.0767 15.6529 15.0767 16.8427C15.0767 17.2784 15.2069 17.6841 15.4299 18.0237H12.5C12.2304 18.0237 12.0117 18.2424 12.0117 18.512C12.0117 20.8355 13.2397 22.8773 15.0805 24.0235H11.4746C11.205 24.0235 10.9863 24.2421 10.9863 24.5118C10.9863 24.7814 11.205 25 11.4746 25H18.4998C22.0773 25 24.9878 22.0896 24.9878 18.512C24.9878 18.2423 24.7691 18.0237 24.4995 18.0237ZM3.02373 2.14844V1.76143C3.02373 1.32866 3.37583 0.976562 3.80859 0.976562C4.24136 0.976562 4.59346 1.32866 4.59346 1.76143V2.14844H3.02373ZM8.49248 2.14844V1.76143C8.49248 1.32866 8.84458 0.976562 9.27734 0.976562C9.71011 0.976562 10.0622 1.32866 10.0622 1.76143V2.14844H8.49248ZM13.9612 2.14844V1.76143C13.9612 1.32866 14.3133 0.976562 14.7461 0.976562C15.1789 0.976562 15.531 1.32866 15.531 1.76143V2.14844H13.9612ZM19.1446 10.2895L20.3733 11.5182L19.1446 12.747L17.9158 11.5182L19.1446 10.2895ZM16.0533 16.8427C16.0533 16.1915 16.5831 15.6616 17.2343 15.6616C17.8855 15.6616 18.4154 16.1915 18.4154 16.8427C18.4154 17.4939 17.8855 18.0237 17.2343 18.0237C16.5831 18.0237 16.0533 17.4938 16.0533 16.8427ZM18.4998 24.0234C15.6252 24.0234 13.2577 21.8114 13.0097 19.0002H23.9897C23.7418 21.8114 21.3743 24.0234 18.4998 24.0234Z" fill="#3099F2"/>
<path d="M20.4597 16.2681C20.962 16.7705 21.63 17.0472 22.3405 17.0472C23.0509 17.0472 23.7188 16.7705 24.2212 16.2681C24.7236 15.7658 25.0002 15.0978 25.0002 14.3874C25.0002 13.6769 24.7235 13.009 24.2212 12.5066C24.0304 12.316 23.7214 12.316 23.5306 12.5066L20.4596 15.5776C20.269 15.7683 20.269 16.0775 20.4597 16.2681ZM23.8248 13.5935C24.165 14.2303 24.0669 15.0413 23.5306 15.5776C22.9945 16.1139 22.1833 16.212 21.5466 15.8718L23.8248 13.5935Z" fill="#3099F2"/>
<path d="M13.4679 9.38123C13.1983 9.38123 12.9796 9.59988 12.9796 9.86951V10.0623C12.6559 10.1577 12.3645 10.347 12.1433 10.6133C11.8152 11.0084 11.6811 11.5245 11.7753 12.0294L12.2607 14.6285C12.3692 15.2095 12.8768 15.6312 13.4679 15.6312C14.0589 15.6312 14.5666 15.2095 14.6751 14.6285L15.1604 12.0294C15.2547 11.5245 15.1206 11.0084 14.7924 10.6133C14.5713 10.347 14.2798 10.1577 13.9562 10.0623V9.86951C13.9562 9.59983 13.7376 9.38123 13.4679 9.38123ZM14.0412 11.2372C14.1832 11.4082 14.2413 11.6317 14.2005 11.8502L13.7151 14.4493C13.6929 14.5683 13.5889 14.6547 13.4679 14.6547C13.3469 14.6547 13.2429 14.5683 13.2207 14.4493L12.7354 11.8502C12.6946 11.6316 12.7527 11.4082 12.8947 11.2372C13.0367 11.0662 13.2457 10.9681 13.468 10.9681C13.6903 10.9681 13.8991 11.0662 14.0412 11.2372Z" fill="#3099F2"/>
<path d="M3.95845 7.93945C3.86768 7.84814 3.7417 7.79639 3.61328 7.79639C3.48486 7.79639 3.35889 7.84814 3.26807 7.93945C3.17725 8.03027 3.125 8.15625 3.125 8.28467C3.125 8.41309 3.1772 8.53857 3.26807 8.62988C3.35889 8.72065 3.48486 8.77295 3.61328 8.77295C3.7417 8.77295 3.86768 8.7207 3.95845 8.62988C4.04927 8.53857 4.10156 8.41309 4.10156 8.28467C4.10156 8.15625 4.04932 8.03027 3.95845 7.93945Z" fill="#3099F2"/>
<path d="M10.3551 7.79626H6.03833C5.7687 7.79626 5.55005 8.01492 5.55005 8.28455C5.55005 8.55417 5.7687 8.77283 6.03833 8.77283H10.3551C10.6247 8.77283 10.8434 8.55417 10.8434 8.28455C10.8434 8.01492 10.6247 7.79626 10.3551 7.79626Z" fill="#3099F2"/>
<path d="M3.95845 11.4278C3.86768 11.337 3.7417 11.2847 3.61328 11.2847C3.48486 11.2847 3.35889 11.3369 3.26807 11.4278C3.17725 11.5186 3.125 11.6445 3.125 11.7729C3.125 11.9014 3.1772 12.0273 3.26807 12.1182C3.35894 12.209 3.48486 12.2612 3.61328 12.2612C3.7417 12.2612 3.86768 12.209 3.95845 12.1182C4.04927 12.0273 4.10156 11.9014 4.10156 11.7729C4.10156 11.6445 4.04932 11.5186 3.95845 11.4278Z" fill="#3099F2"/>
<path d="M10.3551 11.2847H6.03833C5.7687 11.2847 5.55005 11.5033 5.55005 11.7729C5.55005 12.0426 5.7687 12.2612 6.03833 12.2612H10.3551C10.6247 12.2612 10.8434 12.0426 10.8434 11.7729C10.8434 11.5033 10.6247 11.2847 10.3551 11.2847Z" fill="#3099F2"/>
<path d="M3.95845 14.916C3.86768 14.8252 3.7417 14.7734 3.61328 14.7734C3.48486 14.7734 3.35889 14.8252 3.26807 14.916C3.17725 15.0073 3.125 15.1333 3.125 15.2617C3.125 15.3901 3.1772 15.5156 3.26807 15.6065C3.35889 15.6978 3.48486 15.75 3.61328 15.75C3.7417 15.75 3.86768 15.6978 3.95845 15.6065C4.04927 15.5157 4.10156 15.3901 4.10156 15.2617C4.10156 15.1333 4.04932 15.0074 3.95845 14.916Z" fill="#3099F2"/>
<path d="M10.3551 14.7732H6.03833C5.7687 14.7732 5.55005 14.9918 5.55005 15.2615C5.55005 15.5311 5.7687 15.7498 6.03833 15.7498H10.3551C10.6247 15.7498 10.8434 15.5311 10.8434 15.2615C10.8434 14.9918 10.6247 14.7732 10.3551 14.7732Z" fill="#3099F2"/>
<path d="M3.61328 18.2617C3.48486 18.2617 3.35889 18.3139 3.26807 18.4048C3.17725 18.4957 3.125 18.6216 3.125 18.75C3.125 18.8784 3.1772 19.0044 3.26807 19.0952C3.35889 19.186 3.48486 19.2383 3.61328 19.2383C3.7417 19.2383 3.86768 19.186 3.95845 19.0952C4.04932 19.0044 4.10156 18.8784 4.10156 18.75C4.10156 18.6216 4.04932 18.4956 3.95845 18.4048C3.86768 18.3139 3.7417 18.2617 3.61328 18.2617Z" fill="#3099F2"/>
<path d="M10.3551 18.2617H6.03833C5.7687 18.2617 5.55005 18.4804 5.55005 18.75C5.55005 19.0196 5.7687 19.2383 6.03833 19.2383H10.3551C10.6247 19.2383 10.8434 19.0196 10.8434 18.75C10.8434 18.4804 10.6247 18.2617 10.3551 18.2617Z" fill="#3099F2"/>
<path d="M9.27734 24.0234C9.14893 24.0234 9.02295 24.0756 8.93213 24.1665C8.84131 24.2574 8.78906 24.3833 8.78906 24.5117C8.78906 24.6401 8.84126 24.7661 8.93213 24.8569C9.02295 24.9477 9.14893 25 9.27734 25C9.40576 25 9.53174 24.9478 9.62251 24.8569C9.71338 24.7661 9.76562 24.6401 9.76562 24.5117C9.76562 24.3833 9.71338 24.2573 9.62251 24.1665C9.53174 24.0756 9.40576 24.0234 9.27734 24.0234Z" fill="#3099F2"/>
</svg>
