<svg width="25" height="20" viewBox="0 0 25 20" fill="none" xmlns="http://www.w3.org/2000/svg">
<path d="M24.1683 3.06559C23.6692 2.54278 22.98 2.23384 22.1958 2.23384H18.251V2.18631C18.251 1.59221 18.0133 1.02186 17.6093 0.641635C17.2053 0.237643 16.6587 0 16.0646 0H8.93536C8.31749 0 7.77091 0.237643 7.36692 0.641635C6.96293 1.04563 6.72529 1.59221 6.72529 2.18631V2.23384H2.80418C2.01996 2.23384 1.3308 2.54278 0.831749 3.06559C0.3327 3.56464 0 4.27757 0 5.03802V16.8726C0 17.6568 0.308935 18.346 0.831749 18.8451C1.3308 19.3441 2.04373 19.6768 2.80418 19.6768H22.1958C22.98 19.6768 23.6692 19.3679 24.1683 18.8451C24.6673 18.346 25 17.6331 25 16.8726V5.03802C25 4.2538 24.6911 3.56464 24.1683 3.06559ZM23.7643 16.8726H23.7405C23.7405 17.3004 23.5741 17.6806 23.289 17.9658C23.0038 18.251 22.6236 18.4173 22.1958 18.4173H2.80418C2.37643 18.4173 1.9962 18.251 1.71103 17.9658C1.42586 17.6806 1.25951 17.3004 1.25951 16.8726V5.03802C1.25951 4.61027 1.42586 4.23004 1.71103 3.94487C1.9962 3.6597 2.37643 3.49335 2.80418 3.49335H7.39068C7.74715 3.49335 8.03232 3.20818 8.03232 2.85171V2.16255C8.03232 1.90114 8.12738 1.6635 8.29373 1.49715C8.46008 1.3308 8.69772 1.23574 8.95913 1.23574H16.0646C16.326 1.23574 16.5637 1.3308 16.73 1.49715C16.8964 1.6635 16.9914 1.90114 16.9914 2.16255V2.85171C16.9914 3.20818 17.2766 3.49335 17.6331 3.49335H22.2196C22.6473 3.49335 23.0276 3.6597 23.3127 3.94487C23.5979 4.23004 23.7643 4.61027 23.7643 5.03802V16.8726Z" fill="#3099F2"/>
<path d="M12.5001 5.10938C10.8841 5.10938 9.41071 5.77477 8.36508 6.8204C7.29569 7.88979 6.65405 9.33941 6.65405 10.9554C6.65405 12.5714 7.31945 14.0447 8.36508 15.0904C9.43447 16.1598 10.8841 16.8014 12.5001 16.8014C14.116 16.8014 15.5894 16.136 16.635 15.0904C17.7044 14.021 18.3461 12.5714 18.3461 10.9554C18.3461 9.33941 17.6807 7.86603 16.635 6.8204C15.5894 5.77477 14.116 5.10938 12.5001 5.10938ZM15.732 14.2111C14.9002 15.0191 13.7596 15.5419 12.5001 15.5419C11.2406 15.5419 10.0999 15.0191 9.26812 14.2111C8.43637 13.3793 7.93732 12.2387 7.93732 10.9791C7.93732 9.71964 8.46014 8.57896 9.26812 7.74721C10.0999 6.91546 11.2406 6.41641 12.5001 6.41641C13.7596 6.41641 14.9002 6.93922 15.732 7.74721C16.5637 8.57896 17.0628 9.71964 17.0628 10.9791C17.0866 12.2387 16.5637 13.3793 15.732 14.2111Z" fill="#3099F2"/>
<path d="M20.9601 7.41447C21.6032 7.41447 22.1246 6.89313 22.1246 6.25002C22.1246 5.60691 21.6032 5.08557 20.9601 5.08557C20.317 5.08557 19.7957 5.60691 19.7957 6.25002C19.7957 6.89313 20.317 7.41447 20.9601 7.41447Z" fill="#3099F2"/>
</svg>
