<svg width="27" height="19" viewBox="0 0 27 19" fill="none" xmlns="http://www.w3.org/2000/svg">
<path d="M24.75 0.283252H2.25C1.53202 0.283252 0.95 0.865273 0.95 1.58325V14.9166C0.95 15.6346 1.53202 16.2166 2.25 16.2166H9.2949L8.25033 17.7833H6C5.74228 17.7833 5.53333 17.9922 5.53333 18.2499C5.53333 18.5076 5.74228 18.7166 6 18.7166H21C21.2577 18.7166 21.4667 18.5076 21.4667 18.2499C21.4667 17.9922 21.2577 17.7833 21 17.7833H18.7497L17.7051 16.2166H24.75C25.468 16.2166 26.05 15.6346 26.05 14.9166V1.58325C26.05 0.865273 25.468 0.283252 24.75 0.283252ZM16.5837 16.2166L17.6278 17.7833H9.37216L10.4163 16.2166H16.5837ZM25.1167 14.9166C25.1167 15.1191 24.9525 15.2832 24.75 15.2832H2.25C2.04751 15.2832 1.88333 15.1191 1.88333 14.9166V1.58325C1.88333 1.38076 2.04751 1.21659 2.25 1.21659H24.75C24.9525 1.21659 25.1167 1.38076 25.1167 1.58325V14.9166Z" fill="#3099F2" stroke="#3099F2" stroke-width="0.1"/>
<path d="M2.25 1.53325H2.2V1.58325V14.9166V14.9666H2.25H24.75H24.8V14.9166V1.58325V1.53325H24.75H2.25ZM23.8667 14.0333H3.13333V2.46659H23.8667V14.0333Z" fill="#3099F2" stroke="#3099F2" stroke-width="0.1"/>
</svg>
