<svg width="16" height="27" viewBox="0 0 16 27" fill="none" xmlns="http://www.w3.org/2000/svg">
<path d="M10.1668 2.2H6.00015C5.74255 2.2 5.5335 2.40906 5.5335 2.66665C5.5335 2.92424 5.74255 3.1333 6.00015 3.1333H10.1668C10.4244 3.1333 10.6334 2.92424 10.6334 2.66665C10.6334 2.40905 10.4244 2.2 10.1668 2.2Z" fill="#3099F2" stroke="#3099F2" stroke-width="0.1"/>
<path d="M13.0835 2.2H12.6669C12.4093 2.2 12.2002 2.40906 12.2002 2.66665C12.2002 2.92424 12.4093 3.1333 12.6669 3.1333H13.0835C13.3411 3.1333 13.5502 2.92424 13.5502 2.66665C13.5502 2.40905 13.3411 2.2 13.0835 2.2Z" fill="#3099F2" stroke="#3099F2" stroke-width="0.1"/>
<path d="M8.60112 22.2H7.56655C6.9052 22.2 6.36699 22.7382 6.36699 23.3996V23.6008C6.36699 24.2622 6.90521 24.8 7.56616 24.8H8.60073C9.26206 24.8 9.80029 24.2622 9.80029 23.6008V23.3996C9.80029 22.7382 9.2621 22.2 8.60112 22.2ZM8.86699 23.6008C8.86699 23.7474 8.74773 23.8667 8.60117 23.8667H7.56655C7.41956 23.8667 7.30029 23.7473 7.30029 23.6008V23.3996C7.30029 23.2526 7.41956 23.1333 7.56655 23.1333H8.60073C8.74773 23.1333 8.86699 23.2526 8.86699 23.3996V23.6008Z" fill="#3099F2" stroke="#3099F2" stroke-width="0.1"/>
<path d="M14.2833 24.4937V24.5017C14.279 24.8414 14.0014 25.1167 13.6608 25.1167H2.50625C2.16263 25.1167 1.88335 24.8369 1.88335 24.4941V2.50625C1.88335 2.163 2.16264 1.88335 2.50625 1.88335H13.6604C14.004 1.88335 14.2833 2.16304 14.2833 2.50625V24.4937ZM13.6608 0.95H2.50625C1.64822 0.95 0.95 1.64822 0.95 2.50625V24.4937C0.95 25.3518 1.64822 26.05 2.50625 26.05H13.6604C14.5184 26.05 15.2167 25.3518 15.2167 24.4942V2.50625C15.2167 1.64822 14.5185 0.95 13.6608 0.95Z" fill="#3099F2" stroke="#3099F2" stroke-width="0.1"/>
<path d="M14.75 3.45H1.41665C1.15906 3.45 0.95 3.65906 0.95 3.91665V21.4166C0.95 21.6742 1.15906 21.8833 1.41665 21.8833H14.75C15.0076 21.8833 15.2167 21.6742 15.2167 21.4166V3.91665C15.2167 3.65905 15.0076 3.45 14.75 3.45ZM14.2833 20.95H1.8833V4.38335H14.2833V20.95Z" fill="#3099F2" stroke="#3099F2" stroke-width="0.1"/>
</svg>
