<svg width="25" height="17" viewBox="0 0 25 17" fill="none" xmlns="http://www.w3.org/2000/svg">
<path d="M20.6468 2.33997H4.35322C4.0561 2.33997 3.81519 2.58084 3.81519 2.878V11.0042C3.81519 11.3014 4.0561 11.5422 4.35322 11.5422C4.65034 11.5422 4.89126 11.3014 4.89126 11.0042V3.41599H20.1088V11.0041C20.1088 11.3013 20.3497 11.5422 20.6468 11.5422C20.9439 11.5422 21.1848 11.3013 21.1848 11.0041V2.87796C21.1848 2.58084 20.9439 2.33997 20.6468 2.33997Z" fill="#3099F2"/>
<path d="M24.5158 12.9255H23.5249V1.62637C23.5249 0.729591 22.7953 0 21.8985 0H3.10157C2.20474 0 1.4752 0.729591 1.4752 1.62637V12.9255H0.484229C0.216797 12.9255 0 13.1422 0 13.4097V14.3603C0 15.6775 1.07163 16.7492 2.38887 16.7492H22.6111C23.9284 16.7492 25 15.6775 25 14.3603V13.4097C25 13.1422 24.7833 12.9255 24.5158 12.9255ZM2.55123 1.62637C2.55123 1.32295 2.79815 1.07603 3.10157 1.07603H21.8984C22.2019 1.07603 22.4487 1.3229 22.4487 1.62637V12.9255H15.1636C15.1292 12.9243 15.0938 12.9273 15.0587 12.9341C14.8307 12.9779 14.666 13.1774 14.666 13.4095C14.666 13.8182 14.3335 14.1507 13.9249 14.1507H11.0752C10.6665 14.1507 10.3341 13.8182 10.3341 13.4095C10.3341 13.1384 10.1094 12.9196 9.83859 12.9254H2.55123V1.62637ZM24.0316 14.3603C24.0316 15.1435 23.3943 15.7807 22.6112 15.7807H2.38887C1.60567 15.7807 0.968459 15.1435 0.968459 14.3603V13.8939H9.43542C9.64475 14.6015 10.3007 15.1192 11.0752 15.1192H13.9248C14.6993 15.1192 15.3553 14.6014 15.5646 13.8939H24.0316V14.3603H24.0316Z" fill="#3099F2"/>
<path d="M13.2975 5.46727C13.0874 5.25717 12.7468 5.25717 12.5366 5.46727L9.15294 8.85107C8.94283 9.06118 8.94283 9.40185 9.15294 9.61196C9.25802 9.71704 9.39572 9.76953 9.53336 9.76953C9.67106 9.76953 9.80871 9.71694 9.91378 9.61196L13.2975 6.22821C13.5076 6.0181 13.5076 5.67743 13.2975 5.46727Z" fill="#3099F2"/>
<path d="M15.303 7.42821C15.0929 7.2181 14.7523 7.2181 14.5422 7.42821L13.1942 8.77616C12.9841 8.98627 12.9841 9.32694 13.1942 9.5371C13.2993 9.64218 13.437 9.69467 13.5746 9.69467C13.7124 9.69467 13.85 9.64218 13.955 9.5371L15.303 8.18915C15.5132 7.97904 15.5132 7.63837 15.303 7.42821Z" fill="#3099F2"/>
</svg>
