<svg width="22" height="27" viewBox="0 0 22 27" fill="none" xmlns="http://www.w3.org/2000/svg">
<path d="M17.5796 5.2551V8.66163H9.06961V1H8.33604C4.29094 1 1 4.29094 1 8.33604V13.8626C1 15.4083 2.20125 16.6776 3.71912 16.7883L8.69348 19.7254L7.01234 20.75C6.4512 20.1771 5.66976 19.8206 4.8063 19.8206C3.10266 19.8206 1.71659 21.2066 1.71659 22.9103C1.71659 24.6139 3.10247 26 4.8063 26C6.50995 26 7.89583 24.6139 7.89583 22.9103C7.89583 22.5977 7.84891 22.2959 7.76212 22.0114L10.1255 20.5709L12.5618 22.0094C12.4746 22.2946 12.4273 22.5969 12.4273 22.9103C12.4273 24.6139 13.8134 26 15.517 26C17.2207 26 18.6067 24.6139 18.6067 22.9103C18.6067 21.2065 17.2207 19.8206 15.517 19.8206C14.6543 19.8206 13.8733 20.1765 13.3121 20.7487L11.5457 19.7056L16.3334 16.7879C17.8486 16.6744 19.047 15.4062 19.047 13.8626V6.72224H21.2967V5.2551H17.5796ZM4.8063 24.5329C3.91157 24.5329 3.18372 23.805 3.18372 22.9103C3.18372 22.0155 3.91157 21.2879 4.8063 21.2879C5.70085 21.2879 6.4287 22.0157 6.4287 22.9103C6.4287 23.8048 5.70085 24.5329 4.8063 24.5329ZM15.517 21.2879C16.4118 21.2879 17.1396 22.0157 17.1396 22.9103C17.1396 23.8048 16.4118 24.5329 15.517 24.5329C14.6225 24.5329 13.8946 23.805 13.8946 22.9103C13.8946 22.0155 14.6225 21.2879 15.517 21.2879ZM17.5796 10.129V10.9773H2.46713V10.129H17.5796ZM2.46713 8.33604C2.46713 5.34837 4.71132 2.87511 7.60248 2.51291V8.66182H2.46713V8.33604ZM6.61981 16.797H13.4989L10.1137 18.86L6.61981 16.797ZM17.5796 13.8626C17.5796 14.6717 16.9214 15.3299 16.1123 15.3299H3.93446C3.12536 15.3299 2.46713 14.6717 2.46713 13.8626V12.4445H17.5796V13.8626Z" fill="#3099F2" stroke="white" stroke-width="0.2"/>
</svg>
