<svg width="27" height="27" viewBox="0 0 27 27" fill="none" xmlns="http://www.w3.org/2000/svg">
<mask id="path-1-outside-1" maskUnits="userSpaceOnUse" x="0" y="0" width="27" height="27" fill="black">
<rect fill="white" width="27" height="27"/>
<path d="M26 13.5C26 10.1848 24.683 7.00537 22.3388 4.66116C19.9946 2.31696 16.8152 1 13.5 1C10.1848 1 7.00537 2.31696 4.66117 4.66116C2.31697 7.00537 1.00001 10.1848 1.00001 13.5C0.998472 14.9644 1.25664 16.4174 1.76251 17.7917C1.27261 18.3263 1.00059 19.0249 1.00001 19.75V23.0833C1.00089 23.8566 1.30846 24.5979 1.85525 25.1447C2.40204 25.6915 3.14339 25.9991 3.91667 26H23.0833C23.8566 25.9991 24.598 25.6915 25.1447 25.1447C25.6915 24.5979 25.9991 23.8566 26 23.0833V19.75C25.9994 19.0249 25.7274 18.3263 25.2375 17.7917C25.7434 16.4174 26.0015 14.9644 26 13.5ZM23.0833 25.1667H3.91667C3.36595 25.1655 2.838 24.9467 2.4478 24.5581C2.0576 24.1694 1.83675 23.6424 1.83334 23.0917L3.36251 24.25C3.435 24.3051 3.52354 24.3349 3.61459 24.3349C3.70564 24.3349 3.79418 24.3051 3.86667 24.25L5.80834 22.775L7.75 24.25C7.8225 24.3051 7.91104 24.3349 8.00209 24.3349C8.09313 24.3349 8.18167 24.3051 8.25417 24.25L10.2 22.775L12.1458 24.25C12.2183 24.3051 12.3069 24.3349 12.3979 24.3349C12.489 24.3349 12.5775 24.3051 12.65 24.25L14.5917 22.775L16.5375 24.25C16.6104 24.3041 16.6988 24.3333 16.7896 24.3333C16.8804 24.3333 16.9688 24.3041 17.0417 24.25L18.9875 22.775L20.9333 24.25C21.0058 24.3051 21.0944 24.3349 21.1854 24.3349C21.2765 24.3349 21.365 24.3051 21.4375 24.25L23.3833 22.7708L24.9625 23.9667C24.7955 24.3244 24.53 24.6272 24.1973 24.8397C23.8645 25.0522 23.4781 25.1656 23.0833 25.1667ZM25.1667 23.0792L23.6375 21.9167C23.565 21.8616 23.4765 21.8317 23.3854 21.8317C23.2944 21.8317 23.2058 21.8616 23.1333 21.9167L21.1833 23.3958L19.2375 21.9167C19.165 21.8616 19.0765 21.8317 18.9854 21.8317C18.8944 21.8317 18.8058 21.8616 18.7333 21.9167L16.7917 23.3917L14.8458 21.9167C14.7733 21.8616 14.6848 21.8317 14.5937 21.8317C14.5027 21.8317 14.4142 21.8616 14.3417 21.9167L12.3958 23.3917L10.45 21.9167C10.3775 21.8616 10.289 21.8317 10.1979 21.8317C10.1069 21.8317 10.0183 21.8616 9.94584 21.9167L8.00417 23.3917L6.05834 21.9167C5.98584 21.8616 5.8973 21.8317 5.80625 21.8317C5.71521 21.8317 5.62667 21.8616 5.55417 21.9167L3.61251 23.3917L1.83334 22.0417V20.1708L3.36251 21.3333C3.435 21.3884 3.52354 21.4182 3.61459 21.4182C3.70564 21.4182 3.79418 21.3884 3.86667 21.3333L5.80834 19.8583L7.75 21.3333C7.8225 21.3884 7.91104 21.4182 8.00209 21.4182C8.09313 21.4182 8.18167 21.3884 8.25417 21.3333L10.2 19.8583L12.1458 21.3333C12.2183 21.3884 12.3069 21.4182 12.3979 21.4182C12.489 21.4182 12.5775 21.3884 12.65 21.3333L14.5917 19.8583L16.5375 21.3333C16.6104 21.3874 16.6988 21.4167 16.7896 21.4167C16.8804 21.4167 16.9688 21.3874 17.0417 21.3333L18.9875 19.8583L20.9333 21.3333C21.0058 21.3884 21.0944 21.4182 21.1854 21.4182C21.2765 21.4182 21.365 21.3884 21.4375 21.3333L23.3833 19.8542L25.1667 21.2083V23.0792ZM25.1667 20.1625L23.6375 19C23.565 18.9449 23.4765 18.9151 23.3854 18.9151C23.2944 18.9151 23.2058 18.9449 23.1333 19L21.1833 20.4792L19.2375 19C19.165 18.9449 19.0765 18.9151 18.9854 18.9151C18.8944 18.9151 18.8058 18.9449 18.7333 19L16.7917 20.475L14.8458 19C14.7733 18.9449 14.6848 18.9151 14.5937 18.9151C14.5027 18.9151 14.4142 18.9449 14.3417 19L12.3958 20.475L10.45 19C10.3775 18.9449 10.289 18.9151 10.1979 18.9151C10.1069 18.9151 10.0183 18.9449 9.94584 19L8.00417 20.475L6.05834 19C5.98584 18.9449 5.8973 18.9151 5.80625 18.9151C5.71521 18.9151 5.62667 18.9449 5.55417 19L3.61251 20.475L1.92084 19.1917C2.04176 18.7546 2.30221 18.3691 2.66251 18.0938C3.02282 17.8185 3.46323 17.6685 3.91667 17.6667H23.0833C23.6359 17.6667 24.1658 17.8861 24.5565 18.2768C24.9472 18.6675 25.1667 19.1975 25.1667 19.75V20.1625ZM10.25 12.5792H10.275C10.3574 12.5795 10.438 12.555 10.5064 12.5089C10.5748 12.4629 10.6277 12.3973 10.6583 12.3208C10.6919 12.2412 10.6999 12.1532 10.6813 12.0688C10.6626 11.9845 10.6182 11.908 10.5542 11.85L8.075 9.63749C8.50702 9.03602 9.03488 8.50957 9.6375 8.07916L11.85 10.5542C11.89 10.5971 11.9384 10.6314 11.9921 10.655C12.0458 10.6787 12.1038 10.6911 12.1625 10.6917C12.2191 10.6908 12.275 10.6786 12.3268 10.6558C12.3786 10.633 12.4253 10.6001 12.4642 10.5589C12.503 10.5177 12.5332 10.4691 12.553 10.4161C12.5727 10.363 12.5816 10.3066 12.5792 10.25L12.3958 6.92916C12.5 6.9125 12.6083 6.89166 12.7167 6.87916C13.237 6.81666 13.763 6.81666 14.2833 6.87916C14.3917 6.89166 14.5 6.9125 14.6042 6.92916L14.4208 10.25C14.4184 10.3066 14.4273 10.363 14.447 10.4161C14.4668 10.4691 14.497 10.5177 14.5358 10.5589C14.5747 10.6001 14.6214 10.633 14.6732 10.6558C14.725 10.6786 14.7809 10.6908 14.8375 10.6917C14.8962 10.6911 14.9542 10.6787 15.0079 10.655C15.0616 10.6314 15.11 10.5971 15.15 10.5542L17.3625 8.07916C17.9651 8.50957 18.493 9.03602 18.925 9.63749L16.4458 11.85C16.3818 11.908 16.3374 11.9845 16.3187 12.0688C16.3001 12.1532 16.3081 12.2412 16.3417 12.3208C16.3723 12.3973 16.4252 12.4629 16.4936 12.5089C16.562 12.555 16.6426 12.5795 16.725 12.5792H16.75L20.0667 12.3958C20.1317 12.7603 20.1651 13.1297 20.1667 13.5C20.1662 13.8701 20.1341 14.2395 20.0708 14.6042L16.75 14.4208C16.6637 14.4166 16.5783 14.4391 16.5052 14.4853C16.4322 14.5314 16.3752 14.5989 16.3419 14.6786C16.3087 14.7583 16.3008 14.8464 16.3194 14.9307C16.338 15.0151 16.3821 15.0916 16.4458 15.15L18.3292 16.8333H15.4958L15.1458 16.4458C15.088 16.3818 15.0116 16.3373 14.9274 16.3186C14.8431 16.2998 14.7552 16.3077 14.6756 16.341C14.596 16.3744 14.5287 16.4317 14.4831 16.505C14.4375 16.5782 14.4157 16.6638 14.4208 16.75L14.425 16.8333H12.575L12.5792 16.75C12.5843 16.6638 12.5625 16.5782 12.5169 16.505C12.4713 16.4317 12.404 16.3744 12.3244 16.341C12.2448 16.3077 12.1569 16.2998 12.0726 16.3186C11.9884 16.3373 11.912 16.3818 11.8542 16.4458L11.5042 16.8333H8.67084L10.5542 15.15C10.6182 15.092 10.6626 15.0155 10.6813 14.9312C10.6999 14.8468 10.6919 14.7588 10.6583 14.6792C10.6249 14.5995 10.5678 14.532 10.4947 14.4859C10.4217 14.4397 10.3363 14.417 10.25 14.4208L6.92917 14.6042C6.86591 14.2395 6.83385 13.8701 6.83334 13.5C6.83486 13.1297 6.86832 12.7603 6.93334 12.3958L10.25 12.5792ZM7.125 11.5708C7.21405 11.2764 7.32262 10.9883 7.45 10.7083C7.50417 10.5875 7.56667 10.4708 7.62917 10.3542L9.1125 11.6792L7.125 11.5708ZM10.3542 7.62916C10.7423 7.42183 11.1498 7.25297 11.5708 7.125L11.6792 9.11249L10.3542 7.62916ZM15.3208 9.11249L15.4292 7.125C15.8502 7.25297 16.2577 7.42183 16.6458 7.62916L15.3208 9.11249ZM19.3708 10.3542C19.4333 10.4708 19.4958 10.5875 19.55 10.7083C19.6774 10.9883 19.786 11.2764 19.875 11.5708L17.8875 11.6792L19.3708 10.3542ZM19.8792 15.4292C19.7516 15.851 19.5812 16.2586 19.3708 16.6458L17.8875 15.3208L19.8792 15.4292ZM7.62917 16.6458C7.41876 16.2586 7.24844 15.851 7.12084 15.4292L9.1125 15.3208L7.62917 16.6458ZM24.5542 17.2333C24.1077 16.9727 23.6003 16.8347 23.0833 16.8333H20.2125C20.7286 15.7978 20.9981 14.657 21 13.5C21.0006 13.0102 20.9517 12.5216 20.8542 12.0417C20.7425 11.4602 20.5591 10.8947 20.3083 10.3583C19.767 9.19712 18.9392 8.19275 17.9026 7.43976C16.8661 6.68678 15.655 6.20995 14.3833 6.05416C13.7966 5.98333 13.2034 5.98333 12.6167 6.05416C11.345 6.20995 10.1339 6.68678 9.09737 7.43976C8.06083 8.19275 7.23295 9.19712 6.69167 10.3583C6.4415 10.8935 6.25817 11.4575 6.14584 12.0375C6.04846 12.5189 5.9996 13.0088 6 13.5C6.00188 14.657 6.27141 15.7978 6.7875 16.8333H3.91667C3.39971 16.8347 2.8923 16.9727 2.44584 17.2333C1.90485 15.6303 1.719 13.9287 1.90116 12.2467C2.08333 10.5646 2.62916 8.94232 3.50081 7.49226C4.37246 6.04219 5.54906 4.79905 6.94904 3.84904C8.34903 2.89903 9.93888 2.26488 11.6084 1.99056C13.2779 1.71624 14.9871 1.80831 16.6174 2.2604C18.2478 2.71248 19.7603 3.51376 21.0501 4.60867C22.34 5.70358 23.3762 7.06592 24.087 8.60124C24.7979 10.1366 25.1662 11.8081 25.1667 13.5C25.1683 14.7696 24.9614 16.0308 24.5542 17.2333Z"/>
</mask>
<path d="M26 13.5C26 10.1848 24.683 7.00537 22.3388 4.66116C19.9946 2.31696 16.8152 1 13.5 1C10.1848 1 7.00537 2.31696 4.66117 4.66116C2.31697 7.00537 1.00001 10.1848 1.00001 13.5C0.998472 14.9644 1.25664 16.4174 1.76251 17.7917C1.27261 18.3263 1.00059 19.0249 1.00001 19.75V23.0833C1.00089 23.8566 1.30846 24.5979 1.85525 25.1447C2.40204 25.6915 3.14339 25.9991 3.91667 26H23.0833C23.8566 25.9991 24.598 25.6915 25.1447 25.1447C25.6915 24.5979 25.9991 23.8566 26 23.0833V19.75C25.9994 19.0249 25.7274 18.3263 25.2375 17.7917C25.7434 16.4174 26.0015 14.9644 26 13.5ZM23.0833 25.1667H3.91667C3.36595 25.1655 2.838 24.9467 2.4478 24.5581C2.0576 24.1694 1.83675 23.6424 1.83334 23.0917L3.36251 24.25C3.435 24.3051 3.52354 24.3349 3.61459 24.3349C3.70564 24.3349 3.79418 24.3051 3.86667 24.25L5.80834 22.775L7.75 24.25C7.8225 24.3051 7.91104 24.3349 8.00209 24.3349C8.09313 24.3349 8.18167 24.3051 8.25417 24.25L10.2 22.775L12.1458 24.25C12.2183 24.3051 12.3069 24.3349 12.3979 24.3349C12.489 24.3349 12.5775 24.3051 12.65 24.25L14.5917 22.775L16.5375 24.25C16.6104 24.3041 16.6988 24.3333 16.7896 24.3333C16.8804 24.3333 16.9688 24.3041 17.0417 24.25L18.9875 22.775L20.9333 24.25C21.0058 24.3051 21.0944 24.3349 21.1854 24.3349C21.2765 24.3349 21.365 24.3051 21.4375 24.25L23.3833 22.7708L24.9625 23.9667C24.7955 24.3244 24.53 24.6272 24.1973 24.8397C23.8645 25.0522 23.4781 25.1656 23.0833 25.1667ZM25.1667 23.0792L23.6375 21.9167C23.565 21.8616 23.4765 21.8317 23.3854 21.8317C23.2944 21.8317 23.2058 21.8616 23.1333 21.9167L21.1833 23.3958L19.2375 21.9167C19.165 21.8616 19.0765 21.8317 18.9854 21.8317C18.8944 21.8317 18.8058 21.8616 18.7333 21.9167L16.7917 23.3917L14.8458 21.9167C14.7733 21.8616 14.6848 21.8317 14.5937 21.8317C14.5027 21.8317 14.4142 21.8616 14.3417 21.9167L12.3958 23.3917L10.45 21.9167C10.3775 21.8616 10.289 21.8317 10.1979 21.8317C10.1069 21.8317 10.0183 21.8616 9.94584 21.9167L8.00417 23.3917L6.05834 21.9167C5.98584 21.8616 5.8973 21.8317 5.80625 21.8317C5.71521 21.8317 5.62667 21.8616 5.55417 21.9167L3.61251 23.3917L1.83334 22.0417V20.1708L3.36251 21.3333C3.435 21.3884 3.52354 21.4182 3.61459 21.4182C3.70564 21.4182 3.79418 21.3884 3.86667 21.3333L5.80834 19.8583L7.75 21.3333C7.8225 21.3884 7.91104 21.4182 8.00209 21.4182C8.09313 21.4182 8.18167 21.3884 8.25417 21.3333L10.2 19.8583L12.1458 21.3333C12.2183 21.3884 12.3069 21.4182 12.3979 21.4182C12.489 21.4182 12.5775 21.3884 12.65 21.3333L14.5917 19.8583L16.5375 21.3333C16.6104 21.3874 16.6988 21.4167 16.7896 21.4167C16.8804 21.4167 16.9688 21.3874 17.0417 21.3333L18.9875 19.8583L20.9333 21.3333C21.0058 21.3884 21.0944 21.4182 21.1854 21.4182C21.2765 21.4182 21.365 21.3884 21.4375 21.3333L23.3833 19.8542L25.1667 21.2083V23.0792ZM25.1667 20.1625L23.6375 19C23.565 18.9449 23.4765 18.9151 23.3854 18.9151C23.2944 18.9151 23.2058 18.9449 23.1333 19L21.1833 20.4792L19.2375 19C19.165 18.9449 19.0765 18.9151 18.9854 18.9151C18.8944 18.9151 18.8058 18.9449 18.7333 19L16.7917 20.475L14.8458 19C14.7733 18.9449 14.6848 18.9151 14.5937 18.9151C14.5027 18.9151 14.4142 18.9449 14.3417 19L12.3958 20.475L10.45 19C10.3775 18.9449 10.289 18.9151 10.1979 18.9151C10.1069 18.9151 10.0183 18.9449 9.94584 19L8.00417 20.475L6.05834 19C5.98584 18.9449 5.8973 18.9151 5.80625 18.9151C5.71521 18.9151 5.62667 18.9449 5.55417 19L3.61251 20.475L1.92084 19.1917C2.04176 18.7546 2.30221 18.3691 2.66251 18.0938C3.02282 17.8185 3.46323 17.6685 3.91667 17.6667H23.0833C23.6359 17.6667 24.1658 17.8861 24.5565 18.2768C24.9472 18.6675 25.1667 19.1975 25.1667 19.75V20.1625ZM10.25 12.5792H10.275C10.3574 12.5795 10.438 12.555 10.5064 12.5089C10.5748 12.4629 10.6277 12.3973 10.6583 12.3208C10.6919 12.2412 10.6999 12.1532 10.6813 12.0688C10.6626 11.9845 10.6182 11.908 10.5542 11.85L8.075 9.63749C8.50702 9.03602 9.03488 8.50957 9.6375 8.07916L11.85 10.5542C11.89 10.5971 11.9384 10.6314 11.9921 10.655C12.0458 10.6787 12.1038 10.6911 12.1625 10.6917C12.2191 10.6908 12.275 10.6786 12.3268 10.6558C12.3786 10.633 12.4253 10.6001 12.4642 10.5589C12.503 10.5177 12.5332 10.4691 12.553 10.4161C12.5727 10.363 12.5816 10.3066 12.5792 10.25L12.3958 6.92916C12.5 6.9125 12.6083 6.89166 12.7167 6.87916C13.237 6.81666 13.763 6.81666 14.2833 6.87916C14.3917 6.89166 14.5 6.9125 14.6042 6.92916L14.4208 10.25C14.4184 10.3066 14.4273 10.363 14.447 10.4161C14.4668 10.4691 14.497 10.5177 14.5358 10.5589C14.5747 10.6001 14.6214 10.633 14.6732 10.6558C14.725 10.6786 14.7809 10.6908 14.8375 10.6917C14.8962 10.6911 14.9542 10.6787 15.0079 10.655C15.0616 10.6314 15.11 10.5971 15.15 10.5542L17.3625 8.07916C17.9651 8.50957 18.493 9.03602 18.925 9.63749L16.4458 11.85C16.3818 11.908 16.3374 11.9845 16.3187 12.0688C16.3001 12.1532 16.3081 12.2412 16.3417 12.3208C16.3723 12.3973 16.4252 12.4629 16.4936 12.5089C16.562 12.555 16.6426 12.5795 16.725 12.5792H16.75L20.0667 12.3958C20.1317 12.7603 20.1651 13.1297 20.1667 13.5C20.1662 13.8701 20.1341 14.2395 20.0708 14.6042L16.75 14.4208C16.6637 14.4166 16.5783 14.4391 16.5052 14.4853C16.4322 14.5314 16.3752 14.5989 16.3419 14.6786C16.3087 14.7583 16.3008 14.8464 16.3194 14.9307C16.338 15.0151 16.3821 15.0916 16.4458 15.15L18.3292 16.8333H15.4958L15.1458 16.4458C15.088 16.3818 15.0116 16.3373 14.9274 16.3186C14.8431 16.2998 14.7552 16.3077 14.6756 16.341C14.596 16.3744 14.5287 16.4317 14.4831 16.505C14.4375 16.5782 14.4157 16.6638 14.4208 16.75L14.425 16.8333H12.575L12.5792 16.75C12.5843 16.6638 12.5625 16.5782 12.5169 16.505C12.4713 16.4317 12.404 16.3744 12.3244 16.341C12.2448 16.3077 12.1569 16.2998 12.0726 16.3186C11.9884 16.3373 11.912 16.3818 11.8542 16.4458L11.5042 16.8333H8.67084L10.5542 15.15C10.6182 15.092 10.6626 15.0155 10.6813 14.9312C10.6999 14.8468 10.6919 14.7588 10.6583 14.6792C10.6249 14.5995 10.5678 14.532 10.4947 14.4859C10.4217 14.4397 10.3363 14.417 10.25 14.4208L6.92917 14.6042C6.86591 14.2395 6.83385 13.8701 6.83334 13.5C6.83486 13.1297 6.86832 12.7603 6.93334 12.3958L10.25 12.5792ZM7.125 11.5708C7.21405 11.2764 7.32262 10.9883 7.45 10.7083C7.50417 10.5875 7.56667 10.4708 7.62917 10.3542L9.1125 11.6792L7.125 11.5708ZM10.3542 7.62916C10.7423 7.42183 11.1498 7.25297 11.5708 7.125L11.6792 9.11249L10.3542 7.62916ZM15.3208 9.11249L15.4292 7.125C15.8502 7.25297 16.2577 7.42183 16.6458 7.62916L15.3208 9.11249ZM19.3708 10.3542C19.4333 10.4708 19.4958 10.5875 19.55 10.7083C19.6774 10.9883 19.786 11.2764 19.875 11.5708L17.8875 11.6792L19.3708 10.3542ZM19.8792 15.4292C19.7516 15.851 19.5812 16.2586 19.3708 16.6458L17.8875 15.3208L19.8792 15.4292ZM7.62917 16.6458C7.41876 16.2586 7.24844 15.851 7.12084 15.4292L9.1125 15.3208L7.62917 16.6458ZM24.5542 17.2333C24.1077 16.9727 23.6003 16.8347 23.0833 16.8333H20.2125C20.7286 15.7978 20.9981 14.657 21 13.5C21.0006 13.0102 20.9517 12.5216 20.8542 12.0417C20.7425 11.4602 20.5591 10.8947 20.3083 10.3583C19.767 9.19712 18.9392 8.19275 17.9026 7.43976C16.8661 6.68678 15.655 6.20995 14.3833 6.05416C13.7966 5.98333 13.2034 5.98333 12.6167 6.05416C11.345 6.20995 10.1339 6.68678 9.09737 7.43976C8.06083 8.19275 7.23295 9.19712 6.69167 10.3583C6.4415 10.8935 6.25817 11.4575 6.14584 12.0375C6.04846 12.5189 5.9996 13.0088 6 13.5C6.00188 14.657 6.27141 15.7978 6.7875 16.8333H3.91667C3.39971 16.8347 2.8923 16.9727 2.44584 17.2333C1.90485 15.6303 1.719 13.9287 1.90116 12.2467C2.08333 10.5646 2.62916 8.94232 3.50081 7.49226C4.37246 6.04219 5.54906 4.79905 6.94904 3.84904C8.34903 2.89903 9.93888 2.26488 11.6084 1.99056C13.2779 1.71624 14.9871 1.80831 16.6174 2.2604C18.2478 2.71248 19.7603 3.51376 21.0501 4.60867C22.34 5.70358 23.3762 7.06592 24.087 8.60124C24.7979 10.1366 25.1662 11.8081 25.1667 13.5C25.1683 14.7696 24.9614 16.0308 24.5542 17.2333Z" fill="#3099F2"/>
<path d="M26 13.5C26 10.1848 24.683 7.00537 22.3388 4.66116C19.9946 2.31696 16.8152 1 13.5 1C10.1848 1 7.00537 2.31696 4.66117 4.66116C2.31697 7.00537 1.00001 10.1848 1.00001 13.5C0.998472 14.9644 1.25664 16.4174 1.76251 17.7917C1.27261 18.3263 1.00059 19.0249 1.00001 19.75V23.0833C1.00089 23.8566 1.30846 24.5979 1.85525 25.1447C2.40204 25.6915 3.14339 25.9991 3.91667 26H23.0833C23.8566 25.9991 24.598 25.6915 25.1447 25.1447C25.6915 24.5979 25.9991 23.8566 26 23.0833V19.75C25.9994 19.0249 25.7274 18.3263 25.2375 17.7917C25.7434 16.4174 26.0015 14.9644 26 13.5ZM23.0833 25.1667H3.91667C3.36595 25.1655 2.838 24.9467 2.4478 24.5581C2.0576 24.1694 1.83675 23.6424 1.83334 23.0917L3.36251 24.25C3.435 24.3051 3.52354 24.3349 3.61459 24.3349C3.70564 24.3349 3.79418 24.3051 3.86667 24.25L5.80834 22.775L7.75 24.25C7.8225 24.3051 7.91104 24.3349 8.00209 24.3349C8.09313 24.3349 8.18167 24.3051 8.25417 24.25L10.2 22.775L12.1458 24.25C12.2183 24.3051 12.3069 24.3349 12.3979 24.3349C12.489 24.3349 12.5775 24.3051 12.65 24.25L14.5917 22.775L16.5375 24.25C16.6104 24.3041 16.6988 24.3333 16.7896 24.3333C16.8804 24.3333 16.9688 24.3041 17.0417 24.25L18.9875 22.775L20.9333 24.25C21.0058 24.3051 21.0944 24.3349 21.1854 24.3349C21.2765 24.3349 21.365 24.3051 21.4375 24.25L23.3833 22.7708L24.9625 23.9667C24.7955 24.3244 24.53 24.6272 24.1973 24.8397C23.8645 25.0522 23.4781 25.1656 23.0833 25.1667ZM25.1667 23.0792L23.6375 21.9167C23.565 21.8616 23.4765 21.8317 23.3854 21.8317C23.2944 21.8317 23.2058 21.8616 23.1333 21.9167L21.1833 23.3958L19.2375 21.9167C19.165 21.8616 19.0765 21.8317 18.9854 21.8317C18.8944 21.8317 18.8058 21.8616 18.7333 21.9167L16.7917 23.3917L14.8458 21.9167C14.7733 21.8616 14.6848 21.8317 14.5937 21.8317C14.5027 21.8317 14.4142 21.8616 14.3417 21.9167L12.3958 23.3917L10.45 21.9167C10.3775 21.8616 10.289 21.8317 10.1979 21.8317C10.1069 21.8317 10.0183 21.8616 9.94584 21.9167L8.00417 23.3917L6.05834 21.9167C5.98584 21.8616 5.8973 21.8317 5.80625 21.8317C5.71521 21.8317 5.62667 21.8616 5.55417 21.9167L3.61251 23.3917L1.83334 22.0417V20.1708L3.36251 21.3333C3.435 21.3884 3.52354 21.4182 3.61459 21.4182C3.70564 21.4182 3.79418 21.3884 3.86667 21.3333L5.80834 19.8583L7.75 21.3333C7.8225 21.3884 7.91104 21.4182 8.00209 21.4182C8.09313 21.4182 8.18167 21.3884 8.25417 21.3333L10.2 19.8583L12.1458 21.3333C12.2183 21.3884 12.3069 21.4182 12.3979 21.4182C12.489 21.4182 12.5775 21.3884 12.65 21.3333L14.5917 19.8583L16.5375 21.3333C16.6104 21.3874 16.6988 21.4167 16.7896 21.4167C16.8804 21.4167 16.9688 21.3874 17.0417 21.3333L18.9875 19.8583L20.9333 21.3333C21.0058 21.3884 21.0944 21.4182 21.1854 21.4182C21.2765 21.4182 21.365 21.3884 21.4375 21.3333L23.3833 19.8542L25.1667 21.2083V23.0792ZM25.1667 20.1625L23.6375 19C23.565 18.9449 23.4765 18.9151 23.3854 18.9151C23.2944 18.9151 23.2058 18.9449 23.1333 19L21.1833 20.4792L19.2375 19C19.165 18.9449 19.0765 18.9151 18.9854 18.9151C18.8944 18.9151 18.8058 18.9449 18.7333 19L16.7917 20.475L14.8458 19C14.7733 18.9449 14.6848 18.9151 14.5937 18.9151C14.5027 18.9151 14.4142 18.9449 14.3417 19L12.3958 20.475L10.45 19C10.3775 18.9449 10.289 18.9151 10.1979 18.9151C10.1069 18.9151 10.0183 18.9449 9.94584 19L8.00417 20.475L6.05834 19C5.98584 18.9449 5.8973 18.9151 5.80625 18.9151C5.71521 18.9151 5.62667 18.9449 5.55417 19L3.61251 20.475L1.92084 19.1917C2.04176 18.7546 2.30221 18.3691 2.66251 18.0938C3.02282 17.8185 3.46323 17.6685 3.91667 17.6667H23.0833C23.6359 17.6667 24.1658 17.8861 24.5565 18.2768C24.9472 18.6675 25.1667 19.1975 25.1667 19.75V20.1625ZM10.25 12.5792H10.275C10.3574 12.5795 10.438 12.555 10.5064 12.5089C10.5748 12.4629 10.6277 12.3973 10.6583 12.3208C10.6919 12.2412 10.6999 12.1532 10.6813 12.0688C10.6626 11.9845 10.6182 11.908 10.5542 11.85L8.075 9.63749C8.50702 9.03602 9.03488 8.50957 9.6375 8.07916L11.85 10.5542C11.89 10.5971 11.9384 10.6314 11.9921 10.655C12.0458 10.6787 12.1038 10.6911 12.1625 10.6917C12.2191 10.6908 12.275 10.6786 12.3268 10.6558C12.3786 10.633 12.4253 10.6001 12.4642 10.5589C12.503 10.5177 12.5332 10.4691 12.553 10.4161C12.5727 10.363 12.5816 10.3066 12.5792 10.25L12.3958 6.92916C12.5 6.9125 12.6083 6.89166 12.7167 6.87916C13.237 6.81666 13.763 6.81666 14.2833 6.87916C14.3917 6.89166 14.5 6.9125 14.6042 6.92916L14.4208 10.25C14.4184 10.3066 14.4273 10.363 14.447 10.4161C14.4668 10.4691 14.497 10.5177 14.5358 10.5589C14.5747 10.6001 14.6214 10.633 14.6732 10.6558C14.725 10.6786 14.7809 10.6908 14.8375 10.6917C14.8962 10.6911 14.9542 10.6787 15.0079 10.655C15.0616 10.6314 15.11 10.5971 15.15 10.5542L17.3625 8.07916C17.9651 8.50957 18.493 9.03602 18.925 9.63749L16.4458 11.85C16.3818 11.908 16.3374 11.9845 16.3187 12.0688C16.3001 12.1532 16.3081 12.2412 16.3417 12.3208C16.3723 12.3973 16.4252 12.4629 16.4936 12.5089C16.562 12.555 16.6426 12.5795 16.725 12.5792H16.75L20.0667 12.3958C20.1317 12.7603 20.1651 13.1297 20.1667 13.5C20.1662 13.8701 20.1341 14.2395 20.0708 14.6042L16.75 14.4208C16.6637 14.4166 16.5783 14.4391 16.5052 14.4853C16.4322 14.5314 16.3752 14.5989 16.3419 14.6786C16.3087 14.7583 16.3008 14.8464 16.3194 14.9307C16.338 15.0151 16.3821 15.0916 16.4458 15.15L18.3292 16.8333H15.4958L15.1458 16.4458C15.088 16.3818 15.0116 16.3373 14.9274 16.3186C14.8431 16.2998 14.7552 16.3077 14.6756 16.341C14.596 16.3744 14.5287 16.4317 14.4831 16.505C14.4375 16.5782 14.4157 16.6638 14.4208 16.75L14.425 16.8333H12.575L12.5792 16.75C12.5843 16.6638 12.5625 16.5782 12.5169 16.505C12.4713 16.4317 12.404 16.3744 12.3244 16.341C12.2448 16.3077 12.1569 16.2998 12.0726 16.3186C11.9884 16.3373 11.912 16.3818 11.8542 16.4458L11.5042 16.8333H8.67084L10.5542 15.15C10.6182 15.092 10.6626 15.0155 10.6813 14.9312C10.6999 14.8468 10.6919 14.7588 10.6583 14.6792C10.6249 14.5995 10.5678 14.532 10.4947 14.4859C10.4217 14.4397 10.3363 14.417 10.25 14.4208L6.92917 14.6042C6.86591 14.2395 6.83385 13.8701 6.83334 13.5C6.83486 13.1297 6.86832 12.7603 6.93334 12.3958L10.25 12.5792ZM7.125 11.5708C7.21405 11.2764 7.32262 10.9883 7.45 10.7083C7.50417 10.5875 7.56667 10.4708 7.62917 10.3542L9.1125 11.6792L7.125 11.5708ZM10.3542 7.62916C10.7423 7.42183 11.1498 7.25297 11.5708 7.125L11.6792 9.11249L10.3542 7.62916ZM15.3208 9.11249L15.4292 7.125C15.8502 7.25297 16.2577 7.42183 16.6458 7.62916L15.3208 9.11249ZM19.3708 10.3542C19.4333 10.4708 19.4958 10.5875 19.55 10.7083C19.6774 10.9883 19.786 11.2764 19.875 11.5708L17.8875 11.6792L19.3708 10.3542ZM19.8792 15.4292C19.7516 15.851 19.5812 16.2586 19.3708 16.6458L17.8875 15.3208L19.8792 15.4292ZM7.62917 16.6458C7.41876 16.2586 7.24844 15.851 7.12084 15.4292L9.1125 15.3208L7.62917 16.6458ZM24.5542 17.2333C24.1077 16.9727 23.6003 16.8347 23.0833 16.8333H20.2125C20.7286 15.7978 20.9981 14.657 21 13.5C21.0006 13.0102 20.9517 12.5216 20.8542 12.0417C20.7425 11.4602 20.5591 10.8947 20.3083 10.3583C19.767 9.19712 18.9392 8.19275 17.9026 7.43976C16.8661 6.68678 15.655 6.20995 14.3833 6.05416C13.7966 5.98333 13.2034 5.98333 12.6167 6.05416C11.345 6.20995 10.1339 6.68678 9.09737 7.43976C8.06083 8.19275 7.23295 9.19712 6.69167 10.3583C6.4415 10.8935 6.25817 11.4575 6.14584 12.0375C6.04846 12.5189 5.9996 13.0088 6 13.5C6.00188 14.657 6.27141 15.7978 6.7875 16.8333H3.91667C3.39971 16.8347 2.8923 16.9727 2.44584 17.2333C1.90485 15.6303 1.719 13.9287 1.90116 12.2467C2.08333 10.5646 2.62916 8.94232 3.50081 7.49226C4.37246 6.04219 5.54906 4.79905 6.94904 3.84904C8.34903 2.89903 9.93888 2.26488 11.6084 1.99056C13.2779 1.71624 14.9871 1.80831 16.6174 2.2604C18.2478 2.71248 19.7603 3.51376 21.0501 4.60867C22.34 5.70358 23.3762 7.06592 24.087 8.60124C24.7979 10.1366 25.1662 11.8081 25.1667 13.5C25.1683 14.7696 24.9614 16.0308 24.5542 17.2333Z" stroke="#3099F2" stroke-width="0.2" mask="url(#path-1-outside-1)"/>
<path d="M13.5 15.6333H13.5001C13.922 15.6333 14.3345 15.5082 14.6853 15.2738C15.0361 15.0393 15.3096 14.7062 15.471 14.3164C15.6325 13.9265 15.6747 13.4976 15.5924 13.0838C15.5101 12.6699 15.3069 12.2898 15.0086 11.9915C14.7102 11.6931 14.3301 11.4899 13.9163 11.4076C13.5024 11.3253 13.0735 11.3676 12.6837 11.529C12.2939 11.6905 11.9607 11.9639 11.7263 12.3147C11.4919 12.6656 11.3667 13.078 11.3667 13.5L11.3667 13.5C11.3674 14.0656 11.5924 14.6078 11.9923 15.0077C12.3922 15.4076 12.9344 15.6326 13.5 15.6333ZM13.5001 12.3C13.7374 12.3 13.9694 12.3703 14.1668 12.5022C14.3641 12.6341 14.5179 12.8215 14.6087 13.0407C14.6996 13.26 14.7233 13.5013 14.677 13.7341C14.6307 13.9668 14.5164 14.1807 14.3486 14.3485C14.1808 14.5163 13.967 14.6306 13.7342 14.6769C13.5014 14.7232 13.2601 14.6994 13.0409 14.6086C12.8216 14.5178 12.6342 14.364 12.5023 14.1666C12.3705 13.9693 12.3001 13.7373 12.3001 13.5C12.3001 13.1817 12.4265 12.8765 12.6516 12.6514C12.8766 12.4264 13.1818 12.3 13.5001 12.3Z" fill="#3099F2" stroke="#3099F2" stroke-width="0.1"/>
</svg>
