<svg width="25" height="25" viewBox="0 0 25 25" fill="none" xmlns="http://www.w3.org/2000/svg">
<path d="M16.9361 7.57593C16.6665 7.57593 16.4478 7.79414 16.4478 8.06403C16.4478 8.33374 16.6665 8.55233 16.9361 8.55233C17.2061 8.55233 17.4243 8.33374 17.4243 8.06403C17.4243 7.79414 17.2061 7.57593 16.9361 7.57593Z" fill="#3099F2"/>
<path d="M8.06398 16.4478C7.79389 16.4478 7.57568 16.6665 7.57568 16.9361C7.57568 17.2061 7.79389 17.4243 8.06398 17.4243C8.3335 17.4243 8.55228 17.2061 8.55228 16.9361C8.55228 16.6665 8.3335 16.4478 8.06398 16.4478Z" fill="#3099F2"/>
<path d="M24.3933 3.00402C24.2285 2.96568 24.0553 3.01547 23.9362 3.13563L21.9119 5.17599H20.9414L19.8731 4.06912V3.08509L21.8684 1.05999C21.9865 0.940207 22.0346 0.767968 21.9955 0.604122C21.9565 0.440467 21.836 0.308474 21.6765 0.254685C21.1753 0.0856889 20.6507 4.63255e-05 20.1172 4.63255e-05C18.5268 4.63255e-05 17.082 0.741646 16.1531 2.03468C15.2837 3.24512 15.0157 4.72851 15.3996 6.14819L11.8028 9.74499L5.81053 3.73895V2.56017C5.81053 2.38869 5.7205 2.22961 5.57344 2.14149L2.12085 0.0696667C1.92858 -0.0457314 1.68271 -0.0154037 1.5244 0.143102L0.143437 1.52387C-0.0148778 1.68238 -0.0452055 1.92824 0.0700018 2.12051L2.14145 5.57311C2.22957 5.72017 2.38845 5.81001 2.55993 5.8102L3.73833 5.81058L9.73121 11.8166L6.14814 15.3997C4.72846 15.0159 3.24431 15.2843 2.0333 16.1543C0.741028 17.0826 0 18.5271 0 20.1175C0 20.6508 0.0856426 21.1755 0.254639 21.6766C0.308618 21.837 0.441946 21.9581 0.606746 21.9963C0.771737 22.0346 0.944739 21.9848 1.06395 21.8647L3.08809 19.8245H4.06392L5.17575 20.9363V21.9121L3.13559 23.9363C3.01542 24.0555 2.96564 24.2285 3.00397 24.3935C3.04212 24.5583 3.16324 24.6916 3.32366 24.7456C3.82473 24.9146 4.34946 25.0002 4.88277 25.0002C6.47317 25.0002 7.91746 24.259 8.84598 22.9668C9.71595 21.7557 9.98432 20.2718 9.60055 18.8521L12.4783 15.9744L13.1375 16.6904L12.8349 16.9928C12.6442 17.1835 12.6442 17.4927 12.8349 17.6834C13.0257 17.874 13.3347 17.874 13.5256 17.6834L13.7995 17.4095L19.9845 24.1278C19.9891 24.1327 19.9938 24.1375 19.9986 24.1423C21.143 25.2867 22.9972 25.2871 24.1422 24.1421C25.284 22.9997 25.284 21.141 24.1422 19.9986C24.1373 19.9937 24.1321 19.9889 24.127 19.9841L17.3982 13.811L17.6691 13.5402C17.8598 13.3496 17.8598 13.0404 17.6691 12.8497C17.4783 12.6589 17.1693 12.6589 16.9784 12.8497L16.678 13.1503L15.9606 12.4918L18.8522 9.60022C19.2633 9.71008 19.6875 9.76578 20.1172 9.76578C22.8097 9.76578 25 7.57531 25 4.88301C25 4.34951 24.9144 3.82497 24.7454 3.3237C24.6914 3.16329 24.5581 3.04217 24.3933 3.00402ZM4.28652 4.97742C4.19496 4.88568 4.07079 4.83895 3.94108 4.83895L2.8367 4.83857L1.10363 1.94503L1.94536 1.10329L4.83394 2.83674V3.94113C4.83394 4.07045 4.88525 4.19443 4.97661 4.28599L11.1124 10.4357L10.4217 11.1261L4.28652 4.97742ZM16.707 14.5023L23.4586 20.6962C24.2128 21.4584 24.2105 22.6925 23.4516 23.4518C22.6909 24.2125 21.4595 24.2148 20.6957 23.4585L14.4906 16.7183L16.707 14.5023ZM15.9867 13.8413L13.8285 15.9992L13.1693 15.2831L15.2694 13.1829L15.9867 13.8413ZM20.1172 8.78919C19.6902 8.78919 19.2701 8.72071 18.8692 8.58567C18.6935 8.52673 18.4994 8.57212 18.3681 8.70316C15.9202 11.1511 10.6454 16.4257 8.70312 18.3682C8.57189 18.4994 8.5263 18.6936 8.58562 18.8694C8.99152 20.0747 8.79734 21.3603 8.05269 22.397C7.31014 23.4306 6.15463 24.0236 4.88277 24.0236C4.73991 24.0236 4.5978 24.0158 4.45704 24.0008L6.00795 22.4619C6.10027 22.3703 6.15234 22.2456 6.15234 22.1153V20.7339C6.15234 20.6044 6.10084 20.4803 6.00929 20.3887L4.61135 18.9908C4.51979 18.8992 4.39562 18.8477 4.26611 18.8477H2.88476C2.75449 18.8477 2.62974 18.8998 2.538 18.9921L0.99929 20.543C0.984031 20.4022 0.976402 20.2601 0.976402 20.1173C0.976402 18.8452 1.56922 17.6899 2.60304 16.9474C3.63952 16.2027 4.92531 16.0083 6.13079 16.4144C6.30646 16.4737 6.50063 16.4282 6.63186 16.2969C6.65876 16.2702 16.29 6.63878 16.2969 6.63191C16.4281 6.50068 16.4735 6.3067 16.4144 6.13083C16.0083 4.92554 16.2021 3.64033 16.9462 2.60442C17.6893 1.56984 18.845 0.976639 20.117 0.976639C20.2643 0.976639 20.4106 0.98484 20.5556 1.00086L19.0369 2.54224C18.9468 2.6336 18.8965 2.75663 18.8965 2.88481V4.26615C18.8965 4.3928 18.9455 4.51431 19.0334 4.60529L20.3825 6.00323C20.4745 6.0986 20.6013 6.15239 20.7339 6.15239H22.1152C22.2453 6.15239 22.3701 6.10051 22.4618 6.008L24.0005 4.45727C24.0158 4.59804 24.0234 4.74014 24.0234 4.88301C24.0234 7.03685 22.2711 8.78919 20.1172 8.78919Z" fill="#3099F2"/>
<path d="M15.2098 9.09972L9.09946 15.2101C8.90891 15.4006 8.90891 15.7098 9.09946 15.9006C9.2902 16.0913 9.59939 16.0913 9.79013 15.9006L15.9005 9.7902C16.0912 9.59965 16.0912 9.29046 15.9005 9.09972C15.7098 8.90898 15.4006 8.90898 15.2098 9.09972Z" fill="#3099F2"/>
<path d="M21.3803 22.071C21.5711 22.2612 21.8803 22.2612 22.071 22.0699C22.2614 21.8789 22.2608 21.5697 22.0699 21.3794L17.6685 16.9921C17.4776 16.8018 17.1682 16.8024 16.978 16.9933C16.7875 17.1844 16.7881 17.4934 16.979 17.6838L21.3803 22.071Z" fill="#3099F2"/>
</svg>
