<svg width="27" height="20" viewBox="0 0 27 20" fill="none" xmlns="http://www.w3.org/2000/svg">
<path d="M25.2676 4.125H24.3887V1.73242C24.3887 1.32793 24.0607 1 23.6562 1H19.75C19.3455 1 19.0176 1.32793 19.0176 1.73242V4.125H16.5762V1.73242C16.5762 1.32793 16.2482 1 15.8438 1H11.9375C11.533 1 11.2051 1.32793 11.2051 1.73242V4.125H10.375C9.97051 4.125 9.64258 4.45293 9.64258 4.85742V11.1562H7.98242V8.76367C7.98242 8.35918 7.65449 8.03125 7.25 8.03125H3.34375C2.93926 8.03125 2.61133 8.35918 2.61133 8.76367V11.1562H1.73242C1.32793 11.1562 1 11.4842 1 11.8887V18.9199C1 19.3244 1.32793 19.6523 1.73242 19.6523H25.2676C25.6721 19.6523 26 19.3244 26 18.9199C26 18.1394 26 5.63794 26 4.85742C26 4.45293 25.6721 4.125 25.2676 4.125ZM20.4824 2.46484H22.9238V4.125H20.4824V2.46484ZM12.6699 2.46484H15.1113V4.125H12.6699V2.46484ZM11.1074 5.58984H24.5352V11.1562C23.7903 11.1562 11.8504 11.1562 11.1074 11.1562V5.58984ZM4.07617 9.49609H6.51758V11.1562H4.07617V9.49609ZM2.46484 12.6211H17.0645V18.1875H2.46484V12.6211ZM24.5352 18.1875H18.5293V12.6211H24.5352V18.1875Z" fill="#3099F2" stroke="white" stroke-width="0.3"/>
</svg>
