<svg width="22" height="27" viewBox="0 0 22 27" fill="none" xmlns="http://www.w3.org/2000/svg">
<path d="M18.8496 0.95L18.7996 0.949942V0.95L2.18301 0.95L2.18295 0.95C1.00525 0.951367 0.0509766 1.90564 0.0496094 3.08334V3.0834V23.0833C0.0496094 23.7846 0.604788 24.3561 1.29969 24.3824V25.5832C1.29969 25.8411 1.5086 26.05 1.76625 26.05H19.2664C19.524 26.05 19.7329 25.8411 19.7329 25.5832V24.3824C20.4276 24.3561 20.983 23.7846 20.983 23.0833V3.0834V3.08333C20.9814 1.90564 20.0274 0.951367 18.8497 0.95L18.8496 0.95ZM2.18301 1.88332H18.8496C19.5123 1.88332 20.0497 2.42056 20.0497 3.0834V5.95011H0.98293V3.0834C0.98293 2.42055 1.52016 1.88332 2.18301 1.88332ZM18.7996 25.1167H2.23301V24.3834H18.7996V25.1167ZM19.6829 23.45H1.34969C1.14708 23.45 0.98293 23.2859 0.98293 23.0833V6.88324H20.0497V23.0833C20.0497 23.2859 19.8855 23.45 19.6829 23.45Z" fill="#3099F2" stroke="#3099F2" stroke-width="0.1"/>
<path d="M2.18311 5.21659H7.18304C7.44085 5.21659 7.64979 5.00768 7.64979 4.75002V3.08338C7.64979 2.82555 7.44087 2.61663 7.18304 2.61663H2.18311C1.92528 2.61663 1.71636 2.82555 1.71636 3.08338V4.75002C1.71636 5.00768 1.9253 5.21659 2.18311 5.21659ZM2.64968 3.54995H6.71647V4.28327H2.64968V3.54995Z" fill="#3099F2" stroke="#3099F2" stroke-width="0.1"/>
<path d="M9.68299 5.21659C10.4011 5.21659 10.9831 4.63459 10.9831 3.9167C10.9831 3.19863 10.4011 2.61663 9.68299 2.61663C8.9651 2.61663 8.38311 3.19863 8.38311 3.9167C8.38311 4.63459 8.96511 5.21659 9.68299 5.21659ZM9.68299 3.54995C9.88559 3.54995 10.0497 3.7141 10.0497 3.9167C10.0497 4.1191 9.88561 4.28327 9.68299 4.28327C9.48058 4.28327 9.31643 4.11911 9.31643 3.9167C9.31643 3.71408 9.48059 3.54995 9.68299 3.54995Z" fill="#3099F2" stroke="#3099F2" stroke-width="0.1"/>
<path d="M13.0162 5.21659C13.7343 5.21659 14.3163 4.63459 14.3163 3.9167C14.3163 3.19863 13.7343 2.61663 13.0162 2.61663C12.2984 2.61663 11.7164 3.19863 11.7164 3.9167C11.7164 4.63459 12.2984 5.21659 13.0162 5.21659ZM13.0162 3.54995C13.2188 3.54995 13.383 3.7141 13.383 3.9167C13.383 4.1191 13.2189 4.28327 13.0162 4.28327C12.8138 4.28327 12.6497 4.11911 12.6497 3.9167C12.6497 3.71408 12.8138 3.54995 13.0162 3.54995Z" fill="#3099F2" stroke="#3099F2" stroke-width="0.1"/>
<path d="M15.5164 4.38332H16.3497C16.6073 4.38332 16.8163 4.1744 16.8163 3.91676C16.8163 3.65894 16.6073 3.45 16.3497 3.45H15.5164C15.2585 3.45 15.0496 3.65892 15.0496 3.91676C15.0496 4.17441 15.2585 4.38332 15.5164 4.38332Z" fill="#3099F2" stroke="#3099F2" stroke-width="0.1"/>
<path d="M18.0164 4.38332H18.8497C19.1075 4.38332 19.3164 4.17441 19.3164 3.91676C19.3164 3.65892 19.1075 3.45 18.8497 3.45H18.0164C17.7585 3.45 17.5496 3.65892 17.5496 3.91676C17.5496 4.17441 17.7585 4.38332 18.0164 4.38332Z" fill="#3099F2" stroke="#3099F2" stroke-width="0.1"/>
<path d="M10.5162 8.45H10.5162C6.80681 8.45 3.79961 11.457 3.79961 15.1666C3.79961 18.8761 6.8068 21.8833 10.5162 21.8833C14.2257 21.8833 17.2329 18.8761 17.2329 15.1666V15.1665C17.2285 11.4589 14.224 8.45442 10.5162 8.45ZM10.5161 20.95C7.32225 20.95 4.73293 18.3606 4.73293 15.1666C4.73293 11.9725 7.32228 9.38332 10.5162 9.38332C13.7102 9.38332 16.2996 11.9724 16.2996 15.1665C16.2962 18.3591 13.7089 20.9466 10.5161 20.95Z" fill="#3099F2" stroke="#3099F2" stroke-width="0.1"/>
<path d="M5.04961 15.1558L5.04961 15.1558C5.05269 12.1398 7.50023 9.69722 10.5162 9.70004M5.04961 15.1558L5.52552 17.2719C6.68595 20.0266 9.85997 21.3191 12.6148 20.1586C14.1563 19.5092 15.3108 18.1836 15.7426 16.5677L15.7901 16.5835C15.7902 16.583 15.7904 16.5824 15.7906 16.5819C15.7932 16.5737 15.7952 16.5656 15.7967 16.5579C16.5765 13.654 14.8551 10.6674 11.951 9.88677L11.951 9.88677C11.4833 9.76108 11.0007 9.69813 10.5162 9.70004M5.04961 15.1558C5.04904 15.8684 5.18776 16.5743 5.45816 17.2337L5.45818 17.2344L5.45819 17.2349C5.45828 17.2394 5.45853 17.2512 5.46343 17.2639L5.46342 17.2639L5.4638 17.2649C5.46609 17.2705 5.46876 17.2751 5.47086 17.2785C5.4729 17.2818 5.47507 17.2849 5.47634 17.2868C5.47896 17.2906 5.47958 17.2916 5.47964 17.2917L5.04961 15.1558ZM10.5162 9.70004C10.5162 9.70004 10.5161 9.70004 10.5161 9.70004L10.5163 9.75004L10.5163 9.70004C10.5163 9.70004 10.5163 9.70004 10.5162 9.70004ZM10.5162 10.6334L10.5164 10.6334C13.0141 10.6275 15.0438 12.6476 15.0496 15.1451C15.0504 15.473 15.0156 15.7999 14.9458 16.1199C14.7361 16.1903 14.5303 16.2715 14.329 16.3629L14.329 16.3628L14.3266 16.364C13.7933 16.6409 13.2008 16.7847 12.5998 16.7833L12.5983 16.7834C12.089 16.7971 11.5858 16.6695 11.1442 16.4151L11.1435 16.4147C10.57 16.0955 9.92151 15.9352 9.26527 15.9501L9.26527 15.95L9.26437 15.9501C8.21815 15.9927 7.18342 16.1845 6.19178 16.5196C5.44795 14.1563 6.7436 11.6289 9.10455 10.8575L9.10456 10.8575C9.56034 10.7084 10.0369 10.6328 10.5162 10.6334ZM10.7217 17.2517L10.7224 17.252C11.2959 17.5712 11.9441 17.7316 12.6001 17.7167C13.2578 17.7202 13.9078 17.5809 14.5054 17.3091C13.7191 18.7758 12.1884 19.6979 10.5163 19.7001C8.87486 19.6989 7.36366 18.8112 6.5624 17.3821C7.43658 17.0905 8.34726 16.9226 9.26813 16.8833C9.7774 16.8699 10.2805 16.9973 10.7217 17.2517Z" fill="#3099F2" stroke="#3099F2" stroke-width="0.1"/>
</svg>
