<svg width="19" height="25" viewBox="0 0 19 25" fill="none" xmlns="http://www.w3.org/2000/svg">
<path d="M11.3159 2.19971C11.3096 2.16846 11.3003 2.1377 11.2881 2.1084C11.2759 2.07861 11.2607 2.05029 11.2432 2.02393C11.2251 1.99707 11.2051 1.97217 11.1821 1.94971C11.1597 1.92725 11.1348 1.90674 11.1079 1.88916C11.0815 1.87158 11.0532 1.85645 11.0239 1.84424C10.9946 1.83203 10.9639 1.82227 10.9326 1.81641C10.8696 1.80371 10.8047 1.80371 10.7417 1.81641C10.7104 1.82227 10.6797 1.83203 10.6504 1.84424C10.6211 1.85645 10.5928 1.87158 10.5659 1.88916C10.5395 1.90674 10.5142 1.92725 10.4917 1.94971C10.4692 1.97217 10.4487 1.99707 10.4312 2.02393C10.4136 2.05029 10.3984 2.07861 10.3862 2.1084C10.374 2.1377 10.3647 2.16846 10.3584 2.19971C10.3521 2.23096 10.3486 2.26318 10.3486 2.29492C10.3486 2.32666 10.3521 2.35889 10.3584 2.39014C10.3647 2.42139 10.374 2.45215 10.3862 2.48193C10.3984 2.51123 10.4136 2.53955 10.4312 2.56592C10.4487 2.59277 10.4692 2.61768 10.4917 2.64014C10.5142 2.6626 10.5396 2.68311 10.5659 2.70068C10.5927 2.71826 10.621 2.7334 10.6504 2.74561C10.6796 2.75781 10.7104 2.76758 10.7417 2.77344C10.7729 2.77979 10.8052 2.7832 10.8369 2.7832C10.8691 2.7832 10.9009 2.77979 10.9326 2.77344C10.9639 2.76758 10.9946 2.75781 11.0239 2.74561C11.0532 2.7334 11.0815 2.71826 11.1079 2.70068C11.1348 2.68311 11.1597 2.6626 11.1821 2.64014C11.2051 2.61768 11.2251 2.59277 11.2432 2.56592C11.2607 2.53955 11.2759 2.51123 11.2881 2.48193C11.3003 2.45215 11.3096 2.42139 11.3159 2.39014C11.3222 2.35889 11.3251 2.32666 11.3251 2.29492C11.3251 2.26318 11.3223 2.23096 11.3159 2.19971Z" fill="#3099F2"/>
<path d="M6.14551 22.6099C6.13916 22.5786 6.12988 22.5479 6.11768 22.5186C6.10547 22.4888 6.09033 22.4604 6.07275 22.4341C6.05518 22.4072 6.03467 22.3823 6.01221 22.3599C5.98975 22.3374 5.96436 22.3169 5.93799 22.2993C5.91113 22.2817 5.88281 22.2666 5.85352 22.2544C5.82422 22.2422 5.79346 22.2324 5.76221 22.2261C5.69922 22.2139 5.63428 22.2139 5.57129 22.2261C5.54004 22.2324 5.50928 22.2422 5.47998 22.2544C5.45068 22.2666 5.42236 22.2817 5.396 22.2993C5.36914 22.3169 5.34424 22.3374 5.32178 22.3599C5.29883 22.3823 5.27881 22.4072 5.26074 22.4341C5.24316 22.4604 5.22803 22.4888 5.21582 22.5186C5.20361 22.5479 5.19434 22.5786 5.18799 22.6099C5.18164 22.6411 5.17871 22.6733 5.17871 22.7051C5.17871 22.7368 5.18164 22.769 5.18799 22.8003C5.19434 22.8315 5.20361 22.8623 5.21582 22.8916C5.22803 22.9214 5.24316 22.9497 5.26074 22.9761C5.27881 23.0029 5.29883 23.0278 5.32178 23.0503C5.34424 23.0728 5.36914 23.0933 5.396 23.1108C5.42236 23.1284 5.45068 23.1436 5.47998 23.1558C5.50928 23.168 5.54004 23.1777 5.57129 23.1836C5.60303 23.1899 5.63525 23.1934 5.66699 23.1934C5.79541 23.1934 5.92139 23.1411 6.01221 23.0503C6.10303 22.9595 6.15527 22.8335 6.15527 22.7051C6.15527 22.6733 6.15186 22.6411 6.14551 22.6099Z" fill="#3099F2"/>
<path d="M10.1502 12.0117H8.74023V9.63184C8.74023 9.36216 8.52163 9.14355 8.25195 9.14355C7.98228 9.14355 7.76367 9.36216 7.76367 9.63184V12.5C7.76367 12.7696 7.98228 12.9882 8.25195 12.9882H10.1502C10.4198 12.9882 10.6385 12.7696 10.6385 12.5C10.6385 12.2303 10.4198 12.0117 10.1502 12.0117Z" fill="#3099F2"/>
<path d="M17.627 10.8315H16.3344C16.2455 10.4003 16.1228 9.9812 15.9693 9.5772L17.2524 8.75869C17.3616 8.68906 17.4386 8.57886 17.4667 8.45244C17.4946 8.32598 17.4712 8.1936 17.4015 8.08442L16.4226 6.5499C16.3529 6.44072 16.2428 6.36367 16.1164 6.33574C15.9901 6.30771 15.8576 6.3312 15.7484 6.40083L14.5455 7.16826C14.2638 6.83633 13.9564 6.5269 13.6265 6.24307L13.0592 0.440772C13.0348 0.190674 12.8245 0 12.5732 0H3.93066C3.67939 0 3.46914 0.190674 3.44468 0.440772L2.87744 6.24312C1.11675 7.75762 0 10.0008 0 12.5C0 14.9992 1.11675 17.2424 2.87744 18.7569L3.44468 24.5592C3.46914 24.8093 3.67939 25 3.93066 25H12.5732C12.8245 25 13.0348 24.8093 13.0592 24.5592L13.6264 18.7569C15.1175 17.4743 16.1468 15.669 16.427 13.6282H17.627C17.8966 13.6282 18.1152 13.4096 18.1152 13.1399V11.3198C18.1152 11.0501 17.8966 10.8315 17.627 10.8315ZM4.19692 2.7832H9.03047C9.30015 2.7832 9.51875 2.5646 9.51875 2.29492C9.51875 2.02524 9.3001 1.80664 9.03047 1.80664H4.29238L4.37354 0.976562H12.1304L12.5697 5.47017C11.3128 4.69536 9.83364 4.24805 8.25195 4.24805C6.67026 4.24805 5.19106 4.69536 3.93423 5.47012L4.19692 2.7832ZM12.307 22.2168H7.47344C7.20376 22.2168 6.98516 22.4354 6.98516 22.7051C6.98516 22.9748 7.20376 23.1934 7.47344 23.1934H12.2115L12.1304 24.0234H4.37354L3.93423 19.5299C5.19106 20.3046 6.67026 20.752 8.25195 20.752C9.83364 20.752 11.3128 20.3046 12.5697 19.5298L12.307 22.2168ZM8.25195 19.7754C4.24028 19.7754 0.976562 16.5117 0.976562 12.5C0.976562 8.48833 4.24028 5.22461 8.25195 5.22461C12.2636 5.22461 15.5273 8.48833 15.5273 12.5C15.5273 16.5117 12.2636 19.7754 8.25195 19.7754ZM15.134 7.95112L15.8619 7.48677L16.3156 8.19795L15.564 8.67744C15.4328 8.42754 15.2892 8.18516 15.134 7.95112ZM17.1387 12.6517H16.5025C16.5034 12.6012 16.5039 12.5506 16.5039 12.5C16.5039 12.267 16.4942 12.0363 16.4751 11.8081H17.1387V12.6517Z" fill="#3099F2"/>
<path d="M8.25195 6.27075C4.81714 6.27075 2.02271 9.06519 2.02271 12.5C2.02271 15.9348 4.81714 18.7292 8.25195 18.7292C11.6868 18.7292 14.4812 15.9348 14.4812 12.5C14.4812 9.06519 11.6868 6.27075 8.25195 6.27075ZM8.74023 17.7302V17.4296C8.74023 17.16 8.52162 16.9414 8.25195 16.9414C7.98227 16.9414 7.76367 17.16 7.76367 17.4296V17.7302C5.25615 17.498 3.254 15.4958 3.02178 12.9883H3.32231C3.59199 12.9883 3.81059 12.7697 3.81059 12.5C3.81059 12.2303 3.59199 12.0117 3.32231 12.0117H3.02178C3.254 9.5042 5.25615 7.50205 7.76367 7.26982V7.57036C7.76367 7.84004 7.98227 8.05864 8.25195 8.05864C8.52162 8.05864 8.74023 7.84004 8.74023 7.57036V7.26982C11.2477 7.502 13.2499 9.5042 13.4821 12.0117H13.1816C12.912 12.0117 12.6933 12.2303 12.6933 12.5C12.6933 12.7697 12.912 12.9883 13.1816 12.9883H13.4821C13.2499 15.4958 11.2477 17.4979 8.74023 17.7302Z" fill="#3099F2"/>
</svg>
