<svg width="194" height="146" viewBox="0 0 194 146" fill="none" xmlns="http://www.w3.org/2000/svg">
<path d="M190.541 74.7364L114.448 30.6335L64.8722 64.5499L136.757 106.222C138.198 107.09 139.985 107.09 141.427 106.222L190.484 77.7461C191.752 77.1094 191.752 75.431 190.541 74.7364Z" fill="#EFEFEF"/>
<path d="M134.568 30.5757C134.568 27.2188 132.262 25.8876 129.38 27.5661L80.4958 55.8683C79.6888 56.3313 79.0547 57.431 79.0547 58.357C79.0547 59.2831 79.6888 59.6304 80.4958 59.1673L129.38 30.8651C130.706 30.1127 131.743 30.7493 131.743 32.2542V37.7525C132.666 37.6947 133.646 37.6947 134.626 37.6947L134.568 30.5757Z" fill="#3099F2"/>
<path d="M80.4367 69.0066L129.321 51.1224C132.203 49.4439 134.567 45.3925 134.567 42.0356V37.6368C133.587 37.6368 132.664 37.6368 131.684 37.6947V43.714C131.684 45.2188 130.647 47.0709 129.321 47.8233L80.4367 65.7076C79.6297 66.1706 78.9955 67.2703 78.9955 68.1963C78.9955 69.0645 79.6297 69.4696 80.4367 69.0066Z" fill="#3099F2"/>
<path d="M79.3991 69.0644L138.832 103.617L189.215 73.4631L193.193 67.4438L192.789 69.5853L191.694 64.0291L98.2494 67.6175L81.7626 66.5757L79.3991 69.0644Z" fill="#3099F2"/>
<path opacity="0.5" d="M81.359 58.6465V65.997L138.832 99.3925L140.389 92.3314L81.359 58.6465Z" fill="#380031"/>
<path d="M192.444 61.6561L133.068 27.2188L79.572 58.4728L79.4567 59.2252L138.89 93.7782L192.444 61.6561Z" fill="#3099F2"/>
<path d="M173.536 79.3667L187.486 71.0323C188.639 70.222 189.561 68.5435 189.561 67.0966V65.9969C189.561 65.1288 189.215 64.55 188.639 64.3763L161.142 79.714L138.775 91.8683V99.2767L173.536 79.3667Z" fill="white"/>
<path d="M140.792 92.6208L81.8202 58.3571L80.552 57.6047L79.3991 56.968C79.1685 57.3732 78.9955 57.8941 78.9955 58.2992C78.9955 58.7622 79.1685 59.0516 79.3991 59.2253L138.832 93.7783L140.792 92.6208Z" fill="#3099F2"/>
<path d="M138.083 103.154L138.832 103.617L139.005 103.386L138.544 102.981L138.083 103.154Z" fill="white"/>
<path d="M138.141 93.3152L138.89 93.7203L138.717 93.3152H138.141Z" fill="white"/>
<path d="M139.928 90.3635L188.812 62.0612C191.694 60.3828 194 61.7718 194 65.0709V66.1706C194 69.5275 191.637 73.5789 188.754 75.2574L139.87 103.56C139.063 104.023 138.429 103.618 138.429 102.749C138.429 101.823 139.063 100.724 139.87 100.261L188.754 71.9583C190.08 71.2059 191.118 69.3538 191.118 67.849V66.7493C191.118 65.2445 190.08 64.6079 188.754 65.3603L139.928 93.6625C139.121 94.1255 138.487 93.7204 138.487 92.8522C138.487 91.9841 139.121 90.7686 139.928 90.3635Z" fill="#3099F2"/>
<path d="M118.137 62.9294L143.559 48.2284L165.58 61.0194L140.158 75.7204L118.137 62.9294Z" fill="white"/>
<path d="M138.487 102.691C138.487 101.765 139.121 100.666 139.928 100.203L188.812 71.9004C190.138 71.148 191.175 69.2959 191.175 67.7911V66.6914C191.175 65.7075 190.714 65.1287 190.022 65.0129C190.253 65.3023 190.368 65.7075 190.368 66.2284V67.3281C190.368 68.8329 189.331 70.685 188.005 71.4374L139.121 99.7396C138.314 100.203 137.68 101.302 137.68 102.228C137.68 102.923 138.025 103.328 138.544 103.27C138.487 103.097 138.487 102.923 138.487 102.691Z" fill="white"/>
<path d="M138.488 92.8522C138.488 91.9262 139.122 90.8265 139.929 90.3635L188.813 62.0612C190.024 61.3667 191.177 61.193 192.099 61.5403C191.119 60.73 189.678 60.6721 188.064 61.6561L139.18 89.9583C138.373 90.4213 137.739 91.521 137.739 92.4471C137.739 93.1416 138.085 93.5467 138.603 93.4889C138.546 93.2573 138.488 93.0258 138.488 92.8522Z" fill="white"/>
<path d="M132.608 8.69777C132.608 5.34086 130.302 4.00967 127.42 5.68812L78.5358 33.9904C77.7287 34.4534 77.0946 35.5531 77.0946 36.4791C77.0946 37.4052 77.7287 37.7524 78.5358 37.2894L127.42 8.98716C128.746 8.23475 129.783 8.8714 129.783 10.3762V15.8746C130.706 15.8167 131.686 15.8167 132.666 15.8167L132.608 8.69777Z" fill="#D4ECFF"/>
<path d="M78.4767 47.1287L127.361 29.2444C130.243 27.566 132.607 23.5145 132.607 20.1576V15.7589C131.627 15.7589 130.704 15.7589 129.724 15.8168V21.8361C129.724 23.3409 128.687 25.193 127.361 25.9454L78.4767 43.8297C77.6696 44.2927 77.0355 45.3924 77.0355 46.3184C77.0355 47.1866 77.6696 47.5917 78.4767 47.1287Z" fill="#5793CE"/>
<path d="M77.439 47.1865L136.872 81.7395L187.255 51.5852L191.233 45.6238L190.829 47.7074L189.734 42.1511L96.2894 45.7395L79.8025 44.6977L77.439 47.1865Z" fill="#5793CE"/>
<path d="M79.399 36.7686V44.119L136.872 77.5145L138.429 70.5113L79.399 36.7686Z" fill="#86B8E0"/>
<path d="M190.484 39.7781L131.108 5.34082L77.612 36.5948L77.4967 37.3472L136.93 71.9003L190.484 39.7781Z" fill="#D4ECFF"/>
<path d="M171.576 57.4888L185.526 49.1544C186.679 48.3441 187.601 46.6656 187.601 45.2187V44.119C187.601 43.2508 187.255 42.672 186.679 42.4984L159.182 57.836L136.815 69.9904V77.3987L171.576 57.4888Z" fill="white"/>
<path d="M138.832 70.7428L79.8602 36.4792L78.592 35.7267L77.4391 35.0901C77.2085 35.4952 77.0355 36.0161 77.0355 36.4213C77.0355 36.8843 77.2085 37.1737 77.4391 37.3473L136.872 71.9004L138.832 70.7428Z" fill="#5793CE"/>
<path d="M136.123 81.2765L136.872 81.7396L137.045 81.5081L136.584 81.1029L136.123 81.2765Z" fill="white"/>
<path d="M136.181 71.4373L136.93 71.8424L136.757 71.4373H136.181Z" fill="white"/>
<path d="M137.968 68.4855L186.852 40.1833C189.734 38.5048 192.04 39.8939 192.04 43.193V44.2926C192.04 47.6495 189.677 51.701 186.794 53.3794L137.91 81.6817C137.103 82.1447 136.469 81.7396 136.469 80.8714C136.469 79.9454 137.103 78.8457 137.91 78.3826L186.794 50.0804C188.12 49.328 189.158 47.4759 189.158 45.9711V44.8714C189.158 43.3666 188.12 42.7299 186.794 43.4823L137.91 71.7846C137.103 72.2476 136.469 71.8425 136.469 70.9743C136.527 70.0483 137.161 68.9486 137.968 68.4855Z" fill="#D4ECFF"/>
<path d="M116.177 41.0514L141.599 26.3505L163.62 39.1415L138.198 53.8424L116.177 41.0514Z" fill="white"/>
<path d="M136.527 80.8135C136.527 79.8874 137.161 78.7877 137.968 78.3247L186.852 50.0225C188.178 49.2701 189.215 47.418 189.215 45.9131V44.8135C189.215 43.8295 188.754 43.2508 188.062 43.135C188.293 43.4244 188.408 43.8295 188.408 44.3504V45.4501C188.408 46.9549 187.371 48.807 186.045 49.5594L137.161 77.8617C136.354 78.3247 135.72 79.4244 135.72 80.3504C135.72 81.045 136.065 81.4501 136.584 81.3922C136.527 81.2186 136.527 81.045 136.527 80.8135Z" fill="white"/>
<path d="M136.528 70.9743C136.528 70.0482 137.162 68.9485 137.969 68.4855L186.853 40.1833C188.064 39.4887 189.217 39.3151 190.139 39.6624C189.159 38.8521 187.718 38.7942 186.104 39.7781L137.22 68.0804C136.413 68.5434 135.779 69.6431 135.779 70.5691C135.779 71.2637 136.125 71.6688 136.643 71.6109C136.586 71.3794 136.528 71.1479 136.528 70.9743Z" fill="white"/>
<path d="M71.3285 144.247L2.32585 104.254C0.36587 103.096 0.596456 101.129 2.84466 99.8552L49.8265 72.6526C52.0747 71.3214 55.4758 71.2057 57.4358 72.3632L126.438 112.357C128.398 113.514 128.168 115.482 125.92 116.756L78.9379 143.958C76.6897 145.231 73.2885 145.405 71.3285 144.247Z" fill="#EFEFEF"/>
<path d="M142.637 41.4565L73.6344 1.40505C72.8273 0.942032 72.0203 0.884154 71.2709 1.11567L71.1556 1.17354C71.1556 1.17354 71.1556 1.17354 71.098 1.17354L68.6768 2.15747L70.925 3.25714C70.925 3.31502 70.925 3.31502 70.8674 3.3729L59.6263 54.7684C59.0499 57.315 60.2028 60.3247 62.1628 61.4822L129.494 100.55L129.263 103.444L131.973 102.402C132.895 101.997 133.644 101.013 133.932 99.6237L145.174 48.2282C145.75 45.5658 144.597 42.5562 142.637 41.4565Z" fill="#173D7A"/>
<path d="M142.637 41.4565L73.6344 1.40505C72.8273 0.942032 72.0203 0.884154 71.2709 1.11567L71.1556 1.17354C71.1556 1.17354 71.1556 1.17354 71.0979 1.17354L68.6768 2.15747L70.925 3.25714C70.925 3.31502 70.925 3.31502 70.8674 3.3729L63.431 37.2314L97.2118 63.6237L144.828 44.1768C144.366 43.0192 143.617 41.9774 142.637 41.4565Z" fill="#396CAA"/>
<path d="M140.043 49.3278L145.289 47.0706C145.404 45.0449 144.539 42.9034 143.156 41.8037L134.855 45.3343L140.043 49.3278Z" fill="#274F89"/>
<path d="M126.842 103.096L57.8393 63.1028C55.8793 61.9452 54.784 58.9934 55.3029 56.3889L66.5439 4.99345C67.1204 2.44683 69.138 1.23139 71.098 2.38895L140.101 42.3825C142.061 43.5401 143.156 46.4918 142.637 49.0963L131.396 100.492C130.82 103.038 128.802 104.196 126.842 103.096Z" fill="#D4ECFF"/>
<path d="M140.792 42.1511L71.7897 2.15748C70.8674 1.63658 69.8874 1.63658 69.0803 2.04173C69.7144 1.92597 70.4638 1.98385 71.1556 2.38899L140.158 42.3826C142.118 43.5401 143.214 46.4919 142.695 49.0964L131.454 100.492C131.165 101.823 130.474 102.749 129.609 103.212C130.762 102.981 131.742 101.881 132.088 100.26L143.329 48.8649C143.848 46.3182 142.752 43.3086 140.792 42.1511Z" fill="#333639"/>
<path d="M125.343 99.2764L60.4334 61.6558C58.6463 60.614 57.6087 57.8937 58.1275 55.5208L68.4462 8.52398C68.965 6.15099 70.8097 5.10919 72.5968 6.15099L137.507 43.7716C139.294 44.8134 140.331 47.5336 139.812 49.9066L129.551 96.9034C129.033 99.2185 127.13 100.318 125.343 99.2764Z" fill="white"/>
<path d="M125.343 99.2764L60.4334 61.6558C58.6463 60.614 57.6087 57.8937 58.1275 55.5208L68.4462 8.52398C68.965 6.15099 70.8097 5.10919 72.5968 6.15099L137.507 43.7716C139.294 44.8134 140.331 47.5336 139.812 49.9066L129.551 96.9034C129.033 99.2185 127.13 100.318 125.343 99.2764Z" fill="#82C9F9"/>
<path d="M125.92 99.045L61.0098 61.4244C59.2228 60.3826 58.1852 57.6623 58.704 55.2894L69.0227 8.29258C69.3109 7.07714 69.8874 6.26686 70.6368 5.80383C69.5992 6.09322 68.7345 7.01927 68.4462 8.52409L58.1275 55.5209C57.6087 57.8939 58.6463 60.6141 60.4334 61.6559L125.343 99.2765C126.208 99.7974 127.13 99.7974 127.88 99.3923C127.246 99.508 126.611 99.4501 125.92 99.045Z" fill="#5793CE"/>
<path d="M127.822 104.833L118.368 103.559L57.4934 68.2539C55.5334 67.0963 52.1323 67.27 49.8841 68.5433L6.70697 93.6044L0.999982 92.8519V96.0931C0.942336 96.8455 1.40351 97.5401 2.32585 98.1188L71.3285 138.112C73.2885 139.27 76.6896 139.096 78.9378 137.823L125.92 110.62C127.188 109.868 127.822 108.942 127.764 108.074V104.833H127.822Z" fill="#333639"/>
<path d="M82.0508 82.5498L77.7273 80.061H30.169L6.70697 93.6044L0.999982 92.852V96.0932C0.942336 96.8456 1.40351 97.5401 2.32585 98.1189L71.3285 138.112C72.3662 138.691 73.8073 138.923 75.2485 138.865L82.0508 82.5498Z" fill="#333639"/>
<path d="M3.53642 93.1993L0.999982 92.8521V96.0932C0.942336 96.8456 1.40351 97.5402 2.32585 98.1189L3.53642 98.8135V93.1993Z" fill="#5793CE"/>
<path d="M72.0203 138.46C73.865 139.154 76.5167 139.038 78.4767 138.055V130.82H72.0203V138.46Z" fill="#274F89"/>
<path d="M71.3285 134.871L2.32585 94.8777C0.36587 93.7201 0.596456 91.7523 2.84466 90.479L49.8265 63.2764C52.0747 61.9452 55.4758 61.8295 57.4358 62.987L126.438 102.981C128.398 104.138 128.168 106.106 125.92 107.379L78.9379 134.582C76.6897 135.855 73.2885 135.971 71.3285 134.871Z" fill="#333639"/>
<path d="M125.92 106.106L78.9379 133.309C76.6897 134.64 73.2885 134.756 71.3285 133.598L2.32585 93.6624C1.69174 93.3151 1.28821 92.8521 1.11527 92.3312C0.827043 93.2572 1.17292 94.1833 2.32585 94.8778L71.3285 134.871C73.2885 136.029 76.6897 135.855 78.9379 134.582L125.92 107.379C127.418 106.511 128.053 105.296 127.707 104.312C127.476 104.891 126.9 105.585 125.92 106.106Z" fill="white"/>
<path d="M31.6678 81.6237L28.5549 79.8295C28.3244 79.6559 28.3244 79.4244 28.6126 79.2507L32.302 77.1093C32.5902 76.9356 33.0514 76.9356 33.2819 77.0514L36.3948 78.8456C36.6254 79.0192 36.6254 79.2507 36.3372 79.4244L32.6478 81.5658C32.3596 81.7395 31.8984 81.7395 31.6678 81.6237Z" fill="white"/>
<path d="M36.5101 84.4018L33.3972 82.6076C33.1667 82.434 33.1667 82.2024 33.4549 82.0288L37.1443 79.8873C37.4325 79.7137 37.8937 79.7137 38.1242 79.8295L41.2371 81.6237C41.4677 81.7973 41.4677 82.0288 41.1795 82.2025L37.4901 84.3439C37.2019 84.5176 36.7407 84.5754 36.5101 84.4018Z" fill="white"/>
<path d="M41.2948 87.18L38.1819 85.3858C37.9513 85.2121 37.9513 84.9806 38.2395 84.807L41.9289 82.6655C42.2171 82.4919 42.6783 82.4919 42.9089 82.6077L46.0218 84.4019C46.2524 84.5755 46.2524 84.807 45.9641 84.9806L42.2748 87.1221C41.9865 87.3536 41.583 87.3536 41.2948 87.18Z" fill="white"/>
<path d="M47.9818 84.9227L44.8689 83.1285C44.6383 82.9548 44.6383 82.7233 44.9265 82.5497L48.0394 80.7555C48.3277 80.5819 48.7888 80.5819 49.0194 80.6976L52.1323 82.4918C52.3629 82.6655 52.3629 82.897 52.0747 83.0706L48.9618 84.8648C48.6735 85.0384 48.2124 85.0384 47.9818 84.9227Z" fill="white"/>
<path d="M52.8241 87.7009L49.7112 85.9067C49.4806 85.7331 49.4806 85.5015 49.7688 85.3279L52.8817 83.5337C53.1699 83.3601 53.6311 83.3601 53.8617 83.4758L56.9746 85.27C57.2052 85.4437 57.2052 85.6752 56.917 85.8488L53.8041 87.643C53.5158 87.8167 53.0546 87.8167 52.8241 87.7009Z" fill="white"/>
<path d="M57.6087 90.479L54.4958 88.6848C54.2652 88.5111 54.2652 88.2796 54.5535 88.106L57.6664 86.3118C57.9546 86.1381 58.4158 86.1381 58.6463 86.2539L61.7593 88.0481C61.9898 88.2217 61.9898 88.4533 61.7016 88.6269L58.5887 90.4211C58.3005 90.5947 57.8969 90.6526 57.6087 90.479Z" fill="white"/>
<path d="M62.451 93.2572L59.3381 91.463C59.1075 91.2893 59.1075 91.0578 59.3957 90.8842L62.5086 89.09C62.7969 88.9163 63.2581 88.9163 63.4886 89.0321L66.6015 90.8263C66.8321 90.9999 66.8321 91.2314 66.5439 91.4051L63.431 93.1993C63.1428 93.4308 62.6816 93.4308 62.451 93.2572Z" fill="white"/>
<path d="M67.2933 96.0931L64.1804 94.2989C63.9498 94.1253 63.9498 93.8938 64.238 93.7201L67.3509 91.9259C67.6392 91.7523 68.1003 91.7523 68.3309 91.868L71.4438 93.6622C71.6744 93.8359 71.6744 94.0674 71.3862 94.241L68.2733 96.0352C67.9851 96.2089 67.5239 96.2089 67.2933 96.0931Z" fill="white"/>
<path d="M72.0779 98.8713L68.965 97.0771C68.7345 96.9035 68.7345 96.6719 69.0227 96.4983L72.1356 94.7041C72.4238 94.5305 72.885 94.5305 73.1156 94.6462L76.2285 96.4404C76.4591 96.6141 76.4591 96.8456 76.1708 97.0192L73.0579 98.8134C72.7697 98.987 72.3662 99.0449 72.0779 98.8713Z" fill="white"/>
<path d="M76.9202 101.649L73.8073 99.8552C73.5768 99.6815 73.5768 99.45 73.865 99.2764L76.9779 97.4822C77.2661 97.3085 77.7273 97.3085 77.9579 97.4243L81.0708 99.2185C81.3014 99.3921 81.3014 99.6237 81.0131 99.7973L77.9002 101.592C77.612 101.765 77.1508 101.823 76.9202 101.649Z" fill="white"/>
<path d="M81.7625 104.485L78.6496 102.691C78.419 102.518 78.419 102.286 78.7073 102.112L81.8202 100.318C82.1084 100.145 82.5696 100.145 82.8002 100.26L85.9131 102.055C86.1436 102.228 86.1436 102.46 85.8554 102.633L82.7425 104.428C82.4543 104.601 81.9931 104.601 81.7625 104.485Z" fill="white"/>
<path d="M86.5472 107.264L83.4343 105.469C83.2037 105.296 83.2037 105.064 83.4919 104.891L86.6048 103.096C86.8931 102.923 87.3542 102.923 87.5848 103.038L90.6977 104.833C90.9283 105.006 90.9283 105.238 90.6401 105.411L87.5272 107.206C87.2389 107.379 86.8354 107.379 86.5472 107.264Z" fill="white"/>
<path d="M91.3895 110.042L88.2766 108.247C88.046 108.074 88.046 107.842 88.3342 107.669L91.4471 105.875C91.7353 105.701 92.1965 105.701 92.4271 105.817L95.54 107.611C95.7706 107.784 95.7706 108.016 95.4823 108.19L92.3694 109.984C92.0812 110.157 91.62 110.215 91.3895 110.042Z" fill="white"/>
<path d="M55.0723 83.5915L51.9594 81.7973C51.7288 81.6237 51.7288 81.3922 52.017 81.2185L55.1299 79.4243C55.4181 79.2507 55.8793 79.2507 56.1099 79.3664L59.2228 81.1607C59.4534 81.3343 59.4534 81.5658 59.1652 81.7394L56.0523 83.5337C55.764 83.7073 55.3605 83.7073 55.0723 83.5915Z" fill="white"/>
<path d="M50.1723 80.7556L47.0594 78.9614C46.8288 78.7877 46.8288 78.5562 47.1171 78.3826L50.23 76.5884C50.5182 76.4148 50.9794 76.4147 51.21 76.5305L54.3229 78.3247C54.5534 78.4983 54.5534 78.7299 54.2652 78.9035L51.1523 80.6977C50.8641 80.8713 50.4606 80.8713 50.1723 80.7556Z" fill="white"/>
<path d="M45.2724 77.9195L38.5278 74.0417C38.2972 73.8681 38.2972 73.6365 38.5854 73.4629L41.6983 71.6687C41.9865 71.4951 42.4477 71.4951 42.6783 71.6108L49.4229 75.4886C49.6535 75.6623 49.6535 75.8938 49.3653 76.0674L46.2524 77.8616C45.9641 78.0353 45.5606 78.0352 45.2724 77.9195Z" fill="white"/>
<path d="M48.7312 74.4469L43.2548 71.2636C43.0242 71.09 43.0242 70.8585 43.3124 70.6848L46.4253 68.8906C46.7136 68.717 47.1747 68.717 47.4053 68.8327L52.8817 72.016C53.1123 72.1897 53.1123 72.4212 52.8241 72.5948L49.7112 74.389C49.4229 74.5626 48.9618 74.5626 48.7312 74.4469Z" fill="white"/>
<path d="M59.9146 86.3697L56.8017 84.5755C56.5711 84.4019 56.5711 84.1704 56.8593 83.9967L59.9722 82.2025C60.2604 82.0289 60.7216 82.0289 60.9522 82.1446L64.0651 83.9389C64.2957 84.1125 64.2957 84.344 64.0075 84.5176L60.8945 86.3118C60.6063 86.4855 60.1451 86.4855 59.9146 86.3697Z" fill="white"/>
<path d="M64.7569 89.1478L61.6439 87.3536C61.4134 87.1799 61.4134 86.9484 61.7016 86.7748L64.8145 84.9806C65.1027 84.807 65.5639 84.807 65.7945 84.9227L68.9074 86.7169C69.138 86.8906 69.138 87.1221 68.8497 87.2957L65.7368 89.0899C65.4486 89.2635 64.9874 89.3214 64.7569 89.1478Z" fill="white"/>
<path d="M69.5415 91.9839L66.4286 90.1896C66.198 90.016 66.198 89.7845 66.4862 89.6109L69.5992 87.8167C69.8874 87.643 70.3486 87.643 70.5791 87.7588L73.692 89.553C73.9226 89.7266 73.9226 89.9581 73.6344 90.1318L70.5215 91.926C70.2333 92.0996 69.8297 92.0996 69.5415 91.9839Z" fill="white"/>
<path d="M74.3838 94.7621L71.2709 92.9678C71.0403 92.7942 71.0403 92.5627 71.3285 92.3891L74.4414 90.5949C74.7297 90.4212 75.1909 90.4212 75.4214 90.537L78.5343 92.3312C78.7649 92.5048 78.7649 92.7363 78.4767 92.91L75.3638 94.7042C75.0756 94.8778 74.6144 94.8778 74.3838 94.7621Z" fill="white"/>
<path d="M79.2261 97.5401L76.1132 95.7459C75.8826 95.5723 75.8826 95.3408 76.1708 95.1671L79.2837 93.3729C79.572 93.1993 80.0331 93.1993 80.2637 93.315L83.3766 95.1093C83.6072 95.2829 83.6072 95.5144 83.319 95.688L80.2061 97.4822C79.8602 97.6559 79.4567 97.7138 79.2261 97.5401Z" fill="white"/>
<path d="M84.0107 100.318L80.8978 98.524C80.6673 98.3504 80.6672 98.1189 80.9555 97.9452L84.0684 96.151C84.3566 95.9774 84.8178 95.9774 85.0484 96.0931L88.1613 97.8873C88.3918 98.061 88.3919 98.2925 88.1036 98.4661L84.9907 100.26C84.7025 100.492 84.299 100.492 84.0107 100.318Z" fill="white"/>
<path d="M88.853 103.154L85.7401 101.36C85.5095 101.186 85.5096 100.955 85.7978 100.781L88.9107 98.9871C89.1989 98.8134 89.6601 98.8134 89.8907 98.9292L93.0036 100.723C93.2342 100.897 93.2342 101.129 92.9459 101.302L89.833 103.096C89.5448 103.27 89.0836 103.27 88.853 103.154Z" fill="white"/>
<path d="M93.6377 105.932L90.5248 104.138C90.2942 103.964 90.2942 103.733 90.5824 103.559L93.6953 101.765C93.9836 101.592 94.4447 101.592 94.6753 101.707L97.7882 103.501C98.0188 103.675 98.0188 103.907 97.7306 104.08L94.6177 105.874C94.3294 106.048 93.9259 106.106 93.6377 105.932Z" fill="white"/>
<path d="M98.48 108.711L95.3671 106.916C95.1365 106.743 95.1365 106.511 95.4247 106.338L98.5376 104.543C98.8259 104.37 99.287 104.37 99.5176 104.485L102.631 106.28C102.861 106.453 102.861 106.685 102.573 106.858L99.46 108.653C99.1717 108.884 98.7682 108.884 98.48 108.711Z" fill="white"/>
<path d="M107.069 113.688L100.267 109.752C100.036 109.579 100.036 109.347 100.325 109.174L103.438 107.379C103.726 107.206 104.187 107.206 104.418 107.322L111.22 111.257C111.45 111.431 111.45 111.662 111.162 111.836L108.049 113.63C107.761 113.804 107.3 113.862 107.069 113.688Z" fill="white"/>
<path d="M116.466 108.247L110.701 104.891C110.47 104.717 110.47 104.485 110.759 104.312L113.872 102.518C114.16 102.344 114.621 102.344 114.852 102.46L120.616 105.817C120.847 105.99 120.847 106.222 120.559 106.395L117.446 108.19C117.157 108.363 116.696 108.421 116.466 108.247Z" fill="white"/>
<path d="M68.3309 85.791L65.218 83.9968C64.9874 83.8231 64.9874 83.5916 65.2757 83.418L68.3886 81.6238C68.6768 81.4502 69.138 81.4501 69.3686 81.5659L72.4815 83.3601C72.712 83.5337 72.712 83.7653 72.4238 83.9389L69.3109 85.7331C69.0227 85.9646 68.6192 85.9646 68.3309 85.791Z" fill="white"/>
<path d="M63.431 82.9549L60.3181 81.1607C60.0875 80.9871 60.0875 80.7556 60.3757 80.5819L63.4886 78.7877C63.7769 78.6141 64.238 78.6141 64.4686 78.7298L67.5815 80.5241C67.8121 80.6977 67.8121 80.9292 67.5239 81.1028L64.411 82.8971C64.1227 83.0707 63.6616 83.1286 63.431 82.9549Z" fill="white"/>
<path d="M58.4734 80.1189L55.3605 78.3247C55.1299 78.151 55.1299 77.9195 55.4181 77.7459L58.5311 75.9517C58.8193 75.778 59.2805 75.778 59.511 75.8938L62.6239 77.688C62.8545 77.8616 62.8545 78.0931 62.5663 78.2668L59.4534 80.061C59.1652 80.2346 58.704 80.2346 58.4734 80.1189Z" fill="white"/>
<path d="M53.5158 77.2249L50.4029 75.4307C50.1723 75.2571 50.1723 75.0256 50.4606 74.852L53.5735 73.0577C53.8617 72.8841 54.3229 72.8841 54.5535 72.9999L57.6664 74.7941C57.8969 74.9677 57.8969 75.1992 57.6087 75.3729L54.4958 77.1671C54.2076 77.3407 53.804 77.3986 53.5158 77.2249Z" fill="white"/>
<path d="M73.1732 88.6269L70.0603 86.8327C69.8297 86.6591 69.8297 86.4276 70.118 86.2539L73.2309 84.4597C73.5191 84.2861 73.9803 84.2861 74.2109 84.4018L77.3238 86.196C77.5543 86.3697 77.5544 86.6012 77.2661 86.7748L74.1532 88.569C73.865 88.7427 73.4038 88.7427 73.1732 88.6269Z" fill="white"/>
<path d="M78.0155 91.405L74.9026 89.6108C74.672 89.4372 74.672 89.2056 74.9603 89.032L78.0732 87.2378C78.3614 87.0642 78.8226 87.0642 79.0531 87.1799L82.166 88.9741C82.3966 89.1478 82.3966 89.3793 82.1084 89.5529L78.9955 91.3471C78.7073 91.5208 78.2461 91.5786 78.0155 91.405Z" fill="white"/>
<path d="M82.8002 94.1832L79.6873 92.389C79.4567 92.2153 79.4567 91.9838 79.7449 91.8102L82.8578 90.016C83.146 89.8424 83.6072 89.8424 83.8378 89.9581L86.9507 91.7523C87.1813 91.926 87.1813 92.1575 86.8931 92.3311L83.7802 94.1253C83.4919 94.3568 83.0884 94.3568 82.8002 94.1832Z" fill="white"/>
<path d="M87.6425 97.0192L84.5295 95.225C84.299 95.0514 84.299 94.8199 84.5872 94.6463L87.7001 92.8521C87.9883 92.6784 88.4495 92.6784 88.6801 92.7942L91.793 94.5884C92.0236 94.762 92.0236 94.9935 91.7353 95.1672L88.6224 96.9614C88.3342 97.135 87.873 97.135 87.6425 97.0192Z" fill="white"/>
<path d="M92.4848 99.7973L89.3719 98.0031C89.1413 97.8295 89.1413 97.598 89.4295 97.4243L92.5424 95.6301C92.8306 95.4565 93.2918 95.4565 93.5224 95.5723L96.6353 97.3665C96.8659 97.5401 96.8659 97.7716 96.5777 97.9452L93.4647 99.7395C93.1765 99.9131 92.7153 99.9131 92.4848 99.7973Z" fill="white"/>
<path d="M97.2694 102.576L94.1565 100.781C93.9259 100.608 93.9259 100.376 94.2141 100.203L97.327 98.4083C97.6153 98.2347 98.0764 98.2347 98.307 98.3504L101.42 100.145C101.651 100.318 101.651 100.55 101.362 100.723L98.2494 102.518C97.9612 102.691 97.5576 102.749 97.2694 102.576Z" fill="white"/>
<path d="M102.112 105.411L98.9988 103.617C98.7682 103.444 98.7682 103.212 99.0564 103.038L102.169 101.244C102.458 101.071 102.919 101.071 103.149 101.186L106.262 102.981C106.493 103.154 106.493 103.386 106.205 103.559L103.092 105.354C102.803 105.527 102.342 105.527 102.112 105.411Z" fill="white"/>
<path d="M106.954 108.19L103.841 106.395C103.61 106.222 103.61 105.99 103.899 105.817L107.012 104.022C107.3 103.849 107.761 103.849 107.992 103.965L111.105 105.759C111.335 105.932 111.335 106.164 111.047 106.338L107.934 108.132C107.646 108.305 107.185 108.305 106.954 108.19Z" fill="white"/>
<path d="M111.739 110.968L108.626 109.174C108.395 109 108.395 108.768 108.683 108.595L111.796 106.801C112.084 106.627 112.546 106.627 112.776 106.743L115.889 108.537C116.12 108.711 116.12 108.942 115.832 109.116L112.719 110.91C112.43 111.083 112.027 111.141 111.739 110.968Z" fill="white"/>
<path d="M65.7945 78.9034L62.6816 77.1092C62.451 76.9356 62.451 76.7041 62.7392 76.5304L65.8521 74.7362C66.1404 74.5626 66.6015 74.5626 66.8321 74.6783L69.945 76.4725C70.1756 76.6462 70.1756 76.8777 69.8874 77.0513L66.7745 78.8456C66.4862 79.0192 66.0827 79.0771 65.7945 78.9034Z" fill="white"/>
<path d="M61.0098 76.1253L57.8969 74.3311C57.6664 74.1575 57.6664 73.926 57.9546 73.7523L61.0675 71.9581C61.3557 71.7845 61.8169 71.7845 62.0475 71.9003L65.1604 73.6945C65.391 73.8681 65.391 74.0996 65.1027 74.2732L61.9898 76.0674C61.7016 76.2411 61.2981 76.2411 61.0098 76.1253Z" fill="white"/>
<path d="M56.2252 73.3473L53.1123 71.553C52.8817 71.3794 52.8817 71.1479 53.1699 70.9743L56.2828 69.1801C56.5711 69.0064 57.0322 69.0064 57.2628 69.1222L60.3757 70.9164C60.6063 71.09 60.6063 71.3215 60.3181 71.4952L57.2052 73.2894C56.917 73.463 56.4558 73.463 56.2252 73.3473Z" fill="white"/>
<path d="M51.4405 70.5691L48.3276 68.7748C48.0971 68.6012 48.0971 68.3697 48.3853 68.1961L51.4982 66.4019C51.7864 66.2282 52.2476 66.2282 52.4782 66.344L55.5911 68.1382C55.8217 68.3118 55.8217 68.5433 55.5334 68.717L52.4205 70.5112C52.1323 70.6848 51.6711 70.6848 51.4405 70.5691Z" fill="white"/>
<path d="M56.3405 67.6752L53.2276 65.881C52.997 65.7073 52.997 65.4758 53.2852 65.3022L54.3229 64.7234C54.6111 64.5498 55.0723 64.5498 55.3029 64.6655L58.4158 66.4597C58.6463 66.6334 58.6464 66.8649 58.3581 67.0385L57.3205 67.6173C57.0323 67.8488 56.6287 67.8488 56.3405 67.6752Z" fill="white"/>
<path d="M62.6239 71.3214L59.511 69.5272C59.2804 69.3536 59.2804 69.122 59.5687 68.9484L60.6063 68.3696C60.8945 68.196 61.3557 68.196 61.5863 68.3118L64.6992 70.106C64.9298 70.2796 64.9298 70.5111 64.6416 70.6847L63.6039 71.2635C63.3157 71.4371 62.8545 71.495 62.6239 71.3214Z" fill="white"/>
<path d="M67.4086 74.0996L64.2957 72.3054C64.0651 72.1318 64.0651 71.9002 64.3533 71.7266L65.391 71.1478C65.6792 70.9742 66.1404 70.9742 66.371 71.09L69.4839 72.8842C69.7145 73.0578 69.7144 73.2893 69.4262 73.4629L68.3886 74.0417C68.1004 74.2154 67.6392 74.2732 67.4086 74.0996Z" fill="white"/>
<path d="M72.1932 76.8777L69.0803 75.0835C68.8497 74.9098 68.8497 74.6783 69.138 74.5047L70.1756 73.9259C70.4638 73.7523 70.925 73.7523 71.1556 73.868L74.2685 75.6622C74.4991 75.8359 74.4991 76.0674 74.2109 76.241L73.1732 76.8198C72.885 76.9934 72.4238 76.9934 72.1932 76.8777Z" fill="white"/>
<path d="M76.9779 79.6559L73.865 77.8617C73.6344 77.688 73.6344 77.4565 73.9226 77.2829L74.9603 76.7041C75.2485 76.5305 75.7097 76.5305 75.9403 76.6462L79.0531 78.4404C79.2837 78.6141 79.2837 78.8456 78.9955 79.0192L77.9579 79.598C77.6696 79.7716 77.2085 79.7716 76.9779 79.6559Z" fill="white"/>
<path d="M103.61 95.1093L100.498 93.315C100.267 93.1414 100.267 92.9099 100.555 92.7363L101.593 92.1575C101.881 91.9838 102.342 91.9838 102.573 92.0996L105.686 93.8938C105.916 94.0675 105.916 94.299 105.628 94.4726L104.59 95.0514C104.302 95.225 103.899 95.225 103.61 95.1093Z" fill="white"/>
<path d="M108.395 97.8874L105.282 96.0932C105.052 95.9196 105.052 95.6881 105.34 95.5145L106.378 94.9357C106.666 94.762 107.127 94.762 107.358 94.8778L110.47 96.672C110.701 96.8456 110.701 97.0772 110.413 97.2508L109.375 97.8296C109.087 98.0032 108.683 98.0032 108.395 97.8874Z" fill="white"/>
<path d="M113.18 100.665L110.067 98.8713C109.836 98.6977 109.836 98.4662 110.125 98.2925L111.162 97.7137C111.45 97.5401 111.912 97.5401 112.142 97.6559L115.255 99.4501C115.486 99.6237 115.486 99.8552 115.197 100.029L114.16 100.608C113.872 100.781 113.41 100.781 113.18 100.665Z" fill="white"/>
<path d="M117.964 103.386L114.852 101.592C114.621 101.418 114.621 101.186 114.909 101.013L115.947 100.434C116.235 100.26 116.696 100.26 116.927 100.376L120.04 102.17C120.27 102.344 120.27 102.575 119.982 102.749L118.944 103.328C118.656 103.559 118.195 103.559 117.964 103.386Z" fill="white"/>
<path d="M70.6368 81.6816L67.5239 79.8874C67.2933 79.7138 67.2933 79.4823 67.5815 79.3086L70.6944 77.5144C70.9827 77.3408 71.4438 77.3408 71.6744 77.4565L74.7873 79.2507C75.0179 79.4244 75.0179 79.6559 74.7297 79.8295L71.6168 81.6237C71.3285 81.8552 70.8674 81.8552 70.6368 81.6816Z" fill="white"/>
<path d="M75.4791 84.5175L72.3662 82.7233C72.1356 82.5497 72.1356 82.3182 72.4238 82.1446L75.5367 80.3503C75.825 80.1767 76.2861 80.1767 76.5167 80.2925L79.6296 82.0867C79.8602 82.2603 79.8602 82.4918 79.572 82.6655L76.4591 84.4597C76.1708 84.6333 75.7097 84.6333 75.4791 84.5175Z" fill="white"/>
<path d="M80.2637 87.2957L77.1508 85.5015C76.9202 85.3279 76.9202 85.0964 77.2085 84.9228L80.3214 83.1285C80.6096 82.9549 81.0708 82.9549 81.3014 83.0707L84.4143 84.8649C84.6448 85.0385 84.6448 85.27 84.3566 85.4437L81.2437 87.2379C80.9555 87.4115 80.552 87.4115 80.2637 87.2957Z" fill="white"/>
<path d="M85.106 90.0738L81.9931 88.2796C81.7625 88.106 81.7625 87.8745 82.0508 87.7008L85.1637 85.9066C85.4519 85.733 85.9131 85.733 86.1437 85.8487L89.2566 87.643C89.4871 87.8166 89.4871 88.0481 89.1989 88.2217L86.086 90.016C85.7978 90.1896 85.3366 90.2475 85.106 90.0738Z" fill="white"/>
<path d="M89.9483 92.9099L86.8354 91.1157C86.6048 90.942 86.6048 90.7105 86.8931 90.5369L90.0059 88.7427C90.2942 88.569 90.7554 88.569 90.9859 88.6848L94.0988 90.479C94.3294 90.6527 94.3294 90.8842 94.0412 91.0578L90.9283 92.852C90.6401 93.0256 90.1789 93.0256 89.9483 92.9099Z" fill="white"/>
<path d="M94.733 95.688L91.6201 93.8937C91.3895 93.7201 91.3895 93.4886 91.6777 93.315L94.7906 91.5208C95.0788 91.3471 95.54 91.3471 95.7706 91.4629L98.8835 93.2571C99.1141 93.4307 99.1141 93.6622 98.8259 93.8359L95.713 95.6301C95.4247 95.8037 95.0212 95.8037 94.733 95.688Z" fill="white"/>
<path d="M99.5753 98.4662L96.4624 96.6719C96.2318 96.4983 96.2318 96.2668 96.52 96.0932L99.6329 94.2989C99.9211 94.1253 100.382 94.1253 100.613 94.2411L103.726 96.0353C103.956 96.2089 103.956 96.4404 103.668 96.6141L100.555 98.4083C100.267 98.5819 99.8058 98.6398 99.5753 98.4662Z" fill="white"/>
<path d="M104.418 101.244L101.305 99.45C101.074 99.2764 101.074 99.0449 101.362 98.8712L104.475 97.077C104.763 96.9034 105.225 96.9034 105.455 97.0191L108.568 98.8134C108.799 98.987 108.799 99.2185 108.51 99.3921L105.398 101.186C105.109 101.418 104.648 101.418 104.418 101.244Z" fill="white"/>
<path d="M109.202 104.08L106.089 102.286C105.859 102.112 105.859 101.881 106.147 101.707L109.26 99.9131C109.548 99.7395 110.009 99.7395 110.24 99.8552L113.353 101.649C113.583 101.823 113.583 102.055 113.295 102.228L110.182 104.022C109.894 104.196 109.49 104.196 109.202 104.08Z" fill="white"/>
<path d="M43.0818 82.0288L33.8584 76.7041C33.6278 76.5304 33.6278 76.2989 33.916 76.1253L37.029 74.3311C37.3172 74.1574 37.7784 74.1574 38.0089 74.2732L47.2324 79.5979C47.4629 79.7716 47.4629 80.0031 47.1747 80.1767L44.0618 81.9709C43.7736 82.1446 43.3124 82.2025 43.0818 82.0288Z" fill="white"/>
<path d="M102.285 116.408L93.0612 111.084C92.8306 110.91 92.8306 110.678 93.1189 110.505L96.2318 108.711C96.52 108.537 96.9812 108.537 97.2117 108.653L106.435 113.977C106.666 114.151 106.666 114.383 106.378 114.556L103.265 116.35C102.976 116.524 102.573 116.524 102.285 116.408Z" fill="white"/>
<path d="M83.0308 111.373L79.9178 109.579C79.6873 109.405 79.6873 109.174 79.9755 109L83.6649 106.858C83.9531 106.685 84.4143 106.685 84.6449 106.801L87.7578 108.595C87.9883 108.768 87.9883 109 87.7001 109.174L84.0107 111.315C83.7225 111.489 83.2613 111.547 83.0308 111.373Z" fill="white"/>
<path d="M47.9818 91.0578L42.9665 88.1639C42.736 87.9902 42.736 87.7587 43.0242 87.5851L46.7136 85.4436C47.0018 85.27 47.463 85.27 47.6935 85.3857L52.7088 88.2796C52.9394 88.4533 52.9394 88.6848 52.6511 88.8584L48.9618 90.9999C48.6735 91.2314 48.27 91.2314 47.9818 91.0578Z" fill="white"/>
<path d="M78.3614 108.71L73.3462 105.817C73.1156 105.643 73.1156 105.411 73.4038 105.238L77.0932 103.096C77.3814 102.923 77.8426 102.923 78.0732 103.038L83.0884 105.932C83.319 106.106 83.319 106.337 83.0308 106.511L79.3414 108.653C79.0532 108.826 78.6496 108.826 78.3614 108.71Z" fill="white"/>
<path d="M54.957 95.1093L49.9417 92.2154C49.7112 92.0417 49.7112 91.8102 49.9994 91.6366L53.6888 89.4951C53.977 89.3215 54.4382 89.3215 54.6687 89.4372L59.684 92.3311C59.9146 92.5048 59.9146 92.7363 59.6263 92.9099L55.937 95.0514C55.6487 95.225 55.1876 95.2829 54.957 95.1093Z" fill="white"/>
<path d="M54.7264 89.4951L76.4591 102.055C76.7473 102.228 76.7473 102.46 76.4591 102.633L72.7121 104.833C72.4238 105.006 72.0203 105.006 71.7321 104.833L49.9994 92.2154L54.7264 89.4951Z" fill="white"/>
<path d="M96.52 116.466L99.9788 118.492C100.209 118.608 100.152 118.839 99.9212 118.955L98.4223 119.823C98.1918 119.939 97.8459 119.997 97.6153 119.881L94.1565 117.855C93.9259 117.739 93.9836 117.508 94.2142 117.392L95.713 116.524C95.9435 116.35 96.2894 116.35 96.52 116.466Z" fill="white"/>
<path d="M91.6201 113.63L95.0788 115.656C95.3094 115.772 95.2518 116.003 95.0212 116.119L93.5224 116.987C93.2918 117.103 92.9459 117.161 92.7153 117.045L89.2566 115.019C89.026 114.903 89.0836 114.672 89.3142 114.556L90.813 113.688C91.1013 113.514 91.4471 113.514 91.6201 113.63Z" fill="white"/>
<path d="M86.8354 110.852L90.2942 112.878C90.5248 112.994 90.4671 113.225 90.2365 113.341L88.7377 114.209C88.5072 114.325 88.1613 114.383 87.9307 114.267L84.4719 112.241C84.2413 112.125 84.299 111.894 84.5296 111.778L86.0284 110.91C86.2589 110.736 86.6048 110.736 86.8354 110.852Z" fill="white"/>
<path d="M94.3294 112.067L97.7882 114.093C98.0188 114.209 97.9612 114.44 97.7306 114.556L96.2318 115.424C96.0012 115.54 95.6553 115.598 95.4247 115.482L91.9659 113.456C91.7354 113.341 91.793 113.109 92.0236 112.993L93.5224 112.125C93.753 112.009 94.0989 111.952 94.3294 112.067Z" fill="white"/>
<path d="M113.353 57.5465L87.3542 42.4983L87.7001 40.8198L113.699 55.8681L113.353 57.5465Z" fill="#D4ECFF"/>
<path d="M104.072 60.3825L85.9131 49.9066L86.2589 48.2281L104.36 58.704L104.072 60.3825Z" fill="#D4ECFF"/>
<path d="M102.342 55.2893L86.6625 46.2025L87.0083 44.524L102.688 53.6109L102.342 55.2893Z" fill="white"/>
<path d="M112.603 61.2507L104.763 56.6783L105.109 54.9999L112.949 59.5722L112.603 61.2507Z" fill="#FF2C9C"/>
<path d="M84.5872 27.6816L76.7473 23.1671L77.0932 21.4308L84.9331 26.0031L84.5872 27.6816Z" fill="#D4ECFF"/>
<path d="M83.7801 31.6173L75.9402 27.1028L76.2285 25.3665L84.0684 29.9388L83.7801 31.6173Z" fill="white"/>
<path d="M122.23 86.3118L114.39 81.7395L114.736 80.061L122.576 84.5755L122.23 86.3118Z" fill="#D4ECFF"/>
<path d="M82.0508 39.4887L74.2109 34.9742L74.5567 33.2958L82.3966 37.8102L82.0508 39.4887Z" fill="#D4ECFF"/>
<path d="M98.9988 40.762C98.7682 41.2829 98.1341 41.5144 97.6153 41.225C97.0965 40.9356 96.8659 40.2411 97.0965 39.6623C97.327 39.1414 97.9612 38.9099 98.48 39.1993C99.0564 39.4887 99.2294 40.1832 98.9988 40.762Z" fill="#FF2C9C"/>
<path d="M102.4 42.6719C102.169 43.1928 101.535 43.4243 101.016 43.135C100.498 42.8456 100.267 42.151 100.498 41.5722C100.728 41.0513 101.362 40.8198 101.881 41.1092C102.4 41.4565 102.631 42.151 102.4 42.6719Z" fill="white"/>
<path d="M105.743 44.6398C105.513 45.1607 104.879 45.3922 104.36 45.1028C103.841 44.8135 103.61 44.1189 103.841 43.5401C104.072 43.0192 104.706 42.7877 105.225 43.0771C105.801 43.4244 106.032 44.1189 105.743 44.6398Z" fill="#D4ECFF"/>
<path d="M109.145 46.6077C108.914 47.1286 108.28 47.3601 107.761 47.0707C107.242 46.7814 107.012 46.0868 107.242 45.508C107.473 44.9871 108.107 44.7556 108.626 45.045C109.145 45.3923 109.375 46.0868 109.145 46.6077Z" fill="#FF2C9C"/>
<path d="M69.5416 27.566L53.5159 18.3055C53.17 18.1319 52.8818 18.1319 52.5935 18.2477L50.6912 19.1737C50.6912 19.1737 51.3829 19.4052 51.8441 19.5789L49.5383 31.2702C49.3653 32.1962 49.7689 33.3538 50.4606 33.7589L65.7945 42.6142L65.5063 44.0033L67.4086 43.0773C67.7545 42.9036 67.9851 42.5564 68.1004 42.0355L70.4639 30.0547C70.6368 29.1287 70.2333 28.029 69.5416 27.566Z" fill="#3099F2"/>
<path d="M64.5263 43.8876L48.5006 34.6272C47.8089 34.222 47.3477 33.1223 47.5783 32.1384L49.9418 20.1577C50.1147 19.2317 50.8641 18.7686 51.5559 19.1738L67.5816 28.4342C68.2733 28.8394 68.7345 29.9391 68.5039 30.923L66.1404 42.9037C65.9675 43.8876 65.2757 44.3506 64.5263 43.8876Z" fill="#3099F2"/>
<path d="M55.3605 30.5178C55.1876 31.2123 54.6111 31.5017 54.0347 31.1545C53.4582 30.8072 53.0547 29.939 53.2276 29.3024C53.3429 28.6078 53.977 28.3184 54.5535 28.6657C55.0723 28.9551 55.4758 29.8233 55.3605 30.5178Z" fill="white"/>
<path d="M58.5887 32.4277C58.4734 33.1222 57.8393 33.4116 57.2629 33.0644C56.6864 32.7171 56.2829 31.8489 56.4558 31.2123C56.5711 30.5177 57.2052 30.2283 57.7817 30.5756C58.3582 30.865 58.7617 31.7332 58.5887 32.4277Z" fill="white"/>
<path d="M61.8746 34.2799C61.7593 34.9744 61.1252 35.2638 60.5487 34.9165C59.9722 34.5693 59.5687 33.7011 59.7417 33.0644C59.9146 32.4278 60.4911 32.0805 61.0675 32.4278C61.644 32.775 62.0475 33.5853 61.8746 34.2799Z" fill="white"/>
<path d="M62.3357 12.5755L46.3101 3.31507C45.9642 3.14143 45.6759 3.14143 45.3877 3.25719L43.4854 4.18323C43.4854 4.18323 44.1771 4.41474 44.6383 4.58838L42.3325 16.2797C42.1595 17.2057 42.563 18.3633 43.2548 18.7684L58.5887 27.6237L58.3005 29.0128L60.2028 28.0868C60.5487 27.9131 60.7793 27.5659 60.8946 27.045L63.2581 15.0643C63.4887 14.0803 63.0275 12.9807 62.3357 12.5755Z" fill="#3099F2"/>
<path d="M57.3205 28.8971L41.2948 19.6367C40.6031 19.2315 40.1419 18.1319 40.3725 17.1479L42.736 5.16723C42.9089 4.24119 43.6583 3.77816 44.3501 4.18331L60.3758 13.4438C61.0675 13.8489 61.5287 14.9486 61.2981 15.9325L58.9346 27.9132C58.7617 28.8393 58.0699 29.3023 57.3205 28.8971Z" fill="#D4ECFF"/>
<path d="M48.1547 15.4695C48.0395 16.164 47.4053 16.4534 46.8289 16.1061C46.2524 15.7588 45.8489 14.8907 46.0218 14.254C46.1371 13.5595 46.7712 13.2701 47.3477 13.6174C47.9242 13.9646 48.27 14.7749 48.1547 15.4695Z" fill="white"/>
<path d="M51.4406 17.3794C51.3253 18.0739 50.6912 18.3633 50.1147 18.016C49.5382 17.6688 49.1347 16.8006 49.3077 16.1639C49.423 15.4694 50.0571 15.18 50.6335 15.5273C51.1523 15.8167 51.5559 16.6848 51.4406 17.3794Z" fill="white"/>
<path d="M54.6688 19.2894C54.5535 19.9839 53.9194 20.2733 53.3429 19.9261C52.7664 19.5788 52.3629 18.7106 52.5359 18.074C52.6511 17.3794 53.2853 17.09 53.8617 17.4373C54.4382 17.7267 54.8417 18.5949 54.6688 19.2894Z" fill="white"/>
</svg>
