<svg width="179" height="172" viewBox="0 0 179 172" fill="none" xmlns="http://www.w3.org/2000/svg">
<path d="M95.5036 171.464L9.11997 121.448C7.83907 120.728 8.04402 119.443 9.47862 118.621L64.9158 86.4928C66.3504 85.6703 68.5536 85.5675 69.8344 86.2872L156.218 136.304C157.499 137.023 157.294 138.308 155.859 139.131L100.422 171.31C98.9876 172.132 96.7845 172.235 95.5036 171.464Z" fill="#EAEAEA"/>
<path d="M176.61 51.8462L87.6645 0.33899C87.0497 -0.0208407 86.4348 -0.0722451 85.8712 0.081968L84.2317 0.647416L84.7953 0.801629C84.5391 1.05865 84.3854 1.41848 84.2317 1.82972L64.1472 67.3189C63.6349 68.9638 64.4034 70.9172 65.7868 71.7397L154.681 123.247C154.886 123.35 155.142 123.452 155.347 123.504L155.142 123.966L156.73 123.401C157.396 123.144 157.909 122.579 158.165 121.756L178.249 56.2669C178.711 54.622 177.993 52.6172 176.61 51.8462Z" fill="#333639"/>
<path d="M151.504 125.663L63.6862 74.8239C62.4053 74.0528 60.1509 74.1556 58.665 75.0295L1.89573 107.928L0 107.209L0.512358 109.882C0.563594 110.293 0.871009 110.653 1.38337 110.961L90.0214 162.314C91.3023 163.085 93.5566 162.982 95.0425 162.108L151.914 129.158C152.632 128.747 153.041 128.233 153.144 127.77L153.708 125.2L151.504 125.663Z" fill="#333639"/>
<path d="M90.1238 159.898L0.870992 108.185C-0.409905 107.414 -0.256197 106.129 1.22964 105.255L58.5113 72.0481C59.9972 71.1742 62.3028 71.0714 63.5837 71.8425L152.837 123.555C154.117 124.326 153.964 125.611 152.478 126.485L95.1962 159.693C93.7104 160.566 91.456 160.669 90.1238 159.898Z" fill="#333639"/>
<path d="M0.870992 106.695L90.1238 158.408C91.4047 159.179 93.7104 159.076 95.1962 158.202L152.478 124.995C152.939 124.738 153.246 124.429 153.451 124.121C154.015 124.892 153.656 125.817 152.478 126.537L95.1962 159.744C93.7104 160.618 91.4047 160.721 90.1238 159.95L0.870992 108.185C-0.0512535 107.671 -0.204961 106.849 0.256162 106.129C0.409869 106.335 0.614813 106.541 0.870992 106.695Z" fill="white"/>
<path d="M153.144 123.761L64.2497 72.2537C62.8664 71.4312 62.0978 69.4778 62.6102 67.8329L82.7459 2.34373C83.2582 0.698786 84.7953 0.0819331 86.1787 0.852999L175.073 52.3602C176.456 53.1827 177.225 55.136 176.712 56.781L156.628 122.27C156.116 123.915 154.579 124.532 153.144 123.761Z" fill="#333639"/>
<path d="M152.324 121.448L66.0942 71.4313C64.7621 70.6602 64.0448 68.7583 64.5571 67.2161L83.7706 4.60561C84.2317 3.06348 85.7176 2.39523 87.0497 3.2177L173.28 53.2341C174.612 54.0052 175.329 55.9072 174.817 57.4493L155.603 120.06C155.142 121.602 153.656 122.219 152.324 121.448Z" fill="#82C9F9"/>
<path d="M45.3949 98.7269L42.4232 97.0305C42.1671 96.8763 42.2183 96.6707 42.4745 96.5165L45.9585 94.5117C46.2147 94.3575 46.6246 94.3575 46.8808 94.4603L49.8524 96.1567C50.1086 96.3109 50.0574 96.5165 49.8012 96.6707L46.3172 98.6755C46.061 98.8297 45.6511 98.8297 45.3949 98.7269Z" fill="white"/>
<path d="M49.9549 101.349L46.9832 99.6522C46.7271 99.498 46.7783 99.2924 47.0345 99.1382L50.5185 97.1334C50.7747 96.9792 51.1846 96.9792 51.4408 97.082L54.4124 98.7784C54.6686 98.9326 54.6174 99.1382 54.3612 99.2924L50.8772 101.297C50.621 101.503 50.2111 101.503 49.9549 101.349Z" fill="white"/>
<path d="M54.5149 104.022L51.5432 102.325C51.2871 102.171 51.3383 101.966 51.5945 101.811L55.0785 99.8065C55.3347 99.6523 55.7446 99.6523 56.0008 99.7551L58.9724 101.451C59.2286 101.606 59.1774 101.811 58.9212 101.966L55.4372 103.97C55.181 104.124 54.7711 104.124 54.5149 104.022Z" fill="white"/>
<path d="M60.8169 101.811L57.8452 100.115C57.5891 99.9606 57.6403 99.755 57.8965 99.6008L60.8169 97.9044C61.0731 97.7502 61.483 97.7502 61.7392 97.853L64.7109 99.5494C64.967 99.7036 64.9158 99.9092 64.6596 100.063L61.7392 101.76C61.483 101.914 61.0731 101.965 60.8169 101.811Z" fill="white"/>
<path d="M65.377 104.484L62.4053 102.788C62.1491 102.634 62.2004 102.428 62.4565 102.274L65.377 100.578C65.6332 100.423 66.043 100.423 66.2992 100.526L69.2709 102.222C69.5271 102.377 69.4759 102.582 69.2197 102.737L66.2992 104.433C66.043 104.587 65.6332 104.587 65.377 104.484Z" fill="white"/>
<path d="M69.9369 107.106L66.9652 105.409C66.7091 105.255 66.7603 105.05 67.0165 104.895L69.9369 103.199C70.1931 103.045 70.603 103.045 70.8592 103.148L73.8309 104.844C74.087 104.998 74.0358 105.204 73.7796 105.358L70.8592 107.054C70.603 107.209 70.1931 107.26 69.9369 107.106Z" fill="white"/>
<path d="M74.4969 109.728L71.5252 108.031C71.2691 107.877 71.3203 107.671 71.5765 107.517L74.4969 105.821C74.7531 105.667 75.163 105.667 75.4192 105.769L78.3908 107.466C78.647 107.62 78.5958 107.826 78.3396 107.98L75.4192 109.676C75.163 109.882 74.7531 109.882 74.4969 109.728Z" fill="white"/>
<path d="M79.0569 112.401L76.0852 110.704C75.8291 110.55 75.8803 110.344 76.1365 110.19L79.0569 108.494C79.3131 108.34 79.723 108.34 79.9792 108.442L82.9508 110.139C83.207 110.293 83.1558 110.499 82.8996 110.653L79.9792 112.349C79.723 112.503 79.3131 112.503 79.0569 112.401Z" fill="white"/>
<path d="M83.6169 115.022L80.6452 113.326C80.389 113.172 80.4402 112.966 80.6964 112.812L83.6169 111.115C83.873 110.961 84.2829 110.961 84.5391 111.064L87.5108 112.76C87.767 112.915 87.7157 113.12 87.4595 113.274L84.5391 114.971C84.2829 115.125 83.873 115.176 83.6169 115.022Z" fill="white"/>
<path d="M88.1769 117.644L85.2052 115.947C84.9491 115.793 85.0003 115.588 85.2565 115.433L88.1769 113.737C88.4331 113.583 88.843 113.583 89.0991 113.686L92.0708 115.382C92.327 115.536 92.2758 115.742 92.0196 115.896L89.0991 117.592C88.843 117.798 88.4331 117.798 88.1769 117.644Z" fill="white"/>
<path d="M92.7368 120.317L89.7652 118.62C89.509 118.466 89.5602 118.261 89.8164 118.106L92.7368 116.41C92.993 116.256 93.4029 116.256 93.6591 116.359L96.6308 118.055C96.887 118.209 96.8357 118.415 96.5795 118.569L93.6591 120.265C93.4029 120.42 92.993 120.42 92.7368 120.317Z" fill="white"/>
<path d="M97.2968 122.938L94.3252 121.242C94.069 121.088 94.1202 120.882 94.3764 120.728L97.2968 119.032C97.553 118.877 97.9629 118.877 98.2191 118.98L101.191 120.677C101.447 120.831 101.396 121.036 101.14 121.191L98.2191 122.887C97.9629 123.041 97.553 123.093 97.2968 122.938Z" fill="white"/>
<path d="M101.857 125.611L98.8852 123.864C98.629 123.71 98.6802 123.504 98.9364 123.35L101.857 121.653C102.113 121.499 102.523 121.499 102.779 121.602L105.751 123.298C106.007 123.452 105.956 123.658 105.7 123.812L102.779 125.509C102.523 125.714 102.113 125.714 101.857 125.611Z" fill="white"/>
<path d="M67.5288 100.578L64.5572 98.8812C64.301 98.7269 64.3522 98.5213 64.6084 98.3671L67.5288 96.6708C67.785 96.5166 68.1949 96.5166 68.4511 96.6194L71.4227 98.3157C71.6789 98.4699 71.6277 98.6755 71.3715 98.8298L68.4511 100.526C68.1949 100.68 67.785 100.68 67.5288 100.578Z" fill="white"/>
<path d="M62.9176 97.9045L59.946 96.2082C59.6898 96.054 59.741 95.8484 59.9972 95.6942L62.9176 93.9978C63.1738 93.8436 63.5837 93.8436 63.8399 93.9464L66.8116 95.6428C67.0677 95.797 67.0165 96.0026 66.7603 96.1568L63.8399 97.8531C63.5837 98.0073 63.1738 98.0073 62.9176 97.9045Z" fill="white"/>
<path d="M58.3064 95.1799L51.9532 91.4788C51.697 91.3246 51.7482 91.119 52.0044 90.9648L54.9248 89.2684C55.181 89.1142 55.5909 89.1142 55.8471 89.217L62.2003 92.9181C62.4565 93.0724 62.4053 93.278 62.1491 93.4322L59.2286 95.1285C58.9212 95.3342 58.5113 95.3341 58.3064 95.1799Z" fill="white"/>
<path d="M61.5342 91.9416L56.3594 88.9602C56.1032 88.8059 56.1545 88.6003 56.4106 88.4461L59.3311 86.7498C59.5873 86.5956 59.9972 86.5956 60.2533 86.6984L65.4282 89.6798C65.6843 89.834 65.6331 90.0396 65.3769 90.1939L62.4565 91.8902C62.1491 92.0444 61.7392 92.0958 61.5342 91.9416Z" fill="white"/>
<path d="M72.0888 103.199L69.1172 101.503C68.861 101.349 68.9122 101.143 69.1684 100.989L72.0888 99.2924C72.345 99.1382 72.7549 99.1382 73.0111 99.241L75.9828 100.937C76.2389 101.092 76.1877 101.297 75.9315 101.451L73.0111 103.148C72.7549 103.353 72.345 103.353 72.0888 103.199Z" fill="white"/>
<path d="M76.6488 105.872L73.6772 104.176C73.421 104.022 73.4722 103.816 73.7284 103.662L76.6488 101.965C76.905 101.811 77.3149 101.811 77.5711 101.914L80.5428 103.61C80.7989 103.764 80.7477 103.97 80.4915 104.124L77.5711 105.821C77.3149 105.975 76.905 105.975 76.6488 105.872Z" fill="white"/>
<path d="M81.2088 108.494L78.2371 106.797C77.981 106.643 78.0322 106.437 78.2884 106.283L81.2088 104.587C81.465 104.433 81.8749 104.433 82.1311 104.536L85.1028 106.232C85.3589 106.386 85.3077 106.592 85.0515 106.746L82.1311 108.442C81.8749 108.596 81.465 108.648 81.2088 108.494Z" fill="white"/>
<path d="M85.7688 111.115L82.7971 109.419C82.5409 109.265 82.5921 109.059 82.8483 108.905L85.7688 107.209C86.0249 107.055 86.4348 107.055 86.691 107.157L89.6627 108.854C89.9189 109.008 89.8676 109.214 89.6115 109.368L86.691 111.064C86.4348 111.27 86.0249 111.27 85.7688 111.115Z" fill="white"/>
<path d="M90.3288 113.789L87.3571 112.092C87.101 111.938 87.1522 111.732 87.4084 111.578L90.3288 109.882C90.585 109.728 90.9949 109.728 91.2511 109.83L94.2227 111.527C94.4789 111.681 94.4277 111.887 94.1715 112.041L91.2511 113.737C90.9949 113.891 90.585 113.891 90.3288 113.789Z" fill="white"/>
<path d="M94.8888 116.41L91.9171 114.714C91.6609 114.559 91.7121 114.354 91.9683 114.2L94.8888 112.503C95.1449 112.349 95.5548 112.349 95.811 112.452L98.7827 114.148C99.0389 114.302 98.9876 114.508 98.7315 114.662L95.811 116.359C95.5548 116.513 95.1449 116.564 94.8888 116.41Z" fill="white"/>
<path d="M99.4488 119.032L96.4771 117.335C96.2209 117.181 96.2721 116.975 96.5283 116.821L99.4488 115.125C99.7049 114.971 100.115 114.971 100.371 115.073L103.343 116.77C103.599 116.924 103.548 117.13 103.291 117.284L100.371 118.98C100.115 119.186 99.7049 119.186 99.4488 119.032Z" fill="white"/>
<path d="M104.009 121.705L101.037 120.008C100.781 119.854 100.832 119.649 101.088 119.494L104.009 117.798C104.265 117.644 104.675 117.644 104.931 117.747L107.903 119.443C108.159 119.597 108.108 119.803 107.851 119.957L104.931 121.653C104.675 121.808 104.265 121.808 104.009 121.705Z" fill="white"/>
<path d="M108.569 124.326L105.597 122.63C105.341 122.476 105.392 122.27 105.648 122.116L108.569 120.42C108.825 120.265 109.235 120.265 109.491 120.368L112.463 122.064C112.719 122.219 112.668 122.424 112.411 122.579L109.491 124.275C109.235 124.48 108.825 124.48 108.569 124.326Z" fill="white"/>
<path d="M116.664 129.055L110.208 125.303C109.952 125.149 110.003 124.943 110.26 124.789L113.18 123.093C113.436 122.938 113.846 122.938 114.102 123.041L120.558 126.794C120.814 126.948 120.763 127.153 120.507 127.308L117.586 129.004C117.33 129.158 116.92 129.158 116.664 129.055Z" fill="white"/>
<path d="M125.579 123.864L120.148 120.728C119.892 120.574 119.943 120.368 120.199 120.214L123.12 118.518C123.376 118.363 123.786 118.363 124.042 118.466L129.473 121.602C129.729 121.756 129.678 121.962 129.422 122.116L126.501 123.812C126.194 124.018 125.784 124.018 125.579 123.864Z" fill="white"/>
<path d="M80.0816 102.685L77.1099 100.989C76.8537 100.835 76.905 100.629 77.1611 100.475L80.0816 98.7783C80.3378 98.6241 80.7476 98.6241 81.0038 98.7269L83.9755 100.423C84.2317 100.577 84.1804 100.783 83.9243 100.937L81.0038 102.634C80.7476 102.788 80.3378 102.839 80.0816 102.685Z" fill="white"/>
<path d="M75.4192 99.9606L72.4475 98.2642C72.1913 98.11 72.2425 97.9044 72.4987 97.7502L75.4192 96.0538C75.6753 95.8996 76.0852 95.8996 76.3414 96.0024L79.3131 97.6988C79.5693 97.853 79.518 98.0586 79.2619 98.2128L76.3414 99.9092C76.0852 100.115 75.6753 100.115 75.4192 99.9606Z" fill="white"/>
<path d="M70.7567 97.2876L67.785 95.5913C67.5288 95.437 67.5801 95.2314 67.8362 95.0772L70.7567 93.3809C71.0129 93.2267 71.4227 93.2267 71.6789 93.3295L74.6506 95.0258C74.9068 95.18 74.8556 95.3856 74.5994 95.5398L71.6789 97.2362C71.3715 97.3904 70.9616 97.4418 70.7567 97.2876Z" fill="white"/>
<path d="M66.0943 94.5632L63.1226 92.8669C62.8664 92.7127 62.9176 92.5071 63.1738 92.3528L66.0943 90.6565C66.3505 90.5023 66.7603 90.5023 67.0165 90.6051L69.9882 92.3014C70.2444 92.4557 70.1931 92.6613 69.937 92.8155L67.0165 94.5118C66.7091 94.7174 66.2992 94.7174 66.0943 94.5632Z" fill="white"/>
<path d="M84.6416 105.358L81.6699 103.662C81.4138 103.508 81.465 103.302 81.7212 103.148L84.6416 101.451C84.8978 101.297 85.3077 101.297 85.5639 101.4L88.5356 103.096C88.7917 103.251 88.7405 103.456 88.4843 103.61L85.5639 105.307C85.3077 105.461 84.8978 105.461 84.6416 105.358Z" fill="white"/>
<path d="M89.2016 107.98L86.2299 106.283C85.9737 106.129 86.0249 105.924 86.2811 105.769L89.2016 104.073C89.4578 103.919 89.8676 103.919 90.1238 104.022L93.0955 105.718C93.3517 105.872 93.3004 106.078 93.0443 106.232L90.1238 107.928C89.8676 108.083 89.4578 108.134 89.2016 107.98Z" fill="white"/>
<path d="M93.7616 110.601L90.7899 108.905C90.5338 108.751 90.585 108.545 90.8412 108.391L93.7616 106.695C94.0178 106.54 94.4277 106.54 94.6839 106.643L97.6556 108.34C97.9117 108.494 97.8605 108.699 97.6043 108.854L94.6839 110.55C94.4277 110.756 94.0178 110.756 93.7616 110.601Z" fill="white"/>
<path d="M98.3216 113.274L95.3499 111.578C95.0937 111.424 95.1449 111.218 95.4011 111.064L98.3216 109.368C98.5777 109.213 98.9876 109.213 99.2438 109.316L102.215 111.013C102.472 111.167 102.42 111.372 102.164 111.527L99.2438 113.223C98.9876 113.377 98.5777 113.377 98.3216 113.274Z" fill="white"/>
<path d="M102.882 115.896L99.9099 114.2C99.6538 114.045 99.705 113.84 99.9612 113.686L102.882 111.989C103.138 111.835 103.548 111.835 103.804 111.938L106.776 113.634C107.032 113.788 106.98 113.994 106.724 114.148L103.804 115.845C103.548 115.999 103.138 116.05 102.882 115.896Z" fill="white"/>
<path d="M107.442 118.518L104.47 116.821C104.214 116.667 104.265 116.461 104.521 116.307L107.442 114.611C107.698 114.457 108.108 114.457 108.364 114.559L111.335 116.256C111.592 116.41 111.54 116.616 111.284 116.77L108.364 118.466C108.108 118.672 107.698 118.672 107.442 118.518Z" fill="white"/>
<path d="M112.002 121.191L109.03 119.494C108.774 119.34 108.825 119.135 109.081 118.98L112.002 117.284C112.258 117.13 112.668 117.13 112.924 117.233L115.895 118.929C116.152 119.083 116.1 119.289 115.844 119.443L112.924 121.139C112.668 121.294 112.258 121.294 112.002 121.191Z" fill="white"/>
<path d="M116.562 123.812L113.59 122.116C113.334 121.962 113.385 121.756 113.641 121.602L116.562 119.906C116.818 119.751 117.228 119.751 117.484 119.854L120.455 121.55C120.712 121.705 120.66 121.91 120.404 122.065L117.484 123.761C117.228 123.915 116.818 123.966 116.562 123.812Z" fill="white"/>
<path d="M121.122 126.485L118.15 124.789C117.894 124.635 117.945 124.429 118.201 124.275L121.122 122.579C121.378 122.424 121.788 122.424 122.044 122.527L125.015 124.223C125.272 124.378 125.22 124.583 124.964 124.737L122.044 126.434C121.788 126.588 121.378 126.588 121.122 126.485Z" fill="white"/>
<path d="M77.6736 96.1566L74.7019 94.4603C74.4457 94.3061 74.4969 94.1004 74.7531 93.9462L77.6736 92.2499C77.9297 92.0957 78.3396 92.0957 78.5958 92.1985L81.5675 93.8948C81.8237 94.049 81.7724 94.2547 81.5162 94.4089L78.5958 96.1052C78.3396 96.2594 77.9297 96.3108 77.6736 96.1566Z" fill="white"/>
<path d="M73.1648 93.535L70.1931 91.8387C69.937 91.6845 69.9882 91.4789 70.2444 91.3246L73.1648 89.6283C73.421 89.4741 73.8309 89.4741 74.0871 89.5769L77.0587 91.2732C77.3149 91.4275 77.2637 91.6331 77.0075 91.7873L74.0871 93.4836C73.7797 93.6378 73.3698 93.6892 73.1648 93.535Z" fill="white"/>
<path d="M68.6048 90.9134L65.6331 89.2171C65.3769 89.0629 65.4281 88.8573 65.6843 88.7031L68.6048 87.0067C68.8609 86.8525 69.2708 86.8525 69.527 86.9553L72.4987 88.6517C72.7549 88.8059 72.7036 89.0115 72.4474 89.1657L69.527 90.862C69.2708 91.0163 68.8609 91.0677 68.6048 90.9134Z" fill="white"/>
<path d="M64.096 88.292L61.1244 86.5957C60.8682 86.4414 60.9194 86.2358 61.1756 86.0816L64.096 84.3853C64.3522 84.231 64.7621 84.2311 65.0183 84.3339L67.99 86.0302C68.2461 86.1844 68.1949 86.39 67.9387 86.5442L65.0183 88.2406C64.7109 88.3948 64.301 88.3948 64.096 88.292Z" fill="white"/>
<path d="M68.7585 85.5675L65.7868 83.8711C65.5306 83.7169 65.5818 83.5113 65.838 83.3571L66.8115 82.7916C67.0677 82.6374 67.4776 82.6374 67.7337 82.7402L70.7054 84.4366C70.9616 84.5908 70.9104 84.7964 70.6542 84.9506L69.6807 85.5161C69.3733 85.6703 68.9634 85.7217 68.7585 85.5675Z" fill="white"/>
<path d="M74.6506 89.0116L71.6789 87.3152C71.4227 87.161 71.474 86.9554 71.7302 86.8012L72.7036 86.2357C72.9598 86.0815 73.3697 86.0815 73.6259 86.1843L76.5976 87.8807C76.8538 88.0349 76.8025 88.2405 76.5463 88.3947L75.5729 88.9602C75.3167 89.1144 74.9068 89.1658 74.6506 89.0116Z" fill="white"/>
<path d="M79.1594 91.633L76.1877 89.9367C75.9315 89.7825 75.9828 89.5769 76.239 89.4226L77.2124 88.8572C77.4686 88.703 77.8785 88.703 78.1347 88.8058L81.1064 90.5021C81.3625 90.6563 81.3113 90.862 81.0551 91.0162L80.0816 91.5816C79.8255 91.7358 79.4156 91.7358 79.1594 91.633Z" fill="white"/>
<path d="M83.7194 94.2547L80.7477 92.5584C80.4915 92.4042 80.5428 92.1986 80.7989 92.0443L81.7724 91.4789C82.0286 91.3247 82.4385 91.3247 82.6947 91.4275L85.6663 93.1238C85.9225 93.278 85.8713 93.4837 85.6151 93.6379L84.6416 94.2033C84.3342 94.3575 83.9243 94.3575 83.7194 94.2547Z" fill="white"/>
<path d="M88.2281 96.8764L85.2564 95.1801C85.0003 95.0259 85.0515 94.8203 85.3077 94.666L86.2812 94.1006C86.5373 93.9464 86.9472 93.9464 87.2034 94.0492L90.1751 95.7455C90.4313 95.8997 90.38 96.1054 90.1238 96.2596L89.1504 96.825C88.8429 96.9792 88.4331 96.9792 88.2281 96.8764Z" fill="white"/>
<path d="M113.436 111.475L110.465 109.779C110.208 109.625 110.26 109.419 110.516 109.265L111.489 108.699C111.745 108.545 112.155 108.545 112.411 108.648L115.383 110.344C115.639 110.499 115.588 110.704 115.332 110.858L114.358 111.424C114.102 111.578 113.692 111.578 113.436 111.475Z" fill="white"/>
<path d="M117.945 114.097L114.973 112.401C114.717 112.246 114.768 112.041 115.024 111.887L115.998 111.321C116.254 111.167 116.664 111.167 116.92 111.27L119.892 112.966C120.148 113.12 120.097 113.326 119.841 113.48L118.867 114.045C118.611 114.2 118.201 114.2 117.945 114.097Z" fill="white"/>
<path d="M122.454 116.719L119.482 115.022C119.226 114.868 119.277 114.662 119.533 114.508L120.507 113.943C120.763 113.789 121.173 113.789 121.429 113.891L124.401 115.588C124.657 115.742 124.606 115.948 124.349 116.102L123.376 116.667C123.12 116.821 122.71 116.821 122.454 116.719Z" fill="white"/>
<path d="M127.014 119.289L124.042 117.592C123.786 117.438 123.837 117.232 124.093 117.078L125.067 116.513C125.323 116.359 125.733 116.359 125.989 116.461L128.961 118.158C129.217 118.312 129.166 118.518 128.909 118.672L127.936 119.237C127.628 119.443 127.219 119.443 127.014 119.289Z" fill="white"/>
<path d="M82.2335 98.7783L79.2618 97.082C79.0056 96.9278 79.0569 96.7221 79.313 96.5679L82.2335 94.8716C82.4897 94.7174 82.8996 94.7174 83.1557 94.8202L86.1274 96.5165C86.3836 96.6707 86.3324 96.8764 86.0762 97.0306L83.1557 98.7269C82.8996 98.9325 82.4897 98.9325 82.2335 98.7783Z" fill="white"/>
<path d="M86.7935 101.451L83.8219 99.755C83.5657 99.6007 83.6169 99.3951 83.8731 99.2409L86.7935 97.5446C87.0497 97.3904 87.4596 97.3904 87.7158 97.4932L90.6875 99.1895C90.9436 99.3437 90.8924 99.5493 90.6362 99.7035L87.7158 101.4C87.4596 101.554 87.0497 101.554 86.7935 101.451Z" fill="white"/>
<path d="M91.3535 104.073L88.3818 102.377C88.1256 102.222 88.1769 102.017 88.433 101.863L91.3535 100.166C91.6097 100.012 92.0196 100.012 92.2757 100.115L95.2474 101.811C95.5036 101.965 95.4524 102.171 95.1962 102.325L92.2757 104.022C92.0196 104.227 91.6097 104.227 91.3535 104.073Z" fill="white"/>
<path d="M95.9135 106.746L92.9419 105.05C92.6857 104.896 92.7369 104.69 92.9931 104.536L95.9135 102.839C96.1697 102.685 96.5796 102.685 96.8358 102.788L99.8075 104.484C100.064 104.639 100.012 104.844 99.7562 104.998L96.8358 106.695C96.5796 106.849 96.1697 106.849 95.9135 106.746Z" fill="white"/>
<path d="M100.473 109.368L97.5018 107.671C97.2456 107.517 97.2969 107.312 97.553 107.157L100.473 105.461C100.73 105.307 101.14 105.307 101.396 105.41L104.367 107.106C104.624 107.26 104.572 107.466 104.316 107.62L101.396 109.316C101.14 109.47 100.73 109.522 100.473 109.368Z" fill="white"/>
<path d="M105.033 111.989L102.062 110.293C101.806 110.139 101.857 109.933 102.113 109.779L105.033 108.083C105.29 107.928 105.7 107.928 105.956 108.031L108.927 109.727C109.184 109.882 109.132 110.087 108.876 110.242L105.956 111.938C105.7 112.143 105.29 112.143 105.033 111.989Z" fill="white"/>
<path d="M109.593 114.662L106.622 112.966C106.366 112.812 106.417 112.606 106.673 112.452L109.593 110.756C109.85 110.601 110.26 110.601 110.516 110.704L113.487 112.4C113.744 112.555 113.692 112.76 113.436 112.914L110.516 114.611C110.26 114.765 109.85 114.765 109.593 114.662Z" fill="white"/>
<path d="M114.153 117.284L111.182 115.587C110.926 115.433 110.977 115.228 111.233 115.073L114.153 113.377C114.41 113.223 114.82 113.223 115.076 113.326L118.047 115.022C118.304 115.176 118.252 115.382 117.996 115.536L115.076 117.232C114.82 117.387 114.41 117.438 114.153 117.284Z" fill="white"/>
<path d="M118.713 119.906L115.742 118.209C115.486 118.055 115.537 117.849 115.793 117.695L118.713 115.999C118.97 115.845 119.38 115.845 119.636 115.947L122.607 117.644C122.864 117.798 122.812 118.004 122.556 118.158L119.636 119.854C119.38 120.06 118.97 120.06 118.713 119.906Z" fill="white"/>
<path d="M56.2057 99.1382L47.4956 94.1005C47.2395 93.9463 47.2907 93.7407 47.5469 93.5865L50.4673 91.8901C50.7235 91.7359 51.1334 91.7359 51.3896 91.8387L60.0997 96.8764C60.3558 97.0306 60.3046 97.2362 60.0484 97.3904L57.128 99.0868C56.8206 99.241 56.4107 99.241 56.2057 99.1382Z" fill="white"/>
<path d="M112.207 131.574L103.496 126.537C103.24 126.382 103.291 126.177 103.548 126.023L106.468 124.326C106.724 124.172 107.134 124.172 107.39 124.275L116.1 129.313C116.357 129.467 116.305 129.672 116.049 129.827L113.129 131.523C112.821 131.677 112.411 131.729 112.207 131.574Z" fill="white"/>
<path d="M93.9665 126.845L90.9948 125.149C90.7387 124.995 90.7899 124.789 91.0461 124.635L94.5301 122.63C94.7863 122.476 95.1962 122.476 95.4524 122.579L98.424 124.275C98.6802 124.429 98.629 124.635 98.3728 124.789L94.8888 126.794C94.6326 126.948 94.1715 126.999 93.9665 126.845Z" fill="white"/>
<path d="M60.8682 107.671L56.1545 104.947C55.8983 104.793 55.9496 104.587 56.2057 104.433L59.6898 102.428C59.946 102.274 60.3559 102.274 60.612 102.377L65.3257 105.101C65.5819 105.255 65.5307 105.461 65.2745 105.615L61.7905 107.62C61.483 107.774 61.0732 107.826 60.8682 107.671Z" fill="white"/>
<path d="M89.5602 124.275L84.8465 121.55C84.5903 121.396 84.6416 121.191 84.8978 121.036L88.3818 119.032C88.638 118.877 89.0479 118.877 89.304 118.98L94.0177 121.705C94.2739 121.859 94.2227 122.064 93.9665 122.219L90.4825 124.223C90.2263 124.429 89.8164 124.429 89.5602 124.275Z" fill="white"/>
<path d="M67.4264 111.475L62.7127 108.751C62.4565 108.597 62.5077 108.391 62.7639 108.237L66.248 106.232C66.5041 106.078 66.914 106.078 67.1702 106.181L71.8839 108.905C72.1401 109.059 72.0888 109.265 71.8327 109.419L68.3486 111.424C68.0924 111.578 67.6826 111.629 67.4264 111.475Z" fill="white"/>
<path d="M67.2214 106.181L87.767 118.055C88.0232 118.209 88.0232 118.466 87.767 118.569L84.2317 120.625C83.9756 120.779 83.5657 120.779 83.3095 120.625L62.7639 108.751L67.2214 106.181Z" fill="white"/>
<path d="M106.724 131.626L110.003 133.528C110.208 133.63 110.157 133.836 109.952 133.99L108.518 134.813C108.313 134.967 107.954 134.967 107.749 134.864L104.47 132.962C104.265 132.859 104.316 132.654 104.521 132.5L105.956 131.677C106.161 131.523 106.519 131.523 106.724 131.626Z" fill="white"/>
<path d="M102.113 128.953L105.392 130.855C105.597 130.957 105.546 131.163 105.341 131.317L103.906 132.14C103.701 132.294 103.343 132.294 103.138 132.191L99.8586 130.289C99.6537 130.186 99.7049 129.981 99.9099 129.827L101.344 129.004C101.549 128.85 101.908 128.85 102.113 128.953Z" fill="white"/>
<path d="M97.5531 126.331L100.832 128.233C101.037 128.336 100.986 128.541 100.781 128.696L99.3463 129.518C99.1414 129.672 98.7827 129.672 98.5778 129.57L95.2987 127.668C95.0937 127.565 95.145 127.359 95.3499 127.205L96.7845 126.382C96.9895 126.228 97.3481 126.228 97.5531 126.331Z" fill="white"/>
<path d="M104.624 127.513L107.903 129.415C108.108 129.518 108.056 129.724 107.851 129.878L106.417 130.7C106.212 130.855 105.853 130.855 105.648 130.752L102.369 128.85C102.164 128.747 102.216 128.542 102.42 128.387L103.855 127.565C104.111 127.411 104.419 127.411 104.624 127.513Z" fill="white"/>
<path d="M67.6313 136.561C66.8628 136.561 66.0943 136.406 65.5307 136.047L42.6282 122.784C42.0134 122.424 41.706 121.962 41.706 121.396C41.706 120.779 42.1671 120.163 42.9357 119.7L54.7199 112.863C56.1545 112.041 58.2552 111.938 59.4848 112.658L82.3873 125.92C83.0021 126.28 83.3095 126.742 83.3095 127.308C83.3095 127.925 82.8484 128.541 82.0798 129.004L70.2956 135.841C69.5271 136.304 68.6048 136.561 67.6313 136.561ZM65.8381 135.584C66.914 136.201 68.8098 136.098 70.0394 135.378L81.8237 128.541C82.4385 128.182 82.7971 127.719 82.7971 127.308C82.7971 126.897 82.4385 126.588 82.1823 126.434L59.2799 113.172C58.2039 112.555 56.3082 112.658 55.0786 113.377L43.2943 120.214C42.6795 120.574 42.3208 121.036 42.3208 121.448C42.3208 121.859 42.6795 122.167 42.9357 122.322L65.8381 135.584Z" fill="white"/>
<path d="M110.926 33.8548L105.546 30.7192C105.033 30.4107 104.777 29.7425 104.931 29.177C105.085 28.6116 105.648 28.406 106.161 28.663L111.54 31.7987C112.053 32.1071 112.309 32.7753 112.155 33.3408C111.95 33.9062 111.438 34.1633 110.926 33.8548Z" fill="white"/>
<path d="M123.786 41.3085L115.844 36.6821C115.332 36.3736 115.076 35.7054 115.229 35.1399C115.383 34.5745 115.947 34.3689 116.459 34.6259L124.401 39.2523C124.913 39.5607 125.169 40.229 125.015 40.7944C124.811 41.3599 124.298 41.5655 123.786 41.3085Z" fill="white"/>
<path d="M100.064 57.9635L94.6838 54.8278C94.1714 54.5194 93.9153 53.8511 94.069 53.2857C94.2227 52.7202 94.7863 52.5146 95.2986 52.7716L100.678 55.9073C101.191 56.2157 101.447 56.884 101.293 57.4494C101.088 58.0149 100.525 58.2205 100.064 57.9635Z" fill="white"/>
<path d="M111.489 64.5946L103.548 59.9682C103.035 59.6598 102.779 58.9915 102.933 58.4261C103.087 57.8606 103.65 57.655 104.163 57.912L112.104 62.5384C112.616 62.8468 112.873 63.5151 112.719 64.0805C112.565 64.646 112.002 64.903 111.489 64.5946Z" fill="white"/>
<path d="M94.735 29.5368L91.3535 27.5834C90.8411 27.275 90.5849 26.6067 90.7386 26.0413C90.8923 25.4758 91.4559 25.2702 91.9683 25.5273L95.3499 27.4806C95.8622 27.789 96.1184 28.4573 95.9647 29.0228C95.811 29.6396 95.2474 29.8452 94.735 29.5368Z" fill="white"/>
<path d="M104.88 40.4859L94.5814 34.523C94.069 34.2146 93.8128 33.5463 93.9665 32.9809C94.1202 32.4154 94.6838 32.2098 95.1962 32.4668L105.495 38.4297C106.007 38.7382 106.263 39.4064 106.109 39.9719C105.956 40.5373 105.392 40.7943 104.88 40.4859Z" fill="white"/>
<path d="M95.4011 45.1124L92.0195 43.159C91.5072 42.8506 91.251 42.1823 91.4047 41.6169C91.5584 41.0514 92.122 40.8458 92.6344 41.1028L96.0159 43.0562C96.5283 43.3646 96.7845 44.0329 96.6308 44.5983C96.4258 45.2152 95.9135 45.4208 95.4011 45.1124Z" fill="white"/>
<path d="M112.719 75.4409L103.701 70.2491C103.189 69.9406 102.933 69.2724 103.087 68.7069C103.24 68.1415 103.804 67.9359 104.316 68.1929L113.334 73.3847C113.846 73.6932 114.102 74.3614 113.949 74.9269C113.795 75.4923 113.231 75.7493 112.719 75.4409Z" fill="white"/>
<path d="M91.6097 53.0801L89.4578 51.8464C88.9454 51.5379 88.6892 50.8697 88.8429 50.3042C88.9967 49.7388 89.5603 49.5332 90.0726 49.7902L92.2245 51.0239C92.7369 51.3323 92.993 52.0006 92.8393 52.566C92.6856 53.1315 92.122 53.3885 91.6097 53.0801Z" fill="white"/>
<path d="M89.5602 62.0244L86.896 60.4822C86.3836 60.1738 86.1274 59.5055 86.2811 58.9401C86.4348 58.3747 86.9984 58.169 87.5108 58.4261L90.175 59.9682C90.6874 60.2766 90.9436 60.9449 90.7899 61.5103C90.6362 62.0758 90.0726 62.3328 89.5602 62.0244Z" fill="white"/>
<path d="M100.012 68.0901L92.9418 63.9777C92.4295 63.6693 92.1733 63.001 92.327 62.4356C92.4807 61.8701 93.0443 61.6645 93.5567 61.9215L100.627 66.0339C101.14 66.3423 101.396 67.0106 101.242 67.576C101.088 68.1415 100.525 68.3471 100.012 68.0901Z" fill="white"/>
<path d="M90.6874 67.7303L85.6151 64.8002C85.1027 64.4918 84.8465 63.8235 85.0002 63.2581C85.1539 62.6926 85.7175 62.487 86.2299 62.744L91.3022 65.6741C91.8146 65.9825 92.0708 66.6508 91.9171 67.2162C91.7634 67.8331 91.1998 68.0387 90.6874 67.7303Z" fill="white"/>
<path d="M120.455 79.9645L117.176 78.0626C116.664 77.7541 116.408 77.0859 116.562 76.5204C116.715 75.955 117.279 75.7494 117.791 76.0064L121.07 77.9083C121.583 78.2168 121.839 78.885 121.685 79.4505C121.531 80.0159 120.968 80.2215 120.455 79.9645Z" fill="white"/>
<path d="M107.954 52.4117L98.9364 47.2199C98.4241 46.9115 98.1679 46.2432 98.3216 45.6778C98.4753 45.1123 99.0389 44.9067 99.5512 45.1637L108.569 50.3556C109.081 50.664 109.337 51.3323 109.184 51.8977C108.979 52.4632 108.466 52.6688 107.954 52.4117Z" fill="white"/>
<path d="M109.03 47.9396L93.3517 38.841C92.8393 38.5326 92.5832 37.8643 92.7369 37.2989C92.8906 36.7334 93.4542 36.5278 93.9665 36.7848L109.645 45.8834C110.157 46.1918 110.413 46.8601 110.26 47.4255C110.055 47.991 109.491 48.248 109.03 47.9396Z" fill="white"/>
<path d="M99.7562 52.7201L90.7387 47.5282C90.2263 47.2198 89.9701 46.5516 90.1238 45.9861C90.2775 45.4207 90.8411 45.2151 91.3535 45.4721L100.371 50.6639C100.883 50.9723 101.14 51.6406 100.986 52.206C100.781 52.7715 100.269 53.0285 99.7562 52.7201Z" fill="white"/>
<path d="M114.768 56.3698L111.489 54.4678C110.977 54.1594 110.721 53.4911 110.874 52.9257C111.028 52.3602 111.592 52.1546 112.104 52.4117L115.383 54.3136C115.895 54.622 116.152 55.2903 115.998 55.8557C115.793 56.4212 115.281 56.6268 114.768 56.3698Z" fill="white"/>
<path d="M148.072 55.3417L128.704 44.1355C128.192 43.8271 127.936 43.1589 128.09 42.5934C128.243 42.028 128.807 41.8224 129.319 42.0794L148.686 53.2855C149.199 53.594 149.455 54.2622 149.301 54.8277C149.096 55.3931 148.533 55.6501 148.072 55.3417Z" fill="white"/>
<path d="M98.9877 62.4356L88.1769 56.1642C87.6645 55.8558 87.4084 55.1876 87.5621 54.6221C87.7158 54.0567 88.2794 53.851 88.7917 54.1081L99.6025 60.3794C100.115 60.6878 100.371 61.3561 100.217 61.9215C100.064 62.487 99.5 62.6926 98.9877 62.4356Z" fill="white"/>
<path d="M100.627 27.8918L92.6856 23.2654C92.1733 22.957 91.9171 22.2888 92.0708 21.7233C92.2245 21.1579 92.7881 20.9522 93.3005 21.2093L101.242 25.8357C101.754 26.1441 102.011 26.8123 101.857 27.3778C101.652 27.9432 101.14 28.2003 100.627 27.8918Z" fill="white"/>
<path d="M89.0479 71.8426L79.8255 66.4965C79.3131 66.1881 79.0569 65.5198 79.2106 64.9544C79.3643 64.3889 79.9279 64.1833 80.4403 64.4403L89.6627 69.7864C90.1751 70.0948 90.4313 70.7631 90.2776 71.3285C90.0726 71.894 89.5603 72.151 89.0479 71.8426Z" fill="white"/>
<path d="M99.4488 94.9746L99.3463 90.965L103.394 66.9078L98.629 64.132L89.4066 69.5808L90.2263 100.423C90.2776 102.48 91.0973 103.868 92.2758 104.279L96.5283 106.798L96.9895 104.793L97.6043 101.143C98.7827 99.3953 99.5 97.0821 99.4488 94.9746Z" fill="#3099F2"/>
<path d="M99.7562 106.643C97.1944 108.134 95.0938 106.592 94.9913 103.199L94.1715 72.3567L103.394 66.9078L104.214 97.7504C104.265 101.143 102.267 105.153 99.7562 106.643Z" fill="#2173AA"/>
<path d="M115.229 49.2761C115.229 45.2152 112.411 40.2804 108.876 38.2756C107.544 37.5045 106.314 37.2475 105.341 37.4531L82.0798 41.8739L98.7827 70.7117L114.153 52.7202C114.82 52.0006 115.229 50.8183 115.229 49.2761Z" fill="#3099F2"/>
<path d="M99.5 40.8971C97.7068 39.8691 96.016 39.4064 94.5301 39.5606L93.3517 39.7663C90.9436 40.5373 89.4066 42.9533 89.4066 46.7572C89.4066 53.1828 93.9153 61.0477 99.5 64.2861C100.832 65.0572 102.062 65.4684 103.24 65.6226L109.593 58.169C109.44 51.7435 104.982 44.0328 99.5 40.8971Z" fill="#2173AA"/>
<path d="M106.98 60.9448C106.98 52.8743 101.344 43.1075 94.3764 39.098C91.1998 37.2474 88.3306 36.939 86.1274 37.9157H86.0762C86.0762 37.9157 86.025 37.9157 86.025 37.9671C85.9225 38.0185 85.82 38.0699 85.7176 38.1213C72.6012 44.5982 58.0502 47.6825 43.3967 47.117L39.2466 46.9628L73.0111 104.998L74.8556 101.451C81.5162 88.549 91.251 77.4456 103.24 69.2209C105.546 67.8844 106.98 65.0058 106.98 60.9448Z" fill="#3099F2"/>
<path d="M76.9563 91.8389C76.9563 76.4176 66.1455 57.6036 52.8242 49.8929C46.1636 46.0376 40.169 45.6777 35.8139 48.1966C35.8139 48.1966 35.8139 48.1966 35.7627 48.1966L31.7663 50.5612L33.1497 50.2527C30.3317 53.1828 28.6921 57.8092 28.6921 63.8749C28.6921 79.2962 39.5029 98.1102 52.8242 105.821C58.0503 108.854 62.9177 109.728 66.8629 108.751L66.248 109.676L69.8858 107.517C69.8858 107.517 69.937 107.517 69.937 107.466L70.0907 107.414C74.3433 104.844 76.9563 99.4467 76.9563 91.8389Z" fill="#3099F2"/>
<path d="M74.1383 93.4839C74.1383 78.0626 63.3276 59.2486 50.0063 51.5379C43.4481 47.734 37.5047 47.3227 33.1497 49.7388L32.5348 50.0986C32.3299 50.2528 32.1249 50.3556 31.92 50.5098L33.1497 50.2528C30.3317 53.1828 28.6921 57.8092 28.6921 63.875C28.6921 79.2963 39.5029 98.1103 52.8242 105.821C58.0503 108.854 62.9177 109.728 66.8628 108.751L66.2992 109.573C71.1154 107.26 74.1383 101.657 74.1383 93.4839Z" fill="white"/>
<path d="M66.2358 109.62C75.6702 104.155 75.6796 86.4511 66.2568 70.0771C56.834 53.7031 41.5471 44.8596 32.1127 50.3246C22.6783 55.7897 22.6689 73.4937 32.0917 89.8677C41.5145 106.242 56.8013 115.085 66.2358 109.62Z" fill="#3099F2"/>
<path d="M64.1607 106.014C72.4434 101.217 72.4482 85.6677 64.1714 71.2851C55.8946 56.9025 42.4704 49.1326 34.1878 53.9305C25.9051 58.7283 25.9003 74.2772 34.1771 88.6598C42.4539 103.042 55.878 110.812 64.1607 106.014Z" fill="#3099F2"/>
<path opacity="0.5" d="M52.8242 102.685C51.0822 101.657 49.3402 100.423 47.7519 99.0355C44.3703 96.1055 43.9604 90.9136 46.8809 87.4695C50.3649 83.4086 55.9496 77.9083 64.5572 71.9968C60.7145 65.0572 55.2323 58.9401 49.1865 55.4446C44.0117 52.4632 39.298 51.8463 35.6602 53.2856C35.6602 53.2856 35.6602 53.2856 35.609 53.2856C35.4553 53.337 35.3528 53.3884 35.1991 53.4399C35.1991 53.4399 35.1479 53.4399 35.1479 53.4913C35.0454 53.5427 34.8917 53.5941 34.7892 53.6455C34.7892 53.6455 34.738 53.6455 34.738 53.6969C34.5843 53.7483 34.4818 53.8511 34.3281 53.9025C34.3281 53.9025 34.3281 53.9025 34.2768 53.9025C33.9694 54.0567 33.7132 54.2623 33.4571 54.4165C33.3546 54.5193 33.2009 54.5708 33.0984 54.6736L33.0472 54.725C32.9447 54.8278 32.8422 54.8792 32.7398 54.982L32.6885 55.0334C32.5861 55.1362 32.4836 55.239 32.3811 55.2904L32.3299 55.3418C32.0737 55.5474 31.8688 55.8045 31.6638 56.0615C31.6638 56.0615 31.6638 56.0615 31.6126 56.1129C31.5101 56.2157 31.4076 56.3185 31.3052 56.4727C31.3052 56.5241 31.2539 56.5241 31.2539 56.5755C31.1515 56.6783 31.1002 56.7811 30.9977 56.8839C30.9977 56.9353 30.9465 56.9354 30.9465 56.9868C30.8953 57.0896 30.7928 57.1924 30.7416 57.2952C30.7416 57.3466 30.6903 57.3466 30.6903 57.398C30.5879 57.5522 30.5366 57.655 30.4342 57.8092C30.3317 57.9634 30.2292 58.1177 30.178 58.2719C30.178 58.2719 30.178 58.3233 30.1267 58.3233C30.0755 58.4775 29.973 58.5803 29.9218 58.7345C29.9218 58.7859 29.8706 58.8373 29.8706 58.8887C29.8193 58.9915 29.7681 59.1457 29.7169 59.2485C29.7169 59.3 29.6656 59.3514 29.6656 59.4028C29.6144 59.5056 29.5631 59.6598 29.5119 59.7626C29.5119 59.814 29.4607 59.8654 29.4607 59.9168C29.4094 60.071 29.3582 60.1738 29.307 60.328C29.307 60.3794 29.307 60.3794 29.2557 60.4308C29.2045 60.5851 29.1533 60.7907 29.0508 60.9963V61.0477C28.9995 61.2019 28.9483 61.3561 28.8971 61.5103C28.8971 61.5617 28.8458 61.6131 28.8458 61.6646C28.7946 61.8188 28.7946 61.9216 28.7434 62.0758C28.7434 62.1272 28.6921 62.23 28.6921 62.2814C28.6409 62.4356 28.6409 62.5384 28.5897 62.6926C28.5897 62.744 28.5384 62.8469 28.5384 62.8983C28.4872 63.0525 28.4872 63.2067 28.436 63.3095C28.436 63.3609 28.436 63.4123 28.3847 63.4637C28.3335 63.6693 28.3335 63.8749 28.2822 64.0806V64.132C28.2822 64.3376 28.231 64.4918 28.231 64.6974C28.231 64.7488 28.231 64.8516 28.231 64.903C28.231 65.0572 28.1798 65.2115 28.1798 65.3657C28.1798 65.4685 28.1798 65.5199 28.1798 65.6227C28.1798 65.7769 28.1798 65.9311 28.1285 66.0339C28.1285 66.1367 28.1285 66.1881 28.1285 66.2909C28.1285 66.4452 28.1285 66.5994 28.1285 66.7536C28.1285 66.805 28.1285 66.9078 28.1285 66.9592C28.1285 67.1648 28.1285 67.4218 28.1285 67.6789C28.1285 68.0387 28.1285 68.4499 28.1285 68.8098C28.1285 68.964 28.1285 69.0668 28.1285 69.221C28.1285 69.478 28.1798 69.735 28.1798 69.9921C28.1798 70.1463 28.1798 70.2491 28.231 70.4033C28.2822 70.7117 28.2822 71.0201 28.3335 71.3286C28.3335 71.4314 28.3335 71.5342 28.3847 71.637C28.436 71.9968 28.4872 72.4081 28.5384 72.7679C28.5384 72.9221 28.5897 73.0763 28.6409 73.2305C28.6921 73.4876 28.7434 73.6932 28.7434 73.9502C28.7946 74.1558 28.7946 74.31 28.8458 74.5156C28.8971 74.7213 28.9483 74.9269 28.9995 75.1325C29.0508 75.3381 29.102 75.4923 29.102 75.6979C29.1533 76.0064 29.2557 76.3148 29.307 76.6232C29.3582 76.8802 29.4607 77.1887 29.5119 77.4457C29.5631 77.5999 29.6144 77.7541 29.6656 77.9083C29.7169 78.1654 29.8193 78.371 29.8706 78.628C29.9218 78.7822 29.973 78.885 29.973 79.0392C30.2804 79.9645 30.5879 80.8384 30.9465 81.7637C30.9465 81.8151 30.9977 81.8665 30.9977 81.9179C31.1002 82.2263 31.2539 82.4833 31.3564 82.7918C31.4076 82.8432 31.4076 82.946 31.4589 82.9974C35.2503 91.9417 41.8085 100.218 49.2377 104.536C55.7447 108.288 61.5856 108.288 65.4795 105.153C61.893 106.129 57.5379 105.41 52.8242 102.685Z" fill="#380031"/>
<path d="M50.16 104.073C38.4782 97.2878 28.9995 80.8384 28.9995 67.2677C28.9995 60.1739 31.6126 55.239 35.8139 53.1829C31.049 54.9306 28.0261 60.0196 28.0261 67.6789C28.0261 81.2496 37.5047 97.6991 49.1865 104.484C54.7199 107.723 59.7923 108.134 63.5837 106.284C59.946 107.672 55.2835 107.055 50.16 104.073Z" fill="white"/>
<path d="M92.532 85.8759L92.3783 85.7731C92.0709 85.6189 91.8147 85.6189 91.6098 85.7731L90.5338 86.4414L91.2511 86.5442C91.2511 86.5956 91.2511 86.647 91.2511 86.647L91.4561 92.6099C91.5073 93.4324 92.0197 94.3577 92.6345 94.7175L92.4295 95.54L93.5055 94.8717C93.7617 94.7689 93.9154 94.4091 93.9154 93.9464L93.7104 87.9835C93.6592 87.1096 93.1468 86.1844 92.532 85.8759Z" fill="#166091"/>
<path opacity="0.5" d="M92.532 85.8759L92.3783 85.7731C92.0709 85.6189 91.8147 85.6189 91.6098 85.7731L90.5338 86.4414L91.2511 86.5442C91.2511 86.5956 91.2511 86.647 91.2511 86.647L91.4561 92.6099C91.5073 93.4324 92.0197 94.3577 92.6345 94.7175L92.4295 95.54L93.5055 94.8717C93.7617 94.7689 93.9154 94.4091 93.9154 93.9464L93.7104 87.9835C93.6592 87.1096 93.1468 86.1844 92.532 85.8759Z" fill="#166091"/>
<path d="M91.7122 95.4373L91.5585 95.3344C90.9436 94.9746 90.4313 94.0493 90.38 93.2269L90.1751 87.264C90.1239 86.4415 90.6362 86.0303 91.2511 86.3901L91.4048 86.4929C92.0196 86.8527 92.532 87.778 92.5832 88.6005L92.7881 94.5634C92.7881 95.3859 92.327 95.7971 91.7122 95.4373Z" fill="#166091"/>
</svg>
