<svg width="224" height="158" viewBox="0 0 224 158" fill="none" xmlns="http://www.w3.org/2000/svg">
<path d="M216.784 81.7132L161.397 49.6243C158.37 47.8846 153.153 48.0779 149.675 50.0754L33.5546 117.024C30.0768 119.021 29.6903 122.05 32.7173 123.79L88.1049 155.878C91.1319 157.618 96.3487 157.425 99.8265 155.427L216.012 88.5434C219.425 86.4814 219.811 83.453 216.784 81.7132Z" fill="#EFEFEF"/>
<path d="M86.4304 142.734L28.8531 109.356C26.9854 108.261 26.0837 106.779 26.1481 105.232V96.8557L29.3683 100.593C29.5615 100.464 29.7548 100.335 30.0124 100.206L147.872 32.3558C152.574 29.6495 159.594 29.3917 163.651 31.7114L220.455 64.6379C221.615 63.3492 223.998 60.7074 223.998 60.7074V68.8907C224.062 70.7593 222.774 72.6924 220.133 74.2388L102.274 142.089C97.5723 144.796 90.4879 145.053 86.4304 142.734Z" fill="#333639"/>
<path d="M147.808 32.3558C152.509 29.6495 159.529 29.3917 163.587 31.7114L220.391 64.6379C221.55 63.3492 223.933 60.7074 223.933 60.7074V68.8907C223.998 70.7593 222.71 72.6924 220.069 74.2388L102.209 142.089C99.7621 143.507 96.6707 144.216 93.7081 144.28L93.8369 63.4137L147.808 32.3558Z" fill="#50565B"/>
<path d="M221.228 56.7123L163.651 23.3347C159.593 21.015 152.509 21.2728 147.872 23.979L30.0123 91.8296C25.3108 94.5359 24.7955 98.5953 28.853 100.979L86.4303 134.357C90.4878 136.677 97.5722 136.419 102.209 133.713L220.069 65.8621C224.77 63.0914 225.286 59.032 221.228 56.7123Z" fill="#D4ECFF"/>
<path d="M86.4304 135.195L28.7887 101.817C26.7278 100.593 25.8261 98.9174 26.1481 97.2421C26.2769 98.5953 27.1142 99.9484 28.8531 100.915L86.4304 134.293C90.4879 136.612 97.5723 136.354 102.209 133.648L220.069 65.7976C222.323 64.5089 223.611 62.8336 223.869 61.2871C223.998 63.1557 222.71 65.1532 220.005 66.6997L102.145 134.55C97.5079 137.257 90.4235 137.514 86.4304 135.195Z" fill="white"/>
<path d="M216.784 58.0009L161.397 25.9121C158.37 24.1723 153.153 24.3656 149.675 26.3631L33.5546 93.3116C30.0768 95.3091 29.6903 98.3376 32.7173 100.077L88.1049 132.166C91.1319 133.906 96.3487 133.713 99.8265 131.715L216.012 64.8311C219.425 62.7692 219.811 59.7407 216.784 58.0009Z" fill="white"/>
<path d="M77.4138 26.6209L50.9437 11.6718C49.9132 11.0919 48.0455 11.1564 46.8218 11.8651L31.6869 20.8217C30.4632 21.5305 30.3344 22.6259 31.4292 23.2058L57.8994 38.1548C58.9298 38.7348 60.7975 38.6703 62.0212 37.9615L77.0918 29.005C78.3155 28.2318 78.4443 27.2008 77.4138 26.6209Z" fill="#EFEFEF"/>
<path d="M56.9977 32.2268L29.6259 16.8267C29.1107 16.5045 28.8531 16.1179 28.7887 15.6668V12.6384C28.7887 12.6384 29.7547 13.4116 30.3344 13.8626L47.3371 3.81071C48.754 2.97305 50.8149 2.90861 52.0386 3.55297L78.1867 18.3087L80.1832 17.1489L80.2476 20.2418C80.2476 20.7572 79.8612 21.3372 79.1527 21.7882L61.7636 32.0979C60.2823 32.8067 58.157 32.9356 56.9977 32.2268Z" fill="#5793CE"/>
<path d="M79.3464 15.8602L52.039 0.460079C50.8154 -0.248712 48.69 -0.119841 47.3375 0.717821L29.9484 11.0275C28.5315 11.8652 28.4027 13.0894 29.6264 13.7338L56.9338 29.1339C58.1574 29.8427 60.2828 29.7138 61.6353 28.8761L79.0244 18.5665C80.4413 17.7932 80.5701 16.569 79.3464 15.8602Z" fill="#D4ECFF"/>
<path d="M56.9333 29.1338L29.6259 13.7337C28.9175 13.3471 28.7242 12.7672 28.853 12.1873C28.9819 12.445 29.1751 12.7027 29.5615 12.896L56.8689 28.2961C58.0925 29.0049 60.2179 28.8761 61.5704 28.0384L78.9595 17.7287C79.5391 17.4065 79.9256 16.9555 80.0544 16.5044C80.3764 17.1488 80.0544 17.922 79.0239 18.5019L61.6348 28.8116C60.2823 29.7137 58.1569 29.7782 56.9333 29.1338Z" fill="white"/>
<path d="M50.6861 11.8651C51.7165 11.2852 51.6521 10.3186 50.6861 9.73873C49.6556 9.15881 48.0455 9.15881 47.015 9.80316C45.9846 10.3831 46.049 11.3496 47.015 11.9295C48.0455 12.5095 49.6556 12.445 50.6861 11.8651Z" fill="white"/>
<path d="M56.2248 15.0224C57.2553 14.4425 57.1909 13.476 56.2248 12.8961C55.1943 12.3162 53.5842 12.3162 52.5538 12.9605C51.5233 13.5404 51.5877 14.507 52.5538 15.0869C53.5842 15.6024 55.2587 15.6024 56.2248 15.0224Z" fill="white"/>
<path d="M61.828 18.1798C62.8585 17.5999 62.7941 16.6333 61.828 16.0534C60.7975 15.4735 59.1874 15.4735 58.157 16.1179C57.1265 16.6978 57.1909 17.6643 58.157 18.2442C59.1874 18.7597 60.8619 18.7597 61.828 18.1798Z" fill="white"/>
<path d="M17.84 153.108C25.7008 153.108 32.0733 149.415 32.0733 144.86C32.0733 140.305 25.7008 136.612 17.84 136.612C9.9791 136.612 3.60663 140.305 3.60663 144.86C3.60663 149.415 9.9791 153.108 17.84 153.108Z" fill="#EFEFEF"/>
<path d="M35.6799 137.837V134.55H34.7138C33.8766 133.068 32.4597 131.715 30.4632 130.555C23.5075 126.56 12.2368 126.56 5.28114 130.555C3.28461 131.715 1.86772 133.068 1.03047 134.55H0V137.772C0 140.414 1.73891 143.056 5.21674 145.053C12.1724 149.048 23.4431 149.048 30.3988 145.053C33.941 143.12 35.6799 140.478 35.6799 137.837Z" fill="#173D7A"/>
<path d="M17.84 144.924C27.6927 144.924 35.6799 140.309 35.6799 134.615C35.6799 128.921 27.6927 124.305 17.84 124.305C7.98722 124.305 0 128.921 0 134.615C0 140.309 7.98722 144.924 17.84 144.924Z" fill="#5793CE"/>
<path d="M30.4632 141.896C23.5075 145.891 12.2368 145.891 5.28113 141.896C1.93211 139.963 0.257599 137.45 0.0643868 134.937C-0.0644216 137.708 1.61009 140.478 5.28113 142.54C12.2368 146.535 23.5075 146.535 30.4632 142.54C34.0698 140.478 35.8087 137.708 35.6799 134.937C35.4867 137.45 33.7478 139.963 30.4632 141.896Z" fill="white"/>
<path d="M9.2098 137.965C8.88778 137.772 8.75897 137.579 8.75897 137.321V130.62C8.75897 130.104 9.46742 129.718 10.3691 129.718C11.2707 129.718 11.9792 130.104 11.9792 130.62V136.161L28.1446 134.164C28.9819 134.035 29.8835 134.357 30.0768 134.872C30.27 135.388 29.6903 135.839 28.8531 135.968L10.7555 138.159C10.3047 138.223 9.78944 138.159 9.40301 137.965C9.33861 138.03 9.27421 138.03 9.2098 137.965Z" fill="white"/>
<path d="M104.399 62.5114C106.074 63.4779 108.843 63.4779 110.518 62.5114C110.904 62.3181 111.162 62.0604 111.355 61.8026L122.819 68.4395L134.605 61.6737C133.896 61.5449 133.188 61.3516 132.608 61.0294C130.934 60.0629 130.934 58.452 132.608 57.4854C134.283 56.5189 137.052 56.5189 138.727 57.4854C139.306 57.8076 139.693 58.1942 139.821 58.6453L151.543 51.8795L128.551 38.6058L99.8265 55.1658L105.623 58.5164C105.172 58.6453 104.786 58.7741 104.399 59.0319C102.725 59.934 102.725 61.5449 104.399 62.5114Z" fill="#EFEFEF"/>
<path d="M190.443 79.3935L165.519 65.0244L153.797 71.7901C153.604 71.4035 153.218 70.9525 152.702 70.6303C151.028 69.6638 148.258 69.6638 146.584 70.6303C144.909 71.5968 144.909 73.2077 146.584 74.1743C147.164 74.4964 147.808 74.6897 148.58 74.8186L136.859 81.5843L148.902 88.5434C148.967 87.9635 149.353 87.3835 150.191 86.9325C151.865 85.966 154.634 85.966 156.309 86.9325C157.983 87.899 157.983 89.5099 156.309 90.4764C155.536 90.9275 154.506 91.1852 153.54 91.1852L161.848 95.9535L190.443 79.3935C190.443 79.458 190.443 79.458 190.443 79.3935Z" fill="#EFEFEF"/>
<path d="M98.9892 86.9325C98.4095 86.6103 97.7655 86.417 97.057 86.2882L108.779 79.5224L97.2503 72.8856C97.0571 73.1433 96.735 73.4011 96.413 73.5944C94.7385 74.5609 91.9691 74.5609 90.2946 73.5944C88.6201 72.6278 88.6201 71.0169 90.2946 70.0504C90.681 69.8571 91.0675 69.6638 91.5183 69.5349L83.2102 64.7023L54.4859 81.2622C54.6791 81.3911 54.8723 81.5844 55.1299 81.7132L80.0544 96.1468L91.7759 89.3811C91.9691 89.7677 92.3555 90.1543 92.8708 90.4765C94.5453 91.443 97.3147 91.443 98.9892 90.4765C100.664 89.5099 100.664 87.8991 98.9892 86.9325Z" fill="#EFEFEF"/>
<path d="M140.143 98.5954C141.174 98.531 142.14 98.3376 142.913 97.8866C144.587 96.9201 144.587 95.3092 142.913 94.3426C141.238 93.3761 138.469 93.3761 136.794 94.3426C136.022 94.7937 135.571 95.3736 135.506 95.9535L123.463 88.9945L111.741 95.7602C112.45 95.8891 113.094 96.0824 113.673 96.4046C115.348 97.3711 115.348 98.982 113.673 99.9485C111.999 100.915 109.229 100.915 107.555 99.9485C106.975 99.6264 106.653 99.2397 106.46 98.8531L94.7385 105.619L119.663 120.052C119.727 120.117 119.792 120.117 119.856 120.117L148.645 103.557L140.143 98.5954Z" fill="#EFEFEF"/>
<path d="M149.869 32.6135L127.456 19.6619C124.944 18.1799 120.822 18.1799 118.246 19.6619L94.7386 33.2578L88.0405 30.5515V37.1884L98.9248 43.5031V47.8847C98.8604 48.7223 99.3757 49.4956 100.471 50.1399C102.531 51.2998 105.88 51.2998 107.877 50.1399C108.328 49.8822 108.65 49.56 108.907 49.3023L122.819 57.3567L137.052 48.9801V43.1165C138.791 42.8587 140.723 43.1165 142.076 43.8897C142.784 44.2763 143.235 44.7918 143.428 45.2428L157.661 37.0595V30.4871L149.869 32.6135Z" fill="#2686C6"/>
<path d="M135.764 42.9231L135.506 43.2453H135.635L122.883 50.6554L108.972 42.5365C108.714 42.8587 108.392 43.1164 107.941 43.3742C105.88 44.534 102.531 44.534 100.535 43.3742C99.6977 42.9231 99.2468 42.2788 99.0536 41.6989C98.796 42.6009 99.3112 43.5675 100.535 44.2763C102.596 45.4361 105.945 45.4361 107.941 44.2763C108.392 44.0185 108.714 43.6964 108.972 43.4386L122.883 51.493L137.116 43.3097V42.4076L135.764 42.9231Z" fill="white"/>
<path d="M137.052 42.4077C136.15 42.2788 135.378 42.0211 134.669 41.6344C132.608 40.4746 132.608 38.5415 134.669 37.3173C136.73 36.1574 140.079 36.1574 142.076 37.3173C142.784 37.7039 143.235 38.2194 143.428 38.6704L157.661 30.4871L127.456 13.0251C124.944 11.5431 120.822 11.5431 118.246 13.0251L88.0405 30.4871L101.952 38.5415C101.437 38.6704 100.921 38.8637 100.471 39.1215C98.4096 40.2813 98.4096 42.2144 100.471 43.4386C102.531 44.5985 105.88 44.5985 107.877 43.4386C108.328 43.1809 108.65 42.8587 108.907 42.601L122.819 50.6554L137.052 42.4077Z" fill="#3099F2"/>
<path d="M101.952 38.5415L88.0405 30.4871V31.3892L100.986 38.8637C101.308 38.7348 101.63 38.6059 101.952 38.5415Z" fill="white"/>
<path d="M143.492 38.6704C143.235 38.1549 142.784 37.7038 142.14 37.3172C140.079 36.1574 136.73 36.1574 134.734 37.3172C133.51 38.026 132.995 38.9925 133.252 39.8946C133.381 39.2503 133.896 38.6704 134.734 38.2193C136.794 37.0595 140.143 37.0595 142.14 38.2193C142.848 38.6059 143.299 39.1214 143.492 39.5725L157.726 31.3892V30.4871L143.492 38.6704Z" fill="white"/>
<path d="M192.762 59.2251L165.712 43.5673L151.479 51.7506C151.221 51.2351 150.77 50.784 150.126 50.3974C149.418 50.0108 148.516 49.6886 147.614 49.6242C147.164 49.0443 145.618 47.1756 145.489 47.1756C145.296 47.1112 141.174 45.9514 141.174 45.9514V52.5882C141.174 53.3615 141.689 54.1991 142.72 54.779C143.428 55.1657 144.201 55.4234 145.103 55.5523L137.954 59.6761L130.869 57.1632V63.8L145.553 72.1766C145.618 71.4678 146.133 70.759 147.099 70.2436C148.194 69.5992 149.675 69.3415 151.157 69.3415V75.3984L165.776 83.8395L195.982 66.3774C197.27 65.6042 197.914 64.6377 197.85 63.6711V57.2276L192.762 59.2251Z" fill="#396CAA"/>
<path d="M145.553 60.4493V72.1766C145.618 71.4678 146.133 70.759 147.099 70.2435C149.16 69.0837 152.509 69.0837 154.506 70.2435C154.956 70.5013 155.278 70.759 155.536 71.0812C156.631 70.759 157.79 70.5657 158.949 70.5013V60.4493H145.553Z" fill="#173D7A"/>
<path d="M165.712 43.6317L165.583 43.6962V83.775L165.712 83.8395L195.918 66.3775C197.206 65.6042 197.85 64.6377 197.785 63.6712V57.2276L192.697 59.2895L165.712 43.6317Z" fill="#173D7A"/>
<path d="M151.092 70.6947V68.826L152.767 69.7281L151.092 70.6947Z" fill="#396CAA"/>
<path d="M197.785 57.5498C197.592 58.3875 197.012 59.1607 195.918 59.7406L165.712 77.2026L152.96 69.857C152.96 69.6637 152.896 69.2771 152.896 69.2771L151.092 68.826V69.7281L165.712 78.1692L195.918 60.7071C197.399 59.805 198.043 58.6452 197.785 57.5498Z" fill="white"/>
<path d="M195.918 54.4569L165.712 36.9949L151.479 45.1782C151.221 44.6627 150.77 44.2116 150.126 43.825C148.065 42.6652 144.716 42.6652 142.72 43.825C140.659 44.9849 140.659 46.9179 142.72 48.1422C143.428 48.5288 144.201 48.7866 145.103 48.9154L130.869 57.0987L145.489 65.5398C145.553 64.831 146.069 64.1222 147.035 63.6067C149.096 62.4469 152.445 62.4469 154.441 63.6067C156.502 64.7666 156.502 66.6996 154.441 67.9239C153.475 68.4394 152.316 68.7616 151.028 68.826L165.648 77.2671L195.853 59.805C198.494 58.323 198.494 55.9389 195.918 54.4569Z" fill="#D4ECFF"/>
<path d="M142.72 49.0442C143.106 49.2375 143.557 49.4308 144.008 49.5597L145.103 48.9153C144.201 48.7865 143.428 48.5287 142.72 48.1421C141.882 47.6911 141.432 47.0467 141.238 46.4668C141.045 47.3689 141.496 48.3354 142.72 49.0442Z" fill="white"/>
<path d="M155.987 66.184C156.245 65.2819 155.729 64.3154 154.506 63.6066C152.445 62.4468 149.096 62.4468 147.099 63.6066C146.133 64.1221 145.682 64.8309 145.553 65.5397L130.934 57.0986V58.0007L145.553 66.4418C145.618 65.733 146.133 65.0242 147.099 64.5087C149.16 63.3489 152.509 63.3489 154.506 64.5087C155.343 64.9598 155.794 65.6041 155.987 66.184Z" fill="white"/>
<path d="M114.704 63.7356V57.0987L107.748 59.6762L100.793 55.6167C100.535 55.9389 100.213 56.1966 99.7621 56.4544C97.7011 57.6142 94.3521 57.6142 92.3556 56.4544C90.3591 55.2945 90.2947 53.4259 92.2268 52.2661L93.8369 53.1682V45.0493H88.8134L88.2981 48.4644L79.9256 43.6317L53.1979 59.0962L47.7879 57.1632V63.8C47.7879 64.7666 48.4319 65.7331 49.72 66.4419L79.9256 83.9039L94.0945 75.7206C94.3521 76.2361 94.803 76.6871 95.447 77.0737C97.5079 78.2336 100.857 78.2336 102.853 77.0737C103.948 76.4294 104.399 75.6562 104.399 74.8185V69.7281L114.704 63.7356Z" fill="#173D7A"/>
<path d="M79.9256 43.6317L53.1979 59.0962L47.7879 57.1632V63.8C47.7879 64.7666 48.4319 65.7331 49.72 66.4419L79.9256 83.9039V43.6317Z" fill="#396CAA"/>
<path d="M92.6132 45.1138L92.42 45.5648L92.4844 45.6293C92.42 45.6293 92.3556 45.6937 92.3556 45.6937C91.1319 46.4025 90.6167 47.369 90.8743 48.2711C91.0031 47.6267 91.5183 47.0468 92.3556 46.5958C92.8064 46.338 93.3216 46.1447 93.8369 46.0159V45.1138H92.6132Z" fill="white"/>
<path d="M102.853 66.1197C102.209 65.7331 101.372 65.4754 100.534 65.3465L114.703 57.1632L100.792 49.1087C100.534 49.4309 100.212 49.6887 99.7614 49.9464C97.7005 51.1062 94.3514 51.1062 92.3549 49.9464C90.294 48.7866 90.294 46.8535 92.3549 45.6292C92.8057 45.3715 93.321 45.1782 93.8362 45.0493L79.9249 36.9949L49.6549 54.4569C47.1432 55.9389 47.1432 58.323 49.6549 59.7406L79.8605 77.2026L94.0294 69.0193C94.287 69.5348 94.7379 69.9859 95.3819 70.3725C97.4429 71.5323 100.792 71.5323 102.788 70.3725C104.914 69.2126 104.914 67.2796 102.853 66.1197Z" fill="#5793CE"/>
<path d="M102.853 70.3725C100.793 71.5323 97.4435 71.5323 95.447 70.3725C94.803 69.9859 94.3521 69.5348 94.0945 69.0193L79.9256 77.2027L49.6556 59.8051C48.5608 59.1607 47.9811 58.3875 47.7879 57.6143C47.5303 58.7097 48.1743 59.8695 49.6556 60.7072L79.8612 78.1692L94.0301 69.9859C94.2877 70.5014 94.7386 70.9524 95.3826 71.339C97.4435 72.4989 100.793 72.4989 102.789 71.339C104.013 70.6302 104.528 69.6637 104.27 68.7616C104.206 69.3415 103.691 69.9214 102.853 70.3725Z" fill="white"/>
<path d="M100.535 65.3465C100.921 65.4109 101.308 65.4754 101.63 65.6042L114.704 58.0009V57.0988L100.535 65.3465Z" fill="white"/>
<path d="M150.899 86.6103L143.042 82.0998C144.265 82.0354 145.489 81.7777 146.455 81.1977C147.292 80.6823 147.808 80.1023 147.936 79.458H148.001V79.0714V72.4345L141.367 75.0119L142.913 76.0429C141.496 76.0429 140.079 76.3006 139.049 76.945C138.083 77.4605 137.632 78.1693 137.503 78.8781L122.883 70.437L114.317 75.3985L113.416 72.4345L108.714 72.0479V79.3935L110.131 79.0069C110.453 79.1358 110.775 79.2647 111.033 79.3935C113.094 80.5534 113.094 82.4864 111.033 83.7107C108.972 84.8706 105.623 84.8706 103.626 83.7107C102.982 83.3241 102.531 82.8731 102.274 82.3576L94.4165 86.8681L88.1049 83.904V90.5409L118.31 108.003C120.822 109.485 124.944 109.485 127.52 108.003L157.726 90.5409V83.904L150.899 86.6103Z" fill="#2686C6"/>
<path d="M111.033 72.7567C110.711 72.5634 110.324 72.4346 110.002 72.3057L109.874 72.048L108.714 71.9835V72.8856C109.552 73.0145 110.389 73.2722 111.033 73.6588C111.87 74.1099 112.321 74.7543 112.514 75.3342C112.772 74.4321 112.256 73.4655 111.033 72.7567Z" fill="white"/>
<path d="M143.043 75.463C144.266 75.3986 145.49 75.1408 146.456 74.5609C148.517 73.4011 148.517 71.468 146.456 70.2437C144.395 69.0839 141.046 69.0839 139.05 70.2437C138.084 70.7592 137.633 71.468 137.504 72.1768L122.884 63.8002L108.715 71.9835C109.553 72.1123 110.39 72.3701 111.034 72.7567C113.095 73.9165 113.095 75.8496 111.034 77.0739C108.973 78.2337 105.624 78.2337 103.627 77.0739C102.983 76.6873 102.532 76.2362 102.275 75.7207L88.1059 83.904L118.311 101.366C120.823 102.848 124.945 102.848 127.521 101.366L157.727 83.904L143.043 75.463Z" fill="#3099F2"/>
<path d="M147.936 72.8855C147.808 73.5299 147.292 74.1098 146.455 74.5608C145.489 75.0763 144.33 75.3985 143.042 75.4629L144.33 76.2361C145.103 76.1073 145.811 75.8495 146.455 75.5274C147.679 74.7541 148.194 73.7876 147.936 72.8855Z" fill="white"/>
<path d="M127.456 101.366C124.944 102.848 120.822 102.848 118.246 101.366L88.0405 83.9039V84.806L118.246 102.268C120.758 103.75 124.88 103.75 127.456 102.268L157.661 84.806V83.9039L127.456 101.366Z" fill="white"/>
<path d="M62.2144 143.571C62.2144 143.571 59.9603 142.411 58.5434 144.151C57.1265 145.891 55.13 149.95 55.0656 152.656C55.0012 155.427 57.2553 155.234 58.5434 154.59C59.8959 153.945 63.7601 148.339 63.9533 147.244C64.211 146.149 63.6957 144.667 63.3093 144.344C62.9873 143.958 62.2144 143.571 62.2144 143.571Z" fill="#5793CE"/>
<path d="M62.7297 142.991L62.8585 145.375C62.8585 145.891 62.6009 146.342 62.2144 146.6C61.828 146.857 61.2484 146.986 60.4755 146.857C58.7366 146.6 58.6078 146.084 58.479 143.7C58.2858 141.38 62.7297 142.991 62.7297 142.991Z" fill="#D4ECFF"/>
<path d="M53.9063 138.996C53.9063 138.996 51.6522 137.836 50.2353 139.576C48.8184 141.316 46.8219 145.375 46.7575 148.082C46.6931 150.852 48.9472 150.659 50.2353 150.015C51.5878 149.37 55.452 143.764 55.6452 142.669C55.9028 141.574 55.3876 140.092 55.0012 139.769C54.6148 139.447 53.9063 138.996 53.9063 138.996Z" fill="#5793CE"/>
<path d="M54.3571 138.416L54.4859 140.8C54.4859 141.316 54.2283 141.767 53.8419 142.025C53.4554 142.282 52.8758 142.411 52.103 142.282C50.364 142.025 50.2352 141.509 50.1064 139.125C49.9132 136.805 54.3571 138.416 54.3571 138.416Z" fill="#D4ECFF"/>
<path d="M74.7733 94.9224C74.0648 83.9039 62.8585 96.5333 62.8585 96.5333L55.1944 104.072L48.2388 111.676C46.8863 113.158 46.2422 115.155 46.4998 117.153L49.3336 138.481C49.4624 139.512 50.3641 140.285 51.459 140.285C51.781 140.285 52.103 140.285 52.4894 140.221C55.0012 139.834 54.808 137.45 54.808 137.45L54.2927 117.475L68.8481 108.712C68.7837 108.776 75.4173 105.941 74.7733 94.9224Z" fill="#173D7A"/>
<path d="M83.1458 99.1107C82.4374 88.0923 71.231 100.722 71.231 100.722L63.5669 108.261L56.6113 115.864C55.2588 117.346 54.6148 119.343 54.8724 121.341L57.7062 142.669C57.835 143.7 58.7366 144.473 59.8315 144.473C60.1535 144.473 60.4755 144.473 60.862 144.409C63.3737 144.022 63.1805 141.638 63.1805 141.638L62.6653 121.663L77.2206 112.9C77.1562 112.964 83.7898 110.129 83.1458 99.1107Z" fill="#173D7A"/>
<path d="M76.5122 63.8C85.0135 67.344 84.8847 72.37 84.8847 72.37C84.8847 72.37 83.2102 90.863 83.7899 103.17C84.0475 108.325 56.4181 108.712 60.5399 94.9868C65.3703 78.7491 63.5669 65.6042 65.8855 63.6067C68.0752 61.6092 74.258 62.8979 76.5122 63.8Z" fill="#3099F2"/>
<path d="M79.2172 68.2461C78.7663 69.9858 76.5122 70.8879 74.1292 70.308C71.7463 69.7281 70.265 67.795 70.6514 66.0553C71.1022 64.3155 73.3564 63.4134 75.7393 63.9934C78.1223 64.6377 79.668 66.5063 79.2172 68.2461Z" fill="#FFC2B0"/>
<path d="M75.8037 70.3079L74.258 71.9832C74.0648 72.1765 73.936 72.4987 74.0004 72.8209L75.0953 82.164C75.0953 82.4218 75.0309 82.6795 74.9021 82.8728L71.5531 87.3189C71.4242 87.5122 71.1022 87.4477 71.0378 87.2544L69.1701 81.4552C69.1057 81.2619 69.1057 81.0042 69.1701 80.8109L72.3903 72.3698C72.4547 72.1765 72.4547 71.9832 72.4547 71.7899L72.0039 69.5347L75.8037 70.3079Z" fill="white"/>
<path d="M75.6105 70.8879C75.0953 70.8879 74.5801 70.8235 74.0648 70.6946C71.4887 70.0502 69.8141 67.9239 70.3294 65.9908C70.587 65.0243 71.2954 64.251 72.3903 63.8C73.4208 63.4134 74.6445 63.349 75.8681 63.6711C77.0918 63.9933 78.1223 64.6377 78.8307 65.4753C79.5392 66.3774 79.8612 67.4084 79.6036 68.3749C79.346 69.3415 78.6375 70.1147 77.5426 70.5657C76.963 70.759 76.319 70.8879 75.6105 70.8879ZM74.3224 64.251C73.7428 64.251 73.1632 64.3799 72.7123 64.5732C71.8751 64.8954 71.2954 65.4753 71.1666 66.1841C70.7802 67.6661 72.1971 69.3415 74.3224 69.9214C75.3529 70.1791 76.4478 70.1791 77.285 69.7925C78.1223 69.4703 78.7019 68.8904 78.8307 68.1816C79.0239 67.4728 78.8307 66.6996 78.2511 65.9908C77.6715 65.282 76.7698 64.7021 75.6749 64.4444C75.2241 64.3155 74.7733 64.251 74.3224 64.251Z" fill="white"/>
<path d="M73.0988 63.4133C73.0988 63.4133 73.1632 63.7354 73.0344 66.4417C72.97 67.2794 75.9325 68.117 76.7054 67.3438C77.4783 66.5706 77.1562 65.7974 77.3494 62.8978C77.5427 59.9982 73.0988 63.4133 73.0988 63.4133Z" fill="#FFC2B0"/>
<path d="M77.3494 62.8335C77.3494 62.8335 76.641 65.5398 73.0343 66.5708L73.0987 64.1222L77.3494 62.8335Z" fill="#EA9C92"/>
<path d="M79.6036 56.0678C80.5052 59.5473 78.3799 63.1557 74.9021 64.0578C71.4242 64.9599 67.8176 62.8335 66.916 59.354C66.0143 55.8745 68.1396 52.2661 71.6175 51.364C75.1597 50.3974 78.7019 52.5238 79.6036 56.0678Z" fill="#FFC2B0"/>
<path d="M74.7732 57.9365C74.7732 57.9365 71.1666 59.4829 68.6548 59.4829C66.1431 59.4829 66.7227 57.421 66.7227 57.421L74.1292 56.3256L74.7732 57.9365Z" fill="#EA9C92"/>
<path d="M67.9464 58.323C67.9464 58.323 71.1022 56.9698 73.8716 57.5497C74.5157 57.6786 75.0953 58.0008 75.5461 58.5163C75.6749 58.7096 75.8681 58.8385 76.0614 58.9029C76.5766 59.0318 77.3494 56.9698 78.3155 56.9054C79.2816 56.841 79.9256 57.5497 79.1528 58.774C78.3799 59.9983 78.6375 61.4159 79.0239 61.6092C79.4104 61.8025 83.8543 58.7096 80.4408 52.0727C77.0918 45.4359 67.882 49.1731 66.5939 50.5263C66.5939 50.5263 65.177 51.7505 64.0822 50.6551C63.9534 50.7196 62.6653 60.256 67.9464 58.323Z" fill="#D4ECFF"/>
<path d="M80.0544 85.837V90.863C80.0544 91.4429 79.7968 91.9584 79.4104 92.345L69.1701 101.688L70.3294 103.492L84.4339 94.2136C85.078 93.7626 85.4644 93.0538 85.5288 92.2805L86.4948 83.0018L80.0544 85.837Z" fill="#FFC2B0"/>
<path d="M84.1119 69.8569C84.1119 69.8569 87.2033 74.5607 88.3625 86.8679C88.3625 86.8679 83.017 88.6077 80.0544 87.6411C77.0274 86.6102 84.1119 69.8569 84.1119 69.8569Z" fill="#3099F2"/>
<path d="M79.4748 75.7849C79.4748 75.7849 78.2511 82.2929 78.1867 85.3858C78.1867 86.2235 78.7019 86.9967 79.4748 87.2544V75.7849Z" fill="#2686C6"/>
<path d="M76.8342 108.196L74.5801 107.874L59.9603 99.4329C59.5095 99.1751 58.6722 99.1751 58.157 99.4973L47.7879 105.49L46.4354 105.297V106.65C46.4354 106.843 46.4998 106.972 46.7574 107.101L63.3093 116.702C63.7602 116.959 64.5974 116.959 65.1126 116.637L76.3834 110.129C76.7054 109.936 76.8342 109.743 76.8342 109.485V108.196Z" fill="#5793CE"/>
<path d="M65.8211 102.848L64.7906 102.268H53.3911L47.7879 105.49L46.4354 105.297V106.65C46.4354 106.843 46.4998 106.972 46.7574 107.101L63.3093 116.702C63.5669 116.83 63.889 116.895 64.2754 116.895L65.8211 102.848Z" fill="#396CAA"/>
<path d="M46.9506 105.425L46.371 105.361V106.714C46.371 106.907 46.4354 107.036 46.693 107.165L47.015 107.358V105.425H46.9506Z" fill="#5793CE"/>
<path d="M63.4381 116.831C63.8889 117.024 64.533 116.959 64.9838 116.766V114.446H63.4381V116.831Z" fill="#5793CE"/>
<path d="M63.2453 115.413L46.6934 105.812C46.2426 105.554 46.307 105.039 46.8222 104.781L58.0929 98.2731C58.6082 97.9509 59.4454 97.9509 59.8962 98.2086L76.4481 107.81C76.899 108.067 76.8345 108.583 76.3193 108.84L65.113 115.348C64.5333 115.606 63.7605 115.671 63.2453 115.413Z" fill="white"/>
<path d="M62.9873 113.931L49.2048 105.941C48.8184 105.747 48.8828 105.296 49.3336 105.039L55.3876 101.624C55.8384 101.366 56.5469 101.366 56.9333 101.559L70.7158 109.549C71.1022 109.742 71.0378 110.194 70.587 110.451L64.533 113.866C64.0821 114.124 63.3737 114.189 62.9873 113.931Z" fill="#D4ECFF"/>
<path d="M58.7366 97.9509L58.5434 99.1108C58.4146 100.077 58.4146 101.108 58.6078 102.075L58.801 103.106C58.9298 103.686 59.3806 104.137 59.9603 104.201C60.4111 104.266 60.7975 103.943 60.8619 103.492L61.1196 101.044C61.1196 101.044 61.7636 101.881 62.0212 101.881C62.3432 101.881 61.6992 99.4329 60.9907 98.0154C60.4111 96.5978 58.7366 97.9509 58.7366 97.9509Z" fill="#FFC2B0"/>
<path d="M64.3398 79.7156L62.5365 83.2596C62.0856 84.0972 61.8924 84.9993 61.828 85.9014L61.0552 97.9509L58.7366 97.8864L57.7062 84.355C57.6417 83.9684 57.7062 83.5173 57.7706 83.1307L58.9942 76.3005L64.3398 79.7156Z" fill="#FFC2B0"/>
<path d="M62.7297 116.315L61.3128 114.511L46.693 106.07C46.2422 105.812 45.8558 105.039 45.8558 104.459V92.4738L45.0185 91.3784L45.7914 90.9273C45.9202 90.7984 46.1134 90.8629 46.371 90.9917L62.9229 100.528C63.3737 100.786 63.7601 101.559 63.7601 102.139V115.155C63.7601 115.477 63.6313 115.735 63.4381 115.864L62.7297 116.315Z" fill="#173D7A"/>
<path d="M52.6182 109.485L51.5877 108.905L45.8558 98.9817V92.4738L45.0185 91.3783L45.7914 90.9273C45.9202 90.7984 46.1134 90.8629 46.371 90.9917L62.9229 100.528C63.1805 100.657 63.3737 100.915 63.5669 101.237L52.6182 109.485Z" fill="#396CAA"/>
<path d="M45.4049 91.8295L45.0185 91.314L45.7914 90.863C45.9202 90.7341 46.1134 90.7985 46.371 90.9274L46.693 91.1207L45.4049 91.8295Z" fill="#5793CE"/>
<path d="M63.1161 100.593C63.5025 100.915 63.7601 101.495 63.8245 102.01L62.2144 102.977L61.4416 101.624L63.1161 100.593Z" fill="#274F89"/>
<path d="M62.15 100.979L45.5982 91.3784C45.1473 91.1207 44.7609 91.3784 44.7609 92.0228V105.039C44.7609 105.683 45.1473 106.392 45.5982 106.65L62.15 116.251C62.6009 116.508 62.9873 116.251 62.9873 115.606V102.59C62.9873 101.946 62.6009 101.237 62.15 100.979Z" fill="#5793CE"/>
<path d="M70.3294 103.492L70.0718 104.072C69.7497 104.716 69.2989 105.232 68.6549 105.619L66.9804 106.65C66.4651 106.972 65.8211 106.972 65.3059 106.714C65.3059 106.714 65.2415 106.714 65.2415 106.65C64.7262 106.327 64.6618 105.554 65.1126 105.103L66.8516 103.363C66.8516 103.363 65.8855 104.072 65.6279 103.814C65.4347 103.621 66.5939 102.526 67.4312 102.526C68.3328 102.461 69.1701 101.817 69.1701 101.817L70.3294 103.492Z" fill="#FFC2B0"/>
<path d="M65.9499 63.6067C65.9499 63.6067 59.6383 70.5013 57.1265 76.7515C57.1265 76.7515 59.2518 80.6177 64.533 82.1641C69.8141 83.7106 65.9499 63.6067 65.9499 63.6067Z" fill="#3099F2"/>
<path d="M63.3737 81.7775L64.4042 71.9188L62.0212 81.1975C62.4077 81.3908 62.8585 81.5842 63.3737 81.7775Z" fill="#2686C6"/>
<path d="M70.6514 62.1891L68.9769 61.738C68.9769 61.738 69.8141 63.0267 70.9734 63.3489C72.1327 63.6711 72.3259 62.7046 72.3259 62.7046L70.6514 62.1891Z" fill="white"/>
<path d="M79.7324 59.4828C79.7324 59.9982 79.2815 60.4493 78.7663 60.4493C78.2511 60.4493 77.8002 59.9982 77.8002 59.4828C77.8002 58.9673 78.2511 58.5162 78.7663 58.5162C79.2815 58.5162 79.7324 58.9673 79.7324 59.4828Z" fill="white"/>
<path d="M183.938 140.736L175.115 135.581L183.938 130.491L192.826 135.581L183.938 140.736Z" fill="#EFEFEF"/>
<path d="M192.826 129.782L183.938 134.873V124.692L192.826 119.537V129.782Z" fill="#2686C6"/>
<path d="M183.938 124.692L175.115 119.537L183.938 114.447L192.826 119.537L183.938 124.692Z" fill="#3099F2"/>
<path d="M183.938 134.873L175.115 129.782V119.537L183.938 124.692V134.873Z" fill="#3099F2"/>
</svg>
